# 3ds Max Wavefront OBJ Exporter v0.99 - (c)2007 guruware
# File Created: 10.05.2024 11:37:18

mtllib MIcro.mtl

#
# object microwave_oven_001
#

v  1.1945 0.1706 1.9617
v  1.1945 2.0229 1.9617
v  1.0970 2.0229 1.9617
v  1.0970 0.1706 1.9617
v  1.1945 0.1706 1.8758
v  1.1945 2.0229 1.8758
v  1.0970 2.0229 1.8758
v  1.0970 0.1706 1.8758
v  1.2270 1.9711 1.9859
v  1.2270 1.9711 1.4091
v  1.2270 2.0747 1.4091
v  1.2270 2.0747 1.9859
v  1.0716 2.0747 1.4091
v  1.0716 2.0747 1.9859
v  1.2270 0.1188 1.9859
v  1.2270 0.1188 1.4091
v  1.2270 0.2225 1.4091
v  1.2270 0.2225 1.9859
v  1.0716 0.2225 1.4091
v  1.0716 0.2225 1.9859
v  1.0716 0.1188 1.9859
v  1.0716 1.9711 1.9859
v  2.1495 0.0000 1.5183
v  2.1495 2.1934 1.5183
v  -2.1495 2.1934 1.5183
v  -2.1495 0.0000 1.5183
v  2.1495 2.1934 -1.5183
v  -2.1495 2.1934 -1.5183
v  1.4148 0.0000 1.6702
v  1.4148 2.1934 1.6702
v  -2.1468 2.1934 1.6702
v  -2.1468 0.0000 1.6702
v  1.0716 0.1188 1.4091
v  2.1495 0.0000 1.6702
v  2.1495 2.1934 1.6702
v  1.4310 2.1934 1.6702
v  1.4310 0.0000 1.6702
v  1.4310 2.1934 1.5445
v  2.1495 2.1934 1.5445
v  -2.1468 2.1934 1.5445
v  1.4148 2.1934 1.5445
v  1.4185 0.2420 1.6782
v  1.4185 1.9514 1.6782
v  -1.7789 1.9514 1.6782
v  -1.7789 0.2420 1.6782
v  1.0716 1.9711 1.4091
v  0.7704 0.4000 1.6844
v  0.7704 1.7933 1.6844
v  -1.6451 1.7933 1.6844
v  -1.6451 0.4000 1.6844
v  -2.1468 0.0000 1.5445
v  1.8173 0.0910 1.7024
v  1.8173 0.0910 1.6634
v  1.8537 0.1541 1.6634
v  1.8537 0.1541 1.7024
v  1.7080 0.1541 1.7024
v  1.7080 0.1541 1.6634
v  1.7444 0.0910 1.6634
v  1.7444 0.0910 1.7024
v  1.7444 0.2172 1.7024
v  1.7444 0.2172 1.6634
v  1.8173 0.2172 1.7024
v  1.8173 0.2172 1.6634
v  1.6126 0.0910 1.7024
v  1.6126 0.0910 1.6634
v  1.6491 0.1541 1.6634
v  1.6491 0.1541 1.7024
v  1.5032 0.1541 1.7024
v  1.5032 0.1541 1.6634
v  1.5397 0.0910 1.6634
v  1.5397 0.0910 1.7024
v  1.5397 0.2172 1.7024
v  1.5397 0.2172 1.6634
v  1.6126 0.2172 1.7024
v  1.6126 0.2172 1.6634
v  1.6699 0.4678 1.7463
v  1.8483 0.4453 1.7463
v  1.9771 0.5706 1.7463
v  1.9593 0.7495 1.7463
v  1.8085 0.8472 1.7463
v  1.6380 0.7901 1.7463
v  1.5764 0.6213 1.7463
v  1.6699 0.4678 1.6289
v  1.8483 0.4453 1.6289
v  1.5764 0.6213 1.6289
v  1.9771 0.5706 1.6289
v  1.9593 0.7495 1.6289
v  1.6380 0.7901 1.6289
v  1.8085 0.8472 1.6289
v  1.8085 1.4633 1.6289
v  1.6380 1.4062 1.6289
v  1.6380 1.4062 1.7463
v  1.8085 1.4633 1.7463
v  1.9593 1.3656 1.6289
v  1.9593 1.3656 1.7463
v  1.8483 1.0614 1.6289
v  1.9771 1.1868 1.6289
v  1.9771 1.1868 1.7463
v  1.8483 1.0614 1.7463
v  1.5764 1.2374 1.6289
v  1.5764 1.2374 1.7463
v  1.6699 1.0839 1.6289
v  1.6699 1.0839 1.7463
v  2.0896 1.8922 1.6723
v  2.0896 2.0598 1.6723
v  1.4909 2.0598 1.6723
v  1.4909 1.8922 1.6723
v  2.0197 0.0910 1.7024
v  2.0562 0.1541 1.7024
v  1.9103 0.1541 1.7024
v  1.9468 0.0910 1.7024
v  2.0562 0.1541 1.6634
v  2.0197 0.2172 1.6634
v  2.0197 0.2172 1.7024
v  1.9468 0.2172 1.6634
v  1.9468 0.2172 1.7024
v  1.9103 0.1541 1.6634
v  1.9468 0.0910 1.6634
v  2.1495 0.0000 -1.5183
v  2.1495 0.0000 1.5445
v  2.0197 0.0910 1.6634
v  -2.1495 0.0000 -1.5183
# 122 vertices

vn 0.0000 0.0000 1.0000
vn 1.0000 0.0000 -0.0000
vn -1.0000 0.0000 -0.0000
vn 0.0000 1.0000 -0.0000
vn 0.0000 0.0000 -1.0000
vn 0.8661 -0.4998 -0.0000
vn -0.8660 -0.5000 -0.0000
vn -0.8660 0.5000 -0.0000
vn 0.8661 0.4998 -0.0000
vn 0.8659 -0.5003 -0.0000
vn -0.8658 -0.5005 -0.0000
vn -0.8658 0.5005 -0.0000
vn 0.8659 0.5003 -0.0000
vn -0.1254 -0.9921 -0.0000
vn -0.8539 -0.5205 -0.0000
vn 0.9951 0.0986 -0.0000
vn -0.9394 0.3428 -0.0000
vn 0.6975 -0.7166 -0.0000
vn 0.5434 0.8395 -0.0000
vn -0.3175 0.9483 -0.0000
vn 0.8658 0.5005 -0.0000
vn -0.8659 0.5003 -0.0000
vn -0.8659 -0.5003 -0.0000
vn 0.8658 -0.5005 -0.0000
vn 0.0000 -1.0000 -0.0000
# 25 vertex normals

vt 0.8807 0.4257 0.0000
vt 0.8807 0.4252 0.0000
vt 0.8806 0.4247 0.0000
vt 0.8806 0.4251 0.0000
vt 0.8805 0.4251 0.0000
vt 0.8805 0.4247 0.0000
vt 0.9008 0.7953 0.0000
vt 0.9007 0.7953 0.0000
vt 0.9006 0.7959 0.0000
vt 0.9006 0.7960 0.0000
vt 0.9007 0.7954 0.0000
vt 0.9008 0.7949 0.0000
vt 0.8995 0.7959 0.0000
vt 0.8995 0.7960 0.0000
vt 0.9005 0.7960 0.0000
vt 0.8996 0.7959 0.0000
vt 0.8490 0.2452 0.0000
vt 0.8493 0.2452 0.0000
vt 0.8493 0.2455 0.0000
vt 0.8490 0.2455 0.0000
vt 0.8490 0.2459 0.0000
vt 0.8487 0.2459 0.0000
vt 0.8487 0.2456 0.0000
vt 0.8490 0.2456 0.0000
vt 0.8801 0.4247 0.0000
vt 0.8801 0.4239 0.0000
vt 0.8806 0.4239 0.0000
vt 0.9005 0.7959 0.0000
vt 0.8806 0.4260 0.0000
vt 0.8806 0.4252 0.0000
vt 0.8791 0.4258 0.0000
vt 0.8791 0.4257 0.0000
vt 0.8807 0.4244 0.0000
vt 0.8807 0.4239 0.0000
vt 0.8969 0.7922 0.0000
vt 0.8964 0.7922 0.0000
vt 0.8964 0.7917 0.0000
vt 0.8969 0.7917 0.0000
vt 0.8996 0.7960 0.0000
vt 0.3183 0.3369 0.0000
vt 0.3183 0.3365 0.0000
vt 0.3186 0.3365 0.0000
vt 0.3186 0.3369 0.0000
vt 0.8806 0.4258 0.0000
vt 0.8961 0.5620 0.0000
vt 0.8960 0.5620 0.0000
vt 0.8960 0.5619 0.0000
vt 0.8930 0.7907 0.0000
vt 0.8944 0.7953 0.0000
vt 0.8944 0.7945 0.0000
vt 0.8945 0.7945 0.0000
vt 0.8945 0.7953 0.0000
vt 0.8493 0.2459 0.0000
vt 0.8804 0.4257 0.0000
vt 0.8493 0.2456 0.0000
# 55 texture coords

o microwave_oven_001
g microwave_oven_001
usemtl Material
s 1
f 1/1/1 2/2/1 3/2/1 
f 3/2/1 4/1/1 1/1/1 
f 5/3/2 6/4/2 2/5/2 
f 2/5/2 1/6/2 5/3/2 
f 3/2/3 7/4/3 8/3/3 
f 8/3/3 4/1/3 3/2/3 
f 9/7/2 10/7/2 11/7/2 
f 11/7/2 12/8/2 9/7/2 
f 12/9/4 11/10/4 13/10/4 
f 13/10/4 14/9/4 12/9/4 
f 15/11/2 16/12/2 17/12/2 
f 17/12/2 18/12/2 15/11/2 
f 18/13/4 17/14/4 19/14/4 
f 19/14/4 20/13/4 18/13/4 
f 5/3/5 8/3/5 7/4/5 
f 7/4/5 6/4/5 5/3/5 
f 21/15/1 15/11/1 18/12/1 
f 18/12/1 20/13/1 21/15/1 
f 9/7/1 12/9/1 14/9/1 
f 14/9/1 22/16/1 9/7/1 
f 23/17/1 24/18/1 25/19/1 
f 25/19/1 26/20/1 23/17/1 
f 24/21/4 27/22/4 28/23/4 
f 28/23/4 25/24/4 24/21/4 
f 29/25/1 30/26/1 31/27/1 
f 31/27/1 32/3/1 29/25/1 
f 21/15/3 20/13/3 19/14/3 
f 19/14/3 33/28/3 21/15/3 
f 34/29/1 35/30/1 36/30/1 
f 36/30/1 37/29/1 34/29/1 
f 38/31/4 36/31/4 35/32/4 
f 35/32/4 39/32/4 38/31/4 
f 40/33/4 31/33/4 30/34/4 
f 30/34/4 41/34/4 40/33/4 
f 42/35/1 43/36/1 44/37/1 
f 44/37/1 45/38/1 42/35/1 
f 13/10/3 46/39/3 22/16/3 
f 22/16/3 14/9/3 13/10/3 
f 47/40/1 48/41/1 49/42/1 
f 49/42/1 50/43/1 47/40/1 
f 40/33/3 51/44/3 32/3/3 
f 32/3/3 31/27/3 40/33/3 
f 52/45/6 53/45/6 54/45/6 
f 54/45/6 55/45/6 52/45/6 
f 56/46/7 57/45/7 58/45/7 
f 58/45/7 59/45/7 56/46/7 
f 60/45/8 61/45/8 57/45/8 
f 57/45/8 56/46/8 60/45/8 
f 60/45/1 56/46/1 55/45/1 
f 55/45/1 62/45/1 60/45/1 
f 62/45/4 63/45/4 61/45/4 
f 61/45/4 60/45/4 62/45/4 
f 55/45/9 54/45/9 63/45/9 
f 63/45/9 62/45/9 55/45/9 
f 52/45/1 55/45/1 56/46/1 
f 56/46/1 59/45/1 52/45/1 
f 64/46/10 65/46/10 66/46/10 
f 66/46/10 67/45/10 64/46/10 
f 68/45/11 69/47/11 70/47/11 
f 70/47/11 71/46/11 68/45/11 
f 72/45/12 73/45/12 69/47/12 
f 69/47/12 68/45/12 72/45/12 
f 72/45/1 68/45/1 67/45/1 
f 67/45/1 74/46/1 72/45/1 
f 74/46/4 75/46/4 73/45/4 
f 73/45/4 72/45/4 74/46/4 
f 67/45/13 66/46/13 75/46/13 
f 75/46/13 74/46/13 67/45/13 
f 64/46/1 67/45/1 68/45/1 
f 68/45/1 71/46/1 64/46/1 
f 76/48/1 77/48/1 78/48/1 
f 78/48/1 79/48/1 80/48/1 
f 78/48/1 80/48/1 81/48/1 
f 76/48/1 78/48/1 81/48/1 
f 82/48/1 76/48/1 81/48/1 
f 83/48/14 84/48/14 77/48/14 
f 77/48/14 76/48/14 83/48/14 
f 85/48/15 83/48/15 76/48/15 
f 76/48/15 82/48/15 85/48/15 
f 86/48/16 87/48/16 79/48/16 
f 79/48/16 78/48/16 86/48/16 
f 88/48/17 85/48/17 82/48/17 
f 82/48/17 81/48/17 88/48/17 
f 84/48/18 86/48/18 78/48/18 
f 78/48/18 77/48/18 84/48/18 
f 87/48/19 89/48/19 80/48/19 
f 80/48/19 79/48/19 87/48/19 
f 90/48/20 91/48/20 92/48/20 
f 92/48/20 93/48/20 90/48/20 
f 94/48/19 90/48/19 93/48/19 
f 93/48/19 95/48/19 94/48/19 
f 96/48/18 97/48/18 98/48/18 
f 98/48/18 99/48/18 96/48/18 
f 91/48/17 100/48/17 101/48/17 
f 101/48/17 92/48/17 91/48/17 
f 97/48/16 94/48/16 95/48/16 
f 95/48/16 98/48/16 97/48/16 
f 100/48/15 102/48/15 103/48/15 
f 103/48/15 101/48/15 100/48/15 
f 102/48/14 96/48/14 99/48/14 
f 99/48/14 103/48/14 102/48/14 
f 104/49/1 105/50/1 106/51/1 
f 106/51/1 107/52/1 104/49/1 
f 108/45/1 109/45/1 110/45/1 
f 110/45/1 111/45/1 108/45/1 
f 109/45/21 112/45/21 113/45/21 
f 113/45/21 114/45/21 109/45/21 
f 114/45/4 113/45/4 115/45/4 
f 115/45/4 116/45/4 114/45/4 
f 116/45/1 110/45/1 109/45/1 
f 109/45/1 114/45/1 116/45/1 
f 116/45/22 115/45/22 117/45/22 
f 117/45/22 110/45/22 116/45/22 
f 110/45/23 117/45/23 118/45/23 
f 118/45/23 111/45/23 110/45/23 
f 27/22/2 24/21/2 23/17/2 
f 23/17/2 119/53/2 27/22/2 
f 120/54/2 39/32/2 35/32/2 
f 35/32/2 34/54/2 120/54/2 
f 108/45/24 121/45/24 112/45/24 
f 112/45/24 109/45/24 108/45/24 
f 89/48/20 88/48/20 81/48/20 
f 81/48/20 80/48/20 89/48/20 
f 103/48/1 99/48/1 98/48/1 
f 98/48/1 95/48/1 93/48/1 
f 98/48/1 93/48/1 92/48/1 
f 103/48/1 98/48/1 92/48/1 
f 101/48/1 103/48/1 92/48/1 
f 25/19/3 28/23/3 122/55/3 
f 122/55/3 26/20/3 25/19/3 
f 27/22/5 119/53/5 122/55/5 
f 122/55/5 28/23/5 27/22/5 
f 122/55/25 119/53/25 23/17/25 
f 23/17/25 26/20/25 122/55/25 
f 51/44/25 120/54/25 34/54/25 
f 34/54/25 32/3/25 51/44/25 
f 15/11/25 21/15/25 33/28/25 
f 33/28/25 16/12/25 15/11/25 
f 9/7/25 22/16/25 46/39/25 
f 46/39/25 10/7/25 9/7/25 
f 71/46/25 70/47/25 65/46/25 
f 65/46/25 64/46/25 71/46/25 
f 59/45/25 58/45/25 53/45/25 
f 53/45/25 52/45/25 59/45/25 
f 121/45/25 108/45/25 111/45/25 
f 111/45/25 118/45/25 121/45/25 
# 146 faces

