# 3ds Max Wavefront OBJ Exporter v0.99 - (c)2007 guruware
# File Created: 10.05.2024 11:27:18

mtllib Refrigerador.mtl

#
# object fridge_001
#

v  -0.3559 1.8800 0.9507
v  -0.8749 1.8800 0.8980
v  -0.8749 0.1541 0.8980
v  -0.3559 0.1541 0.9507
v  -0.3559 1.9271 0.9507
v  0.3559 1.9271 0.9507
v  0.3559 4.6912 0.9507
v  -0.3559 4.6912 0.9507
v  0.3559 0.1541 0.9507
v  0.3559 1.8800 0.9507
v  0.8749 1.8800 0.8980
v  0.8749 0.1541 0.8980
v  -0.8749 1.8800 0.7557
v  -0.8749 0.1541 0.7557
v  0.8575 4.7168 -0.7730
v  0.8575 4.7168 0.7730
v  0.8575 0.0000 0.7730
v  0.8575 0.0000 -0.7730
v  -0.8575 4.7168 0.7730
v  -0.8575 4.7168 -0.7730
v  -0.8575 0.0000 -0.7730
v  -0.8575 0.0000 0.7730
v  -0.8749 4.6912 0.7557
v  -0.8749 4.6912 0.8980
v  0.8749 4.6912 0.8980
v  0.8749 4.6912 0.7557
v  -0.8749 1.9271 0.8980
v  0.8749 1.9271 0.8980
v  0.8749 1.9271 0.7557
v  -0.8749 1.9271 0.7557
v  0.8749 1.8800 0.7557
v  0.8749 0.1541 0.7557
v  0.7641 4.5500 0.9125
v  0.4667 4.5500 0.9427
v  0.4667 4.4624 0.9427
v  0.7641 4.4624 0.9125
v  0.8749 4.8506 0.9767
v  0.8749 4.8506 -0.7730
v  0.3559 4.8506 1.0294
v  0.8749 4.7168 0.9767
v  0.8749 4.7168 -0.7730
v  -0.8749 4.8506 0.9767
v  -0.8749 4.8506 -0.7730
v  -0.8749 4.7168 -0.7730
v  -0.8749 4.7168 0.9767
v  0.3559 4.7168 1.0294
v  -0.3559 4.8506 1.0294
v  -0.3559 4.7168 1.0294
v  -0.6526 4.5220 0.9771
v  -0.5782 4.5220 0.9771
v  -0.5782 2.1205 0.9771
v  -0.6526 2.1205 0.9771
v  -0.5782 4.5886 1.0514
v  -0.5782 2.0553 1.0514
v  -0.6526 4.5886 1.0514
v  -0.6526 2.0553 1.0514
v  -0.5782 2.0553 0.8288
v  -0.5782 2.1205 0.8288
v  -0.5782 4.5886 0.8288
v  -0.6526 4.5886 0.8288
v  -0.6526 4.5220 0.8288
v  -0.5782 4.5220 0.8288
v  -0.6526 2.1205 0.8288
v  -0.6526 2.0553 0.8288
v  -0.6526 1.7119 0.9771
v  -0.5782 1.7119 0.9771
v  -0.5782 0.3266 0.9771
v  -0.6526 0.3266 0.9771
v  -0.5782 1.7785 1.0514
v  -0.5782 0.2614 1.0514
v  -0.6526 1.7785 1.0514
v  -0.6526 0.2614 1.0514
v  -0.5782 0.2614 0.8288
v  -0.5782 0.3266 0.8288
v  -0.5782 1.7785 0.8288
v  -0.6526 1.7785 0.8288
v  -0.6526 1.7119 0.8288
v  -0.5782 1.7119 0.8288
v  -0.6526 0.3266 0.8288
v  -0.6526 0.2614 0.8288
# 80 vertices

vn -0.0505 0.0000 0.9987
vn -0.1009 0.0000 0.9949
vn 0.0505 0.0000 0.9987
vn 0.1009 0.0000 0.9949
vn -1.0000 0.0000 -0.0000
vn 1.0000 0.0000 -0.0000
vn 0.0000 1.0000 -0.0000
vn 0.0000 0.0000 1.0000
vn 0.1010 0.0000 0.9949
vn 0.0000 0.0000 -1.0000
vn 0.0000 -1.0000 -0.0000
# 11 vertex normals

vt 0.9512 0.1321 0.0000
vt 0.9512 0.1324 0.0000
vt 0.9503 0.1324 0.0000
vt 0.9503 0.1321 0.0000
vt 0.9528 0.1303 0.0000
vt 0.9524 0.1303 0.0000
vt 0.9524 0.1287 0.0000
vt 0.9528 0.1287 0.0000
vt 0.9503 0.1317 0.0000
vt 0.9512 0.1317 0.0000
vt 0.9512 0.1314 0.0000
vt 0.9503 0.1314 0.0000
vt 0.9526 0.1303 0.0000
vt 0.9526 0.1313 0.0000
vt 0.9504 0.1287 0.0000
vt 0.9512 0.1287 0.0000
vt 0.9504 0.1314 0.0000
vt 0.9521 0.1287 0.0000
vt 0.9521 0.1314 0.0000
vt 0.9522 0.1313 0.0000
vt 0.9521 0.1313 0.0000
vt 0.9521 0.1303 0.0000
vt 0.9522 0.1303 0.0000
vt 0.9521 0.1310 0.0000
vt 0.9521 0.1306 0.0000
vt 0.9494 0.1314 0.0000
vt 0.9494 0.1287 0.0000
vt 0.9531 0.1287 0.0000
vt 0.9531 0.1303 0.0000
vt 0.9529 0.1303 0.0000
vt 0.9530 0.1303 0.0000
vt 0.9530 0.1319 0.0000
vt 0.9529 0.1319 0.0000
vt 0.9531 0.1319 0.0000
vt 0.9522 0.1310 0.0000
vt 0.9522 0.1306 0.0000
vt 0.9523 0.1303 0.0000
vt 0.9523 0.1313 0.0000
vt 0.9527 0.1303 0.0000
vt 0.9527 0.1313 0.0000
vt 0.8765 0.0656 0.0000
vt 0.8765 0.0720 0.0000
vt 0.8701 0.0720 0.0000
vt 0.8701 0.0656 0.0000
vt 0.9522 0.1315 0.0000
vt 0.9523 0.1323 0.0000
vt 0.9519 0.1314 0.0000
vt 0.9524 0.1312 0.0000
vt 0.9525 0.1312 0.0000
vt 0.9525 0.1322 0.0000
vt 0.9519 0.1318 0.0000
vt 0.9527 0.1310 0.0000
vt 0.9528 0.1310 0.0000
vt 0.9528 0.1313 0.0000
vt 0.9515 0.1314 0.0000
vt 0.9512 0.1315 0.0000
vt 0.9527 0.1306 0.0000
vt 0.9528 0.1306 0.0000
vt 0.8977 0.5629 0.0000
vt 0.8977 0.5624 0.0000
vt 0.8978 0.5623 0.0000
vt 0.8978 0.5629 0.0000
vt 0.8977 0.5630 0.0000
vt 0.8978 0.5617 0.0000
vt 0.8964 0.5628 0.0000
vt 0.8964 0.5629 0.0000
vt 0.8963 0.5629 0.0000
vt 0.8963 0.5628 0.0000
vt 0.8976 0.5628 0.0000
vt 0.8976 0.5631 0.0000
vt 0.8975 0.5624 0.0000
vt 0.8975 0.5627 0.0000
vt 0.8976 0.5624 0.0000
vt 0.8976 0.5627 0.0000
# 74 texture coords

o fridge_001
g fridge_001
usemtl Material
s 1
f 1/1/1 2/2/2 3/3/2 
f 3/3/2 4/4/1 1/1/1 
f 5/5/1 6/6/3 7/7/3 
f 7/7/3 8/8/1 5/5/1 
f 4/4/1 9/9/3 10/10/3 
f 10/10/3 1/1/1 4/4/1 
f 11/11/4 10/10/3 9/9/3 
f 9/9/3 12/12/4 11/11/4 
f 2/13/5 13/13/5 14/14/5 
f 14/14/5 3/14/5 2/13/5 
f 15/15/6 16/16/6 17/11/6 
f 17/11/6 18/17/6 15/15/6 
f 19/16/5 20/18/5 21/19/5 
f 21/19/5 22/11/5 19/16/5 
f 23/20/7 24/21/7 25/22/7 
f 25/22/7 26/23/7 23/20/7 
f 25/22/7 24/21/7 8/24/7 
f 8/24/7 7/25/7 25/22/7 
f 16/17/8 19/26/8 22/27/8 
f 22/27/8 17/15/8 16/17/8 
f 8/8/1 24/28/2 27/29/2 
f 27/29/2 5/5/1 8/8/1 
f 26/30/6 25/31/6 28/32/6 
f 28/32/6 29/33/6 26/30/6 
f 24/31/5 23/29/5 30/34/5 
f 30/34/5 27/32/5 24/31/5 
f 25/18/4 7/7/3 6/6/3 
f 6/6/3 28/22/4 25/18/4 
f 11/23/7 2/20/7 1/35/7 
f 1/35/7 10/36/7 11/23/7 
f 2/20/7 11/23/7 31/37/7 
f 31/37/7 13/38/7 2/20/7 
f 31/13/6 11/39/6 12/40/6 
f 12/40/6 32/14/6 31/13/6 
f 33/41/9 34/42/9 35/43/9 
f 35/43/9 36/44/9 33/41/9 
f 37/45/7 38/46/7 39/47/7 
f 38/46/6 37/48/6 40/49/6 
f 40/49/6 41/50/6 38/46/6 
f 42/50/5 43/51/5 44/49/5 
f 44/49/5 45/50/5 42/50/5 
f 37/40/4 39/52/3 46/53/3 
f 46/53/3 40/54/4 37/40/4 
f 47/55/7 43/51/7 42/56/7 
f 47/57/1 42/39/2 45/5/2 
f 45/5/2 48/58/1 47/57/1 
f 47/55/7 39/47/7 38/46/7 
f 38/46/7 43/51/7 47/55/7 
f 48/58/1 46/53/3 39/52/3 
f 39/52/3 47/57/1 48/58/1 
f 49/59/10 50/59/10 51/60/10 
f 51/60/10 52/61/10 49/59/10 
f 50/62/6 53/62/6 54/61/6 
f 54/61/6 51/61/6 50/62/6 
f 53/62/8 55/63/8 56/60/8 
f 56/60/8 54/61/8 53/62/8 
f 55/64/5 49/64/5 52/61/5 
f 52/61/5 56/61/5 55/64/5 
f 51/61/6 54/61/6 57/61/6 
f 57/61/6 58/61/6 51/61/6 
f 53/65/7 59/66/7 60/67/7 
f 60/67/7 55/68/7 53/65/7 
f 49/65/11 61/65/11 62/65/11 
f 62/65/11 50/65/11 49/65/11 
f 49/64/5 55/64/5 60/64/5 
f 60/64/5 61/64/5 49/64/5 
f 51/65/7 58/65/7 63/65/7 
f 63/65/7 52/65/7 51/65/7 
f 56/68/11 64/67/11 57/67/11 
f 57/67/11 54/68/11 56/68/11 
f 50/62/6 62/62/6 59/62/6 
f 59/62/6 53/62/6 50/62/6 
f 52/61/5 63/61/5 64/61/5 
f 64/61/5 56/61/5 52/61/5 
f 65/69/10 66/69/10 67/70/10 
f 67/70/10 68/70/10 65/69/10 
f 66/71/6 69/71/6 70/72/6 
f 70/72/6 67/72/6 66/71/6 
f 69/69/8 71/69/8 72/70/8 
f 72/70/8 70/70/8 69/69/8 
f 71/71/5 65/71/5 68/72/5 
f 68/72/5 72/72/5 71/71/5 
f 67/72/6 70/72/6 73/72/6 
f 73/72/6 74/72/6 67/72/6 
f 69/68/7 75/67/7 76/67/7 
f 76/67/7 71/68/7 69/68/7 
f 65/65/11 77/65/11 78/65/11 
f 78/65/11 66/65/11 65/65/11 
f 65/71/5 71/71/5 76/73/5 
f 76/73/5 77/73/5 65/71/5 
f 67/65/7 74/65/7 79/65/7 
f 79/65/7 68/65/7 67/65/7 
f 72/68/11 80/67/11 73/67/11 
f 73/67/11 70/68/11 72/68/11 
f 66/71/6 78/71/6 75/71/6 
f 75/71/6 69/71/6 66/71/6 
f 68/72/5 79/74/5 80/74/5 
f 80/74/5 72/72/5 68/72/5 
f 18/17/10 21/19/10 20/18/10 
f 20/18/10 15/15/10 18/17/10 
f 41/50/10 44/49/10 43/51/10 
f 43/51/10 38/46/10 41/50/10 
f 48/58/11 45/50/11 44/49/11 
f 48/58/11 44/49/11 41/50/11 
f 48/58/11 41/50/11 40/54/11 
f 46/53/11 48/58/11 40/54/11 
f 21/19/11 18/17/11 17/15/11 
f 17/15/11 22/11/11 21/19/11 
f 14/14/11 32/14/11 12/40/11 
f 12/40/11 3/14/11 14/14/11 
f 4/4/11 3/14/11 12/12/11 
f 12/12/11 9/9/11 4/4/11 
f 28/32/11 27/32/11 30/34/11 
f 30/34/11 29/33/11 28/32/11 
f 5/5/11 27/32/11 28/22/11 
f 28/22/11 6/6/11 5/5/11 
# 116 faces

