# 3ds Max Wavefront OBJ Exporter v0.99 - (c)2007 guruware
# File Created: 10.05.2024 11:24:47

mtllib Pesa1.mtl

#
# object dumbbell_002
#

v  -2.6053 0.1455 -0.2356
v  2.6227 0.1455 -0.2684
v  2.6227 -0.1455 -0.2684
v  -2.6053 -0.1455 -0.2356
v  -2.6037 0.2909 0.0163
v  2.6243 0.2909 -0.0165
v  -2.6021 0.1455 0.2683
v  2.6259 0.1455 0.2355
v  -2.6021 -0.1455 0.2683
v  2.6259 -0.1455 0.2355
v  -2.6037 -0.2909 0.0163
v  2.6243 -0.2909 -0.0165
v  -2.0965 0.0000 -1.1279
v  -1.6210 0.0000 -1.1309
v  -1.6189 -0.8068 -0.7967
v  -2.0944 -0.8068 -0.7937
v  -2.0944 0.8068 -0.7937
v  -1.6189 0.8068 -0.7967
v  -2.0894 1.1411 0.0131
v  -1.6139 1.1411 0.0101
v  -2.0843 0.8068 0.8199
v  -1.6088 0.8068 0.8169
v  -2.0822 0.0000 1.1541
v  -1.6067 0.0000 1.1511
v  -2.0843 -0.8068 0.8199
v  -1.6088 -0.8068 0.8169
v  -2.0894 -1.1411 0.0131
v  -1.6139 -1.1411 0.0101
v  -2.4433 0.0000 -0.6675
v  -2.0620 0.0000 -0.6699
v  -2.0607 -0.4829 -0.4699
v  -2.4419 -0.4829 -0.4675
v  -2.4419 0.4829 -0.4675
v  -2.0607 0.4829 -0.4699
v  -2.4389 0.6829 0.0153
v  -2.0577 0.6829 0.0129
v  -2.4359 0.4829 0.4982
v  -2.0546 0.4829 0.4958
v  -2.4347 0.0000 0.6982
v  -2.0534 0.0000 0.6958
v  -2.4359 -0.4829 0.4982
v  -2.0546 -0.4829 0.4958
v  -2.4389 -0.6829 0.0153
v  -2.0577 -0.6829 0.0129
v  -1.6388 0.0000 -1.5078
v  -1.0061 0.0000 -1.5118
v  -1.0034 -1.0734 -1.0672
v  -1.6360 -1.0734 -1.0632
v  -1.6360 1.0734 -1.0632
v  -1.0034 1.0734 -1.0672
v  -1.6292 1.5181 0.0102
v  -0.9966 1.5181 0.0062
v  -1.6225 1.0734 1.0837
v  -0.9899 1.0734 1.0797
v  -1.6197 0.0000 1.5283
v  -0.9871 0.0000 1.5243
v  -1.6225 -1.0734 1.0837
v  -0.9899 -1.0734 1.0797
v  -1.6292 -1.5181 0.0102
v  -0.9966 -1.5181 0.0062
v  1.6062 -0.8068 -0.8169
v  1.6041 0.0000 -1.1512
v  2.0796 0.0000 -1.1541
v  2.0817 -0.8068 -0.8199
v  1.6062 0.8068 -0.8169
v  2.0817 0.8068 -0.8199
v  1.6112 1.1411 -0.0101
v  2.0867 1.1411 -0.0131
v  1.6163 0.8068 0.7967
v  2.0918 0.8068 0.7937
v  1.6184 0.0000 1.1309
v  2.0939 0.0000 1.1279
v  1.6163 -0.8068 0.7967
v  2.0918 -0.8068 0.7937
v  1.6112 -1.1411 -0.0101
v  2.0867 -1.1411 -0.0131
v  2.0521 -0.4829 -0.4958
v  2.0508 0.0000 -0.6958
v  2.4320 0.0000 -0.6982
v  2.4333 -0.4829 -0.4982
v  2.0521 0.4829 -0.4958
v  2.4333 0.4829 -0.4982
v  2.0551 0.6829 -0.0129
v  2.4363 0.6829 -0.0153
v  2.0581 0.4829 0.4699
v  2.4394 0.4829 0.4675
v  2.0594 0.0000 0.6699
v  2.4406 0.0000 0.6675
v  2.0581 -0.4829 0.4699
v  2.4394 -0.4829 0.4675
v  2.0551 -0.6829 -0.0129
v  2.4363 -0.6829 -0.0153
v  0.9873 -1.0734 -1.0797
v  0.9845 0.0000 -1.5243
v  1.6171 0.0000 -1.5283
v  1.6199 -1.0734 -1.0837
v  0.9873 1.0734 -1.0797
v  1.6199 1.0734 -1.0837
v  0.9940 1.5181 -0.0062
v  1.6266 1.5181 -0.0102
v  1.0007 1.0734 1.0672
v  1.6333 1.0734 1.0632
v  1.0035 0.0000 1.5118
v  1.6362 0.0000 1.5078
v  1.0007 -1.0734 1.0672
v  1.6333 -1.0734 1.0632
v  0.9940 -1.5181 -0.0062
v  1.6266 -1.5181 -0.0102
# 108 vertices

vn -0.0063 0.0000 -1.0000
vn -0.0031 0.8660 -0.5000
vn 0.0054 0.5000 0.8660
vn 0.0031 0.8660 0.5000
vn 0.0054 -0.5000 0.8660
vn 0.0031 -0.8660 0.5000
vn -0.0031 -0.8660 -0.5000
vn -1.0000 0.0000 0.0063
vn 1.0000 0.0000 -0.0063
vn -0.0044 -0.7071 -0.7071
vn -0.0044 0.7071 -0.7071
vn 0.0000 1.0000 -0.0000
vn 0.0044 0.7071 0.7071
vn 0.0063 0.0000 1.0000
vn 0.0044 -0.7071 0.7071
vn 0.0000 -1.0000 -0.0000
vn -1.0000 0.0000 0.0064
vn -1.0000 0.0002 0.0062
vn -0.0045 -0.7071 -0.7071
vn -0.0045 0.7071 -0.7071
vn -1.0000 0.0000 0.0062
vn 1.0000 0.0000 -0.0062
vn 1.0000 -0.0001 -0.0063
vn 1.0000 0.0001 -0.0062
# 24 vertex normals

vt 0.8820 0.4202 0.0000
vt 0.8692 0.8653 0.0000
vt 0.8692 0.8652 0.0000
vt 0.8693 0.8653 0.0000
vt 0.8692 0.8606 0.0000
vt 0.8701 0.8610 0.0000
vt 0.8683 0.8610 0.0000
vt 0.8693 0.8652 0.0000
# 8 texture coords

o dumbbell_002
g dumbbell_002
usemtl Material
s 1
f 1/1/1 2/1/1 3/1/1 
f 3/1/1 4/1/1 1/1/1 
f 5/1/2 6/1/2 2/1/2 
f 2/1/2 1/1/2 5/1/2 
f 7/1/3 8/1/3 6/1/4 
f 6/1/4 5/1/4 7/1/3 
f 9/1/5 10/1/5 8/1/3 
f 8/1/3 7/1/3 9/1/5 
f 11/1/6 12/1/6 10/1/5 
f 10/1/5 9/1/5 11/1/6 
f 4/1/7 3/1/7 12/1/7 
f 12/1/7 11/1/7 4/1/7 
f 7/1/8 5/1/8 1/1/8 
f 1/1/8 4/1/8 11/1/8 
f 7/1/8 1/1/8 11/1/8 
f 9/1/8 7/1/8 11/1/8 
f 12/1/9 3/1/9 2/1/9 
f 2/1/9 6/1/9 8/1/9 
f 12/1/9 2/1/9 8/1/9 
f 10/1/9 12/1/9 8/1/9 
f 13/2/1 14/3/1 15/3/10 
f 15/3/10 16/2/10 13/2/1 
f 17/2/11 18/3/11 14/3/1 
f 14/3/1 13/2/1 17/2/11 
f 19/4/12 20/3/12 18/3/11 
f 18/3/11 17/2/11 19/4/12 
f 21/2/13 22/3/13 20/3/12 
f 20/3/12 19/4/12 21/2/13 
f 23/2/14 24/3/14 22/3/13 
f 22/3/13 21/2/13 23/2/14 
f 25/2/15 26/3/15 24/3/14 
f 24/3/14 23/2/14 25/2/15 
f 27/2/16 28/3/16 26/3/15 
f 26/3/15 25/2/15 27/2/16 
f 16/2/10 15/3/10 28/3/16 
f 28/3/16 27/2/16 16/2/10 
f 13/5/8 16/6/8 19/4/8 
f 17/7/8 13/5/8 19/4/8 
f 23/2/8 21/2/8 19/4/8 
f 25/2/8 23/2/8 19/4/8 
f 27/2/8 25/2/8 19/4/8 
f 16/6/8 27/2/8 19/4/8 
f 29/2/1 30/3/1 31/3/10 
f 31/3/10 32/2/10 29/2/1 
f 33/2/11 34/3/11 30/3/1 
f 30/3/1 29/2/1 33/2/11 
f 35/4/12 36/3/12 34/3/11 
f 34/3/11 33/2/11 35/4/12 
f 37/2/13 38/3/13 36/3/12 
f 36/3/12 35/4/12 37/2/13 
f 39/2/14 40/3/14 38/3/13 
f 38/3/13 37/2/13 39/2/14 
f 41/2/15 42/3/15 40/3/14 
f 40/3/14 39/2/14 41/2/15 
f 43/2/16 44/3/16 42/3/15 
f 42/3/15 41/2/15 43/2/16 
f 32/2/10 31/3/10 44/3/16 
f 44/3/16 43/2/16 32/2/10 
f 29/5/17 32/6/8 35/4/8 
f 33/7/18 29/5/17 35/4/8 
f 39/2/8 37/2/8 35/4/8 
f 41/2/8 39/2/8 35/4/8 
f 43/2/8 41/2/8 35/4/8 
f 32/6/8 43/2/8 35/4/8 
f 45/2/1 46/3/1 47/3/19 
f 47/3/19 48/2/19 45/2/1 
f 49/2/20 50/3/20 46/3/1 
f 46/3/1 45/2/1 49/2/20 
f 51/4/12 52/8/12 50/3/20 
f 50/3/20 49/2/20 51/4/12 
f 53/2/13 54/3/13 52/8/12 
f 52/8/12 51/4/12 53/2/13 
f 55/2/14 56/3/14 54/3/13 
f 54/3/13 53/2/13 55/2/14 
f 57/2/15 58/3/15 56/3/14 
f 56/3/14 55/2/14 57/2/15 
f 59/2/16 60/3/16 58/3/15 
f 58/3/15 57/2/15 59/2/16 
f 48/2/19 47/3/19 60/3/16 
f 60/3/16 59/2/16 48/2/19 
f 45/5/8 48/6/8 51/4/8 
f 49/7/8 45/5/8 51/4/8 
f 55/2/8 53/2/21 51/4/8 
f 57/2/8 55/2/8 51/4/8 
f 59/2/8 57/2/8 51/4/8 
f 48/6/8 59/2/8 51/4/8 
f 47/3/9 46/3/9 52/8/9 
f 46/3/9 50/3/9 52/8/9 
f 54/3/22 56/3/9 52/8/9 
f 56/3/9 58/3/9 52/8/9 
f 58/3/9 60/3/9 52/8/9 
f 60/3/9 47/3/9 52/8/9 
f 61/3/10 62/3/1 63/2/1 
f 63/2/1 64/2/10 61/3/10 
f 62/3/1 65/3/11 66/2/11 
f 66/2/11 63/2/1 62/3/1 
f 65/3/11 67/3/12 68/4/12 
f 68/4/12 66/2/11 65/3/11 
f 67/3/12 69/3/13 70/2/13 
f 70/2/13 68/4/12 67/3/12 
f 69/3/13 71/3/14 72/2/14 
f 72/2/14 70/2/13 69/3/13 
f 71/3/14 73/3/15 74/2/15 
f 74/2/15 72/2/14 71/3/14 
f 73/3/15 75/3/16 76/2/16 
f 76/2/16 74/2/15 73/3/15 
f 75/3/16 61/3/10 64/2/10 
f 64/2/10 76/2/16 75/3/16 
f 63/5/9 68/4/9 64/6/9 
f 66/7/9 68/4/9 63/5/9 
f 72/2/9 68/4/9 70/2/9 
f 74/2/9 68/4/9 72/2/9 
f 76/2/9 68/4/9 74/2/9 
f 64/6/9 68/4/9 76/2/9 
f 77/3/10 78/3/1 79/2/1 
f 79/2/1 80/2/10 77/3/10 
f 78/3/1 81/3/11 82/2/11 
f 82/2/11 79/2/1 78/3/1 
f 81/3/11 83/3/12 84/4/12 
f 84/4/12 82/2/11 81/3/11 
f 83/3/12 85/3/13 86/2/13 
f 86/2/13 84/4/12 83/3/12 
f 85/3/13 87/3/14 88/2/14 
f 88/2/14 86/2/13 85/3/13 
f 87/3/14 89/3/15 90/2/15 
f 90/2/15 88/2/14 87/3/14 
f 89/3/15 91/3/16 92/2/16 
f 92/2/16 90/2/15 89/3/15 
f 91/3/16 77/3/10 80/2/10 
f 80/2/10 92/2/16 91/3/16 
f 79/5/9 84/4/9 80/6/9 
f 82/7/23 84/4/9 79/5/9 
f 88/2/9 84/4/9 86/2/24 
f 90/2/9 84/4/9 88/2/9 
f 92/2/9 84/4/9 90/2/9 
f 80/6/9 84/4/9 92/2/9 
f 93/3/10 94/3/1 95/2/1 
f 95/2/1 96/2/10 93/3/10 
f 94/3/1 97/3/11 98/2/11 
f 98/2/11 95/2/1 94/3/1 
f 97/3/11 99/8/12 100/4/12 
f 100/4/12 98/2/11 97/3/11 
f 99/8/12 101/3/13 102/2/13 
f 102/2/13 100/4/12 99/8/12 
f 101/3/13 103/3/14 104/2/14 
f 104/2/14 102/2/13 101/3/13 
f 103/3/14 105/3/15 106/2/15 
f 106/2/15 104/2/14 103/3/14 
f 105/3/15 107/3/16 108/2/16 
f 108/2/16 106/2/15 105/3/15 
f 107/3/16 93/3/10 96/2/10 
f 96/2/10 108/2/16 107/3/16 
f 95/5/9 100/4/9 96/6/9 
f 98/7/9 100/4/9 95/5/9 
f 104/2/9 100/4/9 102/2/22 
f 106/2/9 100/4/9 104/2/9 
f 108/2/9 100/4/9 106/2/9 
f 96/6/9 100/4/9 108/2/9 
f 93/3/8 99/8/8 94/3/8 
f 94/3/8 99/8/8 97/3/8 
f 101/3/21 99/8/8 103/3/8 
f 103/3/8 99/8/8 105/3/8 
f 105/3/8 99/8/8 107/3/8 
f 107/3/8 99/8/8 93/3/8 
# 164 faces

