# 3ds Max Wavefront OBJ Exporter v0.99 - (c)2007 guruware
# File Created: 10.05.2024 11:41:51

mtllib Juguete.mtl

#
# object scratching_post_001
#

v  1.2187 0.0924 -0.1043
v  1.2187 2.6435 -0.1043
v  1.2187 2.6435 0.1043
v  1.2187 0.0924 0.1043
v  1.0382 0.0924 -0.2085
v  1.0382 2.6435 -0.2085
v  0.8576 0.0924 -0.1043
v  0.8576 2.6435 -0.1043
v  0.8576 0.0924 0.1043
v  0.8576 2.6435 0.1043
v  1.0382 0.0924 0.2085
v  1.0382 2.6435 0.2085
v  -0.2622 0.0924 -0.1043
v  -0.2622 5.2900 -0.1043
v  -0.2622 5.2900 0.1043
v  -0.2622 0.0924 0.1043
v  -0.4428 0.0924 -0.2085
v  -0.4428 5.2900 -0.2085
v  -0.6234 0.0924 -0.1043
v  -0.6234 5.2900 -0.1043
v  -0.6234 0.0924 0.1043
v  -0.6234 5.2900 0.1043
v  -0.4428 0.0924 0.2085
v  -0.4428 5.2900 0.2085
v  -0.9359 0.0000 -0.8760
v  -0.9359 0.0000 0.8760
v  -0.9359 0.1059 0.8760
v  -0.9359 0.1059 -0.8760
v  1.7523 0.1059 0.9955
v  1.7523 0.0000 0.9955
v  1.7523 0.0000 -0.9955
v  1.7523 0.1059 -0.9955
v  -0.8164 0.0000 0.9955
v  -0.8164 0.1059 0.9955
v  -0.8164 0.0000 -0.9955
v  -0.8164 0.1059 -0.9955
v  0.2854 3.6664 0.5195
v  0.2854 5.1858 0.5195
v  0.2854 5.1858 0.5074
v  0.2854 3.6664 0.5074
v  0.2974 5.1858 0.5195
v  0.2975 3.6664 0.5195
v  0.2975 3.6664 0.5074
v  0.2974 5.1858 0.5074
v  -0.0957 1.1313 0.9949
v  -0.1125 0.1059 0.9955
v  0.3683 0.6401 0.9909
v  0.5018 0.3397 0.9903
v  0.7867 1.0804 0.9982
v  0.4863 0.9470 0.9942
v  0.8086 0.2216 0.9927
v  1.7079 0.1059 0.9955
v  1.1091 0.3551 0.9968
v  -1.3934 5.1773 -0.8860
v  -1.3934 5.1773 0.8860
v  -1.3934 5.3301 0.8860
v  -1.3934 5.3301 -0.8860
v  0.4680 5.3301 -0.8860
v  0.4680 5.3301 0.8860
v  0.4680 5.1773 0.8860
v  0.4680 5.1773 -0.8860
v  -1.2839 5.1773 0.9955
v  0.3585 5.1773 0.9955
v  0.3585 5.3301 0.9955
v  -1.2839 5.3301 0.9955
v  0.3585 5.1773 -0.9955
v  -1.2839 5.1773 -0.9955
v  -1.2839 5.3301 -0.9955
v  0.3585 5.3301 -0.9955
v  0.2914 3.6532 0.5134
v  0.1338 3.8108 0.5134
v  0.2914 3.8108 0.3558
v  0.2914 3.8108 0.6711
v  0.2914 3.9685 0.5134
v  0.4491 3.8108 0.5134
v  -0.0304 1.1435 0.2222
v  -0.0304 1.1435 0.9675
v  -0.0304 0.1391 0.9675
v  -0.0304 0.1391 0.2222
v  1.6635 1.1435 0.2222
v  1.6635 1.1435 0.9675
v  1.6635 0.1391 0.2222
v  1.6635 0.1391 0.9675
v  -0.9359 2.5836 -0.8860
v  -0.9359 2.5836 0.8860
v  -0.9359 2.7039 0.8860
v  -0.9359 2.7039 -0.8860
v  1.7523 2.7039 -0.8860
v  1.7523 2.7039 0.8860
v  1.7523 2.5836 0.8860
v  1.7523 2.5836 -0.8860
v  -0.8264 2.5836 0.9955
v  1.6428 2.5836 0.9955
v  1.6428 2.7039 0.9955
v  -0.8264 2.7039 0.9955
v  1.6428 2.5836 -0.9955
v  -0.8264 2.5836 -0.9955
v  -0.8264 2.7039 -0.9955
v  1.6428 2.7039 -0.9955
v  1.2271 0.6620 1.0000
v  -0.0941 1.1961 -0.9327
v  1.6895 1.1961 -0.9327
v  1.6895 1.1334 -0.9955
v  -0.0941 1.1334 -0.9955
v  -0.0941 0.1059 -0.9955
v  -0.1569 0.1059 -0.9327
v  -0.1569 1.1334 -0.9327
v  -0.1569 1.1309 0.9303
v  -0.0973 1.1961 0.9121
v  1.6898 1.1337 0.9960
v  1.6895 1.1961 0.9327
v  -0.1569 0.1059 0.9325
v  1.7523 1.1334 -0.9327
v  1.7523 0.1059 -0.9327
v  1.6895 0.1059 -0.9955
v  1.7523 1.1337 0.9330
v  1.7523 0.1059 0.9330
v  1.0936 0.9624 1.0006
# 118 vertices

vn 0.8660 0.0000 -0.5000
vn 0.8660 0.0000 0.5000
vn 0.0000 0.0000 -1.0000
vn -0.8660 0.0000 -0.5000
vn -0.8660 0.0000 0.5000
vn 0.0000 0.0000 1.0000
vn -0.9980 0.0000 -0.0637
vn -0.9980 0.0001 0.0637
vn -0.9980 0.0000 0.0637
vn -0.9980 0.0001 -0.0637
vn 1.0000 0.0000 -0.0000
vn -0.0444 0.0000 0.9990
vn -0.0444 -0.0001 0.9990
vn -0.0444 -0.0001 -0.9990
vn -0.0444 0.0000 -0.9990
vn 0.0000 1.0000 -0.0000
vn -1.0000 0.0000 -0.0000
vn -0.1038 0.2083 0.9725
vn -0.1067 0.0079 0.9943
vn 0.0063 -0.0017 1.0000
vn 0.0048 0.0094 0.9999
vn -0.0016 0.0148 0.9999
vn -0.0030 -0.0137 0.9999
vn -0.0015 0.0103 0.9999
vn 0.1120 0.0009 0.9937
vn -0.0034 -0.0133 0.9999
vn -0.9983 0.0000 -0.0581
vn -0.9983 -0.0001 0.0581
vn -0.9983 0.0000 0.0581
vn -0.9983 0.0001 -0.0581
vn 0.9983 0.0000 -0.0581
vn 0.9983 0.0000 0.0581
vn -0.0624 0.0000 0.9981
vn 0.0624 0.0000 0.9981
vn -0.0624 -0.0003 0.9981
vn 0.0624 0.0000 -0.9981
vn -0.0624 0.0001 -0.9981
vn -0.0624 0.0000 -0.9981
vn 0.0624 0.0001 -0.9981
vn 0.0000 -1.0000 -0.0000
vn -0.0424 0.0000 0.9991
vn 0.0424 0.0000 0.9991
vn 0.0424 0.0000 -0.9991
vn -0.0424 -0.0001 -0.9991
vn -0.0424 0.0000 -0.9991
vn 0.0424 -0.0001 -0.9991
vn 0.0055 -0.0025 1.0000
vn -0.0340 0.9989 -0.0322
vn 0.0335 0.9989 -0.0321
vn 0.0330 0.0565 -0.9979
vn -0.0330 0.0565 -0.9979
vn -0.0339 -0.0001 -0.9994
vn -0.9995 0.0000 -0.0326
vn -0.9980 0.0549 -0.0316
vn -0.9981 0.0554 0.0267
vn -0.0341 0.9989 0.0325
vn 0.1072 0.2140 0.9709
vn 0.0331 0.9989 0.0325
vn -0.9996 0.0003 0.0273
vn 0.9979 0.0565 -0.0316
vn 0.9995 0.0000 -0.0325
vn 0.0340 0.0000 -0.9994
vn 0.9980 0.0568 0.0270
vn 0.9996 0.0037 0.0277
vn 0.0050 0.0096 0.9999
# 65 vertex normals

vt 0.6005 0.1421 0.0000
vt 0.6005 0.1439 0.0000
vt 0.6002 0.1439 0.0000
vt 0.6002 0.1421 0.0000
vt 0.6007 0.1421 0.0000
vt 0.6007 0.1439 0.0000
vt 0.6009 0.1421 0.0000
vt 0.6009 0.1439 0.0000
vt 0.6011 0.1421 0.0000
vt 0.6011 0.1439 0.0000
vt 0.6013 0.1421 0.0000
vt 0.6013 0.1439 0.0000
vt 0.6015 0.1421 0.0000
vt 0.6015 0.1439 0.0000
vt 0.7743 0.2061 0.0000
vt 0.7752 0.2061 0.0000
vt 0.7752 0.2071 0.0000
vt 0.7743 0.2071 0.0000
vt 0.7752 0.2082 0.0000
vt 0.7752 0.2092 0.0000
vt 0.7742 0.2092 0.0000
vt 0.7742 0.2082 0.0000
vt 0.7753 0.2061 0.0000
vt 0.7763 0.2061 0.0000
vt 0.7763 0.2071 0.0000
vt 0.7753 0.2071 0.0000
vt 0.7742 0.2061 0.0000
vt 0.7742 0.2071 0.0000
vt 0.7732 0.2071 0.0000
vt 0.7732 0.2061 0.0000
vt 0.7780 0.0550 0.0000
vt 0.7780 0.0558 0.0000
vt 0.7772 0.0558 0.0000
vt 0.7772 0.0550 0.0000
vt 0.7780 0.0565 0.0000
vt 0.7780 0.0573 0.0000
vt 0.7772 0.0573 0.0000
vt 0.7772 0.0565 0.0000
vt 0.7788 0.0550 0.0000
vt 0.7788 0.0558 0.0000
vt 0.7764 0.0558 0.0000
vt 0.7764 0.0550 0.0000
vt 0.7711 0.2053 0.0000
vt 0.7711 0.2043 0.0000
vt 0.7711 0.2048 0.0000
vt 0.7716 0.2053 0.0000
vt 0.7716 0.2043 0.0000
vt 0.7721 0.2043 0.0000
vt 0.6916 0.1148 0.0000
vt 0.6923 0.1148 0.0000
vt 0.6923 0.1156 0.0000
vt 0.6916 0.1156 0.0000
vt 0.6916 0.1165 0.0000
vt 0.6923 0.1165 0.0000
vt 0.6923 0.1173 0.0000
vt 0.6916 0.1173 0.0000
vt 0.6924 0.1148 0.0000
vt 0.6932 0.1148 0.0000
vt 0.6932 0.1156 0.0000
vt 0.6924 0.1156 0.0000
vt 0.6907 0.1148 0.0000
vt 0.6915 0.1148 0.0000
vt 0.6915 0.1156 0.0000
vt 0.6907 0.1156 0.0000
vt 0.6924 0.1164 0.0000
vt 0.6915 0.1164 0.0000
vt 0.6915 0.1173 0.0000
vt 0.6924 0.1173 0.0000
vt 0.7729 0.2055 0.0000
vt 0.7729 0.2060 0.0000
vt 0.7719 0.2060 0.0000
vt 0.7740 0.2060 0.0000
vt 0.7729 0.2070 0.0000
vt 0.7724 0.2070 0.0000
vt 0.7729 0.2081 0.0000
vt 0.7735 0.2070 0.0000
vt 0.7724 0.2081 0.0000
vt 0.7729 0.2091 0.0000
vt 0.7735 0.2081 0.0000
vt 0.7684 0.7882 0.0000
vt 0.7692 0.7882 0.0000
vt 0.7692 0.7874 0.0000
vt 0.7684 0.7874 0.0000
vt 0.7684 0.7890 0.0000
vt 0.7692 0.7890 0.0000
vt 0.7684 0.7898 0.0000
vt 0.7692 0.7898 0.0000
vt 0.7684 0.7906 0.0000
vt 0.7692 0.7906 0.0000
vt 0.7676 0.7882 0.0000
vt 0.7676 0.7874 0.0000
vt 0.7721 0.2048 0.0000
vt 0.7701 0.2054 0.0000
vt 0.7701 0.2063 0.0000
vt 0.7700 0.2063 0.0000
vt 0.7700 0.2053 0.0000
vt 0.7700 0.2043 0.0000
vt 0.7701 0.2043 0.0000
vt 0.7701 0.2053 0.0000
vt 0.7710 0.2054 0.0000
vt 0.7711 0.2063 0.0000
vt 0.7710 0.2063 0.0000
vt 0.7710 0.2043 0.0000
vt 0.7701 0.2064 0.0000
vt 0.7701 0.2074 0.0000
vt 0.7700 0.2074 0.0000
vt 0.7710 0.2064 0.0000
vt 0.7711 0.2074 0.0000
vt 0.7710 0.2074 0.0000
vt 0.7690 0.2043 0.0000
vt 0.7690 0.2053 0.0000
vt 0.7721 0.2053 0.0000
# 112 texture coords

o scratching_post_001
g scratching_post_001
usemtl Material
s 1
f 1/1/1 2/2/1 3/3/2 
f 3/3/2 4/4/2 1/1/1 
f 5/5/3 6/6/3 2/2/1 
f 2/2/1 1/1/1 5/5/3 
f 7/7/4 8/8/4 6/6/3 
f 6/6/3 5/5/3 7/7/4 
f 9/9/5 10/10/5 8/8/4 
f 8/8/4 7/7/4 9/9/5 
f 11/11/6 12/12/6 10/10/5 
f 10/10/5 9/9/5 11/11/6 
f 4/13/2 3/14/2 12/12/6 
f 12/12/6 11/11/6 4/13/2 
f 13/1/1 14/2/1 15/3/2 
f 15/3/2 16/4/2 13/1/1 
f 17/5/3 18/6/3 14/2/1 
f 14/2/1 13/1/1 17/5/3 
f 19/7/4 20/8/4 18/6/3 
f 18/6/3 17/5/3 19/7/4 
f 21/9/5 22/10/5 20/8/4 
f 20/8/4 19/7/4 21/9/5 
f 23/11/6 24/12/6 22/10/5 
f 22/10/5 21/9/5 23/11/6 
f 16/13/2 15/14/2 24/12/6 
f 24/12/6 23/11/6 16/13/2 
f 25/15/7 26/16/8 27/17/9 
f 27/17/9 28/18/10 25/15/7 
f 29/19/11 30/20/11 31/21/11 
f 31/21/11 32/22/11 29/19/11 
f 33/23/12 30/24/6 29/25/6 
f 29/25/6 34/26/13 33/23/12 
f 35/27/14 36/28/15 32/29/3 
f 32/29/3 31/30/3 35/27/14 
f 28/18/16 27/17/16 34/26/16 
f 34/26/16 29/19/16 32/22/16 
f 28/18/16 34/26/16 32/22/16 
f 36/28/16 28/18/16 32/22/16 
f 25/15/7 28/18/10 36/28/15 
f 36/28/15 35/27/14 25/15/7 
f 33/23/12 34/26/13 27/17/9 
f 27/17/9 26/16/8 33/23/12 
f 37/31/17 38/32/17 39/33/17 
f 39/33/17 40/34/17 37/31/17 
f 41/35/11 42/36/11 43/37/11 
f 43/37/11 44/38/11 41/35/11 
f 42/39/6 41/40/6 38/32/6 
f 38/32/6 37/31/6 42/39/6 
f 40/34/3 39/33/3 44/41/3 
f 44/41/3 43/42/3 40/34/3 
f 45/43/18 46/44/19 47/45/20 
f 47/45/20 46/44/19 48/44/21 
f 49/46/22 45/43/18 50/43/23 
f 51/47/24 52/48/25 53/48/26 
f 54/49/27 55/50/28 56/51/29 
f 56/51/29 57/52/30 54/49/27 
f 58/53/31 59/54/32 60/55/32 
f 60/55/32 61/56/31 58/53/31 
f 62/57/33 63/58/34 64/59/34 
f 64/59/34 65/60/35 62/57/33 
f 66/61/36 67/62/37 68/63/38 
f 68/63/38 69/64/39 66/61/36 
f 57/52/16 56/51/16 65/60/16 
f 65/60/16 64/65/16 59/54/16 
f 59/54/16 58/53/16 69/66/16 
f 65/60/16 59/54/16 69/66/16 
f 57/52/16 65/60/16 69/66/16 
f 68/63/16 57/52/16 69/66/16 
f 54/49/27 57/52/30 68/63/38 
f 68/63/38 67/62/37 54/49/27 
f 62/57/33 65/60/35 56/51/29 
f 56/51/29 55/50/28 62/57/33 
f 58/53/31 61/56/31 66/67/36 
f 66/67/36 69/66/39 58/53/31 
f 64/65/34 63/68/34 60/55/32 
f 60/55/32 59/54/32 64/65/34 
f 55/50/40 54/49/40 67/62/40 
f 67/62/40 66/67/40 61/56/40 
f 61/56/40 60/55/40 63/58/40 
f 67/62/40 61/56/40 63/58/40 
f 55/50/40 67/62/40 63/58/40 
f 62/57/40 55/50/40 63/58/40 
f 70/69/40 71/70/17 72/71/3 
f 73/72/6 71/70/17 70/69/40 
f 72/71/3 71/70/17 74/73/16 
f 74/73/16 71/70/17 73/72/6 
f 72/74/3 74/73/16 75/75/11 
f 75/75/11 74/73/16 73/76/6 
f 72/77/3 75/75/11 70/78/40 
f 70/78/40 75/75/11 73/79/6 
f 76/80/11 77/81/11 78/82/11 
f 78/82/11 79/83/11 76/80/11 
f 80/84/40 81/85/40 77/81/40 
f 77/81/40 76/80/40 80/84/40 
f 82/86/17 83/87/17 81/85/17 
f 81/85/17 80/84/17 82/86/17 
f 79/88/16 78/89/16 83/87/16 
f 83/87/16 82/86/16 79/88/16 
f 80/90/6 76/80/6 79/83/6 
f 79/83/6 82/91/6 80/90/6 
f 84/49/27 85/50/29 86/51/29 
f 86/51/29 87/52/27 84/49/27 
f 88/53/31 89/54/32 90/55/32 
f 90/55/32 91/56/31 88/53/31 
f 92/57/41 93/58/42 94/59/42 
f 94/59/42 95/60/41 92/57/41 
f 96/61/43 97/62/44 98/63/45 
f 98/63/45 99/64/46 96/61/43 
f 87/52/16 86/51/16 95/60/16 
f 95/60/16 94/65/16 89/54/16 
f 89/54/16 88/53/16 99/66/16 
f 95/60/16 89/54/16 99/66/16 
f 87/52/16 95/60/16 99/66/16 
f 98/63/16 87/52/16 99/66/16 
f 84/49/27 87/52/27 98/63/45 
f 98/63/45 97/62/44 84/49/27 
f 92/57/41 95/60/41 86/51/29 
f 86/51/29 85/50/29 92/57/41 
f 88/53/31 91/56/31 96/67/43 
f 96/67/43 99/66/46 88/53/31 
f 94/65/42 93/68/42 90/55/32 
f 90/55/32 89/54/32 94/65/42 
f 45/43/18 47/45/20 50/43/23 
f 46/44/19 52/48/25 51/47/24 
f 46/44/19 51/47/24 48/44/21 
f 52/48/25 100/92/47 53/48/26 
f 101/93/48 102/94/49 103/95/50 
f 103/95/50 104/96/51 101/93/48 
f 104/96/51 105/97/52 106/98/53 
f 106/98/53 107/99/54 104/96/51 
f 107/99/54 108/43/55 109/100/56 
f 109/100/56 101/93/48 107/99/54 
f 45/43/18 110/101/57 111/102/58 
f 111/102/58 109/100/56 45/43/18 
f 108/43/55 112/103/59 46/44/19 
f 46/44/19 45/43/18 108/43/55 
f 113/104/60 114/105/61 115/106/62 
f 115/106/62 103/95/50 113/104/60 
f 102/94/49 111/102/58 116/107/63 
f 116/107/63 113/104/60 102/94/49 
f 110/101/57 52/108/25 117/109/64 
f 117/109/64 116/107/63 110/101/57 
f 106/98/53 112/103/59 108/43/55 
f 108/43/55 107/99/54 106/98/53 
f 109/100/56 111/102/58 102/94/49 
f 102/94/49 101/93/48 109/100/56 
f 116/107/63 117/109/64 114/105/61 
f 114/105/61 113/104/60 116/107/63 
f 115/110/62 105/97/52 104/96/51 
f 104/96/51 103/111/50 115/110/62 
f 110/112/57 100/92/47 52/48/25 
f 110/112/57 49/46/22 118/112/65 
f 100/92/47 110/112/57 118/112/65 
f 110/112/57 45/43/18 49/46/22 
f 104/96/51 107/99/54 101/93/48 
f 45/43/18 109/100/56 108/43/55 
f 103/95/50 102/94/49 113/104/60 
f 116/107/63 111/102/58 110/101/57 
f 92/57/40 85/50/40 93/58/40 
f 85/50/40 84/49/40 93/58/40 
f 84/49/40 97/62/40 93/58/40 
f 93/58/40 97/62/40 90/55/40 
f 96/67/40 91/56/40 97/62/40 
f 97/62/40 91/56/40 90/55/40 
f 31/21/40 30/24/40 35/27/40 
f 35/27/40 30/24/40 25/15/40 
f 30/24/40 33/23/40 25/15/40 
f 33/23/40 26/16/40 25/15/40 
# 166 faces

