# Blender 3.6.0
# www.blender.org
mtllib Bate.mtl
o Bate
v -0.013848 -0.003188 0.000000
v -0.011993 -0.003188 0.006924
v -0.006924 -0.003188 0.011993
v 0.000000 -0.003188 0.013849
v 0.006924 -0.003188 0.011993
v 0.011993 -0.003188 0.006924
v 0.013849 -0.003188 0.000000
v 0.011993 -0.003188 -0.006924
v 0.006924 -0.003188 -0.011993
v 0.000000 -0.003188 -0.013848
v -0.006924 -0.003188 -0.011993
v -0.011993 -0.003188 -0.006924
v -0.019600 0.156828 0.000000
v -0.016974 0.156828 0.009800
v -0.009800 0.156828 0.016974
v 0.000000 0.156828 0.019600
v 0.009800 0.156828 0.016974
v 0.016974 0.156828 0.009800
v 0.019600 0.156828 0.000000
v 0.016974 0.156828 -0.009800
v 0.009800 0.156828 -0.016974
v 0.000000 0.156828 -0.019600
v -0.009800 0.156828 -0.016974
v -0.016974 0.156828 -0.009800
v -0.013848 -0.078193 0.000000
v -0.011993 -0.078193 0.006924
v -0.006924 -0.078193 0.011993
v 0.000000 -0.078193 0.013849
v 0.006924 -0.078193 0.011993
v 0.011993 -0.078193 0.006924
v 0.013849 -0.078193 0.000000
v 0.011993 -0.078193 -0.006924
v 0.006924 -0.078193 -0.011993
v 0.000000 -0.078193 -0.013848
v -0.006924 -0.078193 -0.011993
v -0.011993 -0.078193 -0.006924
v -0.022155 -0.089371 0.000000
v -0.019187 -0.089371 0.011078
v -0.011077 -0.089371 0.019187
v 0.000000 -0.089371 0.022155
v 0.011078 -0.089371 0.019187
v 0.019187 -0.089371 0.011078
v 0.022155 -0.089371 0.000000
v 0.019187 -0.089371 -0.011078
v 0.011078 -0.089371 -0.019187
v 0.000000 -0.089371 -0.022155
v -0.011077 -0.089371 -0.019187
v -0.019187 -0.089371 -0.011078
v -0.024283 -0.095120 0.000000
v -0.021029 -0.095120 0.012141
v -0.012141 -0.095120 0.021029
v 0.000000 -0.095120 0.024283
v 0.012141 -0.095120 0.021029
v 0.021029 -0.095120 0.012141
v 0.024283 -0.095120 0.000000
v 0.021029 -0.095120 -0.012141
v 0.012141 -0.095120 -0.021029
v 0.000000 -0.095120 -0.024283
v -0.012141 -0.095120 -0.021029
v -0.021029 -0.095120 -0.012141
v -0.024283 -0.101827 0.000000
v -0.021029 -0.101827 0.012141
v -0.012141 -0.101827 0.021029
v 0.000000 -0.101827 0.024283
v 0.012141 -0.101827 0.021029
v 0.021029 -0.101827 0.012141
v 0.024283 -0.101827 0.000000
v 0.021029 -0.101827 -0.012141
v 0.012141 -0.101827 -0.021029
v 0.000000 -0.101827 -0.024283
v -0.012141 -0.101827 -0.021029
v -0.021029 -0.101827 -0.012141
v -0.021218 -0.107576 0.000000
v -0.018375 -0.107576 0.010609
v -0.010609 -0.107576 0.018375
v 0.000000 -0.107576 0.021218
v 0.010609 -0.107576 0.018375
v 0.018375 -0.107576 0.010609
v 0.021218 -0.107576 0.000000
v 0.018375 -0.107576 -0.010609
v 0.010609 -0.107576 -0.018375
v 0.000000 -0.107576 -0.021218
v -0.010609 -0.107576 -0.018375
v -0.018375 -0.107576 -0.010609
v -0.007341 -0.115538 0.000000
v -0.006357 -0.115538 0.003671
v -0.003670 -0.115538 0.006357
v 0.000000 -0.115538 0.007341
v 0.003670 -0.115538 0.006357
v 0.006357 -0.115538 0.003671
v 0.007341 -0.115538 0.000000
v 0.006357 -0.115538 -0.003670
v 0.003670 -0.115538 -0.006357
v 0.000000 -0.115538 -0.007341
v -0.003670 -0.115538 -0.006357
v -0.006357 -0.115538 -0.003670
v -0.011795 -0.112686 0.006810
v -0.013619 -0.112686 0.000000
v -0.006810 -0.112686 0.011795
v 0.000000 -0.112686 0.013619
v 0.006810 -0.112686 0.011795
v 0.011795 -0.112686 0.006810
v 0.013619 -0.112686 0.000000
v 0.011795 -0.112686 -0.006810
v 0.006810 -0.112686 -0.011794
v 0.000000 -0.112686 -0.013619
v -0.006810 -0.112686 -0.011794
v -0.011795 -0.112686 -0.006810
v -0.024981 0.434328 0.000000
v -0.021634 0.434328 0.012491
v -0.012490 0.434328 0.021634
v 0.000000 0.434328 0.024981
v 0.012491 0.434328 0.021634
v 0.021634 0.434328 0.012491
v 0.024981 0.434328 0.000000
v 0.021634 0.434328 -0.012490
v 0.012491 0.434328 -0.021634
v 0.000000 0.434328 -0.024981
v -0.012490 0.434328 -0.021634
v -0.021634 0.434328 -0.012490
v -0.021634 0.766207 -0.012490
v -0.012490 0.766207 -0.021634
v 0.000000 0.766207 -0.024981
v 0.012491 0.766207 -0.021634
v 0.021634 0.766207 -0.012490
v 0.024981 0.766207 0.000000
v 0.021634 0.766207 0.012490
v 0.012491 0.766207 0.021634
v 0.000000 0.766207 0.024981
v -0.012490 0.766207 0.021634
v -0.021634 0.766207 0.012490
v -0.024981 0.766207 0.000000
v -0.018330 0.775209 -0.010583
v -0.010583 0.775209 -0.018330
v 0.000000 0.775209 -0.021166
v 0.010583 0.775209 -0.018330
v 0.018330 0.775209 -0.010583
v 0.021166 0.775209 0.000000
v 0.018330 0.775209 0.010583
v 0.010583 0.775209 0.018330
v 0.000000 0.775209 0.021166
v -0.010583 0.775209 0.018330
v -0.018330 0.775209 0.010583
v -0.021165 0.775209 0.000000
v -0.013680 0.779507 -0.007898
v -0.007898 0.779507 -0.013680
v 0.000000 0.779507 -0.015796
v 0.007898 0.779507 -0.013680
v 0.013680 0.779507 -0.007898
v 0.015796 0.779507 -0.000000
v 0.013680 0.779507 0.007898
v 0.007898 0.779507 0.013680
v 0.000000 0.779507 0.015796
v -0.007898 0.779507 0.013680
v -0.013680 0.779507 0.007898
v -0.015796 0.779507 -0.000000
v -0.006788 0.781440 -0.003919
v -0.003919 0.781440 -0.006788
v 0.000000 0.781440 -0.007838
v 0.003919 0.781440 -0.006788
v 0.006788 0.781440 -0.003919
v 0.007838 0.781440 0.000000
v 0.006788 0.781440 0.003919
v 0.003919 0.781440 0.006788
v 0.000000 0.781440 0.007838
v -0.003919 0.781440 0.006788
v -0.006788 0.781440 0.003919
v -0.007838 0.781440 0.000000
v -0.000000 -0.115538 0.000000
v 0.000000 0.781440 0.000000
v -0.003919 0.781440 0.000000
v 0.003919 0.781440 0.000000
v -0.003671 -0.115538 0.000000
v 0.003670 -0.115538 0.000000
vn -0.4999 0.0180 -0.8659
vn -0.0000 0.0180 -0.9998
vn -0.0000 0.0276 -0.9996
vn -0.4998 0.0276 -0.8657
vn 0.8659 0.0180 0.4999
vn 0.4999 0.0180 0.8659
vn 0.4998 0.0276 0.8657
vn 0.8657 0.0276 0.4998
vn 0.8659 0.0180 -0.4999
vn 0.9998 0.0180 -0.0000
vn 0.9996 0.0276 -0.0000
vn 0.8657 0.0276 -0.4998
vn -0.4999 0.0180 0.8659
vn -0.8659 0.0180 0.4999
vn -0.8657 0.0276 0.4998
vn -0.4998 0.0276 0.8657
vn -0.8659 0.0180 -0.4999
vn -0.8657 0.0276 -0.4998
vn 0.4999 0.0180 -0.8659
vn 0.4998 0.0276 -0.8657
vn -0.0000 0.0180 0.9998
vn -0.0000 0.0276 0.9996
vn -0.9998 0.0180 -0.0000
vn -0.9996 0.0276 -0.0000
vn -0.4719 -0.3307 -0.8173
vn -0.0000 -0.3307 -0.9437
vn 0.8173 -0.3307 0.4719
vn 0.4719 -0.3307 0.8173
vn 0.8173 -0.3307 -0.4719
vn 0.9437 -0.3307 -0.0000
vn -0.4719 -0.3307 0.8173
vn -0.8173 -0.3307 0.4719
vn -0.8173 -0.3307 -0.4719
vn 0.4719 -0.3307 -0.8173
vn -0.0000 -0.3307 0.9437
vn -0.9437 -0.3307 -0.0000
vn 0.8842 -0.4670 -0.0000
vn 0.7658 -0.4670 0.4421
vn 0.4421 -0.4670 -0.7658
vn 0.7658 -0.4670 -0.4421
vn -0.0000 -0.4670 0.8842
vn -0.4421 -0.4670 0.7658
vn -0.8842 -0.4670 -0.0000
vn -0.7658 -0.4670 -0.4421
vn -0.0000 -0.4670 -0.8842
vn 0.4421 -0.4670 0.7658
vn -0.7658 -0.4670 0.4421
vn -0.4421 -0.4670 -0.7658
vn -0.8532 -0.1715 -0.4926
vn -0.4926 -0.1715 -0.8532
vn 0.9852 -0.1714 -0.0000
vn 0.8532 -0.1715 0.4926
vn 0.4926 -0.1715 -0.8532
vn 0.8532 -0.1714 -0.4926
vn -0.0000 -0.1715 0.9852
vn -0.4926 -0.1715 0.8532
vn -0.9852 -0.1715 -0.0000
vn -0.0000 -0.1715 -0.9852
vn 0.4926 -0.1715 0.8532
vn -0.8532 -0.1715 0.4926
vn -0.8421 0.2335 -0.4862
vn -0.4862 0.2335 -0.8421
vn 0.9723 0.2335 -0.0000
vn 0.8421 0.2335 0.4862
vn 0.4862 0.2335 -0.8421
vn 0.8421 0.2335 -0.4862
vn -0.0000 0.2335 0.9723
vn -0.4862 0.2335 0.8421
vn -0.9723 0.2335 -0.0000
vn -0.0000 0.2335 -0.9723
vn 0.4862 0.2335 0.8421
vn -0.8421 0.2335 0.4862
vn -0.3797 0.6507 0.6576
vn -0.6576 0.6507 0.3797
vn -0.6576 0.6507 -0.3797
vn -0.3797 0.6507 -0.6576
vn 0.7593 0.6507 -0.0000
vn 0.6576 0.6507 0.3797
vn 0.3797 0.6507 -0.6576
vn 0.6576 0.6507 -0.3797
vn -0.0000 0.6507 0.7593
vn -0.7593 0.6507 -0.0000
vn -0.0000 0.6507 -0.7593
vn 0.3797 0.6507 0.6576
vn 0.4311 0.8673 -0.2489
vn 0.4978 0.8673 -0.0000
vn -0.2489 0.8673 0.4311
vn -0.4311 0.8673 0.2489
vn -0.4311 0.8673 -0.2489
vn -0.2489 0.8673 -0.4311
vn 0.4311 0.8673 0.2489
vn 0.2489 0.8673 -0.4311
vn -0.0000 0.8673 0.4978
vn -0.4978 0.8673 -0.0000
vn -0.0000 0.8673 -0.4978
vn 0.2489 0.8673 0.4311
vn 0.2120 0.9696 -0.1224
vn 0.1224 0.9696 -0.2120
vn -0.0000 1.0000 -0.0000
vn 0.2447 0.9696 -0.0000
vn -0.0000 0.9696 -0.2447
vn -0.1224 0.9696 -0.2120
vn -0.2120 0.9696 -0.1224
vn -0.2447 0.9696 -0.0000
vn -0.2120 0.9696 0.1224
vn -0.1224 0.9696 0.2120
vn -0.0000 0.9696 0.2447
vn 0.1224 0.9696 0.2120
vn 0.2120 0.9696 0.1224
vn 0.8660 0.0097 -0.5000
vn 0.5000 0.0097 -0.8660
vn -0.5000 0.0097 0.8660
vn -0.0000 0.0097 1.0000
vn -0.8660 0.0097 -0.5000
vn -1.0000 0.0097 -0.0000
vn -0.0000 0.0097 -1.0000
vn 0.5000 0.0097 0.8660
vn -0.8660 0.0097 0.5000
vn -0.5000 0.0097 -0.8660
vn 0.8660 0.0097 0.5000
vn 1.0000 0.0097 -0.0000
vn -0.4906 -0.1930 0.8497
vn -0.0000 -0.1930 0.9812
vn -0.0000 -0.1930 -0.9812
vn -0.4906 -0.1930 -0.8497
vn -0.9812 -0.1930 -0.0000
vn -0.8497 -0.1930 0.4906
vn 0.8497 -0.1930 -0.4906
vn 0.4906 -0.1930 -0.8497
vn 0.4906 -0.1930 0.8497
vn 0.9812 -0.1930 -0.0000
vn 0.8497 -0.1930 0.4906
vn -0.8497 -0.1930 -0.4906
vn -0.0000 -0.5851 0.8110
vn 0.4055 -0.5851 0.7023
vn 0.7023 -0.5851 0.4055
vn 0.8110 -0.5851 -0.0000
vn 0.4055 -0.5851 -0.7023
vn -0.0000 -0.5851 -0.8110
vn -0.4055 -0.5851 0.7023
vn 0.7023 -0.5851 -0.4055
vn -0.7023 -0.5851 0.4055
vn -0.8110 -0.5851 -0.0000
vn -0.4055 -0.5851 -0.7023
vn -0.7023 -0.5851 -0.4055
vn 0.4691 -0.8832 -0.0000
vn 0.4062 -0.8832 -0.2345
vn -0.2345 -0.8832 -0.4062
vn -0.4062 -0.8832 -0.2345
vn -0.0000 -0.8832 -0.4691
vn 0.2345 -0.8832 0.4062
vn 0.4062 -0.8832 0.2345
vn -0.4062 -0.8832 0.2345
vn -0.2345 -0.8832 0.4062
vn 0.2345 -0.8832 -0.4062
vn -0.0000 -0.8832 0.4691
vn -0.4691 -0.8832 -0.0000
vn 0.1198 -0.9904 0.0691
vn 0.1383 -0.9904 -0.0000
vn 0.0691 -0.9904 0.1198
vn -0.0000 -1.0000 -0.0000
vn 0.1198 -0.9904 -0.0691
vn -0.0691 -0.9904 -0.1198
vn -0.1198 -0.9904 -0.0691
vn -0.0000 -0.9904 -0.1383
vn -0.1198 -0.9904 0.0691
vn -0.0691 -0.9904 0.1198
vn 0.0691 -0.9904 -0.1198
vn -0.0000 -0.9904 0.1383
vn -0.1383 -0.9904 -0.0000
vt 1.574553 0.590795
vt 1.574553 0.627994
vt 1.061576 0.627994
vt 1.061576 0.590795
vt 1.574553 0.330963
vt 1.574553 0.368162
vt 1.061576 0.368162
vt 1.061576 0.330963
vt 1.574553 0.702393
vt 1.574553 0.739311
vt 1.061576 0.739311
vt 1.061576 0.702393
vt 1.574553 0.442561
vt 1.574553 0.479760
vt 1.061576 0.479760
vt 1.061576 0.442561
vt 1.574553 0.553596
vt 1.061576 0.553596
vt 1.574553 0.294045
vt 1.061576 0.294045
vt 1.574553 0.665194
vt 1.061576 0.665194
vt 1.574553 0.405362
vt 1.061576 0.405362
vt 1.574553 0.516678
vt 1.061576 0.516678
vt 1.814848 0.590795
vt 1.814848 0.627994
vt 1.814848 0.330963
vt 1.814848 0.368162
vt 1.814848 0.702393
vt 1.814848 0.739311
vt 1.814848 0.442561
vt 1.814848 0.479760
vt 1.814848 0.553596
vt 1.814848 0.294045
vt 1.814847 0.665194
vt 1.814847 0.405361
vt 1.814848 0.516678
vt 1.859465 0.294045
vt 1.859465 0.330963
vt 1.859465 0.665194
vt 1.859465 0.702393
vt 1.859465 0.405361
vt 1.859465 0.442561
vt 1.859465 0.516678
vt 1.859465 0.553596
vt 1.859465 0.627994
vt 1.859465 0.368162
vt 1.859465 0.479760
vt 1.859465 0.590795
vt 1.859465 0.739311
vt 1.879103 0.553596
vt 1.879103 0.590795
vt 1.879103 0.294045
vt 1.879103 0.330963
vt 1.879103 0.665194
vt 1.879103 0.702393
vt 1.879103 0.405362
vt 1.879103 0.442561
vt 1.879103 0.516678
vt 1.879103 0.627994
vt 1.879103 0.368162
vt 1.879103 0.479760
vt 1.879103 0.739311
vt 1.900591 0.553596
vt 1.900591 0.590795
vt 1.900591 0.294045
vt 1.900591 0.330963
vt 1.900590 0.665194
vt 1.900591 0.702393
vt 1.900590 0.405361
vt 1.900591 0.442561
vt 1.900591 0.516678
vt 1.900591 0.627994
vt 1.900591 0.368162
vt 1.900591 0.479760
vt 1.900591 0.739311
vt 1.921462 0.442561
vt 1.921462 0.479760
vt 1.921462 0.553596
vt 1.921462 0.590795
vt 1.921462 0.294045
vt 1.921462 0.330963
vt 1.921462 0.665194
vt 1.921462 0.702393
vt 1.921462 0.405361
vt 1.921462 0.516678
vt 1.921462 0.627994
vt 1.921462 0.368162
vt 1.921462 0.739311
vt 1.950799 0.702393
vt 1.950799 0.739311
vt 1.950799 0.442561
vt 1.950799 0.479760
vt 1.950799 0.553596
vt 1.950799 0.590795
vt 1.950799 0.294045
vt 1.950799 0.330963
vt 1.950799 0.665194
vt 1.950799 0.405361
vt 1.950799 0.516678
vt 1.950799 0.627994
vt 1.950799 0.368162
vt 2.088885 0.553596
vt 2.059887 0.553596
vt 2.059887 0.516678
vt 2.088885 0.516678
vt 2.110978 0.516678
vt 2.110978 0.553596
vt 1.972892 0.665194
vt 1.972892 0.702393
vt 1.972892 0.627994
vt 1.972892 0.590795
vt 1.972892 0.553596
vt 1.972892 0.516678
vt 1.972892 0.479760
vt 1.972892 0.442561
vt 1.972892 0.405361
vt 1.972892 0.368162
vt 1.972892 0.330963
vt 1.972892 0.294045
vt 0.172376 0.702393
vt 0.172376 0.665194
vt 0.172376 0.442561
vt 0.172376 0.405362
vt 0.172376 0.553596
vt 0.172376 0.516678
vt 0.172376 0.627994
vt 0.172376 0.368162
vt 0.172376 0.479760
vt 0.172376 0.590795
vt 0.172376 0.330963
vt 0.172376 0.739311
vt 0.172376 0.294045
vt -0.890873 0.442561
vt -0.890873 0.405362
vt -0.890873 0.627995
vt -0.890873 0.590795
vt -0.890873 0.516678
vt -0.890873 0.479760
vt -0.890873 0.702393
vt -0.890873 0.665194
vt -0.890873 0.368162
vt -0.890873 0.739311
vt -0.890873 0.330963
vt -0.890873 0.294045
vt -0.890873 0.553596
vt -0.922194 0.405362
vt -0.922194 0.368162
vt -0.922194 0.330963
vt -0.922194 0.294045
vt -0.922194 0.665194
vt -0.922194 0.627995
vt -0.922194 0.442561
vt -0.922194 0.702393
vt -0.922194 0.479760
vt -0.922194 0.516678
vt -0.922194 0.739311
vt -0.922194 0.590795
vt -0.922194 0.553596
vt -0.944230 0.739311
vt -0.944230 0.702393
vt -0.944230 0.590795
vt -0.944230 0.553596
vt -0.944230 0.627995
vt -0.944230 0.368162
vt -0.944230 0.330963
vt -0.944230 0.479760
vt -0.944230 0.442561
vt -0.944230 0.665194
vt -0.944230 0.405362
vt -0.944230 0.516678
vt -0.944230 0.294045
vt -1.112695 0.516678
vt -1.112695 0.479760
vt -1.086458 0.479760
vt -1.086458 0.516678
vt -1.057460 0.479760
vt -1.057460 0.516678
vt -0.970466 0.739311
vt -0.970466 0.702393
vt -0.970466 0.590795
vt -0.970466 0.553596
vt -0.970466 0.627995
vt -0.970466 0.368162
vt -0.970466 0.330963
vt -0.970466 0.479760
vt -0.970466 0.442561
vt -0.970466 0.665194
vt -0.970466 0.405362
vt -0.970466 0.516678
vt 2.059887 0.479760
vt 2.088885 0.479760
vt 2.030889 0.516678
vt 2.030889 0.553596
vt 2.001890 0.553596
vt 2.001890 0.516678
vt 2.030889 0.479760
vt 2.001890 0.479760
vt -1.028462 0.553596
vt -1.028462 0.516678
vt -0.999464 0.516678
vt -0.999464 0.553596
vt -0.999464 0.479760
vt -1.057460 0.553596
vt -1.086458 0.553596
vt -1.028462 0.479760
s 1
usemtl Madera_Lisa
f 5/1/1 4/2/2 16/3/3 17/4/4
f 12/5/5 11/6/6 23/7/7 24/8/8
f 2/9/9 1/10/10 13/11/11 14/12/12
f 9/13/13 8/14/14 20/15/15 21/16/16
f 6/17/17 5/1/1 17/4/4 18/18/18
f 1/19/10 12/5/5 24/8/8 13/20/11
f 3/21/19 2/9/9 14/12/12 15/22/20
f 10/23/21 9/13/13 21/16/16 22/24/22
f 7/25/23 6/17/17 18/18/18 19/26/24
f 4/2/2 3/21/19 15/22/20 16/3/3
f 11/6/6 10/23/21 22/24/22 23/7/7
f 8/14/14 7/25/23 19/26/24 20/15/15
f 4/2/2 5/1/1 29/27/25 28/28/26
f 11/6/6 12/5/5 36/29/27 35/30/28
f 1/10/10 2/9/9 26/31/29 25/32/30
f 8/14/14 9/13/13 33/33/31 32/34/32
f 5/1/1 6/17/17 30/35/33 29/27/25
f 12/5/5 1/19/10 25/36/30 36/29/27
f 2/9/9 3/21/19 27/37/34 26/31/29
f 9/13/13 10/23/21 34/38/35 33/33/31
f 6/17/17 7/25/23 31/39/36 30/35/33
f 3/21/19 4/2/2 28/28/26 27/37/34
f 10/23/21 11/6/6 35/30/28 34/38/35
f 7/25/23 8/14/14 32/34/32 31/39/36
f 36/29/27 25/36/30 37/40/37 48/41/38
f 26/31/29 27/37/34 39/42/39 38/43/40
f 33/33/31 34/38/35 46/44/41 45/45/42
f 30/35/33 31/39/36 43/46/43 42/47/44
f 27/37/34 28/28/26 40/48/45 39/42/39
f 34/38/35 35/30/28 47/49/46 46/44/41
f 31/39/36 32/34/32 44/50/47 43/46/43
f 28/28/26 29/27/25 41/51/48 40/48/45
f 35/30/28 36/29/27 48/41/38 47/49/46
f 25/32/30 26/31/29 38/43/40 37/52/37
f 32/34/32 33/33/31 45/45/42 44/50/47
f 29/27/25 30/35/33 42/47/44 41/51/48
f 41/51/48 42/47/44 54/53/49 53/54/50
f 48/41/38 37/40/37 49/55/51 60/56/52
f 38/43/40 39/42/39 51/57/53 50/58/54
f 45/45/42 46/44/41 58/59/55 57/60/56
f 42/47/44 43/46/43 55/61/57 54/53/49
f 39/42/39 40/48/45 52/62/58 51/57/53
f 46/44/41 47/49/46 59/63/59 58/59/55
f 43/46/43 44/50/47 56/64/60 55/61/57
f 40/48/45 41/51/48 53/54/50 52/62/58
f 47/49/46 48/41/38 60/56/52 59/63/59
f 37/52/37 38/43/40 50/58/54 49/65/51
f 44/50/47 45/45/42 57/60/56 56/64/60
f 53/54/50 54/53/49 66/66/61 65/67/62
f 60/56/52 49/55/51 61/68/63 72/69/64
f 50/58/54 51/57/53 63/70/65 62/71/66
f 57/60/56 58/59/55 70/72/67 69/73/68
f 54/53/49 55/61/57 67/74/69 66/66/61
f 51/57/53 52/62/58 64/75/70 63/70/65
f 58/59/55 59/63/59 71/76/71 70/72/67
f 55/61/57 56/64/60 68/77/72 67/74/69
f 52/62/58 53/54/50 65/67/62 64/75/70
f 59/63/59 60/56/52 72/69/64 71/76/71
f 49/65/51 50/58/54 62/71/66 61/78/63
f 56/64/60 57/60/56 69/73/68 68/77/72
f 68/77/72 69/73/68 81/79/73 80/80/74
f 65/67/62 66/66/61 78/81/75 77/82/76
f 72/69/64 61/68/63 73/83/77 84/84/78
f 62/71/66 63/70/65 75/85/79 74/86/80
f 69/73/68 70/72/67 82/87/81 81/79/73
f 66/66/61 67/74/69 79/88/82 78/81/75
f 63/70/65 64/75/70 76/89/83 75/85/79
f 70/72/67 71/76/71 83/90/84 82/87/81
f 67/74/69 68/77/72 80/80/74 79/88/82
f 64/75/70 65/67/62 77/82/76 76/89/83
f 71/76/71 72/69/64 84/84/78 83/90/84
f 61/78/63 62/71/66 74/86/80 73/91/77
f 73/91/77 74/86/80 97/92/85 98/93/86
f 80/80/74 81/79/73 105/94/87 104/95/88
f 77/82/76 78/81/75 102/96/89 101/97/90
f 84/84/78 73/83/77 98/98/86 108/99/91
f 74/86/80 75/85/79 99/100/92 97/92/85
f 81/79/73 82/87/81 106/101/93 105/94/87
f 78/81/75 79/88/82 103/102/94 102/96/89
f 75/85/79 76/89/83 100/103/95 99/100/92
f 82/87/81 83/90/84 107/104/96 106/101/93
f 79/88/82 80/80/74 104/95/88 103/102/94
f 76/89/83 77/82/76 101/97/90 100/103/95
f 83/90/84 84/84/78 108/99/91 107/104/96
f 86/105/97 87/106/98 173/107/99 85/108/100
f 86/105/97 85/108/100 98/109/86 97/110/85
f 87/111/98 86/112/97 97/92/85 99/100/92
f 88/113/101 87/111/98 99/100/92 100/103/95
f 89/114/102 88/113/101 100/103/95 101/97/90
f 90/115/103 89/114/102 101/97/90 102/96/89
f 91/116/104 90/115/103 102/96/89 103/102/94
f 92/117/105 91/116/104 103/102/94 104/95/88
f 93/118/106 92/117/105 104/95/88 105/94/87
f 94/119/107 93/118/106 105/94/87 106/101/93
f 95/120/108 94/119/107 106/101/93 107/104/96
f 96/121/109 95/120/108 107/104/96 108/99/91
f 85/122/100 96/121/109 108/99/91 98/98/86
f 15/22/20 14/12/12 110/123/110 111/124/111
f 22/24/22 21/16/16 117/125/112 118/126/113
f 19/26/24 18/18/18 114/127/114 115/128/115
f 16/3/3 15/22/20 111/124/111 112/129/116
f 23/7/7 22/24/22 118/126/113 119/130/117
f 20/15/15 19/26/24 115/128/115 116/131/118
f 17/4/4 16/3/3 112/129/116 113/132/119
f 24/8/8 23/7/7 119/130/117 120/133/120
f 14/12/12 13/11/11 109/134/121 110/123/110
f 21/16/16 20/15/15 116/131/118 117/125/112
f 18/18/18 17/4/4 113/132/119 114/127/114
f 13/20/11 24/8/8 120/133/120 109/135/121
f 118/126/113 117/125/112 124/136/122 123/137/123
f 113/132/119 112/129/116 129/138/124 128/139/125
f 116/131/118 115/128/115 126/140/126 125/141/127
f 117/125/112 116/131/118 125/141/127 124/136/122
f 111/124/111 110/123/110 131/142/128 130/143/129
f 119/130/117 118/126/113 123/137/123 122/144/130
f 112/129/116 111/124/111 130/143/129 129/138/124
f 110/123/110 109/134/121 132/145/131 131/142/128
f 109/135/121 120/133/120 121/146/132 132/147/131
f 115/128/115 114/127/114 127/148/133 126/140/126
f 120/133/120 119/130/117 122/144/130 121/146/132
f 114/127/114 113/132/119 128/139/125 127/148/133
f 122/144/130 123/137/123 135/149/134 134/150/135
f 121/146/132 122/144/130 134/150/135 133/151/136
f 132/147/131 121/146/132 133/151/136 144/152/137
f 129/138/124 130/143/129 142/153/138 141/154/139
f 123/137/123 124/136/122 136/155/140 135/149/134
f 130/143/129 131/142/128 143/156/141 142/153/138
f 124/136/122 125/141/127 137/157/142 136/155/140
f 125/141/127 126/140/126 138/158/143 137/157/142
f 131/142/128 132/145/131 144/159/137 143/156/141
f 128/139/125 129/138/124 141/154/139 140/160/144
f 126/140/126 127/148/133 139/161/145 138/158/143
f 127/148/133 128/139/125 140/160/144 139/161/145
f 143/156/141 144/159/137 156/162/146 155/163/147
f 139/161/145 140/160/144 152/164/148 151/165/149
f 140/160/144 141/154/139 153/166/150 152/164/148
f 133/151/136 134/150/135 146/167/151 145/168/152
f 136/155/140 137/157/142 149/169/153 148/170/154
f 141/154/139 142/153/138 154/171/155 153/166/150
f 134/150/135 135/149/134 147/172/156 146/167/151
f 135/149/134 136/155/140 148/170/154 147/172/156
f 138/158/143 139/161/145 151/165/149 150/173/157
f 142/153/138 143/156/141 155/163/147 154/171/155
f 137/157/142 138/158/143 150/173/157 149/169/153
f 144/152/137 133/151/136 145/168/152 156/174/146
f 156/175/146 145/176/152 157/177/158 168/178/159
f 157/177/158 158/179/160 171/180/161 168/178/159
f 155/163/147 156/162/146 168/181/159 167/182/162
f 151/165/149 152/164/148 164/183/163 163/184/164
f 152/164/148 153/166/150 165/185/165 164/183/163
f 145/168/152 146/167/151 158/186/160 157/187/158
f 148/170/154 149/169/153 161/188/166 160/189/167
f 153/166/150 154/171/155 166/190/168 165/185/165
f 146/167/151 147/172/156 159/191/169 158/186/160
f 147/172/156 148/170/154 160/189/167 159/191/169
f 150/173/157 151/165/149 163/184/164 162/192/170
f 154/171/155 155/163/147 167/182/162 166/190/168
f 149/169/153 150/173/157 162/192/170 161/188/166
f 85/108/100 173/107/99 95/193/108 96/194/109
f 169/195/99 88/196/101 89/197/102 174/198/99
f 94/199/107 169/195/99 174/198/99 93/200/106
f 165/201/165 170/202/161 172/203/161 164/204/163
f 162/192/170 172/203/161 160/205/167 161/188/166
f 168/178/159 171/180/161 166/206/168 167/207/162
f 166/206/168 171/180/161 170/202/161 165/201/165
f 171/180/161 158/179/160 159/208/169 170/202/161
f 164/204/163 172/203/161 162/192/170 163/184/164
f 160/205/167 172/203/161 170/202/161 159/208/169
f 173/107/99 87/106/98 88/196/101 169/195/99
f 95/193/108 173/107/99 169/195/99 94/199/107
f 93/200/106 174/198/99 91/116/104 92/117/105
f 174/198/99 89/197/102 90/115/103 91/116/104
