# Blender 3.6.0
# www.blender.org
mtllib Cabina_Hachas.mtl
o Cabina_Hachas
v 5.405098 0.000000 5.889115
v 5.405098 1.000000 5.889115
v 5.405098 0.000000 4.348129
v 5.405098 1.000000 4.348129
v 1.373197 0.000000 4.348129
v 1.373197 1.000000 4.348129
v 1.373197 1.000000 5.889115
v 1.373197 0.000000 5.889115
v 1.826803 0.000000 -0.043469
v 1.826803 1.000000 4.306531
v 1.826803 1.000000 -0.043469
v 1.826803 0.000000 4.306531
v 1.373197 0.000000 4.306531
v 1.373197 1.000000 4.306531
v 1.373197 0.000000 -0.043469
v 1.373197 1.000000 -0.043469
v 1.826803 1.000000 4.348129
v 1.826803 0.000000 4.348129
v 1.826803 1.000000 5.889115
v 1.826803 0.000000 5.889115
v -1.373197 0.000000 5.889115
v -1.373197 1.000000 5.889115
v -1.373197 0.000000 4.348129
v -1.373197 1.000000 4.348129
v -5.843767 3.468277 5.848129
v 5.843767 3.468277 5.848129
v -5.843768 0.000000 5.848130
v 5.843768 0.000000 5.848130
v -5.858704 1.000000 4.348129
v -5.858704 0.000000 4.348129
v -5.858704 1.000000 5.889115
v -5.858704 0.000000 5.889115
v -1.826803 1.000000 -0.043469
v -1.826803 0.000000 -0.043469
v -1.826803 1.000000 4.306531
v -1.826803 0.000000 4.306531
v -5.405098 0.000000 4.306531
v -5.405098 1.000000 4.306531
v -5.405098 0.000000 -0.043469
v -5.405098 1.000000 -0.043469
v -5.858704 0.000000 4.306531
v -5.858704 1.000000 4.306531
v -5.858704 0.000000 -0.043469
v -5.858704 1.000000 -0.043469
v -5.405098 1.000000 4.348129
v -5.405098 0.000000 4.348129
v -5.405098 1.000000 5.889115
v -5.405098 0.000000 5.889115
v -0.600785 1.015448 5.913272
v -0.600785 2.700434 5.913272
v -0.600785 1.015448 5.766907
v -0.600785 2.700434 5.766907
v 0.600785 1.015448 5.913272
v 0.600785 2.700434 5.913272
v 0.600785 1.015448 5.766907
v 0.600785 2.700434 5.766907
v -3.850785 1.015448 5.913272
v -3.850785 2.700434 5.913272
v -3.850785 1.015448 5.766907
v -3.850785 2.700434 5.766907
v -2.649215 1.015448 5.913272
v -2.649215 2.700434 5.913272
v -2.649215 1.015448 5.766907
v -2.649215 2.700434 5.766907
v 2.649215 1.015448 5.913272
v 2.649215 2.700434 5.913272
v 2.649215 1.015448 5.766907
v 2.649215 2.700434 5.766907
v 3.850785 1.015448 5.913272
v 3.850785 2.700434 5.913272
v 3.850785 1.015448 5.766907
v 3.850785 2.700434 5.766907
v -1.600001 -0.000000 0.045459
v -1.600001 -0.000000 5.848130
v -1.600000 3.468277 0.045458
v -1.600000 3.468277 5.848129
v 1.600000 0.000000 0.045459
v 1.600000 0.000000 5.848130
v 1.600001 3.468277 0.045458
v 1.600001 3.468277 5.848129
v 5.858704 1.000000 4.306531
v 5.858704 0.000000 4.306531
v -5.631899 3.468277 5.848129
v -5.631899 3.468277 0.045458
v -5.631900 -0.000000 5.848130
v -5.631900 -0.000000 0.045459
v 5.858704 0.000000 5.889115
v 5.858704 1.000000 5.889115
v 5.858704 0.000000 4.348129
v 5.858704 1.000000 4.348129
v 5.405098 1.000000 -0.043469
v 5.405098 0.000000 -0.043469
v 5.405098 1.000000 4.306531
v 5.405098 0.000000 4.306531
v 5.858704 1.000000 -0.043469
v 5.858704 0.000000 -0.043469
v -1.373197 0.000000 4.306531
v -1.373197 1.000000 -0.043469
v -1.373197 1.000000 4.306531
v -1.373197 0.000000 -0.043469
v -1.826803 0.000000 5.889115
v -1.826803 1.000000 5.889115
v -1.826803 1.000000 4.348129
v -1.826803 0.000000 4.348129
v 5.631900 3.468277 5.848129
v 5.631900 3.468277 0.045458
v 5.631899 -0.000000 5.848130
v 5.631899 -0.000000 0.045459
v 5.843767 3.468277 5.982112
v -5.843767 3.468277 5.982112
v -5.843768 0.000000 5.982113
v 5.843768 0.000000 5.982113
v 5.597063 0.985668 0.080293
v 5.597063 3.501826 0.010621
v 5.597063 0.985668 0.010621
v 5.666735 0.985668 0.080293
v 5.666735 3.501826 0.010621
v 5.666735 0.985668 0.010621
v -5.666737 0.985668 0.080293
v -5.666737 3.501826 0.010621
v -5.666737 0.985668 0.010621
v -5.597064 0.985668 0.080293
v -5.597064 3.501826 0.010621
v -5.597064 0.985668 0.010621
v -1.634836 0.985668 0.080293
v -1.634836 3.501826 0.010621
v -1.634836 0.985668 0.010621
v -1.565164 0.985668 0.080293
v -1.565164 3.501826 0.010621
v -1.565164 0.985668 0.010621
v 1.565164 0.985668 0.080293
v 1.565164 3.501826 0.010621
v 1.565164 0.985668 0.010621
v 1.634836 0.985668 0.080293
v 1.634836 3.501826 0.010621
v 1.634836 0.985668 0.010621
v -5.666737 3.438045 0.080293
v -5.597064 3.438045 0.080293
v -1.634836 3.438045 0.080293
v -1.565164 3.438045 0.080293
v 1.565164 3.438045 0.080293
v 1.634836 3.438045 0.080293
v 5.597063 3.438045 0.080293
v 5.666735 3.438045 0.080293
v 5.597063 3.438045 5.778131
v 5.597063 3.501826 5.848131
v 5.666735 3.501826 5.848131
v -5.666737 3.438045 5.778131
v -5.666737 3.501826 5.848131
v -5.597064 3.501826 5.848131
v -1.634836 3.438045 5.778131
v -1.634836 3.501826 5.848131
v -1.565164 3.501826 5.848131
v 1.565164 3.438045 5.778131
v 1.565164 3.501826 5.848131
v 1.634836 3.501826 5.848131
v -5.597064 3.438045 5.778131
v -1.565164 3.438045 5.778131
v 1.634836 3.438045 5.778131
v 5.666735 3.438045 5.778131
v -5.597064 0.967206 5.778131
v -5.666737 0.967206 5.778131
v -1.565164 0.967206 5.778131
v -1.634836 0.967206 5.778131
v 1.634836 0.967206 5.778131
v 1.565164 0.967206 5.778131
v 5.666735 0.967206 5.778131
v 5.597063 0.967206 5.778131
v -5.597064 0.967206 5.848131
v -5.666737 0.967206 5.848131
v -1.565164 0.967206 5.848131
v -1.634836 0.967206 5.848131
v 1.634836 0.967206 5.848131
v 1.565164 0.967206 5.848131
v 5.666735 0.967206 5.848131
v 5.597063 0.967206 5.848131
v -5.797817 3.594019 -0.040599
v 5.797817 3.594019 -0.040599
v 5.797817 3.594019 5.992635
v -5.797817 3.594019 5.992635
v -5.724962 3.500058 0.130136
v -5.724962 3.568361 0.130136
v -5.724962 3.500058 0.061834
v -5.724962 3.568361 0.061834
v 5.724962 3.500058 0.130136
v 5.724962 3.568361 0.130136
v 5.724962 3.500058 0.061834
v 5.724962 3.568361 0.061834
v -5.724962 3.500058 5.844651
v -5.724962 3.568361 5.844651
v -5.724962 3.500058 5.776348
v -5.724962 3.568361 5.776348
v 5.724962 3.500058 5.844651
v 5.724962 3.568361 5.844651
v 5.724962 3.500058 5.776348
v 5.724962 3.568361 5.776348
v -5.724962 3.500058 1.494262
v -5.724962 3.568361 1.494262
v -5.724962 3.500058 1.425960
v -5.724962 3.568361 1.425960
v 5.724962 3.500058 1.494262
v 5.724962 3.568361 1.494262
v 5.724962 3.500058 1.425960
v 5.724962 3.568361 1.425960
v -5.724962 3.500058 4.375957
v -5.724962 3.568361 4.375957
v -5.724962 3.500058 4.307655
v -5.724962 3.568361 4.307655
v 5.724962 3.500058 4.375957
v 5.724962 3.568361 4.375957
v 5.724962 3.500058 4.307655
v 5.724962 3.568361 4.307655
v -5.724962 3.500058 2.997674
v -5.724962 3.568361 2.997674
v -5.724962 3.500058 2.929371
v -5.724962 3.568361 2.929371
v 5.724962 3.500058 2.997674
v 5.724962 3.568361 2.997674
v 5.724962 3.500058 2.929371
v 5.724962 3.568361 2.929371
vn -0.0000 -0.0000 1.0000
vn 1.0000 -0.0000 -0.0000
vn -0.0000 -0.0000 -1.0000
vn -0.0000 1.0000 -0.0000
vn -1.0000 -0.0000 -0.0000
vn -0.0000 -1.0000 -0.0000
vt -2.328491 -13.434540
vt -2.162243 -13.434540
vt -2.162242 14.434488
vt -2.328490 14.434488
vt 1.040928 -1.122626
vt 1.040928 -1.600911
vt 1.766036 -1.600911
vt 1.766036 -1.122627
vt 4.780516 -0.905703
vt 4.780516 0.066265
vt 4.332377 0.066266
vt 4.332376 -0.905702
vt 1.344931 0.527960
vt 1.785821 0.527960
vt 1.785821 4.825538
vt 1.344931 4.825538
vt 2.277340 0.429460
vt 1.806792 0.429460
vt 1.806792 0.212507
vt 2.277340 0.212507
vt 1.806791 -0.865839
vt 1.806791 -1.082791
vt 2.531899 -1.082791
vt 2.531899 -0.865839
vt -5.677443 2.028696
vt -5.677443 1.056728
vt -1.379865 1.056728
vt -1.379865 2.028695
vt 4.070461 2.566908
vt 5.042428 2.566908
vt 5.042428 3.015047
vt 4.070461 3.015047
vt -1.823756 -2.866535
vt -1.823756 -3.854484
vt 2.404301 -3.854485
vt 2.404301 -2.866535
vt 1.871391 0.527959
vt 2.312280 0.527959
vt 2.312280 4.825536
vt 1.871391 4.825536
vt 2.277339 2.242879
vt 1.806791 2.242879
vt 1.806791 2.025926
vt 2.277339 2.025926
vt 4.780515 3.910342
vt 4.780515 4.882310
vt 4.332376 4.882310
vt 4.332375 3.910342
vt 1.806791 -1.383958
vt 1.806791 -1.600911
vt 2.531899 -1.600911
vt 2.531899 -1.383958
vt 2.404302 -2.779558
vt 2.404302 -1.791610
vt -1.823756 -1.791610
vt -1.823756 -2.779558
vt 4.070461 1.496676
vt 5.042428 1.496676
vt 5.042428 1.944815
vt 4.070461 1.944815
vt 1.040928 -0.602234
vt 1.040928 -1.080519
vt 1.766036 -1.080519
vt 1.766036 -0.602234
vt 8.731791 0.115135
vt -8.091516 0.115136
vt -8.091517 -4.877182
vt 8.731793 -4.877184
vt 1.766036 -0.560128
vt 1.766036 -0.081843
vt 1.040928 -0.081843
vt 1.040928 -0.560128
vt 4.070461 3.102025
vt 5.042428 3.102024
vt 5.042428 3.550163
vt 4.070461 3.550163
vt -1.823756 -0.716684
vt -1.823756 -1.704632
vt 2.404301 -1.704633
vt 2.404302 -0.716684
vt 1.806791 -0.606779
vt 1.806791 -0.823731
vt 2.531899 -0.823731
vt 2.531899 -0.606779
vt 2.277339 -0.347719
vt 1.806792 -0.347719
vt 1.806791 -0.564672
vt 2.277339 -0.564672
vt 1.040928 0.438549
vt 1.040928 -0.039735
vt 1.766036 -0.039735
vt 1.766036 0.438549
vt 4.780515 -1.440819
vt 4.780515 -0.468852
vt 4.332376 -0.468851
vt 4.332376 -1.440818
vt 2.036986 -6.905766
vt 2.036986 -6.739517
vt 1.870738 -6.739517
vt 1.870738 -6.905766
vt 1.766036 0.480657
vt 1.766036 0.958941
vt 1.040928 0.958942
vt 1.040928 0.480657
vt 1.766035 1.001048
vt 1.766036 1.479333
vt 1.040928 1.479333
vt 1.040928 1.001048
vt -1.899348 14.434488
vt -2.065596 14.434488
vt -2.065597 -13.434540
vt -1.899349 -13.434540
vt 0.818471 0.527960
vt 1.259361 0.527960
vt 1.259361 4.825538
vt 0.818471 4.825538
vt 2.404301 -0.629707
vt 2.404301 0.358242
vt -1.823756 0.358243
vt -1.823756 -0.629706
vt 0.375000 0.000000
vt 0.625000 0.000000
vt 0.625000 0.250000
vt 0.375000 0.250000
vt 0.625000 0.500000
vt 0.375000 0.500000
vt 0.625000 0.750000
vt 0.375000 0.750000
vt 0.125000 0.500000
vt 0.125000 0.750000
vt 0.875000 0.500000
vt 0.875000 0.750000
vt -0.637456 0.511948
vt -0.637455 4.089598
vt 5.348206 4.089598
vt 5.348205 0.511948
vt 3.003281 1.056727
vt 3.003281 2.028695
vt -1.294295 2.028696
vt -1.294295 1.056728
vt 8.731791 0.162922
vt 8.731793 5.155240
vt -8.091518 5.155241
vt -8.091517 0.162923
vt 8.731794 5.395887
vt -8.091517 5.395889
vt -8.091517 5.203030
vt 8.731794 5.203029
vt -8.091516 5.443679
vt 8.731793 5.443678
vt 8.731792 5.636536
vt -8.091516 5.636537
vt 3.739475 5.684324
vt 8.731793 5.684324
vt 8.731793 5.877182
vt 3.739475 5.877183
vt 3.691687 5.877184
vt -1.300630 5.877184
vt -1.300630 5.684324
vt 3.691687 5.684324
vt 2.666085 -7.047336
vt 2.666085 -7.213584
vt 2.832333 -7.213584
vt 2.832334 -7.047336
vt 0.292010 0.527960
vt 0.732901 0.527960
vt 0.732901 4.825538
vt 0.292011 4.825538
vt 4.332376 1.136497
vt 4.332376 0.164529
vt 4.780515 0.164529
vt 4.780515 1.136497
vt 3.003281 -0.000810
vt 3.003281 0.971158
vt -1.294295 0.971158
vt -1.294295 -0.000810
vt 1.040928 1.999725
vt 1.040928 1.521440
vt 1.766035 1.521440
vt 1.766036 1.999725
vt -1.294295 -0.086379
vt -1.294296 -1.058347
vt 3.003281 -1.058347
vt 3.003281 -0.086380
vt 4.070461 2.031792
vt 5.042428 2.031792
vt 5.042428 2.479931
vt 4.070461 2.479931
vt 1.806791 0.730627
vt 2.277339 0.730627
vt 2.277339 0.947580
vt 1.806791 0.947580
vt 1.806791 -1.124898
vt 1.806791 -1.341851
vt 2.531899 -1.341851
vt 2.531899 -1.124898
vt 1.766036 2.041832
vt 1.766036 2.520117
vt 1.040928 2.520117
vt 1.040928 2.041832
vt 0.473182 0.750000
vt 0.571364 0.750000
vt 0.571364 0.000000
vt 0.473182 0.000000
vt 0.473182 1.000000
vt 0.375000 1.000000
vt 0.473182 0.500000
vt 0.473182 0.250000
vt 3.634348 -13.434539
vt 3.634348 -7.465473
vt 3.464767 -7.465473
vt 3.464767 -13.434539
vt 2.835666 -13.434539
vt 2.835667 -7.310230
vt 2.666086 -7.465473
vt 2.666085 -13.434539
vt 3.101894 -13.434540
vt 3.101893 -7.310240
vt 2.932312 -7.310240
vt 2.932312 -13.434540
vt 2.569439 -13.434540
vt 2.569439 -7.465473
vt 2.399858 -7.310229
vt 2.399858 -13.434540
vt 3.368121 -7.420536
vt 3.198539 -7.420536
vt 3.198539 -13.434540
vt 3.368121 -13.434540
vt 0.829576 -13.264957
vt 0.984819 -13.434539
vt 0.984819 0.773916
vt 0.829576 0.603537
vt 1.081465 -13.434539
vt 1.236708 -13.264957
vt 1.236708 0.603537
vt 1.081465 0.773916
vt 1.333353 -13.434540
vt 1.502935 -13.434540
vt 1.502935 0.433955
vt 1.333354 0.433955
vt 0.563348 -13.434539
vt 0.732930 -13.434539
vt 0.732930 0.773916
vt 0.563349 0.773916
vt 2.399858 -7.213584
vt 2.569440 -7.213584
vt 2.569440 -7.043204
vt 2.399858 -7.043204
vt 1.769960 -7.420536
vt 1.599580 -7.265292
vt 1.599580 -13.434540
vt 1.769960 -13.434540
vt 2.036987 -7.265304
vt 1.866606 -7.420546
vt 1.866607 -13.434540
vt 2.036987 -13.434540
vt 2.303214 -7.265292
vt 2.133633 -7.265292
vt 2.133633 -13.434540
vt 2.303214 -13.434540
vt -2.709341 -5.207909
vt 3.230334 -5.207910
vt 3.230333 6.207910
vt -2.709341 6.207910
vt -2.591385 14.434491
vt -2.591386 -13.434540
vt -2.425138 -13.434540
vt -2.425137 14.434491
vt -1.802702 -13.434540
vt -1.636454 -13.434540
vt -1.636453 14.434488
vt -1.802701 14.434488
vt 2.036986 -7.168659
vt 2.036986 -7.002410
vt 1.870738 -7.002410
vt 1.870738 -7.168659
vt -1.373559 14.434488
vt -1.539807 14.434488
vt -1.539808 -13.434540
vt -1.373560 -13.434540
vt 1.599580 -7.002399
vt 1.599580 -7.168647
vt 1.765828 -7.168647
vt 1.765828 -7.002399
vt -3.380071 14.434540
vt -3.380071 -13.434536
vt -3.213824 -13.434540
vt -3.213822 14.434540
vt -1.276913 -13.434540
vt -1.110665 -13.434540
vt -1.110664 14.434488
vt -1.276912 14.434488
vt 1.765828 -6.905754
vt 1.765828 -6.739506
vt 1.599580 -6.739506
vt 1.599580 -6.905754
vt -0.847770 14.434488
vt -1.014018 14.434488
vt -1.014019 -13.434540
vt -0.847771 -13.434540
vt 2.136965 -7.168647
vt 2.303213 -7.168647
vt 2.303213 -7.002399
vt 2.136965 -7.002400
vt -3.117175 14.434505
vt -3.117176 -13.434539
vt -2.950928 -13.434540
vt -2.950927 14.434505
vt -0.751124 -13.434540
vt -0.584876 -13.434540
vt -0.584875 14.434488
vt -0.751123 14.434488
vt 3.095227 -7.213584
vt 3.095227 -7.047336
vt 2.928979 -7.047336
vt 2.928979 -7.213584
vt -0.321981 14.434488
vt -0.488229 14.434488
vt -0.488230 -13.434540
vt -0.321982 -13.434540
vt 2.666085 -6.784443
vt 2.666085 -6.950691
vt 2.832333 -6.950691
vt 2.832333 -6.784443
vt -2.854280 14.434492
vt -2.854281 -13.434536
vt -2.688033 -13.434539
vt -2.688032 14.434492
vt -0.225335 -13.434540
vt -0.059087 -13.434540
vt -0.059086 14.434488
vt -0.225334 14.434488
vt 3.095227 -6.950691
vt 3.095227 -6.784443
vt 2.928979 -6.784443
vt 2.928979 -6.950691
vt 0.203808 14.434488
vt 0.037560 14.434488
vt 0.037559 -13.434540
vt 0.203807 -13.434540
vt 2.399859 -6.780311
vt 2.399859 -6.946560
vt 2.566107 -6.946560
vt 2.566107 -6.780311
vt 0.300454 14.434441
vt 0.300453 -13.434540
vt 0.466701 -13.434540
vt 0.466703 14.434441
s 0
usemtl Blancos
f 49/121/5 50/122/5 52/123/5 51/124/5
f 51/124/3 52/123/3 56/125/3 55/126/3
f 55/126/2 56/125/2 54/127/2 53/128/2
f 57/121/5 58/122/5 60/123/5 59/124/5
f 51/129/6 55/126/6 53/128/6 49/130/6
f 56/125/4 52/131/4 50/132/4 54/127/4
f 59/124/3 60/123/3 64/125/3 63/126/3
f 63/126/2 64/125/2 62/127/2 61/128/2
f 59/129/6 63/126/6 61/128/6 57/130/6
f 64/125/4 60/131/4 58/132/4 62/127/4
f 65/121/5 66/122/5 68/123/5 67/124/5
f 67/124/3 68/123/3 72/125/3 71/126/3
f 71/126/2 72/125/2 70/127/2 69/128/2
f 67/129/6 71/126/6 69/128/6 65/130/6
f 72/125/4 68/131/4 66/132/4 70/127/4
f 140/201/2 129/202/2 153/202/2 158/201/2
f 138/201/2 123/202/2 150/202/2 157/201/2
f 120/203/5 137/204/5 148/204/5 149/203/5
f 129/202/4 126/132/4 152/132/4 153/202/4
f 122/128/1 138/201/1 137/205/1 119/206/1
f 124/126/2 123/207/2 138/201/2 122/128/2
f 121/124/3 120/208/3 123/207/3 124/126/3
f 119/121/5 137/204/5 120/208/5 121/124/5
f 128/128/1 140/201/1 139/205/1 125/206/1
f 130/126/2 129/207/2 140/201/2 128/128/2
f 127/124/3 126/208/3 129/207/3 130/126/3
f 125/121/5 139/204/5 126/208/5 127/124/5
f 134/128/1 142/201/1 141/205/1 131/206/1
f 136/126/2 135/207/2 142/201/2 134/128/2
f 133/124/3 132/208/3 135/207/3 136/126/3
f 131/121/5 141/204/5 132/208/5 133/124/5
f 132/203/5 141/204/5 154/204/5 155/203/5
f 137/205/6 138/201/6 157/201/6 148/205/6
f 142/201/2 135/202/2 156/202/2 159/201/2
f 123/202/4 120/132/4 149/132/4 150/202/4
f 139/205/6 140/201/6 158/201/6 151/205/6
f 141/205/6 142/201/6 159/201/6 154/205/6
f 135/202/4 132/132/4 155/132/4 156/202/4
f 126/203/5 139/204/5 151/204/5 152/203/5
f 149/204/5 148/204/5 162/204/5 170/204/5
f 153/201/1 152/205/1 172/205/1 171/201/1
f 154/205/3 159/201/3 165/201/3 166/205/3
f 166/205/6 165/201/6 173/201/6 174/205/6
f 162/205/6 161/201/6 169/201/6 170/205/6
f 164/205/6 163/201/6 171/201/6 172/205/6
f 156/201/1 155/205/1 174/205/1 173/201/1
f 148/205/3 157/201/3 161/201/3 162/205/3
f 158/201/2 153/201/2 171/201/2 163/201/2
f 152/204/5 151/204/5 164/204/5 172/204/5
f 151/205/3 158/201/3 163/201/3 164/205/3
f 159/201/2 156/201/2 173/201/2 165/201/2
f 150/201/1 149/205/1 170/205/1 169/201/1
f 155/204/5 154/204/5 166/204/5 174/204/5
f 157/201/2 150/201/2 169/201/2 161/201/2
usemtl Madera
f 89/5/2 90/6/2 88/7/2 87/8/2
f 3/17/3 4/18/3 90/19/3 89/20/3
f 90/21/4 4/22/4 2/23/4 88/24/4
f 5/41/3 6/42/3 17/43/3 18/44/3
f 17/49/4 6/50/4 7/51/4 19/52/4
f 18/61/2 17/62/2 19/63/2 20/64/2
f 32/69/5 31/70/5 29/71/5 30/72/5
f 45/81/4 29/82/4 31/83/4 47/84/4
f 30/85/3 29/86/3 45/87/3 46/88/3
f 46/89/2 45/90/2 47/91/2 48/92/2
f 1/101/5 2/102/5 4/103/5 3/104/5
f 8/105/5 7/106/5 6/107/5 5/108/5
f 23/177/2 24/178/2 22/179/2 21/180/2
f 104/189/3 103/190/3 24/191/3 23/192/3
f 24/193/4 103/194/4 102/195/4 22/196/4
f 101/197/5 102/198/5 103/199/5 104/200/5
usemtl Madera_Oscura
f 26/65/1 25/66/1 27/67/1 28/68/1
f 109/141/3 112/142/3 111/143/3 110/144/3
f 28/145/4 27/146/4 111/147/4 112/148/4
f 25/149/6 26/150/6 109/151/6 110/152/6
f 26/153/5 28/154/5 112/155/5 109/156/5
f 27/157/2 25/158/2 110/159/2 111/160/2
usemtl Ladrillo
f 92/9/3 91/10/3 95/11/3 96/12/3
f 95/13/4 91/14/4 93/15/4 81/16/4
f 96/25/2 95/26/2 81/27/2 82/28/2
f 82/29/1 81/30/1 93/31/1 94/32/1
f 9/33/2 11/34/2 10/35/2 12/36/2
f 11/37/4 16/38/4 14/39/4 10/40/4
f 15/45/3 16/46/3 11/47/3 9/48/3
f 13/53/5 14/54/5 16/55/5 15/56/5
f 12/57/1 10/58/1 14/59/1 13/60/1
f 37/73/1 38/74/1 42/75/1 41/76/1
f 39/77/2 40/78/2 38/79/2 37/80/2
f 43/93/3 44/94/3 40/95/3 39/96/3
f 40/113/4 44/114/4 42/115/4 38/116/4
f 41/117/5 42/118/5 44/119/5 43/120/5
f 94/137/5 93/138/5 91/139/5 92/140/5
f 98/165/4 33/166/4 35/167/4 99/168/4
f 34/169/3 33/170/3 98/171/3 100/172/3
f 36/173/5 35/174/5 33/175/5 34/176/5
f 100/181/2 98/182/2 99/183/2 97/184/2
f 97/185/1 99/186/1 35/187/1 36/188/1
usemtl Metal
f 185/1/1 186/2/1 182/3/1 181/4/1
f 187/97/2 188/98/2 186/99/2 185/100/2
f 183/109/3 184/110/3 188/111/3 187/112/3
f 181/161/5 182/162/5 184/163/5 183/164/5
f 116/209/1 144/210/1 143/211/1 113/212/1
f 118/213/2 117/214/2 144/215/2 116/216/2
f 115/217/3 114/218/3 117/219/3 118/220/3
f 113/221/5 143/222/5 114/223/5 115/224/5
f 145/225/3 160/226/3 167/227/3 168/228/3
f 144/229/2 117/230/2 147/231/2 160/232/2
f 114/233/5 143/234/5 145/235/5 146/236/5
f 143/237/6 144/238/6 160/239/6 145/240/6
f 117/241/4 114/242/4 146/243/4 147/244/4
f 168/245/6 167/246/6 175/247/6 176/248/6
f 160/249/2 147/250/2 175/251/2 167/252/2
f 146/253/5 145/254/5 168/255/5 176/256/5
f 147/257/1 146/258/1 176/259/1 175/260/1
f 183/265/6 187/266/6 185/267/6 181/268/6
f 193/269/1 194/270/1 190/271/1 189/272/1
f 195/273/2 196/274/2 194/275/2 193/276/2
f 191/277/3 192/278/3 196/279/3 195/280/3
f 189/281/5 190/282/5 192/283/5 191/284/5
f 191/285/6 195/286/6 193/287/6 189/288/6
f 201/289/1 202/290/1 198/291/1 197/292/1
f 203/293/2 204/294/2 202/295/2 201/296/2
f 199/297/3 200/298/3 204/299/3 203/300/3
f 197/301/5 198/302/5 200/303/5 199/304/5
f 199/305/6 203/306/6 201/307/6 197/308/6
f 209/309/1 210/310/1 206/311/1 205/312/1
f 211/313/2 212/314/2 210/315/2 209/316/2
f 207/317/3 208/318/3 212/319/3 211/320/3
f 205/321/5 206/322/5 208/323/5 207/324/5
f 207/325/6 211/326/6 209/327/6 205/328/6
f 217/329/1 218/330/1 214/331/1 213/332/1
f 219/333/2 220/334/2 218/335/2 217/336/2
f 215/337/3 216/338/3 220/339/3 219/340/3
f 213/341/5 214/342/5 216/343/5 215/344/5
f 215/345/6 219/346/6 217/347/6 213/348/6
usemtl Rejas
f 75/133/5 73/134/5 74/135/5 76/136/5
f 79/133/5 77/134/5 78/135/5 80/136/5
f 84/133/5 86/134/5 85/135/5 83/136/5
f 106/133/5 108/134/5 107/135/5 105/136/5
usemtl Paja
f 177/261/4 180/262/4 179/263/4 178/264/4
