# Blender 3.6.0
# www.blender.org
mtllib Dados_Mano.mtl
o Dado
v -0.333174 -0.005676 -0.015482
v -0.333253 -0.003325 -0.014247
v -0.331267 -0.005019 -0.013754
v -0.333244 -0.004246 -0.015351
v -0.332143 -0.004350 -0.015083
v -0.331895 -0.003781 -0.014129
v -0.331839 -0.005443 -0.015002
v -0.331968 -0.023936 -0.007827
v -0.332112 -0.022706 -0.010177
v -0.330205 -0.022049 -0.008450
v -0.332024 -0.023808 -0.009258
v -0.330952 -0.023447 -0.009135
v -0.330777 -0.022474 -0.009698
v -0.330675 -0.023343 -0.008037
v -0.332939 0.002005 0.002806
v -0.332794 0.000776 0.005156
v -0.330953 0.000312 0.003299
v -0.332883 0.001877 0.004236
v -0.331790 0.001628 0.004039
v -0.331478 0.000680 0.004585
v -0.331581 0.001550 0.002923
v -0.331653 -0.018605 0.009225
v -0.329891 -0.016719 0.008603
v -0.331732 -0.016255 0.010460
v -0.330361 -0.018013 0.009016
v -0.330599 -0.017469 0.009987
v -0.330416 -0.016351 0.009889
v -0.331663 -0.017685 0.010329
v -0.352851 -0.006132 -0.013008
v -0.351088 -0.004246 -0.013630
v -0.351009 -0.006596 -0.014865
v -0.352381 -0.004838 -0.013421
v -0.352142 -0.005381 -0.014392
v -0.351079 -0.005166 -0.014735
v -0.352325 -0.006500 -0.014294
v -0.349803 -0.024856 -0.007211
v -0.351789 -0.023163 -0.007704
v -0.349947 -0.023626 -0.009561
v -0.351161 -0.024400 -0.007329
v -0.350951 -0.024479 -0.008444
v -0.351263 -0.023531 -0.008990
v -0.349859 -0.024728 -0.008642
v -0.350774 0.001085 0.003422
v -0.352536 -0.000801 0.004044
v -0.350629 -0.000144 0.005772
v -0.352066 0.000493 0.003631
v -0.351790 0.000596 0.004730
v -0.351964 -0.000377 0.005293
v -0.350717 0.000957 0.004853
v -0.349488 -0.019525 0.009842
v -0.349567 -0.017175 0.011076
v -0.351474 -0.017832 0.009349
v -0.349498 -0.018605 0.010946
v -0.350599 -0.018501 0.010678
v -0.350902 -0.017408 0.010597
v -0.350846 -0.019069 0.009724
v -0.356948 -0.012533 0.001802
v -0.359324 -0.011733 0.000924
v -0.357255 -0.010068 0.000859
v -0.358154 -0.012563 0.001020
v -0.357659 -0.011701 0.000467
v -0.358371 -0.010820 0.000354
v -0.356691 -0.011386 0.000974
v -0.345143 -0.004389 0.015507
v -0.345231 -0.006464 0.013851
v -0.345538 -0.004000 0.012909
v -0.344695 -0.005592 0.014861
v -0.344520 -0.004896 0.013978
v -0.344974 -0.005317 0.013024
v -0.344912 -0.003850 0.014194
v -0.370212 0.001945 0.004623
v -0.370124 0.004020 0.006279
v -0.368143 0.003609 0.004559
v -0.370660 0.003148 0.005269
v -0.369868 0.003637 0.004615
v -0.369197 0.004325 0.005223
v -0.369259 0.002858 0.004053
v -0.356031 0.009289 0.019206
v -0.356425 0.009678 0.016608
v -0.358407 0.010089 0.018328
v -0.355800 0.009828 0.017894
v -0.356729 0.010442 0.018126
v -0.357480 0.010394 0.017273
v -0.357201 0.010119 0.019110
v -0.366896 -0.021889 0.016188
v -0.367291 -0.021500 0.013591
v -0.364915 -0.022300 0.014468
v -0.367522 -0.022039 0.014903
v -0.366593 -0.022653 0.014670
v -0.366121 -0.022330 0.013687
v -0.365842 -0.022605 0.015524
v -0.353110 -0.014156 0.028173
v -0.355179 -0.015821 0.028238
v -0.353198 -0.016232 0.026518
v -0.354063 -0.015069 0.028743
v -0.353454 -0.015848 0.028182
v -0.354125 -0.016536 0.027573
v -0.352662 -0.015360 0.027527
v -0.378178 -0.007822 0.017290
v -0.377784 -0.008211 0.019887
v -0.378091 -0.005747 0.018945
v -0.378410 -0.008362 0.018602
v -0.378802 -0.007316 0.018818
v -0.378348 -0.006894 0.019772
v -0.378627 -0.006619 0.017936
v -0.363998 -0.000478 0.031872
v -0.366374 0.000321 0.030994
v -0.366067 -0.002143 0.031937
v -0.365168 0.000351 0.031776
v -0.365663 -0.000511 0.032330
v -0.366631 -0.000826 0.031822
v -0.364951 -0.001391 0.032443
v -0.351833 0.001701 -0.023202
v -0.350095 0.000462 -0.021621
v -0.351037 -0.000767 -0.023779
v -0.350614 0.001503 -0.022466
v -0.350389 0.000759 -0.023297
v -0.350052 -0.000242 -0.022874
v -0.351281 0.000634 -0.023992
v -0.369815 -0.004119 -0.029225
v -0.368127 -0.002084 -0.029485
v -0.367332 -0.004552 -0.030062
v -0.369331 -0.002845 -0.029683
v -0.368660 -0.003485 -0.030342
v -0.367575 -0.003151 -0.030275
v -0.368768 -0.004590 -0.030091
v -0.349856 -0.015111 -0.012861
v -0.351543 -0.017145 -0.012601
v -0.350798 -0.016339 -0.015019
v -0.350339 -0.016385 -0.012403
v -0.350120 -0.016704 -0.013473
v -0.351006 -0.017253 -0.013929
v -0.349812 -0.015815 -0.014113
v -0.369575 -0.019692 -0.020465
v -0.367092 -0.020124 -0.021302
v -0.367837 -0.020930 -0.018884
v -0.368529 -0.020162 -0.021330
v -0.368392 -0.020948 -0.020519
v -0.367300 -0.021039 -0.020212
v -0.369056 -0.020732 -0.019620
v -0.359909 0.008799 -0.006533
v -0.357426 0.008366 -0.007370
v -0.359164 0.009605 -0.008951
v -0.358473 0.008837 -0.006505
v -0.358609 0.009622 -0.007316
v -0.357946 0.009407 -0.008215
v -0.359701 0.009713 -0.007623
v -0.377146 0.003785 -0.014974
v -0.376204 0.005014 -0.012816
v -0.375458 0.005820 -0.015234
v -0.377189 0.004489 -0.013721
v -0.376881 0.005378 -0.014362
v -0.375996 0.005928 -0.013906
v -0.376662 0.005059 -0.015432
v -0.357187 -0.007207 0.001390
v -0.359670 -0.006774 0.002227
v -0.358874 -0.009241 0.001650
v -0.358233 -0.006736 0.002256
v -0.358341 -0.007840 0.002507
v -0.359426 -0.008175 0.002440
v -0.357670 -0.008481 0.001848
v -0.376906 -0.011787 -0.006214
v -0.375168 -0.013026 -0.004633
v -0.375964 -0.010559 -0.004055
v -0.376387 -0.012828 -0.005369
v -0.376613 -0.012085 -0.004538
v -0.375721 -0.011960 -0.003843
v -0.376949 -0.011084 -0.004961
vn -0.1247 -0.9846 0.1222
vn 0.2334 -0.9662 0.1098
vn 0.2397 -0.8592 0.4521
vn -0.1184 -0.8776 0.4645
vn 0.2067 0.1269 0.9701
vn 0.1854 0.4687 0.8637
vn -0.1727 0.4503 0.8760
vn -0.1513 0.1084 0.9825
vn -0.9516 -0.1672 0.2578
vn -0.9729 0.1746 0.1513
vn -0.9792 0.0676 -0.1910
vn -0.9579 -0.2743 -0.0846
vn 0.1184 0.8776 -0.4645
vn -0.2397 0.8592 -0.4521
vn -0.2334 0.9662 -0.1098
vn 0.1247 0.9846 -0.1222
vn 0.9729 -0.1746 -0.1513
vn 0.9516 0.1673 -0.2578
vn 0.9579 0.2743 0.0846
vn 0.9793 -0.0676 0.1910
vn 0.1513 -0.1084 -0.9825
vn 0.1186 0.4649 -0.8774
vn 0.5318 0.4078 -0.7423
vn 0.6727 -0.0075 -0.7399
vn 0.6507 0.6482 -0.3954
vn 0.2014 -0.8627 -0.4639
vn 0.6004 -0.6928 -0.3995
vn 0.7335 -0.6794 0.0180
vn 0.1727 -0.4503 -0.8760
vn 0.6932 -0.3364 -0.6375
vn 0.1431 0.8805 0.4520
vn 0.5521 0.7522 0.3597
vn 0.6568 0.7512 -0.0661
vn 0.6972 0.4081 0.5894
vn 0.7396 -0.5765 0.3474
vn 0.6207 -0.3483 0.7024
vn 0.2259 -0.4471 0.8655
vn 0.7177 0.0792 0.6919
vn -0.7396 0.5765 -0.3474
vn -0.6207 0.3483 -0.7024
vn -0.7177 -0.0792 -0.6919
vn -0.2259 0.4471 -0.8655
vn -0.2067 -0.1269 -0.9701
vn -0.6568 -0.7512 0.0661
vn -0.5521 -0.7522 -0.3597
vn -0.1431 -0.8805 -0.4520
vn -0.6972 -0.4081 -0.5894
vn -0.1854 -0.4688 -0.8637
vn -0.7335 0.6794 -0.0181
vn -0.6004 0.6928 0.3995
vn -0.2014 0.8627 0.4639
vn -0.6932 0.3364 0.6375
vn -0.1186 -0.4649 0.8774
vn -0.5318 -0.4077 0.7423
vn -0.6507 -0.6482 0.3955
vn -0.6727 0.0075 0.7399
vn 0.6636 0.0932 0.7423
vn 0.8235 0.2892 0.4880
vn 0.6050 0.5638 0.5622
vn 0.4450 0.3677 0.8165
vn -0.3918 0.8994 0.1940
vn -0.6270 0.7775 -0.0478
vn -0.7870 0.5814 0.2064
vn -0.5517 0.7033 0.4483
vn -0.4229 -0.3305 0.8437
vn -0.6582 -0.4523 0.6018
vn -0.4396 -0.7269 0.5276
vn -0.2044 -0.6051 0.7695
vn -0.4450 -0.3677 -0.8165
vn -0.6050 -0.5638 -0.5623
vn -0.8235 -0.2892 -0.4880
vn -0.6636 -0.0932 -0.7423
vn 0.6582 0.4523 -0.6018
vn 0.4229 0.3305 -0.8437
vn 0.2044 0.6051 -0.7695
vn 0.4396 0.7269 -0.5276
vn 0.5517 -0.7033 -0.4483
vn 0.0446 -0.6753 -0.7362
vn 0.2306 -0.3224 -0.9181
vn 0.6218 -0.2110 -0.7542
vn -0.0410 0.0121 -0.9991
vn 0.9580 -0.2023 0.2032
vn 0.9878 0.0697 -0.1394
vn 0.8724 0.4852 -0.0598
vn 0.7870 -0.5814 -0.2064
vn 0.8481 -0.0938 -0.5215
vn -0.8042 0.3909 -0.4478
vn -0.4730 0.5614 -0.6790
vn -0.2513 0.2763 -0.9276
vn -0.2270 0.8552 -0.4659
vn 0.6621 0.7493 0.0117
vn 0.2842 0.9536 0.0996
vn 0.1093 0.8640 0.4915
vn -0.0007 0.9724 -0.2332
vn -0.6621 -0.7493 -0.0117
vn -0.2842 -0.9536 -0.0996
vn 0.0007 -0.9724 0.2332
vn -0.1093 -0.8640 -0.4915
vn 0.3918 -0.8994 -0.1940
vn 0.2513 -0.2763 0.9276
vn 0.4730 -0.5614 0.6790
vn 0.8042 -0.3909 0.4478
vn 0.2270 -0.8552 0.4659
vn 0.6270 -0.7775 0.0478
vn -0.8724 -0.4852 0.0598
vn -0.9878 -0.0697 0.1395
vn -0.9580 0.2023 -0.2032
vn -0.8481 0.0938 0.5215
vn -0.0446 0.6753 0.7362
vn -0.2306 0.3224 0.9181
vn 0.0410 -0.0121 0.9991
vn -0.6218 0.2110 0.7542
vn -0.9580 0.0308 -0.2850
vn -0.8109 -0.1279 -0.5711
vn -0.8061 -0.4405 -0.3952
vn -0.9532 -0.2819 -0.1091
vn -0.0770 -0.9603 0.2681
vn 0.2501 -0.8843 0.3942
vn 0.1029 -0.7256 0.6803
vn -0.2242 -0.8016 0.5542
vn -0.5580 0.2336 0.7963
vn -0.2309 0.3095 0.9224
vn -0.2357 0.6222 0.7466
vn -0.5628 0.5462 0.6204
vn 0.9532 0.2819 0.1091
vn 0.8061 0.4405 0.3952
vn 0.8109 0.1279 0.5711
vn 0.9580 -0.0308 0.2850
vn 0.2309 -0.3095 -0.9224
vn 0.5580 -0.2336 -0.7963
vn 0.5628 -0.5462 -0.6204
vn 0.2357 -0.6222 -0.7466
vn 0.2242 0.8016 -0.5542
vn 0.6966 0.6782 -0.2342
vn 0.7556 0.3701 -0.5405
vn 0.4338 0.3355 -0.8363
vn 0.9186 -0.0102 -0.3952
vn -0.5737 0.3831 -0.7240
vn -0.2973 0.1255 -0.9465
vn -0.3517 -0.3052 -0.8850
vn -0.1029 0.7256 -0.6803
vn 0.1191 0.2624 -0.9576
vn 0.7152 -0.5358 0.4487
vn 0.7711 -0.6362 0.0256
vn 0.9232 -0.3109 -0.2260
vn 0.4524 -0.8785 -0.1533
vn -0.3471 -0.6060 -0.7158
vn -0.2819 -0.8808 -0.3804
vn -0.5550 -0.8308 -0.0411
vn 0.1377 -0.9516 -0.2747
vn 0.3471 0.6060 0.7158
vn 0.2819 0.8808 0.3804
vn -0.1377 0.9516 0.2747
vn 0.5550 0.8308 0.0411
vn 0.0770 0.9603 -0.2681
vn -0.9232 0.3109 0.2260
vn -0.7711 0.6362 -0.0256
vn -0.7152 0.5358 -0.4487
vn -0.4524 0.8785 0.1533
vn -0.2501 0.8843 -0.3942
vn 0.3517 0.3052 0.8850
vn 0.2973 -0.1255 0.9465
vn 0.5737 -0.3831 0.7240
vn -0.1191 -0.2624 0.9576
vn -0.6966 -0.6782 0.2342
vn -0.7556 -0.3701 0.5405
vn -0.9186 0.0102 0.3952
vn -0.4338 -0.3355 0.8363
vt 0.702736 0.103892
vt 0.848328 0.103892
vt 0.848328 0.395077
vt 0.702736 0.395077
vt 0.155516 0.109042
vt 0.301109 0.109042
vt 0.301109 0.400228
vt 0.155516 0.400228
vt 0.702986 0.597354
vt 0.848578 0.597354
vt 0.848578 0.888539
vt 0.702986 0.888539
vt 0.154437 0.600271
vt 0.300030 0.600271
vt 0.300030 0.891457
vt 0.154437 0.891457
vt 0.431451 0.104891
vt 0.577044 0.104891
vt 0.577044 0.396077
vt 0.431451 0.396077
vt 0.574332 0.887463
vt 0.589634 0.887463
vt 0.589634 0.905132
vt 0.574332 0.918067
vt 0.139135 0.600271
vt 0.139135 0.582602
vt 0.154437 0.569667
vt 0.577044 0.074287
vt 0.585879 0.074287
vt 0.592346 0.104891
vt 0.848328 0.073287
vt 0.857163 0.073287
vt 0.863631 0.103892
vt 0.428739 0.887462
vt 0.428739 0.918067
vt 0.419905 0.918067
vt 0.413437 0.887463
vt 0.416149 0.104891
vt 0.416149 0.087222
vt 0.431451 0.074287
vt 0.154437 0.922061
vt 0.145602 0.922061
vt 0.139135 0.891457
vt 0.301109 0.078438
vt 0.309944 0.078438
vt 0.316411 0.109042
vt 0.592346 0.396077
vt 0.592346 0.413746
vt 0.577044 0.426681
vt 0.863631 0.395077
vt 0.863631 0.412747
vt 0.848328 0.425682
vt 0.431451 0.426681
vt 0.422617 0.426681
vt 0.416149 0.396077
vt 0.140214 0.109042
vt 0.140214 0.091373
vt 0.155516 0.078438
vt 0.863880 0.888539
vt 0.863880 0.906209
vt 0.848578 0.919144
vt 0.300030 0.569667
vt 0.308864 0.569667
vt 0.315332 0.600271
vt 0.574332 0.596277
vt 0.574332 0.565673
vt 0.583167 0.565673
vt 0.589634 0.596277
vt 0.687433 0.103892
vt 0.687433 0.086222
vt 0.702736 0.073287
vt 0.702986 0.919144
vt 0.694151 0.919144
vt 0.687683 0.888539
vt 0.428739 0.596277
vt 0.413437 0.596277
vt 0.413437 0.578608
vt 0.428739 0.565673
vt 0.315332 0.891457
vt 0.315332 0.909126
vt 0.300030 0.922061
vt 0.848578 0.566749
vt 0.857413 0.566749
vt 0.863880 0.597354
vt 0.316411 0.400228
vt 0.316411 0.417897
vt 0.301109 0.430832
vt 0.702736 0.425682
vt 0.693901 0.425682
vt 0.687433 0.395077
vt 0.155516 0.430832
vt 0.146682 0.430832
vt 0.140214 0.400228
vt 0.687683 0.597354
vt 0.687683 0.579684
vt 0.702986 0.566749
s 1
usemtl Dado
f 36/1/1 8/2/2 22/3/3 50/4/4
f 24/5/5 16/6/6 45/7/7 51/8/8
f 52/9/9 44/10/10 29/11/11 37/12/12
f 2/13/13 30/14/14 43/15/15 15/16/16
f 10/17/17 3/18/18 17/19/19 23/20/20
f 1/21/21 4/22/22 5/23/23 7/24/24
f 2/13/13 6/25/25 5/26/23 4/27/22
f 3/18/18 7/28/24 5/29/23 6/30/25
f 8/2/2 11/31/26 12/32/27 14/33/28
f 9/34/29 13/35/30 12/36/27 11/37/26
f 10/17/17 14/38/28 12/39/27 13/40/30
f 15/16/16 18/41/31 19/42/32 21/43/33
f 16/6/6 20/44/34 19/45/32 18/46/31
f 17/19/19 21/47/33 19/48/32 20/49/34
f 22/3/3 25/50/35 26/51/36 28/52/37
f 23/20/20 27/53/38 26/54/36 25/55/35
f 24/5/5 28/56/37 26/57/36 27/58/38
f 29/11/11 32/59/39 33/60/40 35/61/41
f 30/14/14 34/62/42 33/63/40 32/64/39
f 31/65/43 35/66/41 33/67/40 34/68/42
f 36/1/1 39/69/44 40/70/45 42/71/46
f 37/12/12 41/72/47 40/73/45 39/74/44
f 38/75/48 42/76/46 40/77/45 41/78/47
f 43/15/15 46/79/49 47/80/50 49/81/51
f 44/10/10 48/82/52 47/83/50 46/84/49
f 45/7/7 49/85/51 47/86/50 48/87/52
f 50/4/4 53/88/53 54/89/54 56/90/55
f 51/8/8 55/91/56 54/92/54 53/93/53
f 52/9/9 56/94/55 54/95/54 55/96/56
f 15/16/16 43/15/15 49/81/51 18/41/31
f 18/46/31 49/85/51 45/7/7 16/6/6
f 50/4/4 22/3/3 28/52/37 53/88/53
f 53/93/53 28/56/37 24/5/5 51/8/8
f 16/6/6 24/5/5 27/58/38 20/44/34
f 20/49/34 27/53/38 23/20/20 17/19/19
f 22/3/3 8/2/2 14/33/28 25/50/35
f 25/55/35 14/38/28 10/17/17 23/20/20
f 3/18/18 10/17/17 13/40/30 7/28/24
f 7/24/24 13/35/30 9/34/29 1/21/21
f 8/2/2 36/1/1 42/71/46 11/31/26
f 11/37/26 42/76/46 38/75/48 9/34/29
f 31/65/43 38/75/48 41/78/47 35/66/41
f 35/61/41 41/72/47 37/12/12 29/11/11
f 51/8/8 45/7/7 48/87/52 55/91/56
f 55/96/56 48/82/52 44/10/10 52/9/9
f 36/1/1 50/4/4 56/90/55 39/69/44
f 39/74/44 56/94/55 52/9/9 37/12/12
f 2/13/13 15/16/16 21/43/33 6/25/25
f 6/30/25 21/47/33 17/19/19 3/18/18
f 30/14/14 2/13/13 4/27/22 34/62/42
f 34/68/42 4/22/22 1/21/21 31/65/43
f 43/15/15 30/14/14 32/64/39 46/79/49
f 46/84/49 32/59/39 29/11/11 44/10/10
f 38/75/48 31/65/43 1/21/21 9/34/29
f 92/1/57 64/2/58 78/3/59 106/4/60
f 80/5/61 72/6/62 101/7/63 107/8/64
f 108/9/65 100/10/66 85/11/67 93/12/68
f 58/13/69 86/14/70 99/15/71 71/16/72
f 66/17/73 59/18/74 73/19/75 79/20/76
f 57/21/77 60/22/78 61/23/79 63/24/80
f 58/13/69 62/25/81 61/26/79 60/27/78
f 59/18/74 63/28/80 61/29/79 62/30/81
f 64/2/58 67/31/82 68/32/83 70/33/84
f 65/34/85 69/35/86 68/36/83 67/37/82
f 66/17/73 70/38/84 68/39/83 69/40/86
f 71/16/72 74/41/87 75/42/88 77/43/89
f 72/6/62 76/44/90 75/45/88 74/46/87
f 73/19/75 77/47/89 75/48/88 76/49/90
f 78/3/59 81/50/91 82/51/92 84/52/93
f 79/20/76 83/53/94 82/54/92 81/55/91
f 80/5/61 84/56/93 82/57/92 83/58/94
f 85/11/67 88/59/95 89/60/96 91/61/97
f 86/14/70 90/62/98 89/63/96 88/64/95
f 87/65/99 91/66/97 89/67/96 90/68/98
f 92/1/57 95/69/100 96/70/101 98/71/102
f 93/12/68 97/72/103 96/73/101 95/74/100
f 94/75/104 98/76/102 96/77/101 97/78/103
f 99/15/71 102/79/105 103/80/106 105/81/107
f 100/10/66 104/82/108 103/83/106 102/84/105
f 101/7/63 105/85/107 103/86/106 104/87/108
f 106/4/60 109/88/109 110/89/110 112/90/111
f 107/8/64 111/91/112 110/92/110 109/93/109
f 108/9/65 112/94/111 110/95/110 111/96/112
f 71/16/72 99/15/71 105/81/107 74/41/87
f 74/46/87 105/85/107 101/7/63 72/6/62
f 106/4/60 78/3/59 84/52/93 109/88/109
f 109/93/109 84/56/93 80/5/61 107/8/64
f 72/6/62 80/5/61 83/58/94 76/44/90
f 76/49/90 83/53/94 79/20/76 73/19/75
f 78/3/59 64/2/58 70/33/84 81/50/91
f 81/55/91 70/38/84 66/17/73 79/20/76
f 59/18/74 66/17/73 69/40/86 63/28/80
f 63/24/80 69/35/86 65/34/85 57/21/77
f 64/2/58 92/1/57 98/71/102 67/31/82
f 67/37/82 98/76/102 94/75/104 65/34/85
f 87/65/99 94/75/104 97/78/103 91/66/97
f 91/61/97 97/72/103 93/12/68 85/11/67
f 107/8/64 101/7/63 104/87/108 111/91/112
f 111/96/112 104/82/108 100/10/66 108/9/65
f 92/1/57 106/4/60 112/90/111 95/69/100
f 95/74/100 112/94/111 108/9/65 93/12/68
f 58/13/69 71/16/72 77/43/89 62/25/81
f 62/30/81 77/47/89 73/19/75 59/18/74
f 86/14/70 58/13/69 60/27/78 90/62/98
f 90/68/98 60/22/78 57/21/77 87/65/99
f 99/15/71 86/14/70 88/64/95 102/79/105
f 102/84/105 88/59/95 85/11/67 100/10/66
f 94/75/104 87/65/99 57/21/77 65/34/85
f 148/1/113 120/2/114 134/3/115 162/4/116
f 136/5/117 128/6/118 157/7/119 163/8/120
f 164/9/121 156/10/122 141/11/123 149/12/124
f 114/13/125 142/14/126 155/15/127 127/16/128
f 122/17/129 115/18/130 129/19/131 135/20/132
f 113/21/133 116/22/134 117/23/135 119/24/136
f 114/13/125 118/25/137 117/26/135 116/27/134
f 115/18/130 119/28/136 117/29/135 118/30/137
f 120/2/114 123/31/138 124/32/139 126/33/140
f 121/34/141 125/35/142 124/36/139 123/37/138
f 122/17/129 126/38/140 124/39/139 125/40/142
f 127/16/128 130/41/143 131/42/144 133/43/145
f 128/6/118 132/44/146 131/45/144 130/46/143
f 129/19/131 133/47/145 131/48/144 132/49/146
f 134/3/115 137/50/147 138/51/148 140/52/149
f 135/20/132 139/53/150 138/54/148 137/55/147
f 136/5/117 140/56/149 138/57/148 139/58/150
f 141/11/123 144/59/151 145/60/152 147/61/153
f 142/14/126 146/62/154 145/63/152 144/64/151
f 143/65/155 147/66/153 145/67/152 146/68/154
f 148/1/113 151/69/156 152/70/157 154/71/158
f 149/12/124 153/72/159 152/73/157 151/74/156
f 150/75/160 154/76/158 152/77/157 153/78/159
f 155/15/127 158/79/161 159/80/162 161/81/163
f 156/10/122 160/82/164 159/83/162 158/84/161
f 157/7/119 161/85/163 159/86/162 160/87/164
f 162/4/116 165/88/165 166/89/166 168/90/167
f 163/8/120 167/91/168 166/92/166 165/93/165
f 164/9/121 168/94/167 166/95/166 167/96/168
f 127/16/128 155/15/127 161/81/163 130/41/143
f 130/46/143 161/85/163 157/7/119 128/6/118
f 162/4/116 134/3/115 140/52/149 165/88/165
f 165/93/165 140/56/149 136/5/117 163/8/120
f 128/6/118 136/5/117 139/58/150 132/44/146
f 132/49/146 139/53/150 135/20/132 129/19/131
f 134/3/115 120/2/114 126/33/140 137/50/147
f 137/55/147 126/38/140 122/17/129 135/20/132
f 115/18/130 122/17/129 125/40/142 119/28/136
f 119/24/136 125/35/142 121/34/141 113/21/133
f 120/2/114 148/1/113 154/71/158 123/31/138
f 123/37/138 154/76/158 150/75/160 121/34/141
f 143/65/155 150/75/160 153/78/159 147/66/153
f 147/61/153 153/72/159 149/12/124 141/11/123
f 163/8/120 157/7/119 160/87/164 167/91/168
f 167/96/168 160/82/164 156/10/122 164/9/121
f 148/1/113 162/4/116 168/90/167 151/69/156
f 151/74/156 168/94/167 164/9/121 149/12/124
f 114/13/125 127/16/128 133/43/145 118/25/137
f 118/30/137 133/47/145 129/19/131 115/18/130
f 142/14/126 114/13/125 116/27/134 146/62/154
f 146/68/154 116/22/134 113/21/133 143/65/155
f 155/15/127 142/14/126 144/64/151 158/79/161
f 158/84/161 144/59/151 141/11/123 156/10/122
f 150/75/160 143/65/155 113/21/133 121/34/141
