# Blender 3.6.0
# www.blender.org
mtllib Dado.mtl
o Dado
v 0.008935 0.008935 -0.010813
v 0.008935 0.010813 -0.008935
v 0.010813 0.008935 -0.008935
v 0.008935 0.010263 -0.010263
v 0.010019 0.010019 -0.010019
v 0.010263 0.010263 -0.008935
v 0.010263 0.008935 -0.010263
v 0.008935 -0.010813 -0.008935
v 0.008935 -0.008935 -0.010813
v 0.010813 -0.008935 -0.008935
v 0.008935 -0.010263 -0.010263
v 0.010019 -0.010019 -0.010019
v 0.010263 -0.008935 -0.010263
v 0.010263 -0.010263 -0.008935
v 0.008935 0.010813 0.008935
v 0.008935 0.008935 0.010813
v 0.010813 0.008935 0.008935
v 0.008935 0.010263 0.010263
v 0.010019 0.010019 0.010019
v 0.010263 0.008935 0.010263
v 0.010263 0.010263 0.008935
v 0.008935 -0.010813 0.008935
v 0.010813 -0.008935 0.008935
v 0.008935 -0.008935 0.010813
v 0.010263 -0.010263 0.008935
v 0.010019 -0.010019 0.010019
v 0.010263 -0.008935 0.010263
v 0.008935 -0.010263 0.010263
v -0.010813 0.008935 -0.008935
v -0.008935 0.010813 -0.008935
v -0.008935 0.008935 -0.010813
v -0.010263 0.010263 -0.008935
v -0.010019 0.010019 -0.010019
v -0.008935 0.010263 -0.010263
v -0.010263 0.008935 -0.010263
v -0.008935 -0.010813 -0.008935
v -0.010813 -0.008935 -0.008935
v -0.008935 -0.008935 -0.010813
v -0.010263 -0.010263 -0.008935
v -0.010019 -0.010019 -0.010019
v -0.010263 -0.008935 -0.010263
v -0.008935 -0.010263 -0.010263
v -0.008935 0.010813 0.008935
v -0.010813 0.008935 0.008935
v -0.008935 0.008935 0.010813
v -0.010263 0.010263 0.008935
v -0.010019 0.010019 0.010019
v -0.010263 0.008935 0.010263
v -0.008935 0.010263 0.010263
v -0.008935 -0.010813 0.008935
v -0.008935 -0.008935 0.010813
v -0.010813 -0.008935 0.008935
v -0.008935 -0.010263 0.010263
v -0.010019 -0.010019 0.010019
v -0.010263 -0.008935 0.010263
v -0.010263 -0.010263 0.008935
vn -0.1794 -0.9673 -0.1794
vn 0.1794 -0.9673 -0.1794
vn 0.1794 -0.9673 0.1794
vn -0.1794 -0.9673 0.1794
vn 0.1794 -0.1794 0.9673
vn 0.1794 0.1794 0.9673
vn -0.1794 0.1794 0.9673
vn -0.1794 -0.1794 0.9673
vn -0.9673 -0.1794 0.1794
vn -0.9673 0.1794 0.1794
vn -0.9673 0.1794 -0.1794
vn -0.9673 -0.1794 -0.1794
vn 0.1794 0.9673 -0.1794
vn -0.1794 0.9673 -0.1794
vn -0.1794 0.9673 0.1794
vn 0.1794 0.9673 0.1794
vn 0.9673 -0.1794 -0.1794
vn 0.9673 0.1794 -0.1794
vn 0.9673 0.1794 0.1794
vn 0.9673 -0.1794 0.1794
vn 0.1794 0.1794 -0.9673
vn 0.1726 0.6965 -0.6965
vn 0.5774 0.5773 -0.5774
vn 0.6965 0.1726 -0.6965
vn 0.6965 0.6965 -0.1726
vn 0.1726 -0.6965 -0.6965
vn 0.5774 -0.5773 -0.5774
vn 0.6965 -0.6965 -0.1726
vn 0.1794 -0.1794 -0.9673
vn 0.6965 -0.1726 -0.6965
vn 0.1726 0.6965 0.6965
vn 0.5774 0.5774 0.5774
vn 0.6965 0.6965 0.1726
vn 0.6965 0.1726 0.6965
vn 0.6965 -0.6965 0.1726
vn 0.5774 -0.5774 0.5774
vn 0.1726 -0.6965 0.6965
vn 0.6965 -0.1726 0.6965
vn -0.6965 0.6965 -0.1726
vn -0.5774 0.5774 -0.5774
vn -0.6965 0.1726 -0.6965
vn -0.1726 0.6965 -0.6965
vn -0.1794 0.1794 -0.9673
vn -0.6965 -0.6965 -0.1726
vn -0.5774 -0.5774 -0.5774
vn -0.1726 -0.6965 -0.6965
vn -0.6965 -0.1726 -0.6965
vn -0.1794 -0.1794 -0.9673
vn -0.6965 0.6965 0.1726
vn -0.5774 0.5774 0.5774
vn -0.1726 0.6965 0.6965
vn -0.6965 0.1726 0.6965
vn -0.1726 -0.6965 0.6965
vn -0.5774 -0.5774 0.5774
vn -0.6965 -0.6965 0.1726
vn -0.6965 -0.1726 0.6965
vt 0.702736 0.103892
vt 0.848328 0.103892
vt 0.848328 0.395077
vt 0.702736 0.395077
vt 0.155516 0.109042
vt 0.301109 0.109042
vt 0.301109 0.400228
vt 0.155516 0.400228
vt 0.702986 0.597354
vt 0.848578 0.597354
vt 0.848578 0.888539
vt 0.702986 0.888539
vt 0.154437 0.600271
vt 0.300030 0.600271
vt 0.300030 0.891457
vt 0.154437 0.891457
vt 0.431451 0.104891
vt 0.577044 0.104891
vt 0.577044 0.396077
vt 0.431451 0.396077
vt 0.574332 0.887463
vt 0.589634 0.887463
vt 0.589634 0.905132
vt 0.574332 0.918067
vt 0.139135 0.600271
vt 0.139135 0.582602
vt 0.154437 0.569667
vt 0.577044 0.074287
vt 0.585879 0.074287
vt 0.592346 0.104891
vt 0.848328 0.073287
vt 0.857163 0.073287
vt 0.863631 0.103892
vt 0.428739 0.887462
vt 0.428739 0.918067
vt 0.419905 0.918067
vt 0.413437 0.887463
vt 0.416149 0.104891
vt 0.416149 0.087222
vt 0.431451 0.074287
vt 0.154437 0.922061
vt 0.145602 0.922061
vt 0.139135 0.891457
vt 0.301109 0.078438
vt 0.309944 0.078438
vt 0.316411 0.109042
vt 0.592346 0.396077
vt 0.592346 0.413746
vt 0.577044 0.426681
vt 0.863631 0.395077
vt 0.863631 0.412747
vt 0.848328 0.425682
vt 0.431451 0.426681
vt 0.422617 0.426681
vt 0.416149 0.396077
vt 0.140214 0.109042
vt 0.140214 0.091373
vt 0.155516 0.078438
vt 0.863880 0.888539
vt 0.863880 0.906209
vt 0.848578 0.919144
vt 0.300030 0.569667
vt 0.308864 0.569667
vt 0.315332 0.600271
vt 0.574332 0.596277
vt 0.574332 0.565673
vt 0.583167 0.565673
vt 0.589634 0.596277
vt 0.687433 0.103892
vt 0.687433 0.086222
vt 0.702736 0.073287
vt 0.702986 0.919144
vt 0.694151 0.919144
vt 0.687683 0.888539
vt 0.428739 0.596277
vt 0.413437 0.596277
vt 0.413437 0.578608
vt 0.428739 0.565673
vt 0.315332 0.891457
vt 0.315332 0.909126
vt 0.300030 0.922061
vt 0.848578 0.566749
vt 0.857413 0.566749
vt 0.863880 0.597354
vt 0.316411 0.400228
vt 0.316411 0.417897
vt 0.301109 0.430832
vt 0.702736 0.425682
vt 0.693901 0.425682
vt 0.687433 0.395077
vt 0.155516 0.430832
vt 0.146682 0.430832
vt 0.140214 0.400228
vt 0.687683 0.597354
vt 0.687683 0.579684
vt 0.702986 0.566749
s 1
usemtl Dado
f 36/1/1 8/2/2 22/3/3 50/4/4
f 24/5/5 16/6/6 45/7/7 51/8/8
f 52/9/9 44/10/10 29/11/11 37/12/12
f 2/13/13 30/14/14 43/15/15 15/16/16
f 10/17/17 3/18/18 17/19/19 23/20/20
f 1/21/21 4/22/22 5/23/23 7/24/24
f 2/13/13 6/25/25 5/26/23 4/27/22
f 3/18/18 7/28/24 5/29/23 6/30/25
f 8/2/2 11/31/26 12/32/27 14/33/28
f 9/34/29 13/35/30 12/36/27 11/37/26
f 10/17/17 14/38/28 12/39/27 13/40/30
f 15/16/16 18/41/31 19/42/32 21/43/33
f 16/6/6 20/44/34 19/45/32 18/46/31
f 17/19/19 21/47/33 19/48/32 20/49/34
f 22/3/3 25/50/35 26/51/36 28/52/37
f 23/20/20 27/53/38 26/54/36 25/55/35
f 24/5/5 28/56/37 26/57/36 27/58/38
f 29/11/11 32/59/39 33/60/40 35/61/41
f 30/14/14 34/62/42 33/63/40 32/64/39
f 31/65/43 35/66/41 33/67/40 34/68/42
f 36/1/1 39/69/44 40/70/45 42/71/46
f 37/12/12 41/72/47 40/73/45 39/74/44
f 38/75/48 42/76/46 40/77/45 41/78/47
f 43/15/15 46/79/49 47/80/50 49/81/51
f 44/10/10 48/82/52 47/83/50 46/84/49
f 45/7/7 49/85/51 47/86/50 48/87/52
f 50/4/4 53/88/53 54/89/54 56/90/55
f 51/8/8 55/91/56 54/92/54 53/93/53
f 52/9/9 56/94/55 54/95/54 55/96/56
f 15/16/16 43/15/15 49/81/51 18/41/31
f 18/46/31 49/85/51 45/7/7 16/6/6
f 50/4/4 22/3/3 28/52/37 53/88/53
f 53/93/53 28/56/37 24/5/5 51/8/8
f 16/6/6 24/5/5 27/58/38 20/44/34
f 20/49/34 27/53/38 23/20/20 17/19/19
f 22/3/3 8/2/2 14/33/28 25/50/35
f 25/55/35 14/38/28 10/17/17 23/20/20
f 3/18/18 10/17/17 13/40/30 7/28/24
f 7/24/24 13/35/30 9/34/29 1/21/21
f 8/2/2 36/1/1 42/71/46 11/31/26
f 11/37/26 42/76/46 38/75/48 9/34/29
f 31/65/43 38/75/48 41/78/47 35/66/41
f 35/61/41 41/72/47 37/12/12 29/11/11
f 51/8/8 45/7/7 48/87/52 55/91/56
f 55/96/56 48/82/52 44/10/10 52/9/9
f 36/1/1 50/4/4 56/90/55 39/69/44
f 39/74/44 56/94/55 52/9/9 37/12/12
f 2/13/13 15/16/16 21/43/33 6/25/25
f 6/30/25 21/47/33 17/19/19 3/18/18
f 30/14/14 2/13/13 4/27/22 34/62/42
f 34/68/42 4/22/22 1/21/21 31/65/43
f 43/15/15 30/14/14 32/64/39 46/79/49
f 46/84/49 32/59/39 29/11/11 44/10/10
f 38/75/48 31/65/43 1/21/21 9/34/29
