# Blender 3.6.0
# www.blender.org
mtllib Harley_Brazo_R_1.mtl
o Harley_Brazo_R_1
v -0.007351 0.044489 -0.000326
v -0.008596 0.006177 -0.042711
v -0.011296 -0.033568 0.003284
v -0.008831 0.005114 0.041452
v -0.069329 0.007402 0.040589
v -0.069325 0.009193 -0.037274
v -0.069021 0.042070 0.002278
v -0.069869 -0.025069 0.002905
v -0.128898 0.011778 0.036317
v -0.128723 0.042072 0.002339
v -0.128987 -0.017936 0.002308
v -0.244644 0.015538 0.024864
v -0.244623 0.015542 -0.024250
v -0.243673 0.039983 0.000307
v -0.245067 -0.008905 0.000307
v -0.128906 0.012263 -0.031933
v -0.204911 0.014908 0.029668
v -0.204895 0.014942 -0.027725
v -0.204160 0.042252 0.000972
v -0.205240 -0.012418 0.000972
v 0.025892 0.036522 -0.000812
v 0.024713 0.005421 -0.034415
v 0.022186 -0.026748 0.002614
v 0.024481 0.004807 0.032613
v 0.035783 0.005000 0.000000
v -0.263081 0.015600 0.015438
v -0.263068 0.015600 -0.015007
v -0.262450 0.030860 0.000215
v -0.263363 0.000339 0.000215
v -0.270572 0.015721 0.000215
v -0.007582 0.032751 -0.029747
v -0.010455 -0.021644 0.030597
v -0.069094 0.032094 -0.024856
v -0.069676 -0.014064 -0.024425
v -0.069679 -0.015296 0.029105
v -0.069096 0.030862 0.028675
v -0.128967 -0.008750 0.025708
v -0.128785 0.032505 0.025730
v -0.097713 0.009513 0.038860
v -0.097819 -0.021113 0.002680
v -0.097635 0.041721 0.002675
v -0.244015 0.032347 -0.016576
v -0.244974 -0.001264 -0.016576
v -0.244988 -0.001267 0.017190
v -0.244030 0.032344 0.017190
v -0.128790 0.032838 -0.021193
v -0.128972 -0.008417 -0.021214
v -0.097739 0.010760 -0.034364
v -0.228651 0.041769 0.000527
v -0.168114 -0.014877 0.001656
v -0.229588 0.015434 0.027382
v -0.167903 0.013775 -0.029629
v -0.204424 0.033726 -0.018757
v -0.205167 -0.003860 -0.018757
v -0.204436 0.033702 0.020701
v -0.205178 -0.003884 0.020701
v -0.229997 -0.010894 0.000527
v -0.167459 0.042300 0.001660
v -0.229568 0.015448 -0.026328
v -0.167912 0.013660 0.032912
v -0.039390 -0.030059 0.003144
v -0.037859 0.005932 0.041644
v -0.010294 -0.020913 -0.027265
v -0.007743 0.032020 0.028115
v -0.037742 0.007513 -0.040689
v -0.036953 0.043568 0.000997
v 0.025521 0.027397 -0.024700
v 0.022760 -0.017397 0.024700
v 0.022923 -0.016966 -0.022297
v 0.025359 0.026966 0.022298
v 0.013024 0.042691 -0.000858
v 0.011389 0.004817 0.039047
v 0.011659 0.005588 -0.041130
v 0.008679 -0.032818 0.003154
v 0.033920 0.024218 -0.000582
v 0.031661 -0.014334 0.001505
v 0.033146 0.005246 -0.020882
v 0.033005 0.004871 0.019959
v -0.262542 0.026279 -0.010441
v -0.263181 0.004914 -0.010441
v -0.263191 0.004914 0.010872
v -0.262552 0.026279 0.010872
v -0.255576 -0.005052 0.000227
v -0.255204 0.015559 0.020809
v -0.254352 0.036170 0.000227
v -0.255186 0.015559 -0.020355
v -0.268675 0.015680 0.008877
v -0.268850 0.006997 0.000215
v -0.268331 0.024363 0.000215
v -0.268667 0.015680 -0.008446
v -0.097799 -0.010951 -0.022706
v -0.097780 -0.011808 0.027635
v -0.097672 0.032248 -0.022710
v -0.168069 -0.005901 -0.019850
v -0.038864 -0.019114 0.030314
v -0.097654 0.031391 0.027632
v -0.228995 0.033537 0.018990
v -0.038784 -0.018027 -0.026290
v -0.168075 -0.005979 0.023147
v -0.228981 0.033547 -0.017936
v -0.229907 -0.002659 -0.017936
v -0.167625 0.033330 0.023150
v -0.229921 -0.002668 0.018990
v -0.167619 0.033408 -0.019847
v -0.037108 0.032591 -0.027766
v -0.037189 0.031504 0.028838
v 0.012569 0.030814 0.026289
v 0.012755 0.031345 -0.028947
v 0.009762 -0.020675 -0.026183
v 0.009576 -0.021207 0.029053
v 0.030748 -0.010911 -0.016151
v 0.032630 0.021224 -0.017891
v 0.032512 0.020911 0.016151
v 0.030630 -0.011223 0.017891
v -0.255492 0.001364 0.014401
v -0.254636 0.029752 -0.013947
v -0.254649 0.029752 0.014401
v -0.255479 0.001365 -0.013947
v -0.267967 0.008393 0.007467
v -0.267525 0.022931 -0.007036
v -0.267532 0.022931 0.007467
v -0.267960 0.008393 -0.007036
vn -0.1462 -0.9892 -0.0099
vn -0.1230 -0.9924 -0.0103
vn -0.1102 -0.7394 -0.6642
vn -0.1319 -0.7397 -0.6599
vn -0.0946 -0.9955 -0.0057
vn -0.0831 -0.7360 -0.6719
vn -0.0621 0.0038 -0.9981
vn -0.0854 0.0028 -0.9963
vn -0.1054 -0.0043 -0.9944
vn -0.0556 0.0017 0.9984
vn -0.0725 -0.0013 0.9974
vn -0.1169 -0.7398 0.6626
vn -0.1175 -0.7329 0.6701
vn -0.0806 0.0023 0.9967
vn -0.1036 -0.7363 0.6687
vn -0.0307 0.7533 -0.6570
vn -0.0573 0.7523 -0.6563
vn -0.0148 0.7449 -0.6671
vn 0.0049 0.9999 0.0094
vn -0.0012 0.9998 0.0199
vn -0.0258 0.9993 0.0256
vn -0.0770 -0.9970 -0.0021
vn -0.0661 -0.7280 -0.6823
vn -0.0686 -0.9976 -0.0009
vn -0.0592 -0.7185 -0.6931
vn -0.0487 0.0027 -0.9988
vn -0.0496 0.0026 -0.9988
vn -0.1331 -0.9911 -0.0016
vn -0.0900 -0.7166 0.6917
vn -0.0372 -0.9993 0.0088
vn 0.0021 -0.7034 0.7108
vn 0.0526 0.0302 0.9982
vn -0.0245 0.0181 0.9995
vn -0.0149 0.7322 0.6809
vn -0.0158 0.7271 0.6863
vn -0.0232 0.7349 0.6778
vn -0.0846 0.0033 0.9964
vn -0.0457 0.7215 0.6909
vn -0.0951 0.7132 0.6944
vn -0.1232 0.0047 0.9924
vn -0.0153 0.9999 0.0006
vn -0.0719 0.9974 -0.0005
vn -0.2231 0.9748 -0.0014
vn -0.2343 0.6950 0.6797
vn -0.2537 0.0065 0.9673
vn -0.1189 -0.7421 -0.6596
vn -0.0927 -0.0167 -0.9956
vn -0.0013 -0.0322 -0.9995
vn -0.0282 -0.7498 -0.6610
vn -0.0909 -0.7276 0.6800
vn -0.0847 -0.7177 0.6912
vn -0.0823 0.0027 0.9966
vn -0.0212 0.7222 -0.6914
vn -0.0731 0.7137 -0.6966
vn -0.0914 0.0040 -0.9958
vn -0.2335 0.0060 -0.9724
vn -0.2202 0.6959 -0.6835
vn -0.0997 -0.9950 -0.0009
vn -0.0926 -0.7088 -0.6993
vn -0.2349 -0.9720 -0.0015
vn -0.2282 -0.6886 -0.6883
vn -0.0342 0.7297 0.6829
vn -0.0023 1.0000 0.0030
vn -0.1153 -0.7078 0.6969
vn -0.2427 -0.6872 0.6847
vn -0.0132 0.7328 -0.6803
vn -0.0588 0.7433 -0.6663
vn -0.0327 0.9992 0.0222
vn 0.0323 0.9994 0.0151
vn 0.0164 0.7321 -0.6810
vn -0.0070 0.7252 0.6885
vn 0.0551 0.7224 0.6892
vn 0.2623 0.0267 0.9646
vn 0.2558 0.6952 0.6718
vn 0.6063 0.0092 0.7952
vn 0.6070 0.5637 0.5601
vn 0.6070 0.7946 0.0127
vn 0.2485 0.9686 0.0109
vn 0.2511 0.6983 -0.6704
vn 0.6248 0.5575 -0.5466
vn 0.6179 -0.0616 -0.7838
vn 0.2482 -0.0474 -0.9676
vn 0.2126 -0.7393 -0.6389
vn 0.5778 -0.6290 -0.5202
vn 0.5693 -0.8220 0.0090
vn 0.2096 -0.9777 0.0145
vn 0.2376 -0.6803 0.6933
vn 0.5950 -0.5716 0.5650
vn 0.9238 -0.0697 -0.3765
vn 0.8656 -0.4035 -0.2965
vn 0.9984 -0.0565 0.0038
vn 0.8928 -0.4505 0.0020
vn 0.9294 0.3688 0.0100
vn 0.9040 0.2993 -0.3053
vn 0.9199 -0.0284 0.3912
vn 0.8943 0.3075 0.3251
vn 0.8718 -0.3664 0.3252
vn -0.4474 0.0106 0.8943
vn -0.4416 -0.6322 0.6366
vn -0.6360 0.0162 0.7715
vn -0.6410 -0.5373 0.5482
vn -0.6447 -0.7645 -0.0004
vn -0.4445 -0.8958 -0.0012
vn -0.4400 0.0103 -0.8979
vn -0.4257 0.6474 -0.6322
vn -0.6348 0.0162 -0.7725
vn -0.6215 0.5645 -0.5432
vn -0.6185 0.7858 -0.0004
vn -0.4292 0.9032 -0.0012
vn -0.4309 0.6467 0.6294
vn -0.6223 0.5645 0.5423
vn -0.4363 -0.6331 -0.6394
vn -0.6401 -0.5374 -0.5491
vn -0.8843 0.0251 0.4663
vn -0.8419 -0.3732 0.3897
vn -0.9996 0.0293 -0.0004
vn -0.8928 -0.4504 -0.0004
vn -0.8840 0.0251 -0.4669
vn -0.8218 0.4170 -0.3881
vn -0.8685 0.4956 -0.0004
vn -0.8221 0.4171 0.3875
vn -0.8417 -0.3732 -0.3903
vt 0.366029 0.142895
vt 0.366398 0.122216
vt 0.393057 0.119477
vt 0.394688 0.138737
vt 0.366767 0.101536
vt 0.395038 0.097834
vt 0.418471 0.098504
vt 0.417443 0.117290
vt 0.418852 0.133579
vt 0.498402 0.132637
vt 0.499171 0.116291
vt 0.523054 0.117437
vt 0.521645 0.136660
vt 0.497297 0.097494
vt 0.520525 0.095836
vt 0.549592 0.097959
vt 0.549217 0.118893
vt 0.548842 0.139826
vt 0.418852 0.133579
vt 0.417443 0.117290
vt 0.438885 0.115733
vt 0.439756 0.130280
vt 0.418471 0.098504
vt 0.439087 0.098834
vt 0.458125 0.098701
vt 0.458575 0.115036
vt 0.458857 0.129129
vt 0.379232 0.063319
vt 0.401447 0.070103
vt 0.391696 0.025103
vt 0.409649 0.044350
vt 0.426948 0.053600
vt 0.422104 0.075195
vt 0.539608 0.166777
vt 0.516733 0.156903
vt 0.530373 0.193728
vt 0.510294 0.174458
vt 0.491355 0.163416
vt 0.495424 0.149196
vt 0.478114 0.115359
vt 0.477889 0.129974
vt 0.477005 0.098431
vt 0.497297 0.097494
vt 0.499171 0.116291
vt 0.498401 0.132637
vt 0.487447 0.052923
vt 0.472165 0.057919
vt 0.469828 0.045589
vt 0.482544 0.039505
vt 0.457478 0.059482
vt 0.457289 0.047517
vt 0.457166 0.040453
vt 0.467789 0.038433
vt 0.478233 0.032129
vt 0.394688 0.138737
vt 0.399767 0.159360
vt 0.375392 0.171300
vt 0.422048 0.150102
vt 0.426035 0.164147
vt 0.406307 0.177167
vt 0.384756 0.199705
vt 0.519169 0.023795
vt 0.534381 0.060877
vt 0.512912 0.068512
vt 0.503632 0.043298
vt 0.520525 0.095836
vt 0.492876 0.074312
vt 0.487447 0.052923
vt 0.442698 0.058247
vt 0.444682 0.045850
vt 0.426948 0.053600
vt 0.431543 0.039983
vt 0.435733 0.032444
vt 0.446488 0.038630
vt 0.403112 0.015070
vt 0.417550 0.029331
vt 0.414527 0.005038
vt 0.424914 0.021412
vt 0.435733 0.032444
vt 0.431543 0.039983
vt 0.477005 0.098431
vt 0.474783 0.077403
vt 0.492876 0.074312
vt 0.458125 0.098701
vt 0.457750 0.078355
vt 0.497875 0.004984
vt 0.508522 0.014389
vt 0.495525 0.028716
vt 0.488347 0.021121
vt 0.482544 0.039505
vt 0.478233 0.032129
vt 0.439087 0.098834
vt 0.440586 0.077784
vt 0.418471 0.098504
vt 0.439756 0.130280
vt 0.441260 0.144963
vt 0.458857 0.129129
vt 0.458773 0.143425
vt 0.458511 0.155823
vt 0.443001 0.157567
vt 0.426035 0.164148
vt 0.458511 0.155823
vt 0.476386 0.144763
vt 0.474279 0.157560
vt 0.495424 0.149196
vt 0.491355 0.163416
vt 0.487005 0.172778
vt 0.472129 0.166285
vt 0.474279 0.157560
vt 0.481268 0.180083
vt 0.469422 0.173830
vt 0.458129 0.172330
vt 0.458299 0.164380
vt 0.444778 0.165996
vt 0.443001 0.157567
vt 0.447108 0.173340
vt 0.435527 0.179997
vt 0.430166 0.173078
vt 0.426035 0.164148
vt 0.413200 0.187068
vt 0.406307 0.177167
vt 0.421762 0.192684
vt 0.404594 0.212063
vt 0.394675 0.205884
vt 0.520976 0.200508
vt 0.503464 0.184710
vt 0.511579 0.207288
vt 0.494803 0.190947
vt 0.443336 0.188867
vt 0.432239 0.196113
vt 0.457612 0.203079
vt 0.431103 0.207571
vt 0.421762 0.192684
vt 0.431103 0.207571
vt 0.457955 0.183500
vt 0.449868 0.181525
vt 0.447108 0.173340
vt 0.443336 0.188867
vt 0.447108 0.173340
vt 0.472867 0.188935
vt 0.466293 0.181941
vt 0.472867 0.188935
vt 0.469422 0.173830
vt 0.457955 0.183500
vt 0.484595 0.205183
vt 0.483986 0.194958
vt 0.494803 0.190947
vt 0.472867 0.188935
vt 0.481268 0.180083
vt 0.478233 0.032129
vt 0.474178 0.027303
vt 0.481734 0.017491
vt 0.469905 0.023419
vt 0.475223 0.015684
vt 0.479575 0.005226
vt 0.488725 0.005105
vt 0.439743 0.027508
vt 0.448258 0.033226
vt 0.446488 0.038630
vt 0.444003 0.023549
vt 0.450209 0.028282
vt 0.457044 0.029485
vt 0.457091 0.034911
vt 0.457166 0.040453
vt 0.465880 0.033079
vt 0.467789 0.038433
vt 0.463846 0.028175
vt 0.424139 0.005011
vt 0.431725 0.017602
vt 0.433751 0.004984
vt 0.438402 0.015703
vt 0.469905 0.023419
vt 0.464883 0.019377
vt 0.469383 0.014903
vt 0.456949 0.013648
vt 0.468262 0.009437
vt 0.464883 0.019377
vt 0.468262 0.009437
vt 0.444002 0.023549
vt 0.449012 0.019440
vt 0.452153 0.023818
vt 0.450209 0.028282
vt 0.457002 0.023242
vt 0.449012 0.019440
vt 0.457044 0.029485
vt 0.457002 0.023242
vt 0.457044 0.029485
vt 0.461845 0.023747
vt 0.463846 0.028175
vt 0.464883 0.019377
vt 0.457002 0.023242
vt 0.469905 0.023419
vt 0.445350 0.009316
vt 0.444344 0.014898
vt 0.438402 0.015703
vt 0.449012 0.019440
vt 0.445350 0.009316
vt 0.444002 0.023549
vt 0.438402 0.015703
s 1
usemtl Harley_Cuerpo
f 8/1/1 40/2/2 91/3/3 34/4/4
f 40/2/2 11/5/5 47/6/6 91/3/3
f 91/3/3 47/6/6 16/7/7 48/8/8
f 34/4/4 91/3/3 48/8/8 6/9/9
f 5/10/10 39/11/11 92/12/12 35/13/13
f 39/11/11 9/14/14 37/15/15 92/12/12
f 92/12/12 37/15/15 11/16/5 40/17/2
f 35/13/13 92/12/12 40/17/2 8/18/1
f 6/19/9 48/20/8 93/21/16 33/22/17
f 48/20/8 16/23/7 46/24/18 93/21/16
f 93/21/16 46/24/18 10/25/19 41/26/20
f 33/22/17 93/21/16 41/26/20 7/27/21
f 11/5/5 50/28/22 94/29/23 47/6/6
f 50/28/22 20/30/24 54/31/25 94/29/23
f 94/29/23 54/31/25 18/32/26 52/33/27
f 47/6/6 94/29/23 52/33/27 16/7/7
f 8/18/1 61/34/28 95/35/29 35/13/13
f 61/34/28 3/36/30 32/37/31 95/35/29
f 95/35/29 32/37/31 4/38/32 62/39/33
f 35/13/13 95/35/29 62/39/33 5/10/10
f 7/27/21 41/26/20 96/40/34 36/41/35
f 41/26/20 10/25/19 38/42/36 96/40/34
f 96/40/34 38/42/36 9/43/14 39/44/11
f 36/41/35 96/40/34 39/44/11 5/45/10
f 17/46/37 55/47/38 97/48/39 51/49/40
f 55/47/38 19/50/41 49/51/42 97/48/39
f 97/48/39 49/51/42 14/52/43 45/53/44
f 51/49/40 97/48/39 45/53/44 12/54/45
f 8/1/1 34/55/4 98/56/46 61/57/28
f 34/55/4 6/19/9 65/58/47 98/56/46
f 98/56/46 65/58/47 2/59/48 63/60/49
f 61/57/28 98/56/46 63/60/49 3/61/30
f 20/62/24 50/63/22 99/64/50 56/65/51
f 50/63/22 11/16/5 37/66/15 99/64/50
f 99/64/50 37/66/15 9/14/14 60/67/52
f 56/65/51 99/64/50 60/67/52 17/68/37
f 19/50/41 53/69/53 100/70/54 49/51/42
f 53/69/53 18/71/26 59/72/55 100/70/54
f 100/70/54 59/72/55 13/73/56 42/74/57
f 49/51/42 100/70/54 42/74/57 14/52/43
f 20/30/24 57/75/58 101/76/59 54/31/25
f 57/75/58 15/77/60 43/78/61 101/76/59
f 101/76/59 43/78/61 13/79/56 59/80/55
f 54/31/25 101/76/59 59/80/55 18/32/26
f 9/43/14 38/81/36 102/82/62 60/83/52
f 38/81/36 10/84/19 58/85/63 102/82/62
f 102/82/62 58/85/63 19/50/41 55/47/38
f 60/83/52 102/82/62 55/47/38 17/46/37
f 15/86/60 57/87/58 103/88/64 44/89/65
f 57/87/58 20/62/24 56/65/51 103/88/64
f 103/88/64 56/65/51 17/68/37 51/90/40
f 44/89/65 103/88/64 51/90/40 12/91/45
f 10/84/19 46/92/18 104/93/66 58/85/63
f 46/92/18 16/94/7 52/33/27 104/93/66
f 104/93/66 52/33/27 18/71/26 53/69/53
f 58/85/63 104/93/66 53/69/53 19/50/41
f 6/19/9 33/95/17 105/96/67 65/58/47
f 33/95/17 7/97/21 66/98/68 105/96/67
f 105/96/67 66/98/68 1/99/69 31/100/70
f 65/58/47 105/96/67 31/100/70 2/101/48
f 1/102/69 66/98/68 106/103/71 64/104/72
f 66/98/68 7/27/21 36/41/35 106/103/71
f 106/103/71 36/41/35 5/45/10 62/105/33
f 64/104/72 106/103/71 62/105/33 4/106/32
f 4/38/32 72/107/73 107/108/74 64/109/72
f 72/107/73 24/110/75 70/111/76 107/108/74
f 107/108/74 70/111/76 21/112/77 71/113/78
f 64/109/72 107/108/74 71/113/78 1/99/69
f 1/99/69 71/113/78 108/114/79 31/115/70
f 71/113/78 21/112/77 67/116/80 108/114/79
f 108/114/79 67/116/80 22/117/81 73/118/82
f 31/115/70 108/114/79 73/118/82 2/119/48
f 2/119/48 73/118/82 109/120/83 63/121/49
f 73/118/82 22/117/81 69/122/84 109/120/83
f 109/120/83 69/122/84 23/123/85 74/124/86
f 63/121/49 109/120/83 74/124/86 3/61/30
f 3/36/30 74/125/86 110/126/87 32/37/31
f 74/125/86 23/127/85 68/128/88 110/126/87
f 110/126/87 68/128/88 24/110/75 72/107/73
f 32/37/31 110/126/87 72/107/73 4/38/32
f 22/117/81 77/129/89 111/130/90 69/122/84
f 25/131/91 76/132/92 111/130/90 77/129/89
f 23/123/85 69/133/84 111/130/90 76/134/92
f 21/112/77 75/135/93 112/136/94 67/137/80
f 25/131/91 77/138/89 112/136/94 75/135/93
f 22/117/81 67/139/80 112/136/94 77/138/89
f 24/110/75 78/140/95 113/141/96 70/111/76
f 25/131/91 75/135/93 113/141/96 78/142/95
f 21/112/77 70/143/76 113/141/96 75/144/93
f 23/127/85 76/145/92 114/146/97 68/147/88
f 25/131/91 78/148/95 114/146/97 76/145/92
f 24/149/75 68/147/88 114/146/97 78/140/95
f 12/150/45 84/151/98 115/152/99 44/89/65
f 84/151/98 26/153/100 81/154/101 115/152/99
f 115/152/99 81/154/101 29/155/102 83/156/103
f 44/89/65 115/152/99 83/156/103 15/86/60
f 13/79/56 86/157/104 116/158/105 42/159/57
f 86/157/104 27/160/106 79/161/107 116/158/105
f 116/158/105 79/161/107 28/162/108 85/163/109
f 42/159/57 116/158/105 85/163/109 14/164/43
f 14/164/43 85/163/109 117/165/110 45/166/44
f 85/163/109 28/162/108 82/167/111 117/165/110
f 117/165/110 82/167/111 26/153/100 84/151/98
f 45/166/44 117/165/110 84/151/98 12/150/45
f 15/77/60 83/168/103 118/169/112 43/78/61
f 83/168/103 29/170/102 80/171/113 118/169/112
f 118/169/112 80/171/113 27/160/106 86/157/104
f 43/78/61 118/169/112 86/157/104 13/79/56
f 26/172/100 87/173/114 119/174/115 81/154/101
f 30/175/116 88/176/117 119/174/115 87/177/114
f 29/155/102 81/154/101 119/174/115 88/178/117
f 27/179/106 90/180/118 120/181/119 79/182/107
f 30/175/116 89/183/120 120/181/119 90/184/118
f 28/185/108 79/182/107 120/181/119 89/186/120
f 28/187/108 89/186/120 121/188/121 82/189/111
f 30/175/116 87/190/114 121/188/121 89/191/120
f 26/192/100 82/189/111 121/188/121 87/177/114
f 29/170/102 88/193/117 122/194/122 80/195/113
f 30/175/116 90/196/118 122/194/122 88/197/117
f 27/198/106 80/199/113 122/194/122 90/184/118
