# Blender 3.6.0
# www.blender.org
mtllib Jaula_Bateo.mtl
o Jaula
v 4.000000 5.100000 9.000000
v 4.000000 0.100000 -9.000000
v 4.000000 5.100000 -9.000000
v -4.000000 0.100000 -9.000000
v -4.000000 5.100000 -9.000000
v -4.000000 0.000000 -9.000000
v 4.000000 0.000000 -9.000000
v -4.000000 0.000000 9.000000
v 4.000000 0.000000 9.000000
v 4.000000 0.100000 9.000000
v -4.000000 0.100000 9.000000
v -4.000000 5.100000 9.000000
v 0.576348 5.100000 9.000000
v -0.576348 5.100000 9.000000
v 0.576348 0.100000 9.000000
v -4.000000 1.883439 9.000000
v 4.000000 1.883439 9.000000
v 0.576348 1.883439 9.000000
v -0.576348 1.883439 9.000000
v -0.576348 0.100000 9.000000
v 0.576348 0.101000 8.950000
v -0.512875 0.100000 9.050000
v 0.512875 0.100000 9.050000
v 0.576348 1.883439 9.050000
v 0.576348 0.101000 9.050000
v -0.576348 1.883439 9.050000
v -0.576348 0.101000 9.050000
v 0.512875 1.819966 9.050000
v -0.512875 1.819966 9.050000
v -0.576348 0.101000 8.950000
v -0.512875 0.100000 8.950000
v 0.512875 0.100000 8.950000
v 0.576348 1.883439 8.950000
v -0.576348 1.883439 8.950000
v 0.512875 1.819966 8.950000
v -0.512875 1.819966 8.950000
v -4.000000 0.000000 9.100000
v 4.000000 0.000000 9.100000
v 4.000000 0.100000 9.100000
v -4.000000 0.100000 9.100000
vn -1.0000 -0.0000 -0.0000
vn -0.0000 -0.0000 -1.0000
vn 1.0000 -0.0000 -0.0000
vn -0.0000 1.0000 -0.0000
vn -0.0000 -0.0000 1.0000
vn 0.0158 -0.9999 -0.0000
vn -0.0000 -1.0000 -0.0000
vn -0.0158 -0.9999 -0.0000
vt -3.424265 -9.037999
vt 0.625000 -9.037999
vt 0.625000 -0.967723
vt -3.424265 -0.967723
vt -3.424265 0.972470
vt 0.625000 0.972470
vt 0.625000 5.021735
vt -3.424265 5.021735
vt -3.424265 6.961928
vt 0.625000 6.961928
vt 0.625000 15.032205
vt -3.424265 15.032205
vt -1.429162 0.972470
vt 6.669370 0.972470
vt 6.669370 5.021735
vt -1.429162 5.021735
vt -0.091462 41.334396
vt -0.091467 7.924434
vt 0.094144 7.924434
vt 0.094149 41.334396
vt -0.091467 -6.924435
vt 0.094143 -6.924435
vt 0.094138 -40.334396
vt -0.091473 -40.334396
vt -0.091473 -40.520008
vt 0.094138 -40.520008
vt 2.441855 -4.493341
vt 2.441856 5.493343
vt -1.996671 5.493342
vt -1.996671 -4.493342
vt -1.979942 -4.722893
vt 0.625000 -4.722892
vt 0.625000 -2.989984
vt -1.979942 -2.989984
vt -1.979942 -7.039248
vt 0.625000 -7.039248
vt 0.625000 -5.306339
vt -1.979942 -5.306338
vt -3.424265 -7.039248
vt -3.424265 -5.306339
vt -3.424265 -4.722893
vt -3.424265 -2.989984
vt 0.094149 41.520004
vt -0.091462 41.520004
vt -7.331090 -0.088791
vt 7.517778 -0.088792
vt 7.517778 0.096819
vt -7.331089 0.096820
vt 1.085681 -0.065335
vt 1.085681 0.120276
vt -1.053846 0.120276
vt -1.053846 -0.065335
vt -1.573895 -0.070687
vt 1.618559 -0.070687
vt 1.618559 0.114925
vt -1.573895 0.114923
vt -1.543608 -0.042751
vt 1.648835 -0.042751
vt 1.646979 0.075061
vt -1.661420 0.075062
vt 1.648836 0.073211
vt -1.543608 0.073211
vt -1.661421 -0.044601
vt 1.646979 -0.044601
vt -0.936035 -0.029172
vt 0.967870 -0.029173
vt 1.085682 0.088640
vt -1.053847 0.088640
vt 1.618554 -0.068011
vt 1.618554 0.117600
vt -1.573890 0.117600
vt -1.573890 -0.068011
vt -0.088791 0.095023
vt -0.088791 -0.022804
vt 0.096820 -0.022804
vt 0.096820 0.095023
vt -0.937470 0.126652
vt -0.937470 -0.058959
vt 0.966434 -0.058959
vt 0.966434 0.126652
vt -1.631161 0.104848
vt -1.631161 -0.080763
vt 1.677238 -0.080764
vt 1.677238 0.104848
vt -0.088791 -0.020954
vt 0.096820 -0.020954
vt 0.096820 0.096874
vt -0.088791 0.096874
vt -1.543607 0.076912
vt -1.661419 -0.040901
vt 1.646978 -0.040901
vt 1.648835 0.076911
vt 1.648835 -0.039051
vt 1.646979 0.078762
vt -1.661420 0.078761
vt -1.543608 -0.039051
vt -0.936035 0.090490
vt -1.053847 -0.027322
vt 1.085682 -0.027323
vt 0.967870 0.090490
vt 1.677238 0.102172
vt -1.631161 0.102172
vt -1.631161 -0.083439
vt 1.677238 -0.083440
vt -7.331106 -0.091466
vt 7.517795 -0.091469
vt 7.517795 0.094142
vt -7.331105 0.094145
vt 7.517776 0.099495
vt -7.331089 0.099497
vt -7.331089 -0.086115
vt 7.517776 -0.086116
s 0
usemtl Rejas
f 11/1/1 12/2/1 5/3/1 4/4/1
f 4/5/2 5/6/2 3/7/2 2/8/2
f 2/9/3 3/10/3 1/11/3 10/12/3
f 5/13/4 12/14/4 1/15/4 3/16/4
f 19/31/5 14/32/5 12/33/5 16/34/5
f 17/35/5 1/36/5 13/37/5 18/38/5
f 18/38/5 13/37/5 14/32/5 19/31/5
f 10/39/5 17/35/5 18/38/5 15/40/5
f 20/41/5 19/31/5 16/34/5 11/42/5
usemtl Hielo
f 4/27/4 11/28/4 10/29/4 2/30/4
usemtl Metal
f 10/17/1 2/18/1 7/19/1 9/20/1
f 2/18/5 4/21/5 6/22/5 7/19/5
f 8/23/3 11/24/3 40/25/3 37/26/3
f 4/21/3 11/24/3 8/23/3 6/22/3
f 10/17/1 9/20/1 38/43/1 39/44/1
f 40/45/2 39/46/2 38/47/2 37/48/2
f 24/49/4 33/50/4 34/51/4 26/52/4
f 35/53/1 32/54/1 23/55/1 28/56/1
f 28/57/5 23/58/5 25/59/5 24/60/5
f 22/61/5 29/62/5 26/63/5 27/64/5
f 29/65/5 28/66/5 24/67/5 26/68/5
f 22/69/3 31/70/3 36/71/3 29/72/3
f 25/73/6 23/74/6 32/75/6 21/76/6
f 29/77/7 36/78/7 35/79/7 28/80/7
f 26/81/1 34/82/1 30/83/1 27/84/1
f 27/85/8 30/86/8 31/87/8 22/88/8
f 35/89/2 33/90/2 21/91/2 32/92/2
f 31/93/2 30/94/2 34/95/2 36/96/2
f 36/97/2 34/98/2 33/99/2 35/100/2
f 21/101/3 33/102/3 24/103/3 25/104/3
f 11/105/7 10/106/7 39/107/7 40/108/7
f 9/109/4 8/110/4 37/111/4 38/112/4
