# Blender 3.6.0
# www.blender.org
mtllib Martillo.mtl
o Martillo
v -0.013519 0.482979 -0.007805
v -0.007805 0.482979 -0.013519
v 0.000000 0.482979 -0.015610
v 0.007805 0.482979 -0.013519
v 0.013519 0.482979 -0.007805
v 0.015611 0.482979 -0.000000
v 0.013519 0.482979 0.007805
v 0.007805 0.482979 0.013519
v 0.000000 0.482979 0.015610
v -0.007805 0.482979 0.013519
v -0.013519 0.482979 0.007805
v -0.015610 0.482979 -0.000000
v -0.015610 -0.475449 0.000000
v -0.013519 -0.475449 0.007805
v -0.007805 -0.475449 0.013519
v 0.000000 -0.475449 0.015610
v 0.007805 -0.475449 0.013519
v 0.013519 -0.475449 0.007805
v 0.015610 -0.475449 0.000000
v 0.013519 -0.475449 -0.007805
v 0.007805 -0.475449 -0.013519
v 0.000000 -0.475449 -0.015610
v -0.007805 -0.475449 -0.013519
v -0.013519 -0.475449 -0.007805
v 0.000000 -0.475449 0.000000
v -0.122872 0.593987 -0.181814
v -0.106410 0.655423 -0.181814
v -0.061436 0.700398 -0.181814
v -0.000000 0.716859 -0.181814
v 0.061436 0.700398 -0.181814
v 0.106410 0.655423 -0.181814
v 0.122872 0.593987 -0.181814
v 0.106410 0.532551 -0.181814
v 0.061436 0.487577 -0.181814
v -0.000000 0.471116 -0.181814
v -0.061436 0.487577 -0.181814
v -0.106410 0.532551 -0.181814
v -0.061436 0.487577 0.198233
v -0.000000 0.471116 0.198233
v 0.061436 0.487577 0.198233
v 0.106410 0.532551 0.198233
v 0.122872 0.593987 0.198233
v 0.106410 0.655423 0.198233
v 0.061436 0.700398 0.198233
v -0.000000 0.716859 0.198233
v -0.061436 0.700398 0.198233
v -0.106410 0.655423 0.198233
v -0.122872 0.593987 0.198233
v -0.106410 0.532551 0.198233
v -0.031326 0.477080 -0.181814
v -0.116908 0.625313 -0.181814
v 0.085582 0.679570 -0.181814
v 0.031325 0.710895 -0.181814
v -0.031326 0.710895 -0.181814
v 0.085582 0.508405 -0.181814
v 0.116907 0.625313 -0.181814
v -0.085583 0.508405 -0.181814
v 0.116907 0.562662 -0.181814
v 0.031325 0.477080 -0.181814
v -0.116908 0.562662 -0.181814
v -0.085583 0.679570 -0.181814
v -0.085583 0.679570 0.198233
v -0.116908 0.562662 0.198233
v 0.031325 0.477080 0.198233
v 0.116907 0.562662 0.198233
v -0.085583 0.508405 0.198233
v 0.116907 0.625313 0.198233
v 0.085582 0.508405 0.198233
v -0.031326 0.710895 0.198233
v 0.031325 0.710895 0.198233
v 0.085582 0.679570 0.198233
v -0.116908 0.625313 0.198233
v -0.031326 0.477080 0.198233
v -0.000001 0.593987 -0.181814
v -0.106410 0.532551 0.101127
v -0.061436 0.700398 0.101127
v -0.061436 0.700398 -0.084708
v -0.106410 0.655423 -0.084708
v -0.106410 0.655423 0.101127
v 0.106410 0.655423 0.101127
v 0.106410 0.655423 -0.084708
v 0.061436 0.700398 -0.084708
v 0.061436 0.700398 0.101127
v 0.106410 0.532551 0.101127
v 0.106410 0.532551 -0.084708
v -0.000001 0.593987 0.198233
v 0.085582 0.679570 0.101127
v 0.085582 0.679570 -0.084708
v 0.116907 0.562662 0.101127
v 0.116907 0.562662 -0.084708
v 0.085582 0.508405 0.101127
v 0.085582 0.508405 -0.084708
v 0.031325 0.710895 0.101127
v 0.031325 0.710895 -0.084708
v 0.031325 0.477080 0.101127
v 0.031325 0.477080 -0.084708
v -0.031326 0.477080 0.101127
v 0.122872 0.593987 -0.084708
v 0.122872 0.593987 0.101127
v 0.061436 0.487577 0.101127
v 0.061436 0.487577 -0.084708
v -0.000000 0.716859 -0.084708
v -0.000000 0.716859 0.101127
v -0.000000 0.471116 0.101127
v -0.000000 0.471116 -0.084708
v -0.061436 0.487577 0.101127
v -0.061436 0.487577 -0.084708
v -0.122872 0.593987 0.101127
v -0.122872 0.593987 -0.084708
v -0.031326 0.477080 -0.084708
v 0.116907 0.625313 0.101127
v 0.116907 0.625313 -0.084708
v -0.031326 0.710895 0.101127
v -0.031326 0.710895 -0.084708
v -0.116908 0.562662 0.101127
v -0.116908 0.562662 -0.084708
v -0.116908 0.625313 0.101127
v -0.116908 0.625313 -0.084708
v -0.085583 0.508405 0.101127
v -0.085583 0.508405 -0.084708
v -0.106410 0.532551 -0.084708
v -0.085583 0.679570 -0.084708
v -0.085583 0.679570 0.101127
v -0.015610 -0.236806 0.000000
v -0.015610 0.244336 -0.000000
v 0.013519 0.244336 -0.007805
v 0.013519 -0.236806 -0.007805
v 0.000000 0.244336 0.015610
v 0.000000 -0.236806 0.015610
v 0.013519 -0.236806 0.007805
v 0.013519 0.244336 0.007805
v 0.007805 -0.236806 -0.013519
v 0.007805 0.244336 -0.013519
v -0.013519 -0.236806 0.007805
v -0.013519 0.244336 0.007805
v -0.013519 0.244336 -0.007805
v -0.013519 -0.236806 -0.007805
v -0.007805 0.244336 0.013519
v -0.007805 -0.236806 0.013519
v 0.000000 0.244336 -0.015610
v 0.000000 -0.236806 -0.015610
v -0.007805 0.244336 -0.013519
v -0.007805 -0.236806 -0.013519
v 0.007805 0.244336 0.013519
v 0.007805 -0.236806 0.013519
v 0.015611 0.244336 -0.000000
v 0.015611 -0.236806 0.000000
vn 0.8660 -0.0000 0.5000
vn 0.5000 -0.0000 0.8660
vn 0.5000 -0.0000 -0.8660
vn 0.8660 -0.0000 -0.5000
vn 1.0000 -0.0000 -0.0000
vn -0.0000 -0.0000 -1.0000
vn -0.5000 -0.0000 -0.8660
vn -0.8660 -0.0000 -0.5000
vn -0.5000 -0.0000 0.8660
vn -0.8660 -0.0000 0.5000
vn -1.0000 -0.0000 -0.0000
vn -0.0000 -0.0000 1.0000
vn -0.0000 1.0000 -0.0000
vn 0.7071 -0.7071 -0.0000
vn 0.5000 -0.8660 -0.0000
vn -0.7071 -0.7071 -0.0000
vn -0.8660 -0.5000 -0.0000
vn -0.9659 0.2588 -0.0000
vn -0.8660 0.5000 -0.0000
vn -0.7071 0.7071 -0.0000
vn -0.5000 0.8660 -0.0000
vn -0.2588 -0.9659 -0.0000
vn -0.5000 -0.8660 -0.0000
vn -0.2588 0.9659 -0.0000
vn 0.2588 0.9659 -0.0000
vn 0.5000 0.8660 -0.0000
vn -0.9659 -0.2588 -0.0000
vn 0.2588 -0.9659 -0.0000
vn -0.0000 -1.0000 -0.0000
vn 0.9659 0.2588 -0.0000
vn 0.9659 -0.2588 -0.0000
vn 0.8660 -0.5000 -0.0000
vn 0.7071 0.7071 -0.0000
vn 0.8660 0.5000 -0.0000
vt 0.617573 0.865904
vt 0.617573 0.857496
vt 0.949980 0.857496
vt 0.949980 0.865904
vt 0.617573 0.891127
vt 0.617573 0.882719
vt 0.949980 0.882719
vt 0.949980 0.891127
vt 0.617573 0.874311
vt 0.949980 0.874311
vt 0.617573 0.899534
vt 0.949980 0.899534
vt 0.617573 0.907942
vt 0.949980 0.907942
vt 0.617573 0.916349
vt 0.949980 0.916349
vt 0.617573 0.941572
vt 0.617573 0.933165
vt 0.949980 0.933165
vt 0.949980 0.941572
vt 0.617573 0.924757
vt 0.949980 0.924757
vt 0.617573 0.949980
vt 0.949980 0.949980
vt 0.617573 0.849088
vt 0.949980 0.849088
vt 0.828022 0.826416
vt 0.832226 0.819135
vt 0.843711 0.830620
vt 0.847915 0.846309
vt 0.839507 0.846309
vt 0.839507 0.814932
vt 0.855196 0.819135
vt 0.859400 0.826416
vt 0.855196 0.842105
vt 0.847915 0.814932
vt 0.832226 0.842105
vt 0.828022 0.834824
vt 0.859400 0.834824
vt 0.224177 0.547701
vt 0.224177 0.514522
vt 0.317327 0.514522
vt 0.317327 0.547701
vt 0.224176 0.348628
vt 0.224176 0.315450
vt 0.317327 0.315450
vt 0.317327 0.348628
vt 0.224176 0.215913
vt 0.224176 0.182735
vt 0.317327 0.182735
vt 0.317327 0.215913
vt 0.224176 0.149556
vt 0.224176 0.116377
vt 0.317327 0.116377
vt 0.317327 0.149556
vt 0.224177 0.414986
vt 0.224176 0.381807
vt 0.317327 0.381807
vt 0.317327 0.414986
vt 0.224176 0.083199
vt 0.224176 0.050020
vt 0.317327 0.050020
vt 0.317327 0.083199
vt 0.224177 0.813130
vt 0.224177 0.779952
vt 0.317327 0.779952
vt 0.317327 0.813130
vt 0.224176 0.282271
vt 0.224176 0.249092
vt 0.317327 0.249092
vt 0.317327 0.282271
vt 0.224177 0.481343
vt 0.224176 0.448164
vt 0.317327 0.448164
vt 0.317327 0.481343
vt 0.224177 0.680416
vt 0.224177 0.647237
vt 0.317327 0.647237
vt 0.317327 0.680416
vt 0.224177 0.614058
vt 0.224177 0.580879
vt 0.317327 0.580879
vt 0.317327 0.614058
vt 0.224177 0.746773
vt 0.224177 0.713594
vt 0.317327 0.713594
vt 0.317327 0.746773
vt 0.224177 0.846309
vt 0.317327 0.846309
vt 0.820372 0.762807
vt 0.803783 0.791541
vt 0.699653 0.720720
vt 0.708921 0.595131
vt 0.741740 0.600001
vt 0.529198 0.623912
vt 0.549825 0.649899
vt 0.445696 0.720720
vt 0.516517 0.824849
vt 0.487783 0.841439
vt 0.616151 0.623912
vt 0.644885 0.607323
vt 0.770474 0.616590
vt 0.796461 0.637218
vt 0.454964 0.846309
vt 0.390927 0.834117
vt 0.362194 0.817528
vt 0.675742 0.595131
vt 0.574064 0.711452
vt 0.578934 0.678633
vt 0.571285 0.744631
vt 0.559093 0.775488
vt 0.566415 0.678633
vt 0.690386 0.846309
vt 0.657566 0.841439
vt 0.469607 0.595131
vt 0.500464 0.607323
vt 0.421785 0.846309
vt 0.574064 0.744631
vt 0.348887 0.637218
vt 0.374875 0.616590
vt 0.542504 0.804222
vt 0.723564 0.846309
vt 0.595524 0.649899
vt 0.586256 0.775489
vt 0.403608 0.600001
vt 0.571285 0.711452
vt 0.754422 0.834117
vt 0.436428 0.595131
vt 0.602845 0.804222
vt 0.825242 0.729988
vt 0.341566 0.791541
vt 0.783155 0.817528
vt 0.628833 0.824850
vt 0.324977 0.762807
vt 0.320106 0.729988
vt 0.825242 0.696809
vt 0.813051 0.665951
vt 0.320107 0.696809
vt 0.332298 0.665952
vt -0.047240 0.580879
vt -0.047240 0.547701
vt 0.045910 0.547701
vt 0.045910 0.580879
vt 0.007073 1.323256
vt 0.007073 1.117442
vt 0.992928 1.117442
vt 0.992928 1.323256
vt -0.047240 0.381807
vt -0.047241 0.348628
vt 0.045910 0.348628
vt 0.045910 0.381807
vt 0.007073 0.088372
vt 0.007073 -0.117442
vt 0.992928 -0.117442
vt 0.992928 0.088372
vt -0.047241 0.249092
vt -0.047240 0.215913
vt 0.045910 0.215913
vt 0.045910 0.249092
vt 0.007072 -0.734886
vt 0.007073 -0.940700
vt 0.992927 -0.940700
vt 0.992927 -0.734886
vt -0.047241 0.182735
vt -0.047241 0.149556
vt 0.045910 0.149556
vt 0.045910 0.182735
vt 0.007073 -1.146513
vt 0.007072 -1.352327
vt 0.992927 -1.352327
vt 0.992927 -1.146514
vt -0.047240 0.448165
vt -0.047240 0.414986
vt 0.045910 0.414986
vt 0.045910 0.448165
vt 0.007073 0.500000
vt 0.007073 0.294186
vt 0.992928 0.294186
vt 0.992928 0.500000
vt -0.047241 0.116377
vt -0.047241 0.083199
vt 0.045910 0.083199
vt 0.045910 0.116377
vt 0.007072 -1.558141
vt 0.007072 -1.763955
vt 0.992927 -1.763955
vt 0.992927 -1.558141
vt -0.047240 0.846309
vt -0.047240 0.813130
vt 0.045910 0.813130
vt 0.045910 0.846309
vt 0.007073 2.969769
vt 0.007073 2.763955
vt 0.992928 2.763955
vt 0.992928 2.969769
vt -0.047240 0.315450
vt -0.047240 0.282271
vt 0.045910 0.282271
vt 0.045910 0.315450
vt 0.007073 -0.323256
vt 0.007073 -0.529071
vt 0.992927 -0.529071
vt 0.992927 -0.323256
vt -0.047240 0.514522
vt -0.047240 0.481343
vt 0.045910 0.481343
vt 0.045910 0.514522
vt 0.007073 0.911628
vt 0.007073 0.705814
vt 0.992928 0.705814
vt 0.992928 0.911628
vt -0.047240 0.713594
vt -0.047240 0.680416
vt 0.045910 0.680416
vt 0.045910 0.713594
vt 0.007073 2.146513
vt 0.007073 1.940700
vt 0.992928 1.940700
vt 0.992928 2.146513
vt -0.047240 0.647237
vt -0.047240 0.614058
vt 0.045910 0.614058
vt 0.045910 0.647237
vt 0.007073 1.734886
vt 0.007073 1.529071
vt 0.992928 1.529071
vt 0.992928 1.734886
vt -0.047240 0.779952
vt -0.047240 0.746773
vt 0.045910 0.746773
vt 0.045910 0.779952
vt 0.007073 2.558141
vt 0.007073 2.352327
vt 0.992928 2.352327
vt 0.992928 2.558141
vt -0.047241 0.050020
vt 0.045910 0.050020
vt 0.007072 -1.969769
vt 0.992927 -1.969769
vt -0.047241 0.857496
vt -0.047241 0.849089
vt 0.285166 0.849088
vt 0.285166 0.857496
vt -0.047241 0.949980
vt -0.047241 0.941572
vt 0.285166 0.941572
vt 0.285166 0.949980
vt -0.047241 0.882719
vt -0.047241 0.874311
vt 0.285166 0.874311
vt 0.285166 0.882719
vt -0.047241 0.933165
vt -0.047241 0.924757
vt 0.285166 0.924757
vt 0.285166 0.933165
vt -0.047241 0.916350
vt 0.285166 0.916349
vt -0.047241 0.907942
vt 0.285166 0.907942
vt -0.047241 0.899534
vt 0.285166 0.899534
vt -0.047241 0.891127
vt 0.285166 0.891127
vt -0.047241 0.865904
vt 0.285166 0.865904
s 1
usemtl Madera_Lisa
f 123/40/14 76/41/15 46/42/15 62/43/14
f 87/44/16 80/45/17 43/46/17 71/47/16
f 89/48/18 84/49/19 41/50/19 65/51/18
f 91/52/20 100/53/21 40/54/21 68/55/20
f 93/56/22 83/57/23 44/58/23 70/59/22
f 95/60/24 104/61/13 39/62/13 64/63/24
f 97/64/25 106/65/26 38/66/26 73/67/25
f 111/68/27 99/69/11 42/70/11 67/71/27
f 113/72/28 103/73/29 45/74/29 69/75/28
f 115/76/30 108/77/5 48/78/5 63/79/30
f 117/80/31 79/81/32 47/82/32 72/83/31
f 119/84/33 75/85/34 49/86/34 66/87/33
f 106/65/26 119/84/33 66/87/33 38/66/26
f 108/77/5 117/80/31 72/83/31 48/78/5
f 75/85/34 115/76/30 63/79/30 49/86/34
f 76/41/15 113/72/28 69/75/28 46/42/15
f 80/45/17 111/68/27 67/71/27 43/46/17
f 104/88/13 97/64/25 73/67/25 39/89/13
f 100/53/21 95/60/24 64/63/24 40/54/21
f 103/73/29 93/56/22 70/59/22 45/74/29
f 84/49/19 91/52/20 68/55/20 41/50/19
f 99/69/11 89/48/18 65/51/18 42/70/11
f 83/57/23 87/44/16 71/47/16 44/58/23
f 79/81/32 123/40/14 62/43/14 47/82/32
f 41/90/6 68/91/6 86/92/6
f 70/93/6 44/94/6 86/92/6
f 37/95/12 57/96/12 74/97/12
f 55/98/12 33/99/12 74/97/12
f 46/100/6 69/101/6 86/92/6
f 71/102/6 43/103/6 86/92/6
f 33/99/12 58/104/12 74/97/12
f 56/105/12 31/106/12 74/97/12
f 45/107/6 70/93/6 86/92/6
f 72/108/6 47/109/6 86/92/6
f 35/110/12 59/111/12 74/97/12
f 57/96/12 36/112/12 74/97/12
f 44/94/6 71/102/6 86/92/6
f 73/113/6 38/114/6 86/92/6
f 26/115/12 60/116/12 74/97/12
f 58/104/12 32/117/12 74/97/12
f 48/118/6 72/108/6 86/92/6
f 28/119/12 61/120/12 74/97/12
f 59/111/12 34/121/12 74/97/12
f 39/122/6 73/113/6 86/92/6
f 62/123/6 46/100/6 86/92/6
f 60/116/12 37/95/12 74/97/12
f 63/124/6 48/118/6 86/92/6
f 61/120/12 27/125/12 74/97/12
f 36/112/12 50/126/12 74/97/12
f 47/109/6 62/123/6 86/92/6
f 64/127/6 39/122/6 86/92/6
f 27/125/12 51/128/12 74/97/12
f 50/126/12 35/110/12 74/97/12
f 49/129/6 63/124/6 86/92/6
f 65/130/6 41/90/6 86/92/6
f 31/106/12 52/131/12 74/97/12
f 51/128/12 26/115/12 74/97/12
f 40/132/6 64/127/6 86/92/6
f 66/133/6 49/129/6 86/92/6
f 30/134/12 53/135/12 74/97/12
f 52/131/12 30/134/12 74/97/12
f 42/136/6 65/130/6 86/92/6
f 67/137/6 42/136/6 86/92/6
f 29/138/12 54/139/12 74/97/12
f 53/135/12 29/138/12 74/97/12
f 38/114/6 66/133/6 86/92/6
f 68/91/6 40/132/6 86/92/6
f 34/121/12 55/98/12 74/97/12
f 54/139/12 28/119/12 74/97/12
f 43/103/6 67/137/6 86/92/6
f 69/101/6 45/107/6 86/92/6
f 32/117/12 56/105/12 74/97/12
f 27/140/32 61/141/14 122/142/14 78/143/32
f 30/148/23 52/149/16 88/150/16 82/151/23
f 32/156/11 58/157/18 90/158/18 98/159/11
f 33/164/19 55/165/20 92/166/20 85/167/19
f 29/172/29 53/173/22 94/174/22 102/175/29
f 34/180/21 59/181/24 96/182/24 101/183/21
f 35/188/13 50/189/25 110/190/25 105/191/13
f 31/196/17 56/197/27 112/198/27 81/199/17
f 28/204/15 54/205/28 114/206/28 77/207/15
f 37/212/34 60/213/30 116/214/30 121/215/34
f 26/220/5 51/221/31 118/222/31 109/223/5
f 36/228/26 57/229/33 120/230/33 107/231/26
f 57/229/33 37/212/34 121/215/34 120/230/33
f 51/221/31 27/140/32 78/143/32 118/222/31
f 60/213/30 26/220/5 109/223/5 116/214/30
f 54/205/28 29/172/29 102/175/29 114/206/28
f 56/197/27 32/156/11 98/159/11 112/198/27
f 50/189/25 36/228/26 107/231/26 110/190/25
f 59/181/24 35/236/13 105/237/13 96/182/24
f 53/173/22 30/148/23 82/151/23 94/174/22
f 55/165/20 34/180/21 101/183/21 92/166/20
f 58/157/18 33/164/19 85/167/19 90/158/18
f 52/149/16 31/196/17 81/199/17 88/150/16
f 61/141/14 28/204/15 77/207/15 122/142/14
usemtl Mango_Negro
f 136/1/1 142/2/2 2/3/2 1/4/1
f 138/5/3 135/6/4 11/7/4 10/8/3
f 125/9/5 136/1/1 1/4/1 12/10/5
f 128/11/6 138/5/3 10/8/3 9/12/6
f 144/13/7 128/11/6 9/12/6 8/14/7
f 131/15/8 144/13/7 8/14/7 7/16/8
f 133/17/9 126/18/10 5/19/10 4/20/9
f 146/21/11 131/15/8 7/16/8 6/22/11
f 126/18/10 146/21/11 6/22/11 5/19/10
f 135/6/4 125/9/5 12/10/5 11/7/4
f 140/23/12 133/17/9 4/20/9 3/24/12
f 142/2/2 140/25/12 3/26/12 2/3/2
f 24/27/13 13/28/13 25/29/13
f 20/30/13 21/31/13 25/29/13
f 13/28/13 14/32/13 25/29/13
f 16/33/13 17/34/13 25/29/13
f 19/35/13 20/30/13 25/29/13
f 15/36/13 16/33/13 25/29/13
f 21/31/13 22/37/13 25/29/13
f 14/32/13 15/36/13 25/29/13
f 22/37/13 23/38/13 25/29/13
f 18/39/13 19/35/13 25/29/13
f 23/38/13 24/27/13 25/29/13
f 17/34/13 18/39/13 25/29/13
f 23/240/2 22/241/12 141/242/12 143/243/2
f 22/244/12 21/245/9 132/246/9 141/247/12
f 14/248/4 13/249/5 124/250/5 134/251/4
f 20/252/10 19/253/11 147/254/11 127/255/10
f 19/253/11 18/256/8 130/257/8 147/254/11
f 21/245/9 20/252/10 127/255/10 132/246/9
f 18/256/8 17/258/7 145/259/7 130/257/8
f 17/258/7 16/260/6 129/261/6 145/259/7
f 16/260/6 15/262/3 139/263/3 129/261/6
f 13/249/5 24/264/1 137/265/1 124/250/5
f 15/262/3 14/248/4 134/251/4 139/263/3
f 24/264/1 23/240/2 143/243/2 137/265/1
usemtl Mango_Azul
f 143/243/2 141/242/12 140/25/12 142/2/2
f 141/247/12 132/246/9 133/17/9 140/23/12
f 134/251/4 124/250/5 125/9/5 135/6/4
f 127/255/10 147/254/11 146/21/11 126/18/10
f 147/254/11 130/257/8 131/15/8 146/21/11
f 132/246/9 127/255/10 126/18/10 133/17/9
f 130/257/8 145/259/7 144/13/7 131/15/8
f 145/259/7 129/261/6 128/11/6 144/13/7
f 129/261/6 139/263/3 138/5/3 128/11/6
f 124/250/5 137/265/1 136/1/1 125/9/5
f 139/263/3 134/251/4 135/6/4 138/5/3
f 137/265/1 143/243/2 142/2/2 136/1/1
usemtl Martillo
f 78/144/32 122/145/14 123/146/14 79/147/32
f 82/152/23 88/153/16 87/154/16 83/155/23
f 98/160/11 90/161/18 89/162/18 99/163/11
f 85/168/19 92/169/20 91/170/20 84/171/19
f 102/176/29 94/177/22 93/178/22 103/179/29
f 101/184/21 96/185/24 95/186/24 100/187/21
f 105/192/13 110/193/25 97/194/25 104/195/13
f 81/200/17 112/201/27 111/202/27 80/203/17
f 77/208/15 114/209/28 113/210/28 76/211/15
f 121/216/34 116/217/30 115/218/30 75/219/34
f 109/224/5 118/225/31 117/226/31 108/227/5
f 107/232/26 120/233/33 119/234/33 106/235/26
f 120/233/33 121/216/34 75/219/34 119/234/33
f 118/225/31 78/144/32 79/147/32 117/226/31
f 116/217/30 109/224/5 108/227/5 115/218/30
f 114/209/28 102/176/29 103/179/29 113/210/28
f 112/201/27 98/160/11 99/163/11 111/202/27
f 110/193/25 107/232/26 106/235/26 97/194/25
f 96/185/24 105/238/13 104/239/13 95/186/24
f 94/177/22 82/152/23 83/155/23 93/178/22
f 92/169/20 101/184/21 100/187/21 91/170/20
f 90/161/18 85/168/19 84/171/19 89/162/18
f 88/153/16 81/200/17 80/203/17 87/154/16
f 122/145/14 77/208/15 76/211/15 123/146/14
