# Blender 3.6.0
# www.blender.org
mtllib Mesa_Dados.mtl
o Mesa_Dados
v 0.195090 0.900000 -0.980785
v 0.382683 0.900000 -0.923880
v 0.555570 0.900000 -0.831470
v 0.707107 0.900000 -0.707107
v 0.831470 0.900000 -0.555570
v 0.923880 0.900000 -0.382683
v 0.980785 0.900000 -0.195090
v 1.000000 0.900000 0.000000
v 0.980785 0.900000 0.195090
v 0.923880 0.900000 0.382683
v 0.831470 0.900000 0.555570
v 0.707107 0.900000 0.707107
v 0.555570 0.900000 0.831470
v 0.382683 0.900000 0.923880
v 0.195090 0.900000 0.980785
v 0.000000 0.900000 1.000000
v -0.195090 0.900000 0.980785
v -0.382683 0.900000 0.923880
v -0.555570 0.900000 0.831470
v -0.707107 0.900000 0.707107
v -0.831470 0.900000 0.555570
v -0.923880 0.900000 0.382683
v -0.980785 0.900000 0.195090
v -1.000000 0.900000 0.000000
v -0.980785 0.900000 -0.195090
v -0.923880 0.900000 -0.382683
v -0.831470 0.900000 -0.555570
v -0.707107 0.900000 -0.707107
v -0.555570 0.900000 -0.831470
v -0.382683 0.900000 -0.923880
v -0.195090 0.900000 -0.980785
v 0.000000 0.900000 -1.000000
v 0.176950 0.900000 -0.889587
v 0.347100 0.900000 -0.837973
v 0.503911 0.900000 -0.754156
v 0.641357 0.900000 -0.641357
v 0.889587 0.900000 -0.176950
v 0.907015 0.900000 0.000000
v 0.754156 0.900000 -0.503911
v 0.837973 0.900000 -0.347100
v 0.000000 0.900000 -0.907015
v 0.889587 0.900000 0.176950
v 0.837973 0.900000 0.347100
v 0.754156 0.900000 0.503911
v 0.641357 0.900000 0.641357
v 0.503911 0.900000 0.754156
v 0.347100 0.900000 0.837973
v 0.176950 0.900000 0.889587
v 0.000000 0.900000 0.907015
v -0.503911 0.900000 0.754156
v -0.641357 0.900000 0.641357
v -0.176950 0.900000 0.889587
v -0.347100 0.900000 0.837973
v -0.754156 0.900000 0.503911
v -0.837973 0.900000 0.347100
v -0.889587 0.900000 0.176950
v -0.907015 0.900000 0.000000
v -0.889587 0.900000 -0.176950
v -0.837973 0.900000 -0.347100
v -0.754156 0.900000 -0.503911
v -0.641357 0.900000 -0.641357
v -0.176950 0.900000 -0.889587
v -0.503911 0.900000 -0.754156
v -0.347100 0.900000 -0.837973
v 0.176950 0.808448 -0.889587
v 0.347100 0.808448 -0.837973
v 0.503911 0.808448 -0.754156
v 0.641357 0.808448 -0.641357
v 0.889587 0.808448 -0.176950
v 0.907015 0.808448 0.000000
v 0.754156 0.808448 -0.503911
v 0.837973 0.808448 -0.347100
v 0.000000 0.808448 -0.907015
v 0.889587 0.808448 0.176950
v 0.837973 0.808448 0.347100
v 0.754156 0.808448 0.503911
v 0.641357 0.808448 0.641357
v 0.503911 0.808448 0.754156
v 0.347100 0.808448 0.837973
v 0.176950 0.808448 0.889587
v 0.000000 0.808448 0.907015
v -0.503911 0.808448 0.754156
v -0.641357 0.808448 0.641357
v -0.176950 0.808448 0.889587
v -0.347100 0.808448 0.837973
v -0.754156 0.808448 0.503911
v -0.837973 0.808448 0.347100
v -0.889587 0.808448 0.176950
v -0.907015 0.808448 0.000000
v -0.889587 0.808448 -0.176950
v -0.837973 0.808448 -0.347100
v -0.754156 0.808448 -0.503911
v -0.641357 0.808448 -0.641357
v -0.176950 0.808448 -0.889587
v -0.503911 0.808448 -0.754156
v -0.347100 0.808448 -0.837973
v 0.006396 0.738726 -0.032157
v 0.012546 0.738726 -0.030291
v 0.018215 0.738726 -0.027261
v 0.023183 0.738726 -0.023184
v 0.027260 0.738726 -0.018216
v 0.030290 0.738726 -0.012548
v 0.032155 0.738726 -0.006397
v 0.032785 0.738726 -0.000001
v 0.032155 0.738726 0.006395
v 0.030290 0.738726 0.012545
v 0.027260 0.738726 0.018213
v 0.023183 0.738726 0.023182
v 0.018215 0.738726 0.027259
v 0.012546 0.738726 0.030288
v 0.006396 0.738726 0.032154
v -0.000000 0.738726 0.032784
v -0.006396 0.738726 0.032154
v -0.012546 0.738726 0.030288
v -0.018215 0.738726 0.027259
v -0.023183 0.738726 0.023182
v -0.027260 0.738726 0.018213
v -0.030290 0.738726 0.012545
v -0.032155 0.738726 0.006395
v -0.032785 0.738726 -0.000001
v -0.032155 0.738726 -0.006397
v -0.030290 0.738726 -0.012548
v -0.027260 0.738726 -0.018216
v -0.023183 0.738726 -0.023184
v -0.018215 0.738726 -0.027261
v -0.012546 0.738726 -0.030291
v -0.006396 0.738726 -0.032157
v -0.000000 0.738726 -0.032787
v 0.195090 0.738726 -0.980785
v 0.382683 0.738726 -0.923880
v 0.555570 0.738726 -0.831470
v 0.707107 0.738726 -0.707107
v 0.980785 0.738726 -0.195090
v 1.000000 0.738726 0.000000
v 0.831470 0.738726 -0.555570
v 0.923880 0.738726 -0.382683
v 0.000000 0.738726 -1.000000
v 0.980785 0.738726 0.195090
v 0.923880 0.738726 0.382683
v 0.831470 0.738726 0.555570
v 0.707107 0.738726 0.707107
v 0.555570 0.738726 0.831470
v 0.382683 0.738726 0.923880
v 0.195090 0.738726 0.980785
v 0.000000 0.738726 1.000000
v -0.555570 0.738726 0.831470
v -0.707107 0.738726 0.707107
v -0.195090 0.738726 0.980785
v -0.382683 0.738726 0.923880
v -0.831470 0.738726 0.555570
v -0.923880 0.738726 0.382683
v -0.980785 0.738726 0.195090
v -1.000000 0.738726 0.000000
v -0.980785 0.738726 -0.195090
v -0.923880 0.738726 -0.382683
v -0.831470 0.738726 -0.555570
v -0.707107 0.738726 -0.707107
v -0.195090 0.738726 -0.980785
v -0.555570 0.738726 -0.831470
v -0.382683 0.738726 -0.923880
v 0.006396 0.057104 -0.032157
v 0.012547 0.057104 -0.030291
v 0.018215 0.057104 -0.027261
v 0.023183 0.057104 -0.023184
v 0.027260 0.057104 -0.018216
v 0.030290 0.057104 -0.012548
v 0.032156 0.057104 -0.006397
v 0.032786 0.057104 -0.000001
v 0.032156 0.057104 0.006395
v 0.030290 0.057104 0.012545
v 0.027260 0.057104 0.018213
v 0.023183 0.057104 0.023182
v 0.018215 0.057104 0.027259
v 0.012547 0.057104 0.030288
v 0.006396 0.057104 0.032154
v 0.000000 0.057104 0.032784
v -0.006396 0.057104 0.032154
v -0.012546 0.057104 0.030288
v -0.018215 0.057104 0.027259
v -0.023183 0.057104 0.023182
v -0.027260 0.057104 0.018213
v -0.030290 0.057104 0.012545
v -0.032155 0.057104 0.006395
v -0.032785 0.057104 -0.000001
v -0.032155 0.057104 -0.006397
v -0.030290 0.057104 -0.012548
v -0.027260 0.057104 -0.018216
v -0.023183 0.057104 -0.023184
v -0.018215 0.057104 -0.027261
v -0.012546 0.057104 -0.030291
v -0.006396 0.057104 -0.032157
v 0.000000 0.057104 -0.032787
v 0.020856 0.000000 -0.104854
v 0.040911 0.000000 -0.098771
v 0.059393 0.000000 -0.088892
v 0.075593 0.000000 -0.075597
v 0.088887 0.000000 -0.059397
v 0.098766 0.000000 -0.040915
v 0.104850 0.000000 -0.020860
v 0.106904 0.000000 -0.000004
v 0.104850 0.000000 0.020852
v 0.098766 0.000000 0.040906
v 0.088887 0.000000 0.059388
v 0.075593 0.000000 0.075588
v 0.059393 0.000000 0.088883
v 0.040911 0.000000 0.098762
v 0.020856 0.000000 0.104846
v 0.000000 0.000000 0.106900
v -0.020856 0.000000 0.104846
v -0.040910 0.000000 0.098762
v -0.059393 0.000000 0.088883
v -0.075592 0.000000 0.075588
v -0.088887 0.000000 0.059388
v -0.098766 0.000000 0.040906
v -0.104850 0.000000 0.020852
v -0.106904 0.000000 -0.000004
v -0.104850 0.000000 -0.020860
v -0.098766 0.000000 -0.040915
v -0.088887 0.000000 -0.059397
v -0.075592 0.000000 -0.075597
v -0.059393 0.000000 -0.088892
v -0.040910 0.000000 -0.098771
v -0.020856 0.000000 -0.104854
v 0.000000 0.000000 -0.106908
vn 0.1951 -0.0000 -0.9808
vn -0.0000 -0.0000 -1.0000
vn -0.0000 1.0000 -0.0000
vn -0.7071 -0.0000 0.7071
vn -0.5556 -0.0000 0.8315
vn 0.3827 -0.0000 0.9239
vn 0.5556 -0.0000 0.8315
vn 0.5556 -0.0000 -0.8315
vn 0.3827 -0.0000 -0.9239
vn -1.0000 -0.0000 -0.0000
vn -0.9808 -0.0000 0.1951
vn 0.9808 -0.0000 -0.1951
vn 0.9239 -0.0000 -0.3827
vn -0.8315 -0.0000 0.5556
vn 0.9808 -0.0000 0.1951
vn 1.0000 -0.0000 -0.0000
vn -0.8315 -0.0000 -0.5556
vn -0.9239 -0.0000 -0.3827
vn -0.9239 -0.0000 0.3827
vn -0.5556 -0.0000 -0.8315
vn -0.7071 -0.0000 -0.7071
vn 0.8315 -0.0000 -0.5556
vn 0.7071 -0.0000 -0.7071
vn -0.1951 -0.0000 0.9808
vn -0.0000 -0.0000 1.0000
vn -0.9808 -0.0000 -0.1951
vn 0.9239 -0.0000 0.3827
vn 0.8315 -0.0000 0.5556
vn -0.3827 -0.0000 -0.9239
vn 0.7071 -0.0000 0.7071
vn -0.1951 -0.0000 -0.9808
vn 0.1951 -0.0000 0.9808
vn -0.3827 -0.0000 0.9239
vn -0.0000 -1.0000 -0.0000
vn -0.0000 0.7922 -0.6103
vn 0.1191 0.7922 -0.5986
vn -0.5075 0.7922 0.3391
vn -0.5639 0.7922 0.2336
vn 0.6103 0.7922 -0.0000
vn 0.5986 0.7922 0.1191
vn -0.5986 0.7922 0.1191
vn -0.6103 0.7922 -0.0000
vn 0.5639 0.7922 0.2336
vn -0.5986 0.7922 -0.1191
vn -0.5638 0.7922 -0.2336
vn 0.5075 0.7922 0.3391
vn 0.4316 0.7922 0.4316
vn -0.5074 0.7922 -0.3391
vn 0.3391 0.7922 0.5075
vn 0.2336 0.7922 0.5639
vn -0.4315 0.7922 -0.4315
vn 0.1191 0.7921 0.5986
vn -0.1191 0.7922 -0.5986
vn -0.0000 0.7921 0.6103
vn 0.2336 0.7922 -0.5638
vn -0.3391 0.7922 -0.5074
vn -0.3391 0.7922 0.5075
vn -0.4316 0.7922 0.4316
vn 0.3391 0.7922 -0.5074
vn -0.2336 0.7922 -0.5638
vn -0.1191 0.7921 0.5986
vn 0.4315 0.7922 -0.4315
vn -0.2336 0.7922 0.5639
vn 0.5986 0.7922 -0.1191
vn 0.5074 0.7922 -0.3391
vn 0.5638 0.7922 -0.2336
vt 0.000000 0.000000
s 1
usemtl Madera
f 52/1/1 49/1/2 81/1/2 84/1/1
f 33/1/3 34/1/3 2/1/3 1/1/3
f 34/1/3 35/1/3 3/1/3 2/1/3
f 35/1/3 36/1/3 4/1/3 3/1/3
f 37/1/3 38/1/3 8/1/3 7/1/3
f 36/1/3 39/1/3 5/1/3 4/1/3
f 40/1/3 37/1/3 7/1/3 6/1/3
f 39/1/3 40/1/3 6/1/3 5/1/3
f 41/1/3 33/1/3 1/1/3 32/1/3
f 38/1/3 42/1/3 9/1/3 8/1/3
f 42/1/3 43/1/3 10/1/3 9/1/3
f 44/1/3 45/1/3 12/1/3 11/1/3
f 46/1/3 47/1/3 14/1/3 13/1/3
f 47/1/3 48/1/3 15/1/3 14/1/3
f 48/1/3 49/1/3 16/1/3 15/1/3
f 50/1/3 51/1/3 20/1/3 19/1/3
f 49/1/3 52/1/3 17/1/3 16/1/3
f 53/1/3 50/1/3 19/1/3 18/1/3
f 52/1/3 53/1/3 18/1/3 17/1/3
f 43/1/3 44/1/3 11/1/3 10/1/3
f 45/1/3 46/1/3 13/1/3 12/1/3
f 51/1/3 54/1/3 21/1/3 20/1/3
f 54/1/3 55/1/3 22/1/3 21/1/3
f 56/1/3 57/1/3 24/1/3 23/1/3
f 58/1/3 59/1/3 26/1/3 25/1/3
f 59/1/3 60/1/3 27/1/3 26/1/3
f 60/1/3 61/1/3 28/1/3 27/1/3
f 62/1/3 41/1/3 32/1/3 31/1/3
f 61/1/3 63/1/3 29/1/3 28/1/3
f 64/1/3 62/1/3 31/1/3 30/1/3
f 63/1/3 64/1/3 30/1/3 29/1/3
f 55/1/3 56/1/3 23/1/3 22/1/3
f 57/1/3 58/1/3 25/1/3 24/1/3
f 36/1/4 35/1/5 67/1/5 68/1/4
f 64/1/6 63/1/7 95/1/7 96/1/6
f 50/1/8 53/1/9 85/1/9 82/1/8
f 38/1/10 37/1/11 69/1/11 70/1/10
f 56/1/12 55/1/13 87/1/13 88/1/12
f 53/1/9 52/1/1 84/1/1 85/1/9
f 39/1/14 36/1/4 68/1/4 71/1/14
f 58/1/15 57/1/16 89/1/16 90/1/15
f 44/1/17 43/1/18 75/1/18 76/1/17
f 37/1/11 40/1/19 72/1/19 69/1/11
f 46/1/20 45/1/21 77/1/21 78/1/20
f 40/1/19 39/1/14 71/1/14 72/1/19
f 54/1/22 51/1/23 83/1/23 86/1/22
f 33/1/24 41/1/25 73/1/25 65/1/24
f 55/1/13 54/1/22 86/1/22 87/1/13
f 42/1/26 38/1/10 70/1/10 74/1/26
f 57/1/16 56/1/12 88/1/12 89/1/16
f 43/1/18 42/1/26 74/1/26 75/1/18
f 59/1/27 58/1/15 90/1/15 91/1/27
f 45/1/21 44/1/17 76/1/17 77/1/21
f 60/1/28 59/1/27 91/1/27 92/1/28
f 47/1/29 46/1/20 78/1/20 79/1/29
f 61/1/30 60/1/28 92/1/28 93/1/30
f 48/1/31 47/1/29 79/1/29 80/1/31
f 41/1/25 62/1/32 94/1/32 73/1/25
f 49/1/2 48/1/31 80/1/31 81/1/2
f 34/1/33 33/1/24 65/1/24 66/1/33
f 63/1/7 61/1/30 93/1/30 95/1/7
f 51/1/23 50/1/8 82/1/8 83/1/23
f 35/1/5 34/1/33 66/1/33 67/1/5
f 62/1/32 64/1/6 96/1/6 94/1/32
f 25/1/26 26/1/18 155/1/18 154/1/26
f 11/1/28 12/1/30 141/1/30 140/1/28
f 26/1/18 27/1/17 156/1/17 155/1/18
f 13/1/7 14/1/6 143/1/6 142/1/7
f 27/1/17 28/1/21 157/1/21 156/1/17
f 14/1/6 15/1/32 144/1/32 143/1/6
f 31/1/31 32/1/2 137/1/2 158/1/31
f 15/1/32 16/1/25 145/1/25 144/1/32
f 1/1/1 2/1/9 130/1/9 129/1/1
f 28/1/21 29/1/20 159/1/20 157/1/21
f 19/1/5 20/1/4 147/1/4 146/1/5
f 2/1/9 3/1/8 131/1/8 130/1/9
f 30/1/29 31/1/31 158/1/31 160/1/29
f 16/1/25 17/1/24 148/1/24 145/1/25
f 3/1/8 4/1/23 132/1/23 131/1/8
f 29/1/20 30/1/29 160/1/29 159/1/20
f 18/1/33 19/1/5 146/1/5 149/1/33
f 7/1/12 8/1/16 134/1/16 133/1/12
f 22/1/19 23/1/11 152/1/11 151/1/19
f 17/1/24 18/1/33 149/1/33 148/1/24
f 4/1/23 5/1/22 135/1/22 132/1/23
f 24/1/10 25/1/26 154/1/26 153/1/10
f 10/1/27 11/1/28 140/1/28 139/1/27
f 6/1/13 7/1/12 133/1/12 136/1/13
f 12/1/30 13/1/7 142/1/7 141/1/30
f 5/1/22 6/1/13 136/1/13 135/1/22
f 20/1/4 21/1/14 150/1/14 147/1/4
f 32/1/2 1/1/1 129/1/1 137/1/2
f 21/1/14 22/1/19 151/1/19 150/1/14
f 8/1/16 9/1/15 138/1/15 134/1/16
f 23/1/11 24/1/10 153/1/10 152/1/11
f 9/1/15 10/1/27 139/1/27 138/1/15
f 100/1/23 101/1/22 165/1/22 164/1/23
f 98/1/34 97/1/34 129/1/34 130/1/34
f 99/1/34 98/1/34 130/1/34 131/1/34
f 100/1/34 99/1/34 131/1/34 132/1/34
f 104/1/34 103/1/34 133/1/34 134/1/34
f 101/1/34 100/1/34 132/1/34 135/1/34
f 103/1/34 102/1/34 136/1/34 133/1/34
f 102/1/34 101/1/34 135/1/34 136/1/34
f 97/1/34 128/1/34 137/1/34 129/1/34
f 105/1/34 104/1/34 134/1/34 138/1/34
f 106/1/34 105/1/34 138/1/34 139/1/34
f 108/1/34 107/1/34 140/1/34 141/1/34
f 110/1/34 109/1/34 142/1/34 143/1/34
f 111/1/34 110/1/34 143/1/34 144/1/34
f 112/1/34 111/1/34 144/1/34 145/1/34
f 116/1/34 115/1/34 146/1/34 147/1/34
f 113/1/34 112/1/34 145/1/34 148/1/34
f 115/1/34 114/1/34 149/1/34 146/1/34
f 114/1/34 113/1/34 148/1/34 149/1/34
f 107/1/34 106/1/34 139/1/34 140/1/34
f 109/1/34 108/1/34 141/1/34 142/1/34
f 117/1/34 116/1/34 147/1/34 150/1/34
f 118/1/34 117/1/34 150/1/34 151/1/34
f 120/1/34 119/1/34 152/1/34 153/1/34
f 122/1/34 121/1/34 154/1/34 155/1/34
f 123/1/34 122/1/34 155/1/34 156/1/34
f 124/1/34 123/1/34 156/1/34 157/1/34
f 128/1/34 127/1/34 158/1/34 137/1/34
f 125/1/34 124/1/34 157/1/34 159/1/34
f 127/1/34 126/1/34 160/1/34 158/1/34
f 126/1/34 125/1/34 159/1/34 160/1/34
f 119/1/34 118/1/34 151/1/34 152/1/34
f 121/1/34 120/1/34 153/1/34 154/1/34
f 192/1/35 161/1/36 193/1/36 224/1/35
f 120/1/10 121/1/26 185/1/26 184/1/10
f 106/1/27 107/1/28 171/1/28 170/1/27
f 102/1/13 103/1/12 167/1/12 166/1/13
f 108/1/30 109/1/7 173/1/7 172/1/30
f 101/1/22 102/1/13 166/1/13 165/1/22
f 116/1/4 117/1/14 181/1/14 180/1/4
f 128/1/2 97/1/1 161/1/1 192/1/2
f 117/1/14 118/1/19 182/1/19 181/1/14
f 104/1/16 105/1/15 169/1/15 168/1/16
f 119/1/11 120/1/10 184/1/10 183/1/11
f 105/1/15 106/1/27 170/1/27 169/1/15
f 121/1/26 122/1/18 186/1/18 185/1/26
f 107/1/28 108/1/30 172/1/30 171/1/28
f 122/1/18 123/1/17 187/1/17 186/1/18
f 109/1/7 110/1/6 174/1/6 173/1/7
f 123/1/17 124/1/21 188/1/21 187/1/17
f 110/1/6 111/1/32 175/1/32 174/1/6
f 127/1/31 128/1/2 192/1/2 191/1/31
f 111/1/32 112/1/25 176/1/25 175/1/32
f 97/1/1 98/1/9 162/1/9 161/1/1
f 124/1/21 125/1/20 189/1/20 188/1/21
f 115/1/5 116/1/4 180/1/4 179/1/5
f 98/1/9 99/1/8 163/1/8 162/1/9
f 126/1/29 127/1/31 191/1/31 190/1/29
f 112/1/25 113/1/24 177/1/24 176/1/25
f 99/1/8 100/1/23 164/1/23 163/1/8
f 125/1/20 126/1/29 190/1/29 189/1/20
f 114/1/33 115/1/5 179/1/5 178/1/33
f 103/1/12 104/1/16 168/1/16 167/1/12
f 118/1/19 119/1/11 183/1/11 182/1/19
f 113/1/24 114/1/33 178/1/33 177/1/24
f 181/1/37 182/1/38 214/1/38 213/1/37
f 168/1/39 169/1/40 201/1/40 200/1/39
f 183/1/41 184/1/42 216/1/42 215/1/41
f 169/1/40 170/1/43 202/1/43 201/1/40
f 185/1/44 186/1/45 218/1/45 217/1/44
f 171/1/46 172/1/47 204/1/47 203/1/46
f 186/1/45 187/1/48 219/1/48 218/1/45
f 173/1/49 174/1/50 206/1/50 205/1/49
f 187/1/48 188/1/51 220/1/51 219/1/48
f 174/1/50 175/1/52 207/1/52 206/1/50
f 191/1/53 192/1/35 224/1/35 223/1/53
f 175/1/52 176/1/54 208/1/54 207/1/52
f 161/1/36 162/1/55 194/1/55 193/1/36
f 188/1/51 189/1/56 221/1/56 220/1/51
f 179/1/57 180/1/58 212/1/58 211/1/57
f 162/1/55 163/1/59 195/1/59 194/1/55
f 190/1/60 191/1/53 223/1/53 222/1/60
f 176/1/54 177/1/61 209/1/61 208/1/54
f 163/1/59 164/1/62 196/1/62 195/1/59
f 189/1/56 190/1/60 222/1/60 221/1/56
f 178/1/63 179/1/57 211/1/57 210/1/63
f 167/1/64 168/1/39 200/1/39 199/1/64
f 182/1/38 183/1/41 215/1/41 214/1/38
f 177/1/61 178/1/63 210/1/63 209/1/61
f 164/1/62 165/1/65 197/1/65 196/1/62
f 184/1/42 185/1/44 217/1/44 216/1/42
f 170/1/43 171/1/46 203/1/46 202/1/43
f 166/1/66 167/1/64 199/1/64 198/1/66
f 172/1/47 173/1/49 205/1/49 204/1/47
f 165/1/65 166/1/66 198/1/66 197/1/65
f 180/1/58 181/1/37 213/1/37 212/1/58
usemtl Verde
f 65/1/3 73/1/3 94/1/3 96/1/3 95/1/3 93/1/3 92/1/3 91/1/3 90/1/3 89/1/3 88/1/3 87/1/3 86/1/3 83/1/3 82/1/3 85/1/3 84/1/3 81/1/3 80/1/3 79/1/3 78/1/3 77/1/3 76/1/3 75/1/3 74/1/3 70/1/3 69/1/3 72/1/3 71/1/3 68/1/3 67/1/3 66/1/3
