# Blender 4.3.2
# www.blender.org
mtllib PuestoComida8.mtl
o Puesto_Comida.009
v -1.652279 -0.000000 -1.055180
v 1.652279 0.000000 1.055180
v 1.652279 2.414669 1.055180
v -1.652279 0.000000 1.055180
v -1.652279 2.214942 0.855453
v -1.613587 -0.000000 -1.018106
v -1.613587 0.000000 1.018106
v -1.613587 2.335222 1.018106
v -1.613587 2.335222 -1.018106
v 1.613587 -0.000000 -1.018106
v 1.613587 2.335222 -1.018106
v -1.455894 2.218284 -1.055180
v 1.613587 0.000000 1.018106
v 1.455894 2.218284 -1.055180
v 1.652279 -0.000000 -1.055180
v 1.613587 2.335222 1.018106
v 1.101251 1.906293 1.055180
v 1.101251 0.977324 1.055180
v -1.101251 0.977324 1.055180
v -1.101251 1.906293 1.055180
v 1.101251 0.977324 1.018106
v -1.101251 0.977324 1.018106
v 1.101251 1.906293 1.018106
v -1.101251 1.906293 1.018106
v 1.652279 1.823902 -0.578389
v 1.652279 0.977324 -0.578389
v 1.652279 1.823902 0.578389
v 1.652279 0.977324 0.578389
v 1.613587 0.977324 0.578389
v 1.613587 0.977324 -0.578389
v 1.613587 1.823902 0.578389
v 1.613587 1.823902 -0.578389
v 1.135412 1.941761 1.055180
v -1.135412 1.941761 1.055180
v 1.135412 1.610443 1.872052
v -1.135412 1.610443 1.872052
v 1.657554 1.859524 0.628446
v 1.657553 1.859524 -0.628446
v 2.474426 1.528206 -0.628446
v 2.474426 1.528206 0.628446
v 0.007985 0.965650 1.046307
v -0.007985 0.965650 1.046307
v 0.007985 0.965650 1.026973
v -0.007985 0.965650 1.026973
v 0.007985 1.917971 1.046307
v -0.007985 1.917971 1.046307
v 0.007985 1.917971 1.026973
v -0.007985 1.917971 1.026973
v 1.111918 1.395329 1.057217
v 1.103368 1.395329 1.057217
v 1.111918 1.401266 1.048738
v 1.103368 1.401266 1.048738
v 1.111918 1.812979 1.349659
v 1.103368 1.812979 1.349659
v 1.111918 1.818916 1.341180
v 1.103368 1.818916 1.341180
v -1.103365 1.395329 1.057217
v -1.111915 1.395329 1.057217
v -1.103365 1.401266 1.048738
v -1.111915 1.401266 1.048738
v -1.103365 1.812979 1.349659
v -1.111915 1.812979 1.349659
v -1.103365 1.818916 1.341180
v -1.111915 1.818916 1.341180
v -0.008647 1.395329 1.040993
v -0.017197 1.395329 1.040993
v -0.008647 1.401266 1.032514
v -0.017197 1.401266 1.032514
v -0.008647 1.812979 1.333434
v -0.017197 1.812979 1.333434
v -0.008647 1.818916 1.324956
v -0.017197 1.818916 1.324956
v 0.017197 1.395329 1.040993
v 0.008647 1.395329 1.040993
v 0.017197 1.401266 1.032514
v 0.008647 1.401266 1.032514
v 0.017197 1.812979 1.333434
v 0.008647 1.812979 1.333434
v 0.017197 1.818916 1.324956
v 0.008647 1.818916 1.324956
v 1.650956 1.318132 0.584084
v 1.650956 1.318132 0.592634
v 1.642478 1.324069 0.584084
v 1.642478 1.324069 0.592634
v 1.943398 1.735783 0.584084
v 1.943398 1.735783 0.592634
v 1.934919 1.741719 0.584084
v 1.934919 1.741719 0.592634
v 1.650956 1.318132 -0.592634
v 1.650956 1.318132 -0.584084
v 1.642478 1.324069 -0.592634
v 1.642478 1.324069 -0.584084
v 1.943398 1.735783 -0.592634
v 1.943398 1.735783 -0.584084
v 1.934919 1.741719 -0.592634
v 1.934919 1.741719 -0.584084
v 1.746313 2.499348 -0.000000
v -1.746313 2.499348 -0.000000
v 1.746313 2.407081 1.308496
v -1.746313 2.407081 1.308496
v 1.746313 2.407081 -1.308496
v -1.746313 2.407081 -1.308496
v 1.652279 2.414669 -1.055180
v -1.652279 2.214942 -0.855453
v 1.455894 0.196385 -1.055180
v -1.455894 0.196385 -1.055180
v -1.652279 2.414669 1.055180
v -1.652279 0.199727 0.855453
v -1.652279 0.199727 -0.855453
v -1.652279 2.414669 -1.055180
vn 1.0000 -0.0000 -0.0000
vn -0.0000 -0.0000 1.0000
vn -0.0000 -0.0000 -1.0000
vn -0.0000 1.0000 -0.0000
vn -1.0000 -0.0000 -0.0000
vn -0.0000 -1.0000 -0.0000
vn -0.0000 0.9267 0.3759
vn 0.3759 0.9267 -0.0000
vn -0.0000 0.5736 -0.8192
vn -0.0000 -0.5736 0.8192
vn -0.0000 -0.8192 -0.5736
vn -0.8192 0.5736 -0.0000
vn 0.8192 -0.5736 -0.0000
vn -0.0000 0.9975 0.0703
vn -0.0000 0.9975 -0.0703
vt -5.964708 -3.043947
vt -5.964708 -5.901531
vt -2.687497 -5.901532
vt -2.687497 -3.043947
vt 6.964706 -1.199621
vt 6.964708 3.329342
vt 3.687497 3.329342
vt 3.687496 -1.199620
vt 0.947884 -2.037274
vt 2.251585 -2.037274
vt 3.623145 -1.263971
vt 0.234439 -1.263971
vt 2.251585 -5.128229
vt 0.947884 -5.128229
vt 0.234439 -5.901531
vt 3.623143 -5.901532
vt -4.593147 -2.324943
vt -4.593147 0.766012
vt -5.964706 1.485016
vt -3.289447 0.766012
vt -3.289447 -2.324943
vt -2.687497 1.485015
vt 3.260433 3.502291
vt 3.312463 3.502291
vt 3.312463 6.593246
vt 3.260433 6.593246
vt -5.794027 5.710650
vt -5.846057 5.710650
vt -5.846057 4.406950
vt -5.794027 4.406950
vt 3.428844 6.593246
vt 3.376815 6.593246
vt 3.376815 3.502291
vt 3.428844 3.502291
vt -5.729677 4.406950
vt -5.677647 4.406950
vt -5.677647 5.710650
vt -5.729677 5.710650
vt 3.445818 4.790795
vt 1.069674 4.790795
vt -1.673447 4.456234
vt 5.103966 4.456234
vt 1.069674 5.602495
vt 3.445818 5.602495
vt 5.103966 5.937056
vt -1.673447 5.937056
vt -4.593147 2.102107
vt -4.593148 3.725509
vt -5.964706 4.342600
vt -3.405074 2.102107
vt -3.405075 3.725509
vt -2.687497 4.342600
vt -5.558998 5.595023
vt -5.613297 5.595023
vt -5.613297 4.406950
vt -5.558998 4.406950
vt -5.910408 6.030352
vt -5.964708 6.030352
vt -5.964708 4.406950
vt -5.910409 4.406950
vt -5.440347 5.595023
vt -5.494646 5.595023
vt -5.494646 4.406950
vt -5.440347 4.406950
vt 3.493193 3.502290
vt 3.547493 3.502290
vt 3.547493 5.125692
vt 3.493193 5.125692
vt 0.170087 -3.043947
vt 0.170087 1.485016
vt 6.649140 -5.901532
vt 6.649140 -1.263971
vt 3.687496 -1.263971
vt 3.687495 -5.901532
vt 0.303085 -2.022418
vt -1.626964 -2.022418
vt -1.626964 3.022418
vt 0.303084 3.022418
vt 0.000000 0.000000
vt 3.347540 -0.924018
vt 0.510041 -0.924018
vt 0.234438 -1.199621
vt 3.623143 -1.199621
vt 0.510042 3.162336
vt 0.234438 3.437939
vt 3.347540 3.162336
vt 3.623143 3.437939
vt 2.340199 5.688312
vt 7.996437 5.688312
vt 8.557024 5.828458
vt 1.779612 5.828458
vt 7.996437 4.487783
vt 8.557024 4.347636
vt 2.340199 4.487783
vt 1.779612 4.347636
vt 0.990092 0.000920
vt 0.990092 0.999080
vt 0.009908 0.999080
vt 0.009908 0.000920
vt 0.999168 -0.000253
vt 0.999168 1.000252
vt 0.000832 1.000253
vt 0.000832 -0.000253
s 1
usemtl Lamina
f 7/1/1 6/2/1 9/3/1 8/4/1
f 11/5/2 9/6/2 6/7/2 10/8/2
f 17/9/2 18/10/2 2/11/2 3/12/2
f 19/13/2 20/14/2 107/15/2 4/16/2
f 20/14/2 17/9/2 3/12/2 107/15/2
f 18/10/2 19/13/2 4/16/2 2/11/2
f 22/17/3 21/18/3 13/19/3 7/1/3
f 23/20/3 24/21/3 8/4/3 16/22/3
f 21/18/3 23/20/3 16/22/3 13/19/3
f 24/21/3 22/17/3 7/1/3 8/4/3
f 18/23/4 21/24/4 22/25/4 19/26/4
f 17/27/5 23/28/5 21/29/5 18/30/5
f 20/31/6 24/32/6 23/33/6 17/34/6
f 19/35/1 22/36/1 24/37/1 20/38/1
f 25/39/1 26/40/1 15/41/1 103/42/1
f 28/43/1 27/44/1 3/45/1 2/46/1
f 27/44/1 25/39/1 103/42/1 3/45/1
f 26/40/1 28/43/1 2/46/1 15/41/1
f 29/47/5 30/48/5 10/49/5 13/19/5
f 31/50/5 29/47/5 13/19/5 16/22/5
f 30/48/5 32/51/5 11/52/5 10/49/5
f 32/51/5 31/50/5 16/22/5 11/52/5
f 31/53/3 27/54/3 28/55/3 29/56/3
f 29/57/4 28/58/4 26/59/4 30/60/4
f 25/61/2 32/62/2 30/63/2 26/64/2
f 32/65/6 25/66/6 27/67/6 31/68/6
f 8/4/6 9/69/6 11/70/6 16/22/6
f 103/71/4 110/72/4 107/73/4 3/74/4
f 44/79/5 42/79/5 46/79/5 48/79/5
f 43/79/3 44/79/3 48/79/3 47/79/3
f 41/79/1 43/79/1 47/79/1 45/79/1
f 42/79/2 41/79/2 45/79/2 46/79/2
f 52/79/5 50/79/5 54/79/5 56/79/5
f 51/79/9 52/79/9 56/79/9 55/79/9
f 49/79/1 51/79/1 55/79/1 53/79/1
f 50/79/10 49/79/10 53/79/10 54/79/10
f 60/79/5 58/79/5 62/79/5 64/79/5
f 59/79/9 60/79/9 64/79/9 63/79/9
f 57/79/1 59/79/1 63/79/1 61/79/1
f 58/79/10 57/79/10 61/79/10 62/79/10
f 68/79/5 66/79/5 70/79/5 72/79/5
f 67/79/9 68/79/9 72/79/9 71/79/9
f 65/79/1 67/79/1 71/79/1 69/79/1
f 66/79/10 65/79/10 69/79/10 70/79/10
f 65/79/11 66/79/11 68/79/11 67/79/11
f 76/79/5 74/79/5 78/79/5 80/79/5
f 75/79/9 76/79/9 80/79/9 79/79/9
f 73/79/1 75/79/1 79/79/1 77/79/1
f 74/79/10 73/79/10 77/79/10 78/79/10
f 73/79/11 74/79/11 76/79/11 75/79/11
f 84/79/2 82/79/2 86/79/2 88/79/2
f 83/79/12 84/79/12 88/79/12 87/79/12
f 81/79/3 83/79/3 87/79/3 85/79/3
f 82/79/13 81/79/13 85/79/13 86/79/13
f 92/79/2 90/79/2 94/79/2 96/79/2
f 91/79/12 92/79/12 96/79/12 95/79/12
f 89/79/3 91/79/3 95/79/3 93/79/3
f 90/79/13 89/79/13 93/79/13 94/79/13
f 105/80/3 14/81/3 103/82/3 15/83/3
f 14/81/3 12/84/3 110/85/3 103/82/3
f 12/84/3 106/86/3 1/87/3 110/85/3
f 106/86/3 105/80/3 15/83/3 1/87/3
f 5/88/5 108/89/5 4/90/5 107/91/5
f 108/89/5 109/92/5 1/93/5 4/90/5
f 109/92/5 104/94/5 110/95/5 1/93/5
f 104/94/5 5/88/5 107/91/5 110/95/5
usemtl Material.001
f 106/100/3 12/101/3 14/102/3 105/103/3
usemtl Material.003
f 108/96/5 5/97/5 104/98/5 109/99/5
usemtl Material.002
f 34/75/7 36/76/7 35/77/7 33/78/7
f 37/75/8 40/76/8 39/77/8 38/78/8
f 98/75/14 100/76/14 99/77/14 97/78/14
f 98/75/15 97/78/15 101/77/15 102/76/15
