# Blender 3.6.0
# www.blender.org
mtllib PuroHueso_Brazo_L_2.mtl
o PuroHueso_Brazo_L_2
v 0.016260 -0.000128 0.016820
v 0.016237 -0.000128 -0.017639
v 0.015215 0.017144 -0.000410
v 0.016717 -0.017400 -0.000410
v 0.144350 -0.000580 0.028689
v 0.144324 -0.000580 -0.031179
v 0.150040 0.028538 -0.001245
v 0.138131 -0.029697 -0.001245
v 0.325470 -0.002768 -0.002596
v 0.359929 -0.003768 0.068096
v 0.328272 -0.070368 -0.002565
v 0.391544 0.062831 -0.002565
v 0.359927 -0.003768 -0.073226
v 0.061441 -0.021802 -0.000618
v 0.061846 -0.000222 -0.022276
v 0.061876 -0.000222 0.021040
v 0.061641 0.021359 -0.000618
v 0.289448 -0.001496 0.049784
v 0.270132 -0.050932 -0.002140
v 0.308452 0.047939 -0.002140
v 0.289433 -0.001496 -0.054065
v 0.000498 -0.000121 0.011338
v 0.000483 -0.000121 -0.012126
v -0.000205 0.011640 -0.000394
v 0.000812 -0.011883 -0.000394
v -0.006951 -0.000121 -0.000394
v 0.015583 0.011746 -0.012255
v 0.016615 -0.012002 -0.012255
v 0.016631 -0.012002 0.011435
v 0.015599 0.011746 0.011435
v 0.148296 0.019439 -0.021825
v 0.140109 -0.020598 -0.021825
v 0.140126 -0.020598 0.019335
v 0.148314 0.019439 0.019335
v 0.093969 0.023134 -0.000831
v 0.092434 -0.000332 0.022933
v 0.092405 -0.000332 -0.024595
v 0.090281 -0.023799 -0.000831
v 0.220481 -0.001034 0.037770
v 0.207864 -0.038968 -0.001796
v 0.340183 -0.003249 0.045562
v 0.370088 0.058820 -0.002466
v 0.342316 -0.002911 -0.067781
v 0.383476 0.043019 0.047124
v 0.383474 0.043019 -0.052255
v 0.338962 -0.050645 -0.052255
v 0.338963 -0.050645 0.047124
v 0.061780 0.014615 0.014272
v 0.061759 0.014615 -0.015507
v 0.061622 -0.015058 -0.015507
v 0.061643 -0.015058 0.014272
v 0.034196 -0.018932 -0.000468
v 0.033764 -0.000152 -0.019215
v 0.033791 -0.000152 0.018278
v 0.032751 0.018628 -0.000468
v 0.342322 -0.002911 0.062849
v 0.314421 -0.064642 -0.002466
v 0.232712 0.036900 -0.001796
v 0.220463 -0.001034 -0.041362
v 0.276188 -0.035483 -0.037838
v 0.302534 0.032491 -0.037838
v 0.302544 0.032491 0.033558
v 0.276199 -0.035483 0.033558
v 0.318280 -0.048595 -0.002592
v 0.340183 -0.003249 -0.050746
v 0.362081 0.042096 -0.002592
v 0.000169 0.008118 -0.008612
v 0.000882 -0.008361 -0.008612
v 0.000892 -0.008361 0.007825
v 0.000180 0.008118 0.007825
v 0.007301 -0.000122 0.014670
v 0.007697 -0.015225 -0.000396
v 0.007281 -0.000122 -0.015461
v 0.006391 0.014980 -0.000396
v -0.004913 -0.000121 0.006494
v -0.004711 -0.007026 -0.000394
v -0.004921 -0.000121 -0.007281
v -0.005308 0.006783 -0.000394
v 0.093550 0.015801 0.015507
v 0.323252 -0.045488 0.042577
v 0.093530 0.015801 -0.017168
v 0.090995 -0.016465 -0.017168
v 0.361650 0.039654 0.042577
v 0.328522 -0.041014 -0.042468
v 0.328523 -0.041014 0.037288
v 0.361646 0.039654 -0.047509
v 0.364764 0.034094 0.037288
v 0.323248 -0.045488 -0.047509
v 0.091015 -0.016465 0.015507
v 0.364764 0.034094 -0.042468
v 0.034132 -0.013063 0.012420
v 0.033138 0.012759 0.012420
v 0.034113 -0.013063 -0.013357
v 0.033119 0.012759 -0.013357
v 0.211832 -0.027114 -0.028997
v 0.228915 0.025045 -0.028997
v 0.228928 0.025045 0.025406
v 0.211845 -0.027114 0.025406
v 0.007641 -0.010524 0.009981
v 0.006727 0.010280 -0.010772
v 0.006741 0.010280 0.009981
v 0.007627 -0.010524 -0.010772
v -0.003815 -0.005890 -0.006148
v -0.003808 -0.005890 0.005361
v -0.004314 0.005647 -0.006148
v -0.004307 0.005647 0.005361
v 0.345830 -0.023952 0.021733
v 0.345830 0.006440 0.027302
v 0.345830 -0.023952 -0.015751
v 0.345830 0.006440 -0.021320
v 0.407973 -0.022197 0.034077
v 0.430573 0.011029 0.041038
v 0.407973 -0.022197 -0.028095
v 0.430573 0.011029 -0.035056
v 0.427005 -0.015893 -0.009691
v 0.430573 0.011029 -0.009691
v 0.427005 -0.015893 -0.035056
v 0.469548 -0.052409 -0.011285
v 0.486942 -0.050328 -0.011285
v 0.469548 -0.052409 -0.030585
v 0.486942 -0.050328 -0.030585
v 0.345830 0.006440 -0.005113
v 0.345830 0.006440 0.011095
v 0.345830 -0.023952 0.011095
v 0.345830 -0.023952 -0.005113
v 0.432871 -0.112580 -0.011285
v 0.445000 -0.122036 -0.011285
v 0.432871 -0.112580 -0.030585
v 0.445000 -0.122036 -0.030585
v 0.407973 -0.022197 0.015673
v 0.407973 -0.022197 -0.009691
v 0.430573 0.011029 0.015673
v 0.345830 -0.008756 0.027302
v 0.345830 -0.008756 -0.021320
v 0.427005 -0.015893 0.015673
v 0.427005 -0.015893 0.041038
v 0.345830 -0.008756 0.011095
v 0.345830 -0.008756 -0.005113
v 0.469548 -0.052409 0.012073
v 0.486942 -0.050328 0.012073
v 0.469548 -0.052409 -0.006512
v 0.486942 -0.050328 -0.006512
v 0.432871 -0.112580 0.012073
v 0.445000 -0.122036 0.012073
v 0.432871 -0.112580 -0.006512
v 0.445000 -0.122036 -0.006512
v 0.469548 -0.052409 0.034672
v 0.486942 -0.050328 0.034672
v 0.469548 -0.052409 0.015372
v 0.486942 -0.050328 0.015372
v 0.432871 -0.112580 0.034672
v 0.445000 -0.122036 0.034672
v 0.432871 -0.112580 0.015372
v 0.445000 -0.122036 0.015372
vn -0.0563 0.9984 0.0016
vn -0.0541 0.7104 0.7018
vn -0.0760 0.7126 0.6975
vn -0.0779 0.9970 0.0003
vn -0.0608 0.0020 0.9981
vn -0.0856 0.0082 0.9963
vn -0.1133 0.0202 0.9934
vn -0.0996 0.7205 0.6863
vn -0.1003 0.9950 0.0003
vn -0.2073 0.0730 0.9756
vn -0.2249 -0.6620 0.7150
vn -0.3217 -0.6196 0.7160
vn -0.2733 0.1098 0.9556
vn -0.2404 -0.9707 0.0001
vn -0.3512 -0.9363 -0.0001
vn 0.5546 -0.8321 -0.0031
vn 0.6222 -0.6626 0.4169
vn 0.6698 -0.2188 0.7096
vn -0.0746 0.0025 -0.9972
vn -0.0635 0.7115 -0.6998
vn -0.0860 0.7126 -0.6962
vn -0.1005 0.0095 -0.9949
vn -0.1094 0.7208 -0.6844
vn -0.1282 0.0229 -0.9915
vn -0.0695 -0.9976 0.0018
vn -0.0732 -0.7086 -0.7018
vn -0.0993 -0.7024 -0.7048
vn -0.0960 -0.9954 0.0002
vn -0.1289 -0.6964 -0.7060
vn -0.1270 -0.9919 -0.0002
vn -0.2107 0.7478 0.6296
vn -0.1707 0.7406 0.6499
vn 0.8131 0.2562 0.5228
vn 0.8549 0.5188 -0.0023
vn -0.1940 0.9810 0.0003
vn -0.1636 0.9865 0.0005
vn 0.6671 -0.2176 -0.7125
vn 0.8059 -0.3468 0.4799
vn 0.8941 0.0909 0.4385
vn 0.6207 -0.6614 -0.4212
vn 0.9166 -0.3999 -0.0000
vn 0.9850 0.1727 0.0002
vn 0.8944 0.0905 -0.4380
vn 0.8062 -0.3470 -0.4792
vn -0.2177 0.0766 -0.9730
vn -0.1772 0.7412 -0.6475
vn -0.2167 0.7482 -0.6271
vn -0.2833 0.1137 -0.9523
vn 0.8112 0.2556 -0.5259
vn 0.6545 -0.6644 -0.3607
vn 0.6768 -0.7362 0.0001
vn -0.2332 -0.6593 -0.7148
vn -0.3302 -0.6157 -0.7155
vn -0.0632 -0.7079 0.7035
vn -0.0884 -0.7035 0.7052
vn -0.1178 -0.6985 0.7059
vn 0.6542 -0.6645 0.3612
vn -0.1544 -0.0051 0.9880
vn -0.1517 -0.6999 0.6980
vn -0.0904 -0.7044 0.7040
vn -0.0903 -0.0018 0.9959
vn -0.1574 -0.9875 0.0004
vn -0.0964 -0.9953 0.0004
vn -0.1049 -0.9945 -0.0011
vn -0.0981 -0.7022 0.7052
vn -0.0973 -0.0006 0.9953
vn -0.1593 0.9872 0.0004
vn -0.1527 0.6943 0.7033
vn -0.0859 0.7028 0.7062
vn -0.0899 0.9960 0.0003
vn -0.0914 0.7019 0.7063
vn -0.0951 0.9955 -0.0011
vn -0.1551 -0.6999 -0.6972
vn -0.0966 -0.7044 -0.7032
vn -0.1592 -0.0053 -0.9872
vn -0.0989 -0.0020 -0.9951
vn -0.1078 -0.0007 -0.9942
vn -0.1057 -0.7007 -0.7056
vn -0.1562 0.6941 -0.7027
vn -0.0920 0.7026 -0.7056
vn -0.0988 0.7004 -0.7068
vn -0.1589 -0.6864 -0.7097
vn -0.1589 -0.9873 -0.0004
vn -0.1569 0.0428 -0.9867
vn -0.1346 0.7310 -0.6689
vn -0.1264 0.9920 0.0001
vn -0.1451 0.0397 0.9886
vn -0.1272 0.7307 0.6707
vn -0.1498 -0.6889 0.7092
vn -0.3175 -0.6734 0.6677
vn -0.3239 -0.9461 0.0004
vn -0.3246 -0.0111 0.9458
vn -0.5247 -0.0187 0.8511
vn -0.5178 -0.6104 0.5994
vn -0.5202 -0.8540 0.0003
vn -0.3260 0.6597 -0.6771
vn -0.3348 0.9423 0.0004
vn -0.3264 -0.0112 -0.9452
vn -0.5253 -0.0187 -0.8507
vn -0.5338 0.5837 -0.6118
vn -0.5426 0.8400 0.0003
vn -0.3247 0.6597 0.6777
vn -0.5334 0.5836 0.6123
vn -0.3188 -0.6734 -0.6670
vn -0.5182 -0.6105 -0.5989
vn -0.7558 -0.4717 -0.4541
vn -0.8354 -0.0316 -0.5487
vn -0.8266 -0.5628 0.0005
vn -0.9992 -0.0391 0.0006
vn -0.7555 -0.4716 0.4548
vn -0.8350 -0.0316 0.5494
vn -0.7793 0.4233 -0.4620
vn -0.8573 0.5149 0.0005
vn -0.7790 0.4232 0.4627
vn -1.0000 -0.0000 -0.0000
vn -0.7534 0.0092 -0.6575
vn -0.7335 -0.1213 -0.6687
vn -0.1631 0.0138 -0.9865
vn -0.1688 -0.0679 -0.9833
vn 0.7364 0.6765 -0.0000
vn -0.1688 -0.0679 0.9833
vn -0.1631 0.0138 0.9865
vn -0.1745 -0.1757 0.9688
vn 0.0282 -0.9996 -0.0000
vn 0.1732 -0.9849 -0.0000
vn 0.1965 -0.9805 -0.0000
vn -0.0541 0.9985 -0.0000
vn -0.9913 0.1314 -0.0000
vn 0.0526 -0.0380 -0.9979
vn -0.1188 0.9929 -0.0000
vn 0.0188 -0.0136 0.9997
vn -0.6513 -0.7588 -0.0000
vn -0.0000 -0.0000 -1.0000
vn -0.6148 -0.7887 -0.0000
vn -0.0000 -0.0000 1.0000
vn -0.8539 0.5205 -0.0000
vn 0.8632 -0.5049 -0.0000
vn 0.0374 -0.0271 -0.9989
vn 0.3145 -0.9493 -0.0000
vn -0.1797 -0.3717 0.9108
vn -0.8329 -0.2091 -0.5124
vn -0.1797 -0.3717 -0.9108
vn 0.1188 -0.9929 -0.0000
vn 0.0424 -0.0306 0.9986
vn 0.0747 -0.0540 0.9957
vn -0.0018 0.0013 -1.0000
vn -0.0036 0.0026 -1.0000
vn -1.0000 0.0046 0.0007
vt 0.877065 0.151679
vt 0.870399 0.148805
vt 0.875640 0.135304
vt 0.883378 0.138400
vt 0.863566 0.146362
vt 0.867697 0.133042
vt 0.874436 0.109826
vt 0.884711 0.111342
vt 0.894686 0.114639
vt 0.890468 0.042611
vt 0.872125 0.046330
vt 0.872438 0.023696
vt 0.894794 0.017697
vt 0.854535 0.049353
vt 0.850979 0.029445
vt 0.849323 0.023127
vt 0.872278 0.016042
vt 0.895995 0.009587
vt 0.889766 0.158692
vt 0.883539 0.154964
vt 0.890710 0.142367
vt 0.897506 0.147067
vt 0.903603 0.120192
vt 0.911299 0.127161
vt 0.901199 0.167784
vt 0.895597 0.163050
vt 0.903719 0.152437
vt 0.909677 0.157967
vt 0.918039 0.134925
vt 0.924799 0.142538
vt 0.917735 0.015371
vt 0.909258 0.041895
vt 0.920600 0.005767
vt 0.943735 0.011543
vt 0.939568 0.020312
vt 0.927189 0.046314
vt 0.461204 0.914379
vt 0.449582 0.905640
vt 0.452833 0.887924
vt 0.461313 0.886555
vt 0.430508 0.895278
vt 0.438165 0.877592
vt 0.442887 0.866664
vt 0.420589 0.873958
vt 0.415766 0.866831
vt 0.409893 0.888459
vt 0.395545 0.885957
vt 0.953398 0.072289
vt 0.942027 0.057308
vt 0.957299 0.033971
vt 0.970061 0.053166
vt 0.962946 0.025669
vt 0.975615 0.047101
vt 0.413379 0.934824
vt 0.394295 0.914504
vt 0.404073 0.908563
vt 0.420568 0.918239
vt 0.970613 0.104562
vt 0.962017 0.088912
vt 0.979422 0.074332
vt 0.988286 0.094716
vt 0.985485 0.069612
vt 0.994233 0.092005
vt 0.856515 0.144550
vt 0.859623 0.131565
vt 0.849323 0.143104
vt 0.851589 0.130330
vt 0.853985 0.108859
vt 0.864155 0.109434
vt 0.441252 0.934824
vt 0.438910 0.923637
vt 0.908844 0.870878
vt 0.905593 0.866593
vt 0.912030 0.861568
vt 0.915308 0.867455
vt 0.900657 0.862246
vt 0.907658 0.855775
vt 0.919352 0.847348
vt 0.924127 0.854501
vt 0.928205 0.862177
vt 0.911019 0.879656
vt 0.910524 0.875293
vt 0.917150 0.873546
vt 0.917743 0.879660
vt 0.930890 0.870640
vt 0.931991 0.879665
vt 0.900620 0.897036
vt 0.905569 0.892736
vt 0.911992 0.897814
vt 0.907559 0.903499
vt 0.908846 0.888453
vt 0.915332 0.891906
vt 0.928317 0.897204
vt 0.924235 0.904909
vt 0.919340 0.912173
vt 0.910533 0.884025
vt 0.917176 0.885787
vt 0.930962 0.888708
vt 0.940128 0.110130
vt 0.947961 0.121262
vt 0.932549 0.098263
vt 0.923255 0.087415
vt 0.911554 0.079207
vt 0.883461 0.075137
vt 0.897760 0.075438
vt 0.869444 0.076670
vt 0.855847 0.077458
vt 0.902945 0.869664
vt 0.897859 0.866781
vt 0.906082 0.872814
vt 0.904080 0.874550
vt 0.901347 0.872438
vt 0.896678 0.871263
vt 0.907669 0.883077
vt 0.908143 0.879656
vt 0.906079 0.886506
vt 0.904077 0.884766
vt 0.905572 0.882264
vt 0.905976 0.879657
vt 0.907667 0.876237
vt 0.905573 0.877050
vt 0.902929 0.889653
vt 0.897844 0.892511
vt 0.896678 0.888039
vt 0.901340 0.886874
vt 0.900409 0.884460
vt 0.902325 0.882841
vt 0.897393 0.883455
vt 0.900139 0.879659
vt 0.900410 0.874853
vt 0.897389 0.875859
vt 0.902326 0.876474
vt 0.903910 0.881564
vt 0.903834 0.879658
vt 0.903910 0.877751
vt 0.325123 0.959456
vt 0.318112 0.959456
vt 0.318112 0.951979
vt 0.325123 0.951979
vt 0.930873 0.596963
vt 0.937874 0.597338
vt 0.937874 0.637002
vt 0.925554 0.634716
vt 0.230410 0.840302
vt 0.239315 0.840270
vt 0.239315 0.878711
vt 0.227612 0.878753
vt 0.226995 0.892572
vt 0.239315 0.890286
vt 0.239315 0.929950
vt 0.232314 0.930325
vt 0.910127 0.374487
vt 0.908015 0.403169
vt 0.899524 0.403169
vt 0.905219 0.374487
vt 0.765517 0.970984
vt 0.763405 0.931830
vt 0.770882 0.931830
vt 0.777219 0.970984
vt 0.792617 0.634994
vt 0.792617 0.622464
vt 0.804319 0.622464
vt 0.804319 0.634994
vt 0.714120 0.965906
vt 0.704488 0.973920
vt 0.704488 0.935424
vt 0.711052 0.940140
vt 0.667923 0.401515
vt 0.667923 0.410420
vt 0.659841 0.410420
vt 0.659841 0.401515
vt 0.211598 0.947448
vt 0.218157 0.942727
vt 0.218157 0.981174
vt 0.208540 0.973144
vt 0.962472 0.831312
vt 0.964535 0.805445
vt 0.973440 0.805445
vt 0.974175 0.831312
vt 0.667656 0.935424
vt 0.669719 0.973865
vt 0.658017 0.973865
vt 0.658752 0.935424
vt 0.742113 0.970984
vt 0.748450 0.931830
vt 0.755927 0.931830
vt 0.753815 0.970984
vt 0.400737 0.979803
vt 0.394295 0.984684
vt 0.394295 0.946357
vt 0.401327 0.947297
vt 0.679456 0.401515
vt 0.686551 0.401515
vt 0.686551 0.410420
vt 0.679456 0.410420
vt 0.942953 0.375427
vt 0.949985 0.374487
vt 0.949985 0.412813
vt 0.943543 0.407933
vt 0.365505 0.948561
vt 0.365505 0.981072
vt 0.356600 0.981072
vt 0.356600 0.948561
vt 0.981663 0.596095
vt 0.981663 0.634421
vt 0.972759 0.634421
vt 0.972759 0.596095
vt 0.922513 0.374487
vt 0.928208 0.403169
vt 0.919717 0.403169
vt 0.917604 0.374487
vt 0.239315 0.973172
vt 0.229691 0.981195
vt 0.229691 0.942727
vt 0.236252 0.947446
vt 0.815852 0.622465
vt 0.827555 0.622465
vt 0.827555 0.634994
vt 0.815852 0.634994
vt 0.325123 0.974411
vt 0.318112 0.974411
vt 0.318112 0.966934
vt 0.325123 0.966934
vt 0.332134 0.966934
vt 0.332134 0.959456
vt 0.332134 0.971842
vt 0.919717 0.412418
vt 0.908015 0.412418
vt 0.931419 0.412418
vt 0.224213 0.901960
vt 0.224897 0.931194
vt 0.896312 0.412418
vt 0.923456 0.596095
vt 0.922772 0.625329
vt 0.332134 0.954548
vt 0.763190 0.410175
vt 0.755108 0.410175
vt 0.755108 0.401600
vt 0.763190 0.401600
vt 0.969940 0.852066
vt 0.976503 0.847348
vt 0.976503 0.885824
vt 0.966877 0.877803
vt 0.939237 0.831312
vt 0.940703 0.805445
vt 0.949278 0.805445
vt 0.950939 0.831312
vt 0.691488 0.935424
vt 0.692955 0.973865
vt 0.681252 0.973865
vt 0.682914 0.935424
vt 0.419303 0.979803
vt 0.412860 0.984684
vt 0.412860 0.946357
vt 0.419893 0.947297
vt 0.774723 0.401600
vt 0.781818 0.401600
vt 0.781818 0.410175
vt 0.774723 0.410175
vt 0.492954 0.944607
vt 0.499986 0.943666
vt 0.499986 0.981993
vt 0.493544 0.977112
vt 0.252471 0.983500
vt 0.252471 0.950989
vt 0.261045 0.950989
vt 0.261045 0.983500
vt 0.481420 0.943666
vt 0.481420 0.981993
vt 0.472846 0.981993
vt 0.472846 0.943666
vt 0.126789 0.919351
vt 0.134858 0.919808
vt 0.110662 0.949822
vt 0.108168 0.937543
vt 0.154460 0.919376
vt 0.146392 0.919848
vt 0.167711 0.887998
vt 0.173032 0.892691
vt 0.698085 0.401515
vt 0.705180 0.401515
vt 0.705180 0.410420
vt 0.698085 0.410420
vt 0.108168 0.892701
vt 0.113481 0.887998
vt 0.184565 0.920508
vt 0.184740 0.887998
vt 0.193644 0.888046
vt 0.193469 0.920556
vt 0.239176 0.801944
vt 0.230271 0.801976
vt 0.173032 0.937381
vt 0.170636 0.949679
vt 0.196267 0.946438
vt 0.184565 0.946375
vt 0.181967 0.979395
vt 0.176284 0.974437
vt 0.176264 0.966895
vt 0.181194 0.961213
vt 0.188718 0.961213
vt 0.194402 0.966170
vt 0.194422 0.973712
vt 0.189490 0.979395
s 1
usemtl Cuerpo_PuroHueso
f 17/1/1 48/2/2 79/3/3 35/4/4
f 48/2/2 16/5/5 36/6/6 79/3/3
f 79/3/3 36/6/6 5/7/7 34/8/8
f 35/4/4 79/3/3 34/8/8 7/9/9
f 18/10/10 63/11/11 80/12/12 56/13/13
f 63/11/11 19/14/14 57/15/15 80/12/12
f 80/12/12 57/15/15 11/16/16 47/17/17
f 56/13/13 80/12/12 47/17/17 10/18/18
f 15/19/19 49/20/20 81/21/21 37/22/22
f 49/20/20 17/1/1 35/4/4 81/21/21
f 81/21/21 35/4/4 7/9/9 31/23/23
f 37/22/22 81/21/21 31/23/23 6/24/24
f 14/25/25 50/26/26 82/27/27 38/28/28
f 50/26/26 15/19/19 37/22/22 82/27/27
f 82/27/27 37/22/22 6/24/24 32/29/29
f 38/28/28 82/27/27 32/29/29 8/30/30
f 18/10/10 56/13/13 83/31/31 62/32/32
f 56/13/13 10/18/18 44/33/33 83/31/31
f 83/31/31 44/33/33 12/34/34 42/35/35
f 62/32/32 83/31/31 42/35/35 20/36/36
f 13/37/37 65/38/38 84/39/39 46/40/40
f 9/41/41 64/42/42 84/39/39 65/38/38
f 11/43/16 46/40/40 84/39/39 64/42/42
f 11/43/16 64/42/42 85/44/43 47/45/17
f 9/41/41 41/46/44 85/44/43 64/42/42
f 10/47/18 47/45/17 85/44/43 41/46/44
f 21/48/45 61/49/46 86/50/47 43/51/48
f 61/49/46 20/36/36 42/35/35 86/50/47
f 86/50/47 42/35/35 12/34/34 45/52/49
f 43/51/48 86/50/47 45/52/49 13/53/37
f 12/54/34 44/55/33 87/56/50 66/57/51
f 10/47/18 41/46/44 87/56/50 44/55/33
f 9/41/41 66/57/51 87/56/50 41/46/44
f 19/58/14 60/59/52 88/60/53 57/61/15
f 60/59/52 21/48/45 43/51/48 88/60/53
f 88/60/53 43/51/48 13/53/37 46/62/40
f 57/61/15 88/60/53 46/62/40 11/63/16
f 16/5/5 51/64/54 89/65/55 36/6/6
f 51/64/54 14/66/25 38/67/28 89/65/55
f 89/65/55 38/67/28 8/68/30 33/69/56
f 36/6/6 89/65/55 33/69/56 5/7/7
f 13/37/37 45/70/49 90/71/57 65/38/38
f 12/54/34 66/57/51 90/71/57 45/70/49
f 9/41/41 65/38/38 90/71/57 66/57/51
f 1/72/58 29/73/59 91/74/60 54/75/61
f 29/73/59 4/76/62 52/77/63 91/74/60
f 91/74/60 52/77/63 14/78/64 51/79/65
f 54/75/61 91/74/60 51/79/65 16/80/66
f 3/81/67 30/82/68 92/83/69 55/84/70
f 30/82/68 1/72/58 54/75/61 92/83/69
f 92/83/69 54/75/61 16/80/66 48/85/71
f 55/84/70 92/83/69 48/85/71 17/86/72
f 4/87/62 28/88/73 93/89/74 52/90/63
f 28/88/73 2/91/75 53/92/76 93/89/74
f 93/89/74 53/92/76 15/93/77 50/94/78
f 52/90/63 93/89/74 50/94/78 14/95/64
f 2/91/75 27/96/79 94/97/80 53/92/76
f 27/96/79 3/81/67 55/84/70 94/97/80
f 94/97/80 55/84/70 17/86/72 49/98/81
f 53/92/76 94/97/80 49/98/81 15/93/77
f 8/30/30 32/29/29 95/99/82 40/100/83
f 32/29/29 6/24/24 59/101/84 95/99/82
f 95/99/82 59/101/84 21/48/45 60/59/52
f 40/100/83 95/99/82 60/59/52 19/58/14
f 6/24/24 31/23/23 96/102/85 59/101/84
f 31/23/23 7/9/9 58/103/86 96/102/85
f 96/102/85 58/103/86 20/36/36 61/49/46
f 59/101/84 96/102/85 61/49/46 21/48/45
f 5/7/7 39/104/87 97/105/88 34/8/8
f 39/104/87 18/10/10 62/32/32 97/105/88
f 97/105/88 62/32/32 20/36/36 58/103/86
f 34/8/8 97/105/88 58/103/86 7/9/9
f 5/7/7 33/69/56 98/106/89 39/104/87
f 33/69/56 8/68/30 40/107/83 98/106/89
f 98/106/89 40/107/83 19/14/14 63/11/11
f 39/104/87 98/106/89 63/11/11 18/10/10
f 4/76/62 29/73/59 99/108/90 72/109/91
f 29/73/59 1/72/58 71/110/92 99/108/90
f 99/108/90 71/110/92 22/111/93 69/112/94
f 72/109/91 99/108/90 69/112/94 25/113/95
f 3/81/67 27/96/79 100/114/96 74/115/97
f 27/96/79 2/91/75 73/116/98 100/114/96
f 100/114/96 73/116/98 23/117/99 67/118/100
f 74/115/97 100/114/96 67/118/100 24/119/101
f 1/72/58 30/82/68 101/120/102 71/110/92
f 30/82/68 3/81/67 74/115/97 101/120/102
f 101/120/102 74/115/97 24/119/101 70/121/103
f 71/110/92 101/120/102 70/121/103 22/111/93
f 2/91/75 28/88/73 102/122/104 73/116/98
f 28/88/73 4/87/62 72/123/91 102/122/104
f 102/122/104 72/123/91 25/124/95 68/125/105
f 73/116/98 102/122/104 68/125/105 23/117/99
f 23/117/99 68/125/105 103/126/106 77/127/107
f 25/124/95 76/128/108 103/126/106 68/125/105
f 26/129/109 77/127/107 103/126/106 76/128/108
f 25/113/95 69/112/94 104/130/110 76/131/108
f 22/111/93 75/132/111 104/130/110 69/112/94
f 26/129/109 76/131/108 104/130/110 75/132/111
f 24/119/101 67/118/100 105/133/112 78/134/113
f 23/117/99 77/127/107 105/133/112 67/118/100
f 26/129/109 78/134/113 105/133/112 77/127/107
f 22/111/93 70/121/103 106/135/114 75/132/111
f 24/119/101 78/134/113 106/135/114 70/121/103
f 26/129/109 75/132/111 106/135/114 78/134/113
f 138/136/115 122/137/115 110/138/116 134/139/117
f 134/140/117 110/141/116 114/142/118 117/143/119
f 148/144/120 150/145/120 132/146/120 112/147/120
f 136/148/121 112/149/122 108/150/122 133/151/123
f 124/152/124 130/153/125 111/154/126 107/155/124
f 132/156/127 123/157/127 108/158/127 112/159/127
f 115/160/128 116/161/128 114/162/128 117/163/128
f 117/164/129 114/165/129 121/166/129 120/167/129
f 120/168/130 118/169/130 119/170/130 121/171/130
f 118/172/131 119/173/131 116/174/131 115/175/131
f 117/176/132 120/177/132 118/178/132 115/179/132
f 121/180/120 114/181/120 116/182/120 119/183/120
f 114/184/127 110/185/127 122/186/127 116/187/127
f 120/188/133 121/189/133 129/190/133 128/191/133
f 128/192/134 129/193/134 127/194/134 126/195/134
f 126/196/135 127/197/135 119/198/135 118/199/135
f 120/200/136 128/201/136 126/202/136 118/203/136
f 129/204/137 121/205/137 119/206/137 127/207/137
f 116/187/127 122/186/127 123/157/127 132/156/127
f 109/208/124 113/209/126 131/210/125 125/211/124
f 125/211/124 131/210/125 130/153/125 124/152/124
f 115/212/138 116/213/138 142/214/138 141/215/138
f 115/216/128 135/217/128 132/218/128 116/219/128
f 133/220/115 108/221/115 123/222/115 137/223/115
f 137/223/115 123/222/115 122/137/115 138/136/115
f 124/224/115 137/223/115 138/136/115 125/225/115
f 107/226/115 133/220/115 137/223/115 124/224/115
f 131/210/125 115/227/139 135/228/139 130/153/125
f 113/209/126 117/229/139 115/227/139 131/210/125
f 111/230/140 136/148/121 133/151/123 107/231/140
f 130/153/125 135/228/139 136/232/139 111/154/126
f 109/233/141 134/140/117 117/143/119 113/234/142
f 125/225/115 138/136/115 134/139/117 109/235/141
f 141/236/143 142/237/143 140/238/143 139/239/143
f 139/240/144 140/241/144 132/242/144 135/243/144
f 115/244/132 141/245/132 139/246/132 135/247/132
f 142/248/120 116/249/120 132/250/120 140/251/120
f 141/252/133 142/253/133 146/254/133 145/255/133
f 145/256/134 146/257/134 144/258/134 143/259/134
f 143/260/135 144/261/135 140/262/135 139/263/135
f 141/264/136 145/265/136 143/266/136 139/267/136
f 146/268/137 142/269/137 140/270/137 144/271/137
f 147/272/145 148/273/145 112/274/145 136/275/145
f 149/276/146 150/277/146 154/278/133 153/279/133
f 153/280/134 154/281/134 152/282/134 151/283/134
f 151/284/135 152/285/135 148/273/135 147/272/135
f 149/286/136 153/287/136 151/288/136 147/289/136
f 154/290/137 150/145/137 148/144/137 152/291/137
f 150/277/146 149/276/146 135/292/147 132/293/147
f 149/286/132 147/289/132 136/294/132 135/295/132
f 48/296/148 17/297/148 49/298/148 15/299/148 50/300/148 14/301/148 51/302/148 16/303/148
