# Blender 3.6.0
# www.blender.org
mtllib Reja.mtl
o Reja
v -19.717436 3.200480 -1.463445
v -19.717430 0.000000 83.121506
v -19.717430 3.200480 83.121506
v 19.343262 0.000000 83.121498
v 19.343262 3.200480 83.121498
v -19.717436 0.000000 -1.463445
v 19.343254 0.000000 -1.463449
v 19.343252 3.200480 -1.463449
v -0.576347 3.200480 -1.463449
v 0.576347 3.200480 -1.463449
v -0.576347 0.000000 -1.463449
v 19.343254 1.883439 -1.463449
v -19.717436 1.883439 -1.463445
v -0.576347 1.883439 -1.463449
v 0.576347 1.883439 -1.463449
v 0.576347 0.000000 -1.463449
v -0.576347 0.000000 -1.413446
v 0.512875 0.000000 -1.513448
v -0.512875 0.000000 -1.513444
v -0.576347 1.883439 -1.513448
v -0.576347 0.000000 -1.513448
v 0.576347 1.883439 -1.513448
v 0.576347 0.000000 -1.513448
v -0.512875 1.819966 -1.513448
v 0.512875 1.819966 -1.513448
v 0.576347 0.000000 -1.413446
v 0.512875 0.000000 -1.413446
v -0.512875 0.000000 -1.413446
v -0.576347 1.883439 -1.413446
v 0.576347 1.883439 -1.413446
v -0.512875 1.819966 -1.413446
v 0.512875 1.819966 -1.413446
v 19.443254 0.000000 -1.563447
v 19.443254 3.347009 -1.563447
v -19.817432 0.000000 -1.563447
v -19.817432 3.347009 -1.563447
v 19.443260 0.000000 83.221497
v 19.443260 3.347009 83.221497
v -19.817429 0.000000 83.221497
v -19.817429 3.347009 83.221497
v 19.443254 3.347009 -1.363450
v 19.243254 3.347009 -1.363450
v 19.243254 3.347009 -1.563447
v -19.817436 3.347009 -1.363443
v -19.617439 3.347009 -1.363443
v -19.617435 3.347009 -1.563447
v -19.817429 3.347009 83.021484
v -19.617432 3.347009 83.021484
v -19.617432 3.347009 83.221497
v 19.443260 3.347009 83.021492
v 19.243256 3.347009 83.021492
v 19.243263 3.347009 83.221497
v 19.443254 0.000000 -1.363450
v 19.243254 0.000000 -1.363450
v 19.243254 0.000000 -1.563447
v -19.817436 0.000000 -1.363443
v -19.617439 0.000000 -1.363443
v -19.617435 0.000000 -1.563447
v 19.443260 0.000000 83.021492
v 19.243256 0.000000 83.021492
v 19.243263 0.000000 83.221497
v -19.817429 0.000000 83.021484
v -19.617432 0.000000 83.021484
v -19.617432 0.000000 83.221497
vn 1.0000 -0.0000 -0.0000
vn -0.0000 -0.0000 1.0000
vn -1.0000 -0.0000 -0.0000
vn -0.0000 -0.0000 -1.0000
vn -0.0000 1.0000 -0.0000
vn -0.0000 -1.0000 -0.0000
vt -1.630477 -19.694059
vt -0.102292 -19.694059
vt -0.102290 20.694063
vt -1.630475 20.694063
vt -0.042880 -19.694063
vt 1.485305 -19.694063
vt 1.485309 -1.043119
vt -0.042875 -1.043118
vt -3.218075 -19.694065
vt -1.689891 -19.694065
vt -1.689893 20.694065
vt -3.218078 20.694065
vt 2.173594 -10.733127
vt 1.544725 -10.733127
vt 1.544723 -19.694059
vt 2.173592 -19.694063
vt 2.173597 -1.043129
vt 1.544729 -1.043129
vt 1.544725 -10.182733
vt 2.173594 -10.182733
vt 3.072913 -1.043129
vt 3.072910 -10.182733
vt 3.072910 -10.733127
vt 3.072908 -19.694063
vt 0.487564 0.536406
vt 0.490488 0.536406
vt 0.490488 0.570110
vt 0.487564 0.570110
vt 0.477916 0.589621
vt 0.477916 0.536406
vt 0.480840 0.536406
vt 0.480840 0.589621
vt 0.451108 0.589621
vt 0.451108 0.536406
vt 0.452964 0.536406
vt 0.452964 0.591477
vt 0.444383 0.536406
vt 0.444383 0.589621
vt 0.442527 0.591477
vt 0.442527 0.536406
vt 0.497213 0.568254
vt 0.497213 0.538261
vt 0.499069 0.536406
vt 0.499069 0.570110
vt 0.468268 0.536406
vt 0.471192 0.536406
vt 0.471192 0.589621
vt 0.468268 0.589621
vt 0.576166 0.539329
vt 0.574310 0.539329
vt 0.574310 0.536406
vt 0.576166 0.536406
vt 0.517297 0.566398
vt 0.514373 0.566398
vt 0.514373 0.536405
vt 0.517297 0.536405
vt 0.417575 0.591477
vt 0.414651 0.591477
vt 0.414651 0.536406
vt 0.417575 0.536406
vt 0.514373 0.576047
vt 0.514373 0.573123
vt 0.516229 0.573123
vt 0.516229 0.576047
vt 0.461544 0.589621
vt 0.459688 0.591477
vt 0.459688 0.536406
vt 0.461544 0.536406
vt 0.433947 0.536406
vt 0.435803 0.536406
vt 0.435803 0.591477
vt 0.433947 0.589621
vt 0.507649 0.568254
vt 0.505793 0.570110
vt 0.505793 0.536406
vt 0.507649 0.538261
vt 0.427223 0.536406
vt 0.427223 0.591477
vt 0.424299 0.591477
vt 0.424299 0.536406
vt 6.010118 -3.720907
vt 6.206534 -3.720907
vt 4.594110 -3.501993
vt 4.916594 1.780017
vt 6.206535 1.121219
vt 5.042662 -3.501993
vt 4.075206 1.780017
vt 6.010118 1.121219
vt 3.287243 -12.968294
vt 3.287243 -13.063796
vt 3.382741 -13.063796
vt 3.382741 -12.968294
vt 4.916594 -2.936042
vt 4.720178 1.780017
vt 4.720178 -2.936042
vt 5.561564 -8.436965
vt 5.561564 -3.720907
vt 5.365146 -3.720907
vt 5.365146 -8.436965
vt 6.206534 -8.436965
vt 6.010118 -8.436965
vt 4.594110 -8.218051
vt 4.397692 -3.501993
vt 4.397692 -8.218051
vt 5.042662 -8.218051
vt 5.239079 -8.218051
vt 5.239079 -3.501993
vt 5.365146 -3.594840
vt 5.561564 -3.594840
vt 5.561564 1.121219
vt 5.365146 1.121219
vt 6.010118 -3.594840
vt 6.206535 -3.594840
vt 4.075206 -2.936042
vt 4.271624 -2.936042
vt 4.271624 1.780017
vt 3.382739 -18.036486
vt 3.382739 -16.438334
vt 3.287243 -16.438334
vt 3.287243 -18.036486
vt 3.227830 -18.036486
vt 3.227830 -16.438334
vt 3.132326 -16.438334
vt 3.132326 -18.036486
vt 3.227822 -16.378922
vt 3.227822 -14.780771
vt 3.132326 -14.780771
vt 3.132326 -16.378922
vt 3.227830 -19.694063
vt 3.227830 -18.095898
vt 3.132330 -18.095898
vt 3.132326 -19.694063
vt 3.287243 -16.378922
vt 3.382741 -16.378922
vt 3.382741 -14.780771
vt 3.287243 -14.780771
vt 3.132326 -14.721358
vt 3.227827 -14.721358
vt 3.227827 -13.123210
vt 3.132326 -13.123210
vt 3.287243 -14.721360
vt 3.382741 -14.721360
vt 3.382741 -13.123210
vt 3.287243 -13.123210
vt 3.287240 -19.694063
vt 3.382741 -19.694063
vt 3.382741 -18.095913
vt 3.287240 -18.095913
vt 3.227825 -12.968294
vt 3.132324 -12.968292
vt 3.132324 -13.063796
vt 3.227825 -13.063789
s 0
usemtl Rejas
f 7/1/1 8/2/1 5/3/1 4/4/1
f 4/5/2 5/6/2 3/7/2 2/8/2
f 2/9/3 3/10/3 1/11/3 6/12/3
f 15/13/4 10/14/4 8/15/4 12/16/4
f 13/17/4 1/18/4 9/19/4 14/20/4
f 14/20/4 9/19/4 10/14/4 15/13/4
f 6/21/4 13/17/4 14/20/4 11/22/4
f 16/23/4 15/13/4 12/16/4 7/24/4
usemtl Metal
f 20/25/5 29/26/5 30/27/5 22/28/5
f 31/29/1 28/30/1 19/31/1 24/32/1
f 24/33/4 19/34/4 21/35/4 20/36/4
f 18/37/4 25/38/4 22/39/4 23/40/4
f 25/41/4 24/42/4 20/43/4 22/44/4
f 18/45/3 27/46/3 32/47/3 25/48/3
f 21/49/6 19/50/6 28/51/6 17/52/6
f 25/53/6 32/54/6 31/55/6 24/56/6
f 22/57/1 30/58/1 26/59/1 23/60/1
f 23/61/6 26/62/6 27/63/6 18/64/6
f 31/65/2 29/66/2 17/67/2 28/68/2
f 27/69/2 26/70/2 30/71/2 32/72/2
f 32/73/2 30/74/2 29/75/2 31/76/2
f 17/77/3 29/78/3 20/79/3 21/80/3
f 42/81/5 41/82/5 34/83/5 43/84/5
f 45/85/5 46/86/5 36/87/5 44/88/5
f 49/89/5 48/90/5 47/91/5 40/92/5
f 55/93/4 43/84/4 34/94/4 33/95/4
f 54/96/3 42/97/3 43/98/3 55/99/3
f 53/100/2 41/82/2 42/81/2 54/101/2
f 33/102/1 34/83/1 41/103/1 53/104/1
f 58/105/4 35/106/4 36/107/4 46/86/4
f 57/108/1 58/109/1 46/110/1 45/111/1
f 56/112/2 57/113/2 45/85/2 44/88/2
f 35/114/3 56/115/3 44/116/3 36/87/3
f 64/117/2 49/118/2 40/119/2 39/120/2
f 63/121/1 48/122/1 49/123/1 64/124/1
f 62/125/4 47/126/4 48/127/4 63/128/4
f 39/129/3 40/130/3 47/131/3 62/132/3
f 61/133/2 37/134/2 38/135/2 52/136/2
f 60/137/3 61/138/3 52/139/3 51/140/3
f 59/141/4 60/142/4 51/143/4 50/144/4
f 37/145/1 59/146/1 50/147/1 38/148/1
f 38/149/5 50/150/5 51/151/5 52/152/5
