# 3ds Max Wavefront OBJ Exporter v0.99 - (c)2007 guruware
# File Created: 10.05.2024 11:20:51

mtllib Comida2.mtl

#
# object drink_001
#

v  0.1880 1.0919 0.3529
v  0.2392 1.7478 0.4490
v  -0.2693 1.7478 0.4316
v  -0.2115 1.0919 0.3391
v  -0.5084 1.7478 -0.0172
v  -0.3995 1.0919 -0.0135
v  -0.2394 1.7478 -0.4489
v  -0.1879 1.0919 -0.3527
v  0.2691 1.7478 -0.4318
v  0.2113 1.0919 -0.3393
v  -0.2125 2.2238 -0.0073
v  -0.1000 2.2238 -0.1877
v  0.5086 1.7478 0.0173
v  0.3996 1.0919 0.0137
v  -0.1124 2.2238 0.1800
v  -0.0780 2.5173 0.1252
v  -0.1472 2.5173 -0.0050
v  0.2123 2.2238 0.0071
v  0.0998 2.2238 0.1876
v  0.1123 2.2238 -0.1805
v  0.0778 2.5173 -0.1251
v  0.1474 2.5173 0.0048
v  -0.0695 2.5173 -0.1300
v  0.0693 2.5173 0.1301
v  0.4416 0.2187 0.0150
v  0.2077 0.2187 0.3893
v  0.2336 0.2187 -0.3751
v  -0.2079 0.2187 -0.3895
v  -0.4418 0.2187 -0.0149
v  -0.2338 0.2187 0.3752
v  0.1444 0.0000 0.2709
v  0.3068 0.0000 0.0107
v  0.1625 0.0000 -0.2609
v  -0.1439 0.0000 -0.2707
v  -0.3067 0.0000 -0.0103
v  -0.1626 0.0000 0.2607
v  0.0739 2.6977 0.1383
v  0.1569 2.6977 0.0052
v  0.0831 2.6977 -0.1333
v  -0.0737 2.6977 -0.1385
v  -0.1571 2.6977 -0.0053
v  -0.0829 2.6977 0.1331
v  0.0880 2.4945 -0.1412
v  0.1661 2.4945 0.0055
v  -0.1662 2.4945 -0.0057
v  -0.0783 2.4945 -0.1467
v  0.0782 2.4945 0.1469
v  -0.0882 2.4945 0.1413
# 48 vertices

vn 0.4693 -0.0604 0.8809
vn 0.4627 0.1764 0.8688
vn -0.5210 0.1762 0.8352
vn -0.5280 -0.0603 0.8471
vn -0.9838 0.1761 -0.0332
vn -0.9976 -0.0602 -0.0340
vn -0.4632 0.1761 -0.8686
vn -0.4695 -0.0603 -0.8808
vn 0.5206 0.1762 -0.8354
vn 0.5277 -0.0604 -0.8473
vn -0.9168 0.3982 -0.0310
vn -0.4315 0.3983 -0.8095
vn 0.9838 0.1763 0.0334
vn 0.9976 -0.0604 0.0340
vn -0.4857 0.3979 0.7783
vn -0.5167 0.2160 0.8285
vn -0.9757 0.2167 -0.0328
vn 0.9168 0.3982 0.0309
vn 0.4311 0.3981 0.8098
vn 0.4850 0.3982 -0.7786
vn 0.5161 0.2169 -0.8286
vn 0.9758 0.2164 0.0325
vn -0.4596 0.2173 -0.8611
vn 0.4590 0.2160 0.8618
vn 0.9728 -0.2291 0.0331
vn 0.4581 -0.2290 0.8589
vn 0.5146 -0.2292 -0.8262
vn -0.4583 -0.2293 -0.8587
vn -0.9727 -0.2296 -0.0332
vn -0.5145 -0.2292 0.8263
vn 0.4008 -0.5237 0.7517
vn 0.8510 -0.5243 0.0299
vn 0.4500 -0.5245 -0.7228
vn -0.4000 -0.5246 -0.7515
vn -0.8503 -0.5255 -0.0293
vn -0.4500 -0.5247 0.7226
vn 0.0000 1.0000 -0.0000
vn 0.5284 0.0455 -0.8478
vn 0.9984 0.0455 0.0335
vn 0.9984 0.0455 0.0336
vn -0.9983 0.0463 -0.0341
vn -0.9983 0.0463 -0.0340
vn -0.4695 0.0458 -0.8818
vn -0.4700 0.0458 -0.8815
vn 0.4700 0.0466 0.8814
vn 0.4707 0.0466 0.8811
vn -0.5280 0.0471 0.8479
vn -0.5284 0.0471 0.8477
vn 0.0000 -1.0000 -0.0000
# 49 vertex normals

vt 0.0467 0.6735 0.0000
vt 0.0467 0.6731 0.0000
vt 0.0470 0.6731 0.0000
vt 0.0469 0.6735 0.0000
vt 0.0470 0.6735 0.0000
vt 0.0472 0.6731 0.0000
vt 0.0472 0.6735 0.0000
vt 0.0474 0.6731 0.0000
vt 0.0474 0.6735 0.0000
vt 0.0477 0.6734 0.0000
vt 0.0477 0.6737 0.0000
vt 0.0475 0.6737 0.0000
vt 0.0475 0.6734 0.0000
vt 0.7666 0.7846 0.0000
vt 0.7666 0.7844 0.0000
vt 0.7667 0.7846 0.0000
vt 0.0478 0.6735 0.0000
vt 0.0478 0.6731 0.0000
vt 0.0480 0.6731 0.0000
vt 0.0480 0.6735 0.0000
vt 0.0482 0.6731 0.0000
vt 0.0482 0.6735 0.0000
vt 0.8792 0.4226 0.0000
vt 0.8792 0.4225 0.0000
vt 0.8793 0.4225 0.0000
vt 0.8793 0.4226 0.0000
vt 0.7671 0.7846 0.0000
vt 0.7670 0.7844 0.0000
vt 0.7671 0.7844 0.0000
vt 0.7672 0.7846 0.0000
vt 0.7669 0.7850 0.0000
vt 0.7668 0.7851 0.0000
vt 0.7667 0.7850 0.0000
vt 0.7664 0.7846 0.0000
vt 0.7665 0.7844 0.0000
vt 0.7669 0.7846 0.0000
vt 0.7662 0.7846 0.0000
vt 0.7663 0.7844 0.0000
vt 0.7664 0.7844 0.0000
vt 0.8798 0.4226 0.0000
vt 0.8798 0.4225 0.0000
vt 0.8799 0.4225 0.0000
vt 0.8799 0.4226 0.0000
vt 0.8789 0.4226 0.0000
vt 0.8789 0.4225 0.0000
vt 0.8790 0.4225 0.0000
vt 0.8790 0.4226 0.0000
vt 0.8800 0.4225 0.0000
vt 0.8800 0.4226 0.0000
vt 0.8796 0.4235 0.0000
vt 0.8796 0.4236 0.0000
vt 0.8795 0.4235 0.0000
vt 0.7671 0.7851 0.0000
vt 0.7670 0.7848 0.0000
vt 0.7672 0.7848 0.0000
vt 0.7672 0.7851 0.0000
vt 0.7669 0.7851 0.0000
vt 0.7669 0.7848 0.0000
vt 0.7669 0.7844 0.0000
vt 0.7669 0.7847 0.0000
vt 0.7667 0.7847 0.0000
vt 0.7667 0.7844 0.0000
vt 0.7666 0.7851 0.0000
vt 0.7666 0.7848 0.0000
vt 0.7667 0.7848 0.0000
vt 0.7667 0.7851 0.0000
vt 0.7664 0.7851 0.0000
vt 0.7664 0.7848 0.0000
vt 0.7662 0.7851 0.0000
vt 0.7663 0.7848 0.0000
vt 0.7671 0.7852 0.0000
vt 0.7670 0.7852 0.0000
vt 0.7669 0.7852 0.0000
vt 0.7668 0.7844 0.0000
vt 0.7667 0.7852 0.0000
vt 0.7666 0.7852 0.0000
vt 0.7664 0.7852 0.0000
vt 0.7663 0.7852 0.0000
vt 0.0467 0.6727 0.0000
vt 0.0466 0.6727 0.0000
vt 0.0466 0.6726 0.0000
vt 0.0466 0.6725 0.0000
vt 0.0467 0.6726 0.0000
vt 0.0459 0.6727 0.0000
vt 0.0458 0.6727 0.0000
vt 0.0458 0.6726 0.0000
vt 0.0459 0.6726 0.0000
vt 0.0459 0.6725 0.0000
vt 0.0458 0.6725 0.0000
vt 0.0458 0.6724 0.0000
vt 0.0459 0.6724 0.0000
vt 0.0470 0.6725 0.0000
vt 0.0470 0.6724 0.0000
vt 0.0471 0.6724 0.0000
vt 0.0471 0.6725 0.0000
vt 0.0472 0.6724 0.0000
vt 0.0472 0.6725 0.0000
# 97 texture coords

o drink_001
g drink_001
usemtl Material
s 1
f 1/1/1 2/2/2 3/3/3 
f 3/3/3 4/4/4 1/1/1 
f 4/5/4 3/3/3 5/6/5 
f 5/6/5 6/7/6 4/5/4 
f 6/7/6 5/6/5 7/8/7 
f 7/8/7 8/9/8 6/7/6 
f 8/10/8 7/11/7 9/12/9 
f 9/12/9 10/13/10 8/10/8 
f 5/14/5 11/15/11 12/15/12 
f 12/15/12 7/16/7 5/14/5 
f 10/17/10 9/18/9 13/19/13 
f 13/19/13 14/20/14 10/17/10 
f 14/20/14 13/19/13 2/21/2 
f 2/21/2 1/22/1 14/20/14 
f 15/23/15 16/24/16 17/25/17 
f 17/25/17 11/26/11 15/23/15 
f 13/27/13 18/28/18 19/29/19 
f 19/29/19 2/30/2 13/27/13 
f 7/31/7 12/32/12 20/32/20 
f 20/32/20 9/33/9 7/31/7 
f 3/34/3 15/35/15 11/15/11 
f 11/15/11 5/14/5 3/34/3 
f 9/36/9 20/28/20 18/28/18 
f 18/28/18 13/27/13 9/36/9 
f 2/37/2 19/38/19 15/39/15 
f 15/39/15 3/34/3 2/37/2 
f 20/40/20 21/41/21 22/42/22 
f 22/42/22 18/43/18 20/40/20 
f 11/26/11 17/25/17 23/25/23 
f 23/25/23 12/26/12 11/26/11 
f 19/44/19 24/45/24 16/46/16 
f 16/46/16 15/47/15 19/44/19 
f 18/43/18 22/42/22 24/48/24 
f 24/48/24 19/49/19 18/43/18 
f 12/50/12 23/51/23 21/51/21 
f 21/51/21 20/52/20 12/50/12 
f 25/53/25 14/54/14 1/55/1 
f 1/55/1 26/56/26 25/53/25 
f 27/57/27 10/58/10 14/54/14 
f 14/54/14 25/53/25 27/57/27 
f 28/59/28 8/60/8 10/61/10 
f 10/61/10 27/62/27 28/59/28 
f 29/63/29 6/64/6 8/65/8 
f 8/65/8 28/66/28 29/63/29 
f 30/67/30 4/68/4 6/64/6 
f 6/64/6 29/63/29 30/67/30 
f 26/69/26 1/70/1 4/68/4 
f 4/68/4 30/67/30 26/69/26 
f 25/53/25 26/56/26 31/71/31 
f 31/71/31 32/72/32 25/53/25 
f 27/57/27 25/53/25 32/72/32 
f 32/72/32 33/73/33 27/57/27 
f 28/59/28 27/62/27 33/74/33 
f 33/74/33 34/59/34 28/59/28 
f 29/63/29 28/66/28 34/75/34 
f 34/75/34 35/76/35 29/63/29 
f 30/67/30 29/63/29 35/76/35 
f 35/76/35 36/77/36 30/67/30 
f 26/69/26 30/67/30 36/77/36 
f 36/77/36 31/78/31 26/69/26 
f 37/79/37 38/80/37 39/80/37 
f 39/80/37 40/81/37 41/82/37 
f 37/79/37 39/80/37 41/82/37 
f 42/83/37 37/79/37 41/82/37 
f 43/84/38 39/85/38 38/86/39 
f 38/86/39 44/87/40 43/84/38 
f 45/88/41 41/89/42 40/90/43 
f 40/90/43 46/91/44 45/88/41 
f 47/92/45 37/93/46 42/94/47 
f 42/94/47 48/95/48 47/92/45 
f 44/87/40 38/86/39 37/86/46 
f 37/86/46 47/87/45 44/87/40 
f 46/96/44 40/97/43 39/95/38 
f 39/95/38 43/94/38 46/96/44 
f 48/88/48 42/89/47 41/89/42 
f 41/89/42 45/88/41 48/88/48 
f 36/77/49 35/76/49 34/75/49 
f 34/75/49 33/74/49 32/72/49 
f 36/77/49 34/75/49 32/72/49 
f 31/78/49 36/77/49 32/72/49 
# 80 faces

