# 3ds Max Wavefront OBJ Exporter v0.99 - (c)2007 guruware
# File Created: 10.05.2024 11:33:46

mtllib Lampara.mtl

#
# object lamp_001
#

v  0.1043 3.9580 0.0000
v  0.0737 3.9580 -0.0737
v  -0.0000 3.9580 -0.1043
v  -0.0738 3.9580 -0.0737
v  -0.1043 3.9580 0.0000
v  -0.0738 3.9580 0.0738
v  -0.0000 3.9580 0.1043
v  0.0737 3.9580 0.0738
v  -0.0000 3.3876 0.0000
v  0.1413 3.7937 -0.1413
v  0.1999 3.7937 0.0000
v  -0.0000 3.7937 -0.1999
v  -0.1413 3.7937 -0.1413
v  -0.1999 3.7937 0.0000
v  -0.1413 3.7937 0.1413
v  -0.0000 3.7937 0.1999
v  0.1413 3.7937 0.1413
v  0.1253 3.8760 -0.1253
v  0.1772 3.8760 0.0000
v  -0.0000 3.8760 -0.1772
v  -0.1253 3.8760 -0.1253
v  -0.1772 3.8760 0.0000
v  -0.1253 3.8760 0.1253
v  -0.0000 3.8760 0.1772
v  0.1253 3.8760 0.1253
v  0.0490 2.7303 0.0000
v  0.0500 3.5390 0.0000
v  0.0354 3.5390 0.0354
v  0.0347 2.7303 0.0347
v  0.0347 2.7303 -0.0347
v  0.0354 3.5390 -0.0354
v  -0.0000 2.7303 -0.0490
v  -0.0000 3.5390 -0.0500
v  -0.0347 2.7303 -0.0347
v  -0.0354 3.5390 -0.0354
v  -0.0490 2.7303 0.0000
v  -0.0501 3.5390 0.0000
v  -0.0347 2.7303 0.0347
v  -0.0354 3.5390 0.0354
v  -0.0000 2.7303 0.0491
v  -0.0000 3.5390 0.0501
v  0.5318 2.1079 0.5318
v  0.7521 2.1079 0.0000
v  -0.0000 2.5891 0.0000
v  0.5318 2.1079 -0.5318
v  -0.0000 2.1079 -0.7521
v  -0.5318 2.1079 -0.5318
v  -0.7521 2.1079 0.0000
v  -0.5318 2.1079 0.5318
v  -0.0000 2.1079 0.7521
v  0.6455 0.0000 0.0000
v  0.2966 0.4514 0.0000
v  0.2097 0.4514 0.2098
v  0.4564 0.0000 0.4565
v  0.4564 0.0000 -0.4564
v  0.2097 0.4514 -0.2097
v  0.0000 0.0000 -0.6455
v  0.0000 0.4514 -0.2966
v  -0.4565 0.0000 -0.4564
v  -0.2098 0.4514 -0.2097
v  -0.6455 0.0000 0.0000
v  -0.2967 0.4514 0.0000
v  -0.4565 0.0000 0.4565
v  -0.2098 0.4514 0.2098
v  0.0000 0.0000 0.6455
v  0.0000 0.4514 0.2966
v  0.3438 0.6697 0.0000
v  0.2431 0.6697 0.2431
v  0.2431 0.6697 -0.2431
v  0.0000 0.6697 -0.3438
v  -0.2431 0.6697 -0.2431
v  -0.3438 0.6697 0.0000
v  -0.2431 0.6697 0.2431
v  0.0000 0.6697 0.3438
v  0.8486 1.4704 0.0000
v  0.6000 1.4704 0.6000
v  0.6000 1.4704 -0.6000
v  -0.0000 1.4704 -0.8485
v  -0.6000 1.4704 -0.6000
v  -0.8486 1.4704 0.0000
v  -0.6000 1.4704 0.6000
v  -0.0000 1.4704 0.8486
v  0.8929 1.8811 0.0000
v  0.6314 1.8811 0.6314
v  0.6314 1.8811 -0.6314
v  -0.0000 1.8811 -0.8929
v  -0.6314 1.8811 -0.6314
v  -0.8929 1.8811 0.0000
v  -0.6314 1.8811 0.6314
v  -0.0000 1.8811 0.8929
v  0.4746 4.6017 0.8221
v  0.8221 4.6017 0.4746
v  1.0601 2.9191 0.6121
v  0.6120 2.9191 1.0601
v  0.9492 4.6017 0.0000
v  1.2241 2.9191 0.0000
v  0.8221 4.6017 -0.4746
v  1.0601 2.9191 -0.6120
v  0.4746 4.6017 -0.8221
v  0.6120 2.9191 -1.0601
v  -0.0000 4.6017 -0.9492
v  -0.0000 2.9191 -1.2241
v  -0.4746 4.6017 -0.8221
v  -0.6121 2.9191 -1.0601
v  -0.8221 4.6017 -0.4746
v  -1.0601 2.9191 -0.6120
v  -0.9493 4.6017 0.0000
v  -1.2241 2.9191 0.0000
v  -0.8221 4.6017 0.4746
v  -1.0601 2.9191 0.6121
v  -0.4746 4.6017 0.8221
v  -0.6121 2.9191 1.0601
v  -0.0000 4.6017 0.9493
v  -0.0000 2.9191 1.2241
v  1.0788 2.9191 0.6229
v  0.8366 4.6017 0.4830
v  0.4830 4.6017 0.8366
v  0.6229 2.9191 1.0789
v  1.2457 2.9191 0.0000
v  0.9660 4.6017 0.0000
v  1.0788 2.9191 -0.6229
v  0.8366 4.6017 -0.4830
v  0.6229 2.9191 -1.0788
v  0.4830 4.6017 -0.8366
v  -0.0000 2.9191 -1.2457
v  -0.0000 4.6017 -0.9660
v  -0.6229 2.9191 -1.0788
v  -0.4830 4.6017 -0.8366
v  -1.0788 2.9191 -0.6229
v  -0.8366 4.6017 -0.4830
v  -1.2457 2.9191 0.0000
v  -0.9660 4.6017 0.0000
v  -1.0788 2.9191 0.6229
v  -0.8366 4.6017 0.4830
v  -0.6229 2.9191 1.0789
v  -0.4830 4.6017 0.8366
v  -0.0000 2.9191 1.2457
v  -0.0000 4.6017 0.9660
v  0.4244 2.0339 0.0000
v  0.2514 2.8032 0.0000
v  0.1778 2.8032 0.1778
v  0.3001 2.0339 0.3001
v  0.3001 2.0339 -0.3001
v  0.1778 2.8032 -0.1778
v  -0.0000 2.0339 -0.4244
v  -0.0000 2.8032 -0.2514
v  -0.3001 2.0339 -0.3001
v  -0.1778 2.8032 -0.1778
v  -0.4244 2.0339 0.0000
v  -0.2514 2.8032 0.0000
v  -0.3001 2.0339 0.3001
v  -0.1778 2.8032 0.1778
v  -0.0000 2.0339 0.4244
v  -0.0000 2.8032 0.2514
v  1.2199 2.9348 0.0216
v  1.2199 2.9886 0.0216
v  -1.2199 2.9886 0.0216
v  -1.2199 2.9348 0.0216
v  1.2199 2.9886 -0.0321
v  -1.2199 2.9886 -0.0321
v  1.2199 2.9348 -0.0321
v  -1.2199 2.9348 -0.0321
v  -0.0269 2.9348 1.2146
v  -0.0269 2.9886 1.2146
v  -0.0269 2.9886 -1.2252
v  -0.0269 2.9348 -1.2252
v  0.0269 2.9886 1.2146
v  0.0269 2.9886 -1.2252
v  0.0269 2.9348 1.2146
v  0.0269 2.9348 -1.2252
# 170 vertices

vn 0.4874 0.8732 -0.0000
vn 0.3446 0.8732 -0.3446
vn 0.0000 0.8732 -0.4874
vn -0.3446 0.8732 -0.3446
vn -0.4873 0.8732 -0.0000
vn -0.3446 0.8732 0.3446
vn 0.0000 0.8732 0.4874
vn 0.3446 0.8732 0.3446
vn 0.0000 -1.0000 -0.0000
vn 0.7044 -0.0871 -0.7044
vn 0.9962 -0.0871 -0.0000
vn 0.0000 -0.0871 -0.9962
vn -0.7044 -0.0871 -0.7044
vn -0.9962 -0.0871 -0.0000
vn -0.7044 -0.0871 0.7044
vn 0.0000 -0.0871 0.9962
vn 0.7044 -0.0871 0.7044
vn 0.6295 0.4554 -0.6295
vn 0.8903 0.4554 -0.0000
vn 0.0000 0.4554 -0.8903
vn -0.6296 0.4554 -0.6295
vn -0.8903 0.4554 -0.0000
vn -0.6296 0.4554 0.6295
vn 0.0000 0.4554 0.8903
vn 0.6295 0.4554 0.6295
vn 1.0000 -0.0013 -0.0000
vn 0.7072 -0.0012 0.7070
vn 0.7072 -0.0012 -0.7070
vn 0.0001 -0.0012 -1.0000
vn -0.7071 -0.0013 -0.7071
vn -1.0000 -0.0013 -0.0000
vn -0.7071 -0.0013 0.7071
vn 0.0001 -0.0012 1.0000
vn 0.5210 0.6761 0.5210
vn 0.7368 0.6761 -0.0000
vn 0.0000 1.0000 -0.0000
vn 0.5210 0.6761 -0.5210
vn 0.0000 0.6761 -0.7368
vn -0.5210 0.6761 -0.5210
vn -0.7368 0.6761 -0.0000
vn -0.5210 0.6761 0.5210
vn 0.0000 0.6761 0.7368
vn 0.7912 0.6115 -0.0000
vn 0.9691 0.2467 -0.0000
vn 0.6853 0.2467 0.6852
vn 0.5595 0.6115 0.5595
vn 0.5595 0.6115 -0.5595
vn 0.6853 0.2467 -0.6852
vn 0.0000 0.6115 -0.7912
vn 0.0000 0.2467 -0.9691
vn -0.5595 0.6115 -0.5595
vn -0.6853 0.2466 -0.6853
vn -0.7912 0.6115 -0.0000
vn -0.9691 0.2467 -0.0000
vn -0.5595 0.6115 0.5595
vn -0.6853 0.2466 0.6853
vn 0.0000 0.6115 0.7912
vn 0.0000 0.2467 0.9691
vn 0.9192 -0.3937 -0.0000
vn 0.6500 -0.3937 0.6500
vn 0.6500 -0.3937 -0.6500
vn 0.0000 -0.3938 -0.9192
vn -0.6500 -0.3938 -0.6500
vn -0.9192 -0.3938 -0.0000
vn -0.6500 -0.3938 0.6500
vn 0.0000 -0.3938 0.9192
vn 0.9498 -0.3128 -0.0000
vn 0.6716 -0.3128 0.6716
vn 0.6716 -0.3128 -0.6716
vn 0.0000 -0.3128 -0.9498
vn -0.6716 -0.3128 -0.6716
vn -0.9498 -0.3128 -0.0000
vn -0.6716 -0.3128 0.6716
vn 0.0000 -0.3128 0.9498
vn 0.9784 0.2067 -0.0000
vn 0.6918 0.2067 0.6918
vn 0.6918 0.2067 -0.6918
vn 0.0000 0.2067 -0.9784
vn -0.6918 0.2067 -0.6918
vn -0.9784 0.2067 -0.0000
vn -0.6918 0.2067 0.6918
vn 0.0000 0.2067 0.9784
vn -0.4935 -0.1612 -0.8547
vn -0.8547 -0.1612 -0.4935
vn -0.9869 -0.1612 -0.0000
vn -0.8547 -0.1612 0.4935
vn -0.4935 -0.1612 0.8547
vn 0.0000 -0.1612 0.9869
vn 0.4935 -0.1612 0.8547
vn 0.8547 -0.1612 0.4935
vn 0.9869 -0.1612 -0.0000
vn 0.8547 -0.1612 -0.4935
vn 0.4935 -0.1612 -0.8547
vn 0.0000 -0.1612 -0.9869
vn 0.8543 0.1640 0.4932
vn 0.4932 0.1640 0.8543
vn 0.9865 0.1640 -0.0000
vn 0.8543 0.1640 -0.4932
vn 0.4932 0.1640 -0.8543
vn 0.0000 0.1640 -0.9865
vn -0.4932 0.1640 -0.8543
vn -0.8543 0.1640 -0.4932
vn -0.9865 0.1640 -0.0000
vn -0.8543 0.1640 0.4932
vn -0.4932 0.1640 0.8543
vn 0.0000 0.1640 0.9865
vn 0.9756 0.2194 -0.0000
vn 0.6899 0.2194 0.6899
vn 0.6899 0.2194 -0.6899
vn 0.0000 0.2194 -0.9756
vn -0.6899 0.2194 -0.6899
vn -0.9756 0.2194 -0.0000
vn -0.6899 0.2194 0.6899
vn 0.0000 0.2194 0.9756
vn 0.0000 0.0000 1.0000
vn 0.0000 0.0000 -1.0000
vn -1.0000 0.0000 -0.0000
vn 1.0000 0.0000 -0.0000
# 118 vertex normals

vt 0.8830 0.4161 0.0000
vt 0.8831 0.4161 0.0000
vt 0.8829 0.4161 0.0000
vt 0.8830 0.4157 0.0000
vt 0.8829 0.4157 0.0000
vt 0.8831 0.4157 0.0000
vt 0.8832 0.4157 0.0000
vt 0.8832 0.4161 0.0000
vt 0.8829 0.4160 0.0000
vt 0.8830 0.4160 0.0000
vt 0.8831 0.4160 0.0000
vt 0.8832 0.4160 0.0000
vt 0.8830 0.4158 0.0000
vt 0.8829 0.4158 0.0000
vt 0.8831 0.4158 0.0000
vt 0.8832 0.4158 0.0000
vt 0.8601 0.5116 0.0000
vt 0.8602 0.5116 0.0000
vt 0.8830 0.4159 0.0000
vt 0.8829 0.4159 0.0000
vt 0.8831 0.4159 0.0000
vt 0.8832 0.4159 0.0000
vt 0.6905 0.1153 0.0000
vt 0.6905 0.1150 0.0000
vt 0.6906 0.1153 0.0000
vt 0.6906 0.1150 0.0000
vt 0.6907 0.1153 0.0000
vt 0.6907 0.1150 0.0000
vt 0.5973 0.1362 0.0000
vt 0.5973 0.1366 0.0000
vt 0.5972 0.1366 0.0000
vt 0.5972 0.1362 0.0000
vt 0.5974 0.1362 0.0000
vt 0.5974 0.1366 0.0000
vt 0.5975 0.1362 0.0000
vt 0.5975 0.1366 0.0000
vt 0.8687 0.6765 0.0000
vt 0.8687 0.6741 0.0000
vt 0.8711 0.6741 0.0000
vt 0.8711 0.6765 0.0000
vt 0.8687 0.6716 0.0000
vt 0.8711 0.6716 0.0000
vt 0.8687 0.6691 0.0000
vt 0.8711 0.6691 0.0000
vt 0.8687 0.6667 0.0000
vt 0.8711 0.6667 0.0000
# 46 texture coords

o lamp_001
g lamp_001
usemtl Material
s 1
f 1/1/1 2/1/2 3/1/3 
f 1/1/1 3/1/3 4/1/4 
f 1/1/1 4/1/4 5/2/5 
f 1/1/1 5/2/5 6/2/6 
f 1/1/1 6/2/6 7/2/7 
f 1/1/1 7/2/7 8/3/8 
f 9/1/9 10/1/10 11/1/11 
f 9/1/9 12/1/12 10/1/10 
f 9/1/9 13/1/13 12/1/12 
f 9/1/9 14/2/14 13/1/13 
f 9/1/9 15/2/15 14/2/14 
f 9/1/9 16/2/16 15/2/15 
f 9/1/9 17/3/17 16/2/16 
f 9/1/9 11/1/11 17/3/17 
f 10/1/10 18/1/18 19/1/19 
f 19/1/19 11/1/11 10/1/10 
f 12/1/12 20/1/20 18/1/18 
f 18/1/18 10/1/10 12/1/12 
f 13/1/13 21/1/21 20/1/20 
f 20/1/20 12/1/12 13/1/13 
f 14/2/14 22/2/22 21/1/21 
f 21/1/21 13/1/13 14/2/14 
f 15/2/15 23/2/23 22/2/22 
f 22/2/22 14/2/14 15/2/15 
f 16/2/16 24/2/24 23/2/23 
f 23/2/23 15/2/15 16/2/16 
f 17/3/17 25/3/25 24/2/24 
f 24/2/24 16/2/16 17/3/17 
f 11/1/11 19/1/19 25/3/25 
f 25/3/25 17/3/17 11/1/11 
f 18/1/18 2/1/2 1/1/1 
f 1/1/1 19/1/19 18/1/18 
f 20/1/20 3/1/3 2/1/2 
f 2/1/2 18/1/18 20/1/20 
f 21/1/21 4/1/4 3/1/3 
f 3/1/3 20/1/20 21/1/21 
f 22/2/22 5/2/5 4/1/4 
f 4/1/4 21/1/21 22/2/22 
f 23/2/23 6/2/6 5/2/5 
f 5/2/5 22/2/22 23/2/23 
f 24/2/24 7/2/7 6/2/6 
f 6/2/6 23/2/23 24/2/24 
f 25/3/25 8/3/8 7/2/7 
f 7/2/7 24/2/24 25/3/25 
f 19/1/19 1/1/1 8/3/8 
f 8/3/8 25/3/25 19/1/19 
f 26/4/26 27/1/26 28/3/27 
f 28/3/27 29/5/27 26/4/26 
f 30/4/28 31/1/28 27/1/26 
f 27/1/26 26/4/26 30/4/28 
f 32/4/29 33/1/29 31/1/28 
f 31/1/28 30/4/28 32/4/29 
f 34/4/30 35/1/30 33/1/29 
f 33/1/29 32/4/29 34/4/30 
f 36/6/31 37/2/31 35/1/30 
f 35/1/30 34/4/30 36/6/31 
f 38/6/32 39/2/32 37/2/31 
f 37/2/31 36/6/31 38/6/32 
f 40/6/33 41/2/33 39/2/32 
f 39/2/32 38/6/32 40/6/33 
f 29/7/27 28/8/27 41/2/33 
f 41/2/33 40/6/33 29/7/27 
f 42/9/34 43/10/35 44/1/36 
f 43/10/35 45/10/37 44/1/36 
f 45/10/37 46/10/38 44/1/36 
f 46/10/38 47/10/39 44/1/36 
f 47/10/39 48/11/40 44/1/36 
f 48/11/40 49/11/41 44/1/36 
f 49/11/41 50/11/42 44/1/36 
f 50/11/42 42/12/34 44/1/36 
f 51/4/43 52/13/44 53/14/45 
f 53/14/45 54/5/46 51/4/43 
f 55/4/47 56/13/48 52/13/44 
f 52/13/44 51/4/43 55/4/47 
f 57/4/49 58/13/50 56/13/48 
f 56/13/48 55/4/47 57/4/49 
f 59/4/51 60/13/52 58/13/50 
f 58/13/50 57/4/49 59/4/51 
f 61/6/53 62/15/54 60/13/52 
f 60/13/52 59/4/51 61/6/53 
f 63/6/55 64/15/56 62/15/54 
f 62/15/54 61/6/53 63/6/55 
f 65/6/57 66/15/58 64/15/56 
f 64/15/56 63/6/55 65/6/57 
f 54/7/46 53/16/45 66/15/58 
f 66/15/58 65/6/57 54/7/46 
f 52/17/44 67/17/59 68/18/60 
f 68/18/60 53/18/45 52/17/44 
f 56/17/48 69/17/61 67/17/59 
f 67/17/59 52/17/44 56/17/48 
f 58/18/50 70/18/62 69/17/61 
f 69/17/61 56/17/48 58/18/50 
f 60/18/52 71/18/63 70/18/62 
f 70/18/62 58/18/50 60/18/52 
f 62/18/54 72/18/64 71/18/63 
f 71/18/63 60/18/52 62/18/54 
f 64/18/56 73/18/65 72/18/64 
f 72/18/64 62/18/54 64/18/56 
f 66/18/58 74/18/66 73/18/65 
f 73/18/65 64/18/56 66/18/58 
f 53/18/45 68/18/60 74/18/66 
f 74/18/66 66/18/58 53/18/45 
f 67/13/59 75/19/67 76/20/68 
f 76/20/68 68/14/60 67/13/59 
f 69/13/61 77/19/69 75/19/67 
f 75/19/67 67/13/59 69/13/61 
f 70/13/62 78/19/70 77/19/69 
f 77/19/69 69/13/61 70/13/62 
f 71/13/63 79/19/71 78/19/70 
f 78/19/70 70/13/62 71/13/63 
f 72/15/64 80/21/72 79/19/71 
f 79/19/71 71/13/63 72/15/64 
f 73/15/65 81/21/73 80/21/72 
f 80/21/72 72/15/64 73/15/65 
f 74/15/66 82/21/74 81/21/73 
f 81/21/73 73/15/65 74/15/66 
f 68/16/60 76/22/68 82/21/74 
f 82/21/74 74/15/66 68/16/60 
f 75/19/67 83/10/75 84/9/76 
f 84/9/76 76/20/68 75/19/67 
f 77/19/69 85/10/77 83/10/75 
f 83/10/75 75/19/67 77/19/69 
f 78/19/70 86/10/78 85/10/77 
f 85/10/77 77/19/69 78/19/70 
f 79/19/71 87/10/79 86/10/78 
f 86/10/78 78/19/70 79/19/71 
f 80/21/72 88/11/80 87/10/79 
f 87/10/79 79/19/71 80/21/72 
f 81/21/73 89/11/81 88/11/80 
f 88/11/80 80/21/72 81/21/73 
f 82/21/74 90/11/82 89/11/81 
f 89/11/81 81/21/73 82/21/74 
f 76/22/68 84/12/76 90/11/82 
f 90/11/82 82/21/74 76/22/68 
f 83/10/75 43/10/35 42/9/34 
f 42/9/34 84/9/76 83/10/75 
f 85/10/77 45/10/37 43/10/35 
f 43/10/35 83/10/75 85/10/77 
f 86/10/78 46/10/38 45/10/37 
f 45/10/37 85/10/77 86/10/78 
f 87/10/79 47/10/39 46/10/38 
f 46/10/38 86/10/78 87/10/79 
f 88/11/80 48/11/40 47/10/39 
f 47/10/39 87/10/79 88/11/80 
f 89/11/81 49/11/41 48/11/40 
f 48/11/40 88/11/80 89/11/81 
f 90/11/82 50/11/42 49/11/41 
f 49/11/41 89/11/81 90/11/82 
f 84/12/76 42/12/34 50/11/42 
f 50/11/42 90/11/82 84/12/76 
f 91/23/83 92/23/84 93/24/84 
f 93/24/84 94/24/83 91/23/83 
f 92/23/84 95/23/85 96/24/85 
f 96/24/85 93/24/84 92/23/84 
f 95/23/85 97/25/86 98/26/86 
f 98/26/86 96/24/85 95/23/85 
f 97/25/86 99/25/87 100/26/87 
f 100/26/87 98/26/86 97/25/86 
f 99/25/87 101/25/88 102/26/88 
f 102/26/88 100/26/87 99/25/87 
f 101/25/88 103/25/89 104/26/89 
f 104/26/89 102/26/88 101/25/88 
f 103/25/89 105/25/90 106/26/90 
f 106/26/90 104/26/89 103/25/89 
f 105/25/90 107/25/91 108/26/91 
f 108/26/91 106/26/90 105/25/90 
f 107/25/91 109/27/92 110/28/92 
f 110/28/92 108/26/91 107/25/91 
f 109/27/92 111/27/93 112/28/93 
f 112/28/93 110/28/92 109/27/92 
f 111/27/93 113/27/94 114/28/94 
f 114/28/94 112/28/93 111/27/93 
f 113/27/94 91/27/83 94/28/83 
f 94/28/83 114/28/94 113/27/94 
f 115/29/95 116/30/95 117/31/96 
f 117/31/96 118/32/96 115/29/95 
f 119/29/97 120/30/97 116/30/95 
f 116/30/95 115/29/95 119/29/97 
f 121/29/98 122/30/98 120/30/97 
f 120/30/97 119/29/97 121/29/98 
f 123/29/99 124/30/99 122/30/98 
f 122/30/98 121/29/98 123/29/99 
f 125/33/100 126/34/100 124/30/99 
f 124/30/99 123/29/99 125/33/100 
f 127/33/101 128/34/101 126/34/100 
f 126/34/100 125/33/100 127/33/101 
f 129/33/102 130/34/102 128/34/101 
f 128/34/101 127/33/101 129/33/102 
f 131/33/103 132/34/103 130/34/102 
f 130/34/102 129/33/102 131/33/103 
f 133/33/104 134/34/104 132/34/103 
f 132/34/103 131/33/103 133/33/104 
f 135/35/105 136/36/105 134/34/104 
f 134/34/104 133/33/104 135/35/105 
f 137/35/106 138/36/106 136/36/105 
f 136/36/105 135/35/105 137/35/106 
f 118/35/96 117/36/96 138/36/106 
f 138/36/106 137/35/106 118/35/96 
f 139/4/107 140/1/107 141/3/108 
f 141/3/108 142/5/108 139/4/107 
f 143/4/109 144/1/109 140/1/107 
f 140/1/107 139/4/107 143/4/109 
f 145/4/110 146/1/110 144/1/109 
f 144/1/109 143/4/109 145/4/110 
f 147/4/111 148/1/111 146/1/110 
f 146/1/110 145/4/110 147/4/111 
f 149/6/112 150/2/112 148/1/111 
f 148/1/111 147/4/111 149/6/112 
f 151/6/113 152/2/113 150/2/112 
f 150/2/112 149/6/112 151/6/113 
f 153/6/114 154/2/114 152/2/113 
f 152/2/113 151/6/113 153/6/114 
f 142/7/108 141/8/108 154/2/114 
f 154/2/114 153/6/114 142/7/108 
f 144/1/36 146/1/36 148/1/36 
f 148/1/36 150/2/36 152/2/36 
f 152/2/36 154/2/36 141/3/36 
f 148/1/36 152/2/36 141/3/36 
f 144/1/36 148/1/36 141/3/36 
f 140/1/36 144/1/36 141/3/36 
f 155/37/115 156/38/115 157/39/115 
f 157/39/115 158/40/115 155/37/115 
f 156/38/36 159/41/36 160/42/36 
f 160/42/36 157/39/36 156/38/36 
f 159/41/116 161/43/116 162/44/116 
f 162/44/116 160/42/116 159/41/116 
f 161/43/9 155/45/9 158/46/9 
f 158/46/9 162/44/9 161/43/9 
f 163/37/117 164/38/117 165/39/117 
f 165/39/117 166/40/117 163/37/117 
f 164/38/36 167/41/36 168/42/36 
f 168/42/36 165/39/36 164/38/36 
f 167/41/118 169/43/118 170/44/118 
f 170/44/118 168/42/118 167/41/118 
f 169/43/9 163/45/9 166/46/9 
f 166/46/9 170/44/9 169/43/9 
f 51/4/9 54/7/9 55/4/9 
f 54/7/9 65/6/9 55/4/9 
f 65/6/9 63/6/9 55/4/9 
f 63/6/9 61/6/9 55/4/9 
f 61/6/9 59/4/9 55/4/9 
f 59/4/9 57/4/9 55/4/9 
# 242 faces

