# 3ds Max Wavefront OBJ Exporter v0.99 - (c)2007 guruware
# File Created: 10.05.2024 11:07:21

mtllib Armario2.mtl

#
# object closet_002
#

v  -0.1782 0.1346 0.1238
v  0.1782 0.1346 0.1238
v  0.1782 0.7705 0.1238
v  -0.1782 0.7705 0.1238
v  -0.1782 1.2639 0.1238
v  0.1782 1.2639 0.1238
v  0.1782 1.8998 0.1238
v  -0.1782 1.8998 0.1238
v  -0.1322 1.3961 0.1496
v  -0.1005 1.3961 0.1496
v  -0.1005 1.3959 0.1178
v  -0.1322 1.3959 0.1178
v  -0.1005 1.3643 0.1497
v  -0.1005 1.3641 0.1179
v  -0.1322 1.3643 0.1497
v  -0.1322 1.3641 0.1179
v  -0.1322 0.6874 0.1496
v  -0.1005 0.6874 0.1496
v  -0.1005 0.6873 0.1178
v  -0.1322 0.6873 0.1178
v  -0.1005 0.6556 0.1497
v  -0.1005 0.6555 0.1179
v  -0.1322 0.6556 0.1497
v  -0.1322 0.6555 0.1179
v  0.2000 1.9613 -0.1251
v  -0.2000 1.9613 -0.1251
v  -0.2000 1.9613 0.1228
v  0.2000 1.9613 0.1228
v  -0.2000 0.1129 0.1228
v  -0.2000 0.1129 -0.1251
v  0.2000 0.1129 -0.1251
v  0.2000 0.1129 0.1228
v  0.1792 1.2306 -0.1155
v  0.1792 0.8436 -0.1155
v  0.1792 0.8436 0.1228
v  0.1792 1.2306 0.1228
v  0.1972 0.0000 0.0873
v  0.1972 0.1213 0.0873
v  0.1972 0.1213 0.1203
v  0.1972 0.0000 0.1203
v  -0.1658 0.0000 0.0873
v  -0.1658 0.1213 0.0873
v  -0.1658 0.1213 0.1203
v  -0.1658 0.0000 0.1203
v  0.1658 0.0000 0.1203
v  0.1658 0.1213 0.1203
v  0.1658 0.1213 0.0873
v  0.1658 0.0000 0.0873
v  -0.1972 0.0000 0.1203
v  -0.1972 0.1213 0.1203
v  -0.1972 0.1213 0.0873
v  -0.1972 0.0000 0.0873
v  -0.1792 1.2306 0.1228
v  -0.1792 0.8436 0.1228
v  -0.1792 0.8436 -0.1155
v  -0.1792 1.2306 -0.1155
v  0.1972 0.0000 -0.1203
v  0.1972 0.1213 -0.1203
v  0.1972 0.1213 -0.0873
v  0.1972 0.0000 -0.0873
v  -0.1658 0.0000 -0.1203
v  -0.1658 0.1213 -0.1203
v  -0.1658 0.1213 -0.0873
v  -0.1658 0.0000 -0.0873
v  0.1658 0.0000 -0.0873
v  0.1658 0.1213 -0.0873
v  0.1658 0.1213 -0.1203
v  0.1658 0.0000 -0.1203
v  -0.1972 0.0000 -0.0873
v  -0.1972 0.1213 -0.0873
v  -0.1972 0.1213 -0.1203
v  -0.1972 0.0000 -0.1203
# 72 vertices

vn 0.0000 0.0000 1.0000
vn 0.0000 1.0000 -0.0054
vn 1.0000 0.0000 -0.0000
vn 0.0000 -1.0000 0.0054
vn -1.0000 0.0000 -0.0000
vn 0.0000 0.0054 1.0000
vn 0.0000 1.0000 -0.0000
vn 0.0000 -1.0000 -0.0000
vn 0.0000 0.0000 -1.0000
# 9 vertex normals

vt 0.9551 0.4014 0.0000
vt 0.9561 0.4014 0.0000
vt 0.9561 0.3997 0.0000
vt 0.9551 0.3997 0.0000
vt 0.9551 0.4031 0.0000
vt 0.9561 0.4031 0.0000
vt 0.9434 0.2319 0.0000
vt 0.9435 0.2319 0.0000
vt 0.9435 0.2320 0.0000
vt 0.9434 0.2320 0.0000
vt 0.9426 0.2337 0.0000
vt 0.9426 0.2336 0.0000
vt 0.9427 0.2336 0.0000
vt 0.9427 0.2337 0.0000
vt 0.9435 0.2337 0.0000
vt 0.9434 0.2337 0.0000
vt 0.9434 0.2336 0.0000
vt 0.9435 0.2336 0.0000
vt 0.9434 0.2321 0.0000
vt 0.9435 0.2321 0.0000
vt 0.9435 0.2322 0.0000
vt 0.9434 0.2322 0.0000
vt 0.9425 0.2337 0.0000
vt 0.9430 0.2336 0.0000
vt 0.9430 0.2337 0.0000
vt 0.9435 0.2338 0.0000
vt 0.9434 0.2338 0.0000
vt 0.9695 0.5830 0.0000
vt 0.9695 0.5825 0.0000
vt 0.9701 0.5814 0.0000
vt 0.9701 0.5825 0.0000
vt 0.9698 0.5817 0.0000
vt 0.9685 0.5798 0.0000
vt 0.9685 0.5803 0.0000
vt 0.9698 0.5829 0.0000
vt 0.9709 0.5814 0.0000
vt 0.9709 0.5802 0.0000
vt 0.9701 0.5802 0.0000
vt 0.9672 0.5778 0.0000
vt 0.9672 0.5835 0.0000
vt 0.9689 0.5778 0.0000
vt 0.9689 0.5835 0.0000
vt 0.9667 0.5764 0.0000
vt 0.9667 0.5768 0.0000
vt 0.9666 0.5768 0.0000
vt 0.9666 0.5764 0.0000
vt 0.9679 0.5761 0.0000
vt 0.9679 0.5765 0.0000
vt 0.9678 0.5765 0.0000
vt 0.9678 0.5761 0.0000
vt 0.9678 0.5768 0.0000
vt 0.9679 0.5768 0.0000
vt 0.9680 0.5761 0.0000
vt 0.9680 0.5765 0.0000
vt 0.9669 0.5764 0.0000
vt 0.9669 0.5768 0.0000
vt 0.9680 0.5768 0.0000
vt 0.9660 0.5778 0.0000
vt 0.9660 0.5801 0.0000
vt 0.9672 0.5801 0.0000
vt 0.9660 0.5835 0.0000
vt 0.9672 0.5813 0.0000
vt 0.9660 0.5813 0.0000
vt 0.9701 0.5790 0.0000
vt 0.9712 0.5790 0.0000
vt 0.9712 0.5778 0.0000
vt 0.9701 0.5778 0.0000
vt 0.9709 0.5804 0.0000
vt 0.9717 0.5814 0.0000
vt 0.9717 0.5804 0.0000
vt 0.9709 0.5790 0.0000
vt 0.9717 0.5800 0.0000
vt 0.9717 0.5790 0.0000
vt 0.9709 0.5800 0.0000
# 74 texture coords

o closet_002
g closet_002
usemtl Material
s 1
f 1/1/1 2/2/1 3/3/1 
f 3/3/1 4/4/1 1/1/1 
f 5/5/1 6/6/1 7/2/1 
f 7/2/1 8/1/1 5/5/1 
f 9/7/2 10/8/2 11/9/2 
f 11/9/2 12/10/2 9/7/2 
f 10/11/3 13/12/3 14/13/3 
f 14/13/3 11/14/3 10/11/3 
f 13/15/4 15/16/4 16/17/4 
f 16/17/4 14/18/4 13/15/4 
f 15/11/5 9/11/5 12/14/5 
f 12/14/5 16/14/5 15/11/5 
f 17/19/2 18/20/2 19/21/2 
f 19/21/2 20/22/2 17/19/2 
f 10/20/6 9/19/6 15/10/6 
f 15/10/6 13/9/6 10/20/6 
f 18/23/3 21/24/3 22/12/3 
f 22/12/3 19/11/3 18/23/3 
f 23/25/5 17/11/5 20/11/5 
f 20/11/5 24/23/5 23/25/5 
f 18/26/6 17/27/6 23/25/6 
f 23/25/6 21/24/6 18/26/6 
f 25/28/7 26/29/7 27/30/7 
f 27/30/7 28/31/7 25/28/7 
f 29/32/8 30/33/8 31/34/8 
f 31/34/8 32/35/8 29/32/8 
f 33/36/5 34/37/5 35/38/5 
f 35/38/5 36/30/5 33/36/5 
f 30/33/5 29/39/5 27/40/5 
f 27/40/5 26/29/5 30/33/5 
f 32/41/3 31/34/3 25/28/3 
f 25/28/3 28/42/3 32/41/3 
f 37/43/3 38/44/3 39/45/3 
f 39/45/3 40/46/3 37/43/3 
f 41/47/3 42/48/3 43/49/3 
f 43/49/3 44/50/3 41/47/3 
f 45/51/5 46/49/5 47/48/5 
f 47/48/5 48/52/5 45/51/5 
f 40/48/1 39/47/1 46/53/1 
f 46/53/1 45/54/1 40/48/1 
f 49/55/5 50/56/5 51/44/5 
f 51/44/5 52/43/5 49/55/5 
f 44/54/1 43/57/1 50/52/1 
f 50/52/1 49/48/1 44/54/1 
f 28/39/1 27/58/1 53/59/1 
f 53/59/1 36/60/1 28/39/1 
f 29/61/1 32/40/1 35/62/1 
f 35/62/1 54/63/1 29/61/1 
f 32/40/1 28/39/1 36/60/1 
f 36/60/1 35/62/1 32/40/1 
f 27/58/1 29/61/1 54/63/1 
f 54/63/1 53/59/1 27/58/1 
f 55/64/1 34/65/1 33/66/1 
f 33/66/1 56/67/1 55/64/1 
f 56/68/8 33/36/8 36/69/8 
f 36/69/8 53/70/8 56/68/8 
f 55/64/3 56/38/3 53/37/3 
f 53/37/3 54/71/3 55/64/3 
f 34/72/7 55/73/7 54/71/7 
f 54/71/7 35/74/7 34/72/7 
f 26/29/9 25/28/9 31/34/9 
f 31/34/9 30/33/9 26/29/9 
f 41/47/9 52/43/9 51/44/9 
f 51/44/9 42/48/9 41/47/9 
f 37/43/9 48/52/9 47/48/9 
f 47/48/9 38/44/9 37/43/9 
f 57/43/3 58/44/3 59/45/3 
f 59/45/3 60/46/3 57/43/3 
f 61/47/3 62/48/3 63/49/3 
f 63/49/3 64/50/3 61/47/3 
f 65/51/5 66/49/5 67/48/5 
f 67/48/5 68/52/5 65/51/5 
f 60/48/1 59/47/1 66/53/1 
f 66/53/1 65/54/1 60/48/1 
f 69/55/5 70/56/5 71/44/5 
f 71/44/5 72/43/5 69/55/5 
f 64/54/1 63/57/1 70/52/1 
f 70/52/1 69/48/1 64/54/1 
f 61/47/9 72/43/9 71/44/9 
f 71/44/9 62/48/9 61/47/9 
f 57/43/9 68/52/9 67/48/9 
f 67/48/9 58/44/9 57/43/9 
f 57/43/8 60/48/8 65/51/8 
f 65/51/8 68/52/8 57/43/8 
f 37/43/8 40/48/8 45/51/8 
f 45/51/8 48/52/8 37/43/8 
f 41/47/8 44/54/8 49/55/8 
f 49/55/8 52/43/8 41/47/8 
f 61/47/8 64/54/8 69/55/8 
f 69/55/8 72/43/8 61/47/8 
f 21/24/4 23/25/4 24/23/4 
f 24/23/4 22/12/4 21/24/4 
# 92 faces

