# 3ds Max Wavefront OBJ Exporter v0.99 - (c)2007 guruware
# File Created: 10.05.2024 11:01:07

mtllib Cama2.mtl

#
# object bed_001
#

v  5.1253 2.7608 -1.2859
v  5.1271 2.7609 -3.3321
v  4.9212 2.9565 -3.3321
v  4.9204 2.9549 -1.2859
v  -4.9244 4.3368 -1.9107
v  -4.2656 4.8493 -1.9107
v  -4.2656 4.8493 -4.3309
v  -4.9244 4.3368 -4.3309
v  -0.7906 5.0836 -4.3355
v  -0.7906 4.9411 -2.0217
v  1.0311 4.8991 -2.1682
v  1.0311 4.8991 -4.5884
v  -2.6437 4.8939 -1.9437
v  -2.8035 4.8939 -4.3587
v  -5.2336 2.2172 -1.8973
v  -5.2336 2.2172 -4.3382
v  4.3026 4.9121 -2.6238
v  4.9237 4.4409 -2.6238
v  4.8867 4.3781 -5.0441
v  4.2656 4.8493 -5.0441
v  2.7814 4.8742 -4.8467
v  2.7999 4.8443 -2.5253
v  -1.1065 4.9767 -5.6666
v  -1.0109 5.7534 -7.1265
v  -1.9886 5.5316 -6.4675
v  -2.2450 4.9320 -5.5741
v  2.6938 4.8923 -5.9278
v  2.0192 5.7759 -6.8919
v  1.9431 4.9116 -5.9034
v  -2.7616 4.7844 -6.2007
v  -2.7536 4.6551 -5.5092
v  -2.7734 4.8218 -5.3980
v  -2.6845 5.0715 -6.2783
v  1.9061 4.6845 -5.9965
v  2.6812 4.6554 -6.0033
v  3.1047 4.7573 -6.0302
v  3.3161 4.7371 -6.0526
v  3.3485 4.8725 -6.0067
v  3.1304 4.9274 -5.9741
v  -2.9677 5.0063 -9.1928
v  -3.0182 4.8016 -9.1864
v  -1.1493 4.7417 -5.7063
v  -2.2549 4.4164 -6.1300
v  2.6938 4.3543 -6.6466
v  2.9727 5.0014 -7.0163
v  1.6314 5.4260 -9.5932
v  2.2305 5.2993 -9.8030
v  -2.5686 4.9537 -9.7004
v  -2.4628 5.1521 -9.3877
v  2.3413 5.3340 -8.6846
v  2.7475 5.0803 -8.7665
v  2.7645 4.8860 -8.7927
v  2.9274 4.7388 -6.9373
v  -2.5108 4.0382 -8.6660
v  -1.1268 5.8029 -8.1744
v  1.8156 5.6298 -8.2784
v  2.3446 4.4991 -8.9644
v  2.3019 5.3376 -9.4020
v  -2.6653 4.3437 -9.2835
v  2.8125 5.2499 -9.2892
v  2.4530 4.6708 -9.6560
v  -2.9755 5.0445 -9.7194
v  2.8655 5.4512 -9.9837
v  2.8674 5.0027 -9.4071
v  -2.6081 4.8106 -9.6887
v  2.2853 5.1172 -9.9379
v  -2.3380 4.6786 -5.6019
v  -2.7439 4.6434 -5.4095
v  -2.7659 4.7676 -5.2681
v  -3.0023 4.9527 -9.7162
v  2.9154 5.3740 -10.0325
v  5.1236 2.7607 0.7604
v  4.9196 2.9534 0.7604
v  4.2929 4.7662 -1.2768
v  0.9504 4.7797 -1.2801
v  1.4108 4.7799 0.7719
v  4.3190 4.7530 0.7784
v  4.3451 4.7398 2.8337
v  1.8712 4.7801 2.8239
v  2.3316 4.7803 4.8759
v  4.3711 4.7266 4.8889
v  2.7920 4.7806 6.9279
v  -4.2710 4.7805 7.0040
v  -4.2719 4.7807 9.0712
v  3.2524 4.7808 8.9800
v  -4.2693 4.7801 2.8696
v  -4.2702 4.7803 4.9368
v  -4.2676 4.7796 -1.2649
v  -4.2685 4.7798 0.8024
v  -4.8795 4.3004 -1.2830
v  -4.2668 4.7794 -3.3321
v  -4.8797 4.3011 -3.3321
v  4.8944 4.1867 2.8248
v  4.8895 4.2248 0.7725
v  -4.8788 4.2977 6.9134
v  -5.1813 2.2803 6.7815
v  -5.1877 2.2787 8.8043
v  -4.8787 4.2970 8.9625
v  4.8797 4.3011 -3.3321
v  4.2668 4.7794 -3.3321
v  4.8846 4.2630 -1.2798
v  4.9042 4.1103 6.9295
v  4.9091 4.0722 8.9818
v  4.9165 2.9471 8.9452
v  4.9173 2.9487 6.8990
v  4.3972 4.7134 6.9442
v  4.4233 4.7003 8.9994
v  0.4900 4.7794 -3.3321
v  -4.8888 2.9181 -10.0401
v  -5.0371 2.7776 -10.1804
v  -5.0371 2.7776 10.1804
v  -4.8888 2.9181 10.0401
v  -5.0371 0.2063 -10.1718
v  -5.0371 0.2063 10.1718
v  4.8888 2.9181 -10.0401
v  4.8888 2.9181 10.0401
v  5.0372 2.7776 10.1804
v  5.0371 2.7776 -10.1804
v  -4.8974 0.2049 -10.2983
v  -4.8976 2.7776 -10.3072
v  4.8976 2.7776 -10.3072
v  4.8975 0.2049 -10.2983
v  -4.7498 0.0000 -10.0940
v  -4.7498 0.0000 10.0940
v  4.7489 2.9181 -10.1675
v  -4.7488 2.9181 -10.1675
v  5.0372 0.4596 -9.9194
v  4.7591 0.4596 -9.9194
v  4.7591 0.4596 9.9193
v  5.0372 0.4596 9.9193
v  5.0372 0.2063 -10.1718
v  4.7498 0.0000 -10.0940
v  4.8976 2.7776 10.3072
v  -4.8976 2.7776 10.3072
v  -4.8974 0.2049 10.2983
v  4.8974 0.2049 10.2983
v  -4.7488 2.9181 10.1674
v  4.7489 2.9181 10.1674
v  4.7498 0.0000 10.0940
v  5.0372 0.2063 10.1718
v  3.9433 4.2300 -9.9716
v  3.9433 2.7423 -9.9716
v  -3.9433 2.7423 -9.9716
v  -3.9433 4.2300 -9.9716
v  4.7635 4.2300 9.3164
v  4.7635 2.7423 9.3164
v  4.7635 2.7423 -9.1514
v  4.7635 4.2300 -9.1514
v  -4.2142 2.4219 9.6185
v  -4.7635 2.7423 9.3164
v  -4.7635 2.7423 -9.1514
v  -4.2142 2.4219 -9.4535
v  -3.8346 2.2004 -9.0955
v  -3.8346 2.2004 9.2605
v  -4.2266 4.6458 -9.0717
v  4.2266 4.6458 -9.0717
v  -4.2262 4.6461 9.1293
v  4.2263 4.6461 9.1293
v  -4.7635 4.2300 -9.1514
v  -4.7635 4.2300 9.3164
v  -3.9433 2.7423 10.1366
v  3.9433 2.7423 10.1366
v  3.9433 4.2300 10.1366
v  -3.9433 4.2300 10.1366
v  4.2143 2.4219 -9.4535
v  3.8346 2.2004 -9.0955
v  4.2143 2.4219 9.6185
v  3.8346 2.2004 9.2605
v  4.8993 4.1485 4.8772
v  4.9188 2.9518 2.8066
v  4.9180 2.9502 4.8528
v  -5.1491 2.2884 -3.3321
v  -5.1555 2.2868 -1.3094
v  -5.1619 2.2852 0.7134
v  -4.8793 4.2997 0.7661
v  -5.1684 2.2835 2.7361
v  -4.8792 4.2991 2.8152
v  -5.1748 2.2819 4.7588
v  -4.8790 4.2984 4.8643
v  4.9358 3.0097 -2.6165
v  4.9320 3.0097 -5.0659
v  5.1184 2.7603 6.8990
v  5.1201 2.7604 4.8528
v  5.1488 2.7591 -2.6165
v  5.1469 2.7623 -5.0659
v  5.1219 2.7606 2.8066
v  5.1166 2.7602 8.9452
v  5.1390 2.0752 0.7604
v  5.1398 2.0768 -1.2859
v  5.1366 2.0706 6.8990
v  5.1374 2.0721 4.8528
v  5.1358 2.0690 8.9452
v  5.1406 2.0783 -3.3321
v  5.1382 2.0737 2.8066
v  5.1551 2.1316 -2.6165
v  5.1514 2.1316 -5.0659
v  5.0372 2.5242 -9.9263
v  5.0372 2.5243 9.9262
v  4.7591 2.5242 -9.9263
v  4.7591 2.5243 9.9262
# 200 vertices

vn 0.9702 0.2424 0.0007
vn 0.9702 0.2424 0.0006
vn 0.9874 0.1583 -0.0006
vn 0.9874 0.1581 -0.0000
vn -0.9388 0.3445 -0.0000
vn -0.2455 0.9694 0.0006
vn -0.9388 0.3445 -0.0006
vn 0.0005 0.9995 0.0312
vn 0.0004 0.9995 0.0312
vn 0.0449 0.9988 0.0183
vn 0.0449 0.9988 0.0184
vn -0.0464 0.9988 0.0181
vn -0.9895 0.1444 -0.0000
vn 0.2105 0.9775 -0.0156
vn 0.9449 0.3268 -0.0178
vn 0.0059 1.0000 0.0003
vn 0.0058 1.0000 0.0002
vn 0.0220 0.8370 0.5467
vn -0.0534 0.9622 0.2672
vn -0.2986 0.9442 0.1391
vn 0.0616 0.8539 0.5167
vn 0.0297 0.7472 0.6640
vn 0.1551 0.9553 0.2518
vn 0.0095 0.8232 0.5676
vn -0.8970 -0.4327 0.0903
vn -0.9952 0.0969 -0.0157
vn -0.5300 0.7893 0.3100
vn -0.6510 0.7582 0.0352
vn 0.0628 -0.2990 0.9522
vn 0.0418 -0.7621 0.6461
vn 0.0642 -0.7313 0.6790
vn 0.0483 -0.3344 0.9412
vn 0.4496 -0.8337 0.3207
vn 0.0635 -0.3270 0.9429
vn 0.1115 -0.3193 0.9411
vn -0.6296 0.7766 0.0211
vn -0.8963 -0.4353 0.0847
vn 0.0572 -0.7468 0.6626
vn -0.0646 -0.9884 0.1375
vn 0.1032 -0.9878 0.1169
vn 0.4532 0.8714 0.1875
vn 0.5750 0.8177 -0.0290
vn 0.7372 0.6691 -0.0938
vn -0.0044 0.9388 -0.3445
vn -0.0835 0.7103 -0.6989
vn -0.0608 0.6584 -0.7502
vn -0.1924 0.9542 -0.2289
vn 0.4742 0.8774 -0.0722
vn 0.7237 0.6891 -0.0370
vn 0.8427 -0.5289 -0.1002
vn 0.8311 -0.5328 -0.1593
vn -0.0633 -0.9976 -0.0280
vn -0.0809 0.9839 -0.1592
vn 0.0346 0.9814 -0.1886
vn 0.1079 -0.9928 -0.0522
vn 0.2144 0.9767 -0.0062
vn -0.0252 -0.8235 -0.5668
vn 0.2521 0.9479 0.1950
vn 0.0856 -0.8245 -0.5594
vn -0.0791 0.9105 -0.4059
vn -0.1385 0.9827 -0.1232
vn 0.9717 0.1632 0.1708
vn 0.8692 -0.4913 -0.0564
vn -0.0286 -0.4254 -0.9045
vn -0.0282 -0.4054 -0.9137
vn 0.2113 -0.2441 0.9465
vn 0.1646 -0.6684 0.7253
vn 0.0807 -0.2529 0.9641
vn -0.9859 -0.1651 0.0265
vn 0.3177 -0.7471 0.5839
vn -0.3241 -0.9436 0.0675
vn -0.9666 0.2533 0.0381
vn -0.6957 -0.4803 -0.5340
vn 0.9599 0.2229 0.1702
vn -0.3271 0.4546 -0.8284
vn 0.4499 -0.6331 -0.6299
vn 0.7718 -0.5921 -0.2318
vn 0.0038 0.8423 0.5390
vn 0.9021 -0.2075 -0.3784
vn 0.4976 -0.4306 0.7530
vn 0.9702 0.2423 0.0007
vn 0.9875 0.1577 -0.0000
vn 0.1302 0.9915 0.0039
vn 0.0015 1.0000 0.0009
vn 0.0031 1.0000 0.0006
vn 0.1576 0.9875 0.0026
vn 0.1927 0.9813 0.0018
vn 0.0047 1.0000 0.0003
vn 0.0062 1.0000 -0.0001
vn 0.2391 0.9710 0.0009
vn 0.0077 1.0000 -0.0004
vn -0.0627 0.9980 -0.0001
vn -0.0609 0.9981 -0.0034
vn 0.0084 1.0000 -0.0006
vn -0.0710 0.9975 -0.0001
vn -0.0666 0.9978 -0.0027
vn -0.0818 0.9966 -0.0001
vn -0.0760 0.9971 -0.0015
vn -0.9414 0.3372 -0.0011
vn -0.0851 0.9964 -0.0003
vn -0.9417 0.3363 -0.0008
vn 0.9520 0.3060 0.0009
vn 0.9484 0.3170 0.0011
vn -0.9391 0.3437 -0.0011
vn -0.9889 0.1483 -0.0014
vn -0.9887 0.1499 -0.0014
vn -0.9388 0.3445 -0.0011
vn 0.9429 0.3331 0.0015
vn 0.1187 0.9929 0.0044
vn 0.9447 0.3278 0.0014
vn 0.9591 0.2830 0.0004
vn 0.9608 0.2771 0.0003
vn 0.9877 0.1563 -0.0001
vn 0.9877 0.1565 -0.0006
vn 0.3027 0.9531 -0.0005
vn 0.3439 0.9390 -0.0014
vn 0.0008 1.0000 0.0012
vn -0.0143 0.9999 -0.0001
vn -0.9985 0.0546 -0.0068
vn -0.9985 0.0546 0.0068
vn -0.0143 0.9999 0.0001
vn -0.9947 -0.1023 -0.0066
vn -0.9947 -0.1023 0.0066
vn 0.0143 0.9999 -0.0001
vn 0.0143 0.9999 0.0001
vn 0.9453 0.3238 0.0404
vn 0.9453 0.3238 -0.0404
vn -0.0123 -0.0754 -0.9971
vn -0.0127 0.0481 -0.9988
vn 0.0127 0.0481 -0.9988
vn 0.0123 -0.0754 -0.9971
vn -0.4613 -0.8598 -0.2190
vn -0.4613 -0.8598 0.2190
vn 0.0060 0.8850 -0.4655
vn -0.0060 0.8850 -0.4655
vn 0.0000 1.0000 -0.0000
vn 0.8670 -0.4973 -0.0318
vn 0.4613 -0.8598 -0.2190
vn 0.0127 0.0481 0.9988
vn -0.0127 0.0481 0.9988
vn -0.0123 -0.0754 0.9971
vn 0.0122 -0.0754 0.9971
vn -0.0060 0.8850 0.4656
vn 0.0060 0.8850 0.4656
vn 0.4613 -0.8598 0.2190
vn 0.8670 -0.4973 0.0318
vn 0.0763 0.4169 -0.9057
vn 0.0713 -0.3803 -0.9221
vn -0.0713 -0.3803 -0.9221
vn -0.0762 0.4170 -0.9057
vn 0.9628 0.2677 0.0367
vn 0.9117 -0.4096 0.0316
vn 0.9117 -0.4096 -0.0316
vn 0.9631 0.2666 -0.0367
vn -0.3801 -0.9097 0.1673
vn -0.9117 -0.4096 0.0316
vn -0.9117 -0.4096 -0.0316
vn -0.3802 -0.9097 -0.1673
vn -0.3776 -0.9114 -0.1634
vn -0.3776 -0.9114 0.1634
vn -0.0455 0.9987 -0.0209
vn 0.0455 0.9987 -0.0208
vn -0.0452 0.9988 0.0207
vn 0.0452 0.9988 0.0207
vn -0.9631 0.2666 -0.0367
vn -0.9628 0.2677 0.0367
vn -0.0713 -0.3803 0.9221
vn 0.0713 -0.3803 0.9221
vn 0.0746 0.4573 0.8862
vn -0.0746 0.4573 0.8862
vn 0.3802 -0.9097 -0.1672
vn 0.3776 -0.9114 -0.1634
vn 0.3802 -0.9097 0.1673
vn 0.3776 -0.9114 0.1634
vn 0.9556 0.2946 0.0007
vn 0.9875 0.1574 -0.0006
vn 0.9876 0.1569 -0.0006
vn -0.9909 0.1342 -0.0014
vn -0.9907 0.1358 -0.0014
vn -0.9903 0.1389 -0.0014
vn -0.9409 0.3388 -0.0011
vn -0.9899 0.1421 -0.0014
vn -0.9403 0.3404 -0.0011
vn -0.9894 0.1452 -0.0014
vn -0.9397 0.3421 -0.0011
vn 0.9892 0.1462 -0.0043
vn 0.9892 0.1463 -0.0073
vn 0.9702 0.2424 -0.0009
vn 0.9702 0.2424 -0.0010
vn 0.9702 0.2424 0.0008
vn 0.9997 0.0225 0.0006
vn 0.9998 0.0211 0.0006
vn 0.9997 0.0264 0.0006
vn 0.9997 0.0251 0.0006
vn 0.9996 0.0271 0.0006
vn 0.9998 0.0205 0.0006
vn 0.9997 0.0238 0.0006
vn 1.0000 0.0086 -0.0012
vn 1.0000 0.0000 -0.0000
vn 0.0000 0.0033 1.0000
vn 0.0000 -1.0000 -0.0000
vn 0.0000 0.0033 -1.0000
# 202 vertex normals

vt 0.5986 0.1385 0.0000
vt 0.6176 0.3256 0.0000
vt 0.8468 0.2458 0.0000
vt 0.6178 0.3265 0.0000
vt 0.6178 0.3266 0.0000
vt 0.5988 0.1384 0.0000
vt 0.5986 0.1384 0.0000
vt 0.5987 0.1384 0.0000
vt 0.5987 0.1385 0.0000
vt 0.5988 0.1385 0.0000
vt 0.7745 0.3892 0.0000
vt 0.7746 0.3893 0.0000
vt 0.7745 0.3893 0.0000
vt 0.7746 0.3894 0.0000
vt 0.7746 0.3892 0.0000
vt 0.8467 0.2457 0.0000
vt 0.8467 0.2458 0.0000
vt 0.8467 0.2459 0.0000
vt 0.8468 0.2459 0.0000
vt 0.8509 0.1205 0.0000
vt 0.8509 0.1204 0.0000
# 21 texture coords

o bed_001
g bed_001
usemtl Material
s 1
f 1/1/1 2/1/2 3/1/3 
f 3/1/3 4/1/4 1/1/1 
f 5/2/5 6/2/6 7/2/6 
f 7/2/6 8/2/7 5/2/5 
f 9/2/8 10/2/9 11/2/10 
f 11/2/10 12/2/11 9/2/8 
f 13/2/12 10/2/9 9/2/8 
f 9/2/8 14/2/12 13/2/12 
f 15/2/13 5/2/5 8/2/7 
f 8/2/7 16/2/13 15/2/13 
f 17/2/14 18/2/15 19/2/15 
f 19/2/15 20/2/14 17/2/14 
f 6/2/6 13/2/12 14/2/12 
f 14/2/12 7/2/6 6/2/6 
f 21/2/16 22/2/17 17/2/14 
f 17/2/14 20/2/14 21/2/16 
f 23/3/18 24/3/19 25/3/20 
f 25/3/20 26/3/21 23/3/18 
f 27/3/22 28/3/23 29/3/24 
f 30/3/25 31/3/26 32/3/27 
f 32/3/27 33/3/28 30/3/25 
f 29/3/29 34/3/30 35/3/31 
f 35/3/31 27/3/32 29/3/29 
f 36/3/33 37/3/34 38/3/34 
f 38/3/34 39/3/35 36/3/33 
f 33/3/28 40/3/36 41/3/37 
f 41/3/37 30/3/25 33/3/28 
f 42/3/38 43/3/39 44/3/40 
f 44/3/40 34/3/30 42/3/38 
f 39/3/41 38/3/42 45/3/43 
f 45/3/43 28/3/23 39/3/41 
f 46/3/44 47/3/45 48/3/46 
f 48/3/46 49/3/47 46/3/44 
f 50/3/48 28/3/23 45/3/43 
f 45/3/43 51/3/49 50/3/48 
f 52/3/50 51/3/49 45/3/43 
f 45/3/43 53/3/51 52/3/50 
f 54/3/52 43/3/39 30/3/25 
f 30/3/25 41/3/37 54/3/52 
f 25/3/20 49/3/47 40/3/36 
f 40/3/36 33/3/28 25/3/20 
f 55/3/53 56/3/54 46/3/44 
f 46/3/44 49/3/47 55/3/53 
f 24/3/19 28/3/23 56/3/54 
f 56/3/54 55/3/53 24/3/19 
f 53/3/51 44/3/40 57/3/55 
f 57/3/55 52/3/50 53/3/51 
f 46/3/44 56/3/54 50/3/48 
f 50/3/48 58/3/56 46/3/44 
f 54/3/52 41/3/37 59/3/57 
f 50/3/48 51/3/49 60/3/58 
f 60/3/58 58/3/56 50/3/48 
f 57/3/55 54/3/52 59/3/57 
f 59/3/57 61/3/59 57/3/55 
f 47/3/45 46/3/44 58/3/56 
f 62/3/60 40/3/36 49/3/47 
f 58/3/56 63/3/61 47/3/45 
f 60/3/62 51/3/49 52/3/50 
f 52/3/50 64/3/63 60/3/62 
f 59/3/57 65/3/64 66/3/65 
f 66/3/65 61/3/59 59/3/57 
f 65/3/64 48/3/46 47/3/45 
f 47/3/45 66/3/65 65/3/64 
f 26/3/66 67/3/67 42/3/38 
f 42/3/38 23/3/68 26/3/66 
f 23/3/68 42/3/38 34/3/30 
f 34/3/30 29/3/29 23/3/68 
f 67/3/67 43/3/39 42/3/38 
f 27/3/32 35/3/31 36/3/33 
f 36/3/33 39/3/35 27/3/32 
f 25/3/20 24/3/19 55/3/53 
f 55/3/53 49/3/47 25/3/20 
f 57/3/55 61/3/59 64/3/63 
f 64/3/63 52/3/50 57/3/55 
f 57/3/55 44/3/40 43/3/39 
f 43/3/39 54/3/52 57/3/55 
f 68/3/69 69/3/69 32/3/27 
f 32/3/27 31/3/26 68/3/69 
f 34/3/30 44/3/40 35/3/31 
f 28/3/23 50/3/48 56/3/54 
f 67/3/67 68/3/70 31/3/71 
f 31/3/71 43/3/39 67/3/67 
f 40/3/36 62/3/72 70/3/73 
f 70/3/73 41/3/37 40/3/36 
f 41/3/37 70/3/73 59/3/57 
f 70/3/73 62/3/60 48/3/46 
f 48/3/46 65/3/64 70/3/73 
f 63/3/74 60/3/62 64/3/63 
f 64/3/63 71/3/74 63/3/74 
f 63/3/61 71/3/75 66/3/65 
f 66/3/65 47/3/45 63/3/61 
f 62/3/60 49/3/47 48/3/46 
f 70/3/73 65/3/64 59/3/57 
f 66/3/65 71/3/76 61/3/59 
f 60/3/58 63/3/61 58/3/56 
f 61/3/59 71/3/76 64/3/63 
f 53/3/51 37/3/77 36/3/33 
f 36/3/33 44/3/40 53/3/51 
f 39/3/41 28/3/23 27/3/22 
f 44/3/40 36/3/33 35/3/31 
f 32/3/27 69/3/78 26/3/21 
f 26/3/21 25/3/20 32/3/27 
f 31/3/71 30/3/25 43/3/39 
f 53/3/51 45/3/43 38/3/79 
f 38/3/79 37/3/77 53/3/51 
f 33/3/28 32/3/27 25/3/20 
f 69/3/80 68/3/70 67/3/67 
f 67/3/67 26/3/66 69/3/80 
f 24/3/19 23/3/18 29/3/24 
f 29/3/24 28/3/23 24/3/19 
f 12/2/11 11/2/10 22/2/17 
f 22/2/17 21/2/16 12/2/11 
f 72/4/81 1/5/1 4/5/4 
f 4/5/4 73/4/82 72/4/81 
f 74/4/83 75/4/84 76/4/85 
f 76/4/85 77/4/86 74/4/83 
f 78/4/87 79/4/88 80/4/89 
f 80/4/89 81/4/90 78/4/87 
f 82/5/91 83/5/92 84/5/93 
f 84/5/93 85/5/94 82/5/91 
f 79/4/88 86/4/95 87/4/96 
f 87/4/96 80/4/89 79/4/88 
f 75/4/84 88/4/97 89/4/98 
f 89/4/98 76/4/85 75/4/84 
f 90/6/99 88/6/97 91/6/100 
f 91/6/100 92/6/101 90/6/99 
f 77/1/86 78/7/87 93/7/102 
f 93/7/102 94/1/103 77/1/86 
f 95/5/104 96/4/105 97/4/106 
f 97/4/106 98/5/107 95/5/104 
f 99/8/108 100/8/109 74/8/83 
f 74/8/83 101/8/110 99/8/108 
f 102/4/111 103/4/112 104/4/113 
f 104/4/113 105/4/114 102/4/111 
f 76/8/85 89/6/98 86/6/95 
f 86/6/95 79/8/88 76/8/85 
f 106/5/115 107/5/116 103/4/112 
f 103/4/112 102/4/111 106/5/115 
f 80/9/89 87/10/96 83/10/92 
f 83/10/92 82/9/91 80/9/89 
f 108/8/117 91/6/100 88/6/97 
f 88/6/97 75/8/84 108/8/117 
f 81/9/90 80/9/89 82/9/91 
f 82/9/91 106/9/115 81/9/90 
f 106/5/115 82/5/91 85/5/94 
f 85/5/94 107/5/116 106/5/115 
f 77/8/86 76/8/85 79/8/88 
f 79/8/88 78/8/87 77/8/86 
f 100/8/109 108/8/117 75/8/84 
f 75/8/84 74/8/83 100/8/109 
f 109/11/118 110/12/119 111/12/120 
f 111/12/120 112/13/121 109/11/118 
f 113/12/122 114/12/123 111/12/120 
f 111/12/120 110/12/119 113/12/122 
f 115/12/124 116/14/125 117/12/126 
f 117/12/126 118/15/127 115/12/124 
f 119/12/128 120/12/129 121/12/130 
f 121/12/130 122/12/131 119/12/128 
f 123/12/132 124/14/133 114/14/123 
f 114/14/123 113/12/122 123/12/132 
f 125/12/134 126/12/135 109/12/118 
f 109/12/118 115/12/124 125/12/134 
f 121/12/130 120/12/129 126/12/135 
f 126/12/135 125/12/134 121/12/130 
f 127/11/136 128/11/136 129/13/136 
f 129/13/136 130/13/136 127/11/136 
f 109/12/118 112/14/121 116/14/125 
f 116/14/125 115/12/124 109/12/118 
f 123/12/132 113/12/122 119/12/128 
f 122/12/131 131/11/137 132/12/138 
f 121/12/130 125/12/134 115/12/124 
f 115/12/124 118/15/127 121/12/130 
f 109/12/118 126/12/135 120/12/129 
f 120/12/129 110/12/119 109/12/118 
f 118/15/127 131/11/137 122/12/131 
f 122/12/131 121/12/130 118/15/127 
f 113/12/122 110/12/119 120/12/129 
f 120/12/129 119/12/128 113/12/122 
f 123/12/132 119/12/128 122/12/131 
f 122/12/131 132/12/138 123/12/132 
f 133/12/139 134/12/140 135/12/141 
f 135/12/141 136/12/142 133/12/139 
f 112/14/121 137/14/143 138/14/144 
f 138/14/144 116/14/125 112/14/121 
f 137/14/143 134/14/140 133/12/139 
f 133/12/139 138/14/144 137/14/143 
f 124/14/133 135/14/141 114/14/123 
f 136/12/142 139/12/145 140/13/146 
f 116/14/125 138/14/144 133/12/139 
f 133/12/139 117/12/126 116/14/125 
f 112/14/121 111/14/120 134/14/140 
f 134/14/140 137/14/143 112/14/121 
f 136/12/142 140/13/146 117/12/126 
f 117/12/126 133/12/139 136/12/142 
f 134/12/140 111/12/120 114/12/123 
f 114/12/123 135/12/141 134/12/140 
f 136/12/142 135/12/141 124/14/133 
f 124/14/133 139/12/145 136/12/142 
f 132/12/138 131/11/137 140/13/146 
f 140/13/146 139/12/145 132/12/138 
f 141/3/147 142/3/148 143/3/149 
f 143/3/149 144/3/150 141/3/147 
f 145/16/151 146/16/152 147/17/153 
f 147/17/153 148/17/154 145/16/151 
f 149/18/155 150/17/156 151/16/157 
f 151/16/157 152/17/158 153/17/159 
f 149/18/155 151/16/157 153/17/159 
f 154/18/160 149/18/155 153/17/159 
f 141/17/147 144/16/150 155/3/161 
f 155/3/161 156/17/162 141/17/147 
f 155/3/161 157/19/163 158/18/164 
f 158/18/164 156/17/162 155/3/161 
f 157/19/163 155/3/161 159/16/165 
f 159/16/165 160/17/166 157/19/163 
f 161/17/167 162/3/168 163/3/169 
f 163/3/169 164/3/170 161/17/167 
f 152/17/158 143/16/149 142/17/148 
f 142/17/148 165/3/171 166/17/172 
f 152/17/158 142/17/148 166/17/172 
f 153/17/159 152/17/158 166/17/172 
f 146/18/152 167/18/173 168/18/174 
f 146/18/152 168/18/174 166/17/172 
f 146/18/152 166/17/172 165/3/171 
f 147/17/153 146/18/152 165/3/171 
f 157/19/163 164/17/170 163/18/169 
f 163/18/169 158/18/164 157/19/163 
f 168/18/174 167/18/173 162/18/168 
f 168/18/174 162/18/168 161/17/167 
f 168/18/174 161/17/167 149/18/155 
f 154/18/160 168/18/174 149/18/155 
f 150/17/156 160/17/166 159/16/165 
f 159/16/165 151/16/157 150/17/156 
f 141/17/147 156/17/162 148/17/154 
f 159/16/165 155/3/161 144/16/150 
f 147/3/153 165/3/171 142/3/148 
f 143/3/149 152/3/158 151/16/157 
f 145/3/151 158/18/164 163/3/169 
f 164/17/170 157/19/163 160/17/166 
f 162/3/168 167/3/173 146/3/152 
f 150/17/156 149/3/155 161/17/167 
f 148/17/154 147/17/153 142/17/148 
f 142/17/148 141/17/147 148/17/154 
f 151/16/157 159/16/165 144/16/150 
f 144/16/150 143/16/149 151/16/157 
f 163/3/169 162/3/168 146/3/152 
f 146/3/152 145/3/151 163/3/169 
f 161/17/167 164/17/170 160/17/166 
f 160/17/166 150/17/156 161/17/167 
f 158/18/164 145/18/151 148/17/154 
f 148/17/154 156/17/162 158/18/164 
f 101/5/110 74/4/83 77/4/86 
f 77/4/86 94/4/103 101/5/110 
f 78/4/87 81/4/90 169/4/175 
f 169/4/175 93/4/102 78/4/87 
f 81/7/90 106/7/115 102/7/111 
f 102/7/111 169/7/175 81/7/90 
f 3/1/3 99/1/108 101/1/110 
f 101/1/110 4/1/4 3/1/3 
f 101/5/110 94/4/103 73/4/82 
f 73/4/82 4/5/4 101/5/110 
f 94/1/103 93/7/102 170/7/176 
f 170/7/176 73/1/82 94/1/103 
f 93/4/102 169/4/175 171/4/177 
f 171/4/177 170/4/176 93/4/102 
f 169/7/175 102/7/111 105/7/114 
f 105/7/114 171/7/177 169/7/175 
f 92/9/101 172/9/178 173/9/179 
f 173/9/179 90/9/99 92/9/101 
f 90/4/99 173/5/179 174/4/180 
f 174/4/180 175/4/181 90/4/99 
f 175/9/181 174/9/180 176/8/182 
f 176/8/182 177/8/183 175/9/181 
f 177/4/183 176/4/182 178/4/184 
f 178/4/184 179/4/185 177/4/183 
f 179/8/185 178/8/184 96/8/105 
f 96/8/105 95/8/104 179/8/185 
f 98/5/107 84/5/93 83/5/92 
f 83/5/92 95/5/104 98/5/107 
f 95/10/104 83/10/92 87/10/96 
f 87/10/96 179/10/185 95/10/104 
f 179/4/185 87/4/96 86/4/95 
f 86/4/95 177/4/183 179/4/185 
f 177/6/183 86/6/95 89/6/98 
f 89/6/98 175/6/181 177/6/183 
f 175/4/181 89/4/98 88/4/97 
f 88/4/97 90/4/99 175/4/181 
f 19/2/15 18/2/15 180/2/186 
f 180/2/186 181/2/187 19/2/15 
f 182/7/81 183/7/1 171/7/177 
f 171/7/177 105/7/114 182/7/81 
f 184/2/188 185/2/189 181/2/187 
f 181/2/187 180/2/186 184/2/188 
f 186/7/1 72/1/81 73/1/82 
f 73/1/82 170/7/176 186/7/1 
f 187/4/190 182/4/81 105/4/114 
f 105/4/114 104/4/113 187/4/190 
f 183/4/1 186/4/1 170/4/176 
f 170/4/176 171/4/177 183/4/1 
f 188/4/191 189/5/192 1/5/1 
f 1/5/1 72/4/81 188/4/191 
f 190/7/193 191/7/194 183/7/1 
f 183/7/1 182/7/81 190/7/193 
f 192/4/195 190/4/193 182/4/81 
f 182/4/81 187/4/190 192/4/195 
f 189/1/192 193/1/196 2/1/2 
f 2/1/2 1/1/1 189/1/192 
f 191/4/194 194/4/197 186/4/1 
f 186/4/1 183/4/1 191/4/194 
f 195/2/198 196/2/198 185/2/189 
f 185/2/189 184/2/188 195/2/198 
f 194/7/197 188/1/191 72/1/81 
f 72/1/81 186/7/1 194/7/197 
f 127/11/199 131/11/137 118/15/127 
f 118/15/127 197/11/199 127/11/199 
f 198/13/199 117/12/126 140/13/146 
f 140/13/146 130/13/199 198/13/199 
f 130/13/199 140/13/146 131/11/137 
f 131/11/137 127/11/199 130/13/199 
f 197/11/199 118/15/127 117/12/126 
f 117/12/126 198/13/199 197/11/199 
f 199/20/199 200/21/199 129/21/199 
f 129/21/199 128/20/199 199/20/199 
f 197/11/200 199/11/200 128/11/200 
f 128/11/200 127/11/200 197/11/200 
f 198/13/201 200/13/201 199/11/201 
f 199/11/201 197/11/201 198/13/201 
f 130/13/202 129/13/202 200/13/202 
f 200/13/202 198/13/202 130/13/202 
f 123/12/201 132/12/201 139/12/201 
f 139/12/201 124/14/201 123/12/201 
# 330 faces

