# 3ds Max Wavefront OBJ Exporter v0.99 - (c)2007 guruware
# File Created: 10.05.2024 11:21:51

mtllib Comida3.mtl

#
# object drink_002
#

v  0.0204 1.6606 -0.4038
v  0.3598 1.6606 -0.1843
v  0.3598 0.0000 -0.1843
v  0.0204 0.0000 -0.4038
v  0.3395 1.6606 0.2195
v  0.3395 0.0000 0.2195
v  -0.3395 1.6606 -0.2195
v  -0.3395 0.0000 -0.2195
v  -0.3598 1.6606 0.1843
v  -0.3598 0.0000 0.1843
v  -0.0203 1.6606 0.4038
v  -0.0203 0.0000 0.4038
v  0.1842 2.1668 0.1191
v  -0.0110 2.1668 0.2191
v  -0.1952 2.1668 0.1000
v  -0.0076 2.4696 0.1519
v  -0.1354 2.4696 0.0693
v  0.1277 2.4696 0.0826
v  -0.1277 2.4696 -0.0826
v  -0.1842 2.1668 -0.1191
v  0.0077 2.4696 -0.1519
v  0.0111 2.1668 -0.2191
v  0.1354 2.4696 -0.0693
v  0.1953 2.1668 -0.1000
v  0.1528 2.4461 -0.0782
v  0.1442 2.6558 -0.0738
v  0.1360 2.6558 0.0879
v  0.1441 2.4461 0.0932
v  -0.0081 2.6558 0.1618
v  -0.0086 2.4461 0.1714
v  -0.1442 2.6558 0.0738
v  -0.1528 2.4461 0.0782
v  0.0082 2.6558 -0.1618
v  -0.1360 2.6558 -0.0879
v  -0.1441 2.4461 -0.0932
v  0.0086 2.4461 -0.1714
# 36 vertices

vn 0.0497 0.1654 -0.9850
vn 0.8778 0.1654 -0.4495
vn 0.8901 0.0000 -0.4558
vn 0.0503 0.0000 -0.9987
vn 0.8282 0.1654 0.5355
vn 0.8398 0.0000 0.5429
vn -0.8282 0.1654 -0.5355
vn -0.8398 0.0000 -0.5430
vn -0.8778 0.1654 0.4495
vn -0.8901 0.0000 0.4558
vn -0.0496 0.1654 0.9850
vn -0.0503 0.0000 0.9987
vn 0.8046 0.2864 0.5202
vn -0.0482 0.2864 0.9569
vn -0.8528 0.2864 0.4367
vn -0.0492 0.2168 0.9750
vn -0.8689 0.2168 0.4449
vn 0.8198 0.2168 0.5300
vn -0.8198 0.2168 -0.5300
vn -0.8046 0.2864 -0.5202
vn 0.0491 0.2168 -0.9750
vn 0.0482 0.2864 -0.9569
vn 0.8689 0.2168 -0.4449
vn 0.8528 0.2864 -0.4367
vn 0.8892 0.0461 -0.4553
vn 0.8389 0.0461 0.5423
vn 0.8389 0.0461 0.5424
vn -0.0503 0.0461 0.9977
vn -0.8892 0.0461 0.4553
vn -0.8891 0.0461 0.4553
vn 0.0000 1.0000 -0.0000
vn -0.8389 0.0460 -0.5423
vn 0.0503 0.0460 -0.9977
vn 0.0000 -1.0000 -0.0000
# 34 vertex normals

vt 0.8720 0.0683 0.0000
vt 0.8722 0.0683 0.0000
vt 0.8722 0.0698 0.0000
vt 0.8720 0.0698 0.0000
vt 0.8726 0.0683 0.0000
vt 0.8726 0.0698 0.0000
vt 0.8709 0.0691 0.0000
vt 0.8706 0.0691 0.0000
vt 0.8706 0.0676 0.0000
vt 0.8709 0.0676 0.0000
vt 0.8712 0.0683 0.0000
vt 0.8715 0.0683 0.0000
vt 0.8715 0.0698 0.0000
vt 0.8712 0.0698 0.0000
vt 0.8710 0.0683 0.0000
vt 0.8710 0.0698 0.0000
vt 0.8716 0.0683 0.0000
vt 0.8719 0.0683 0.0000
vt 0.8719 0.0698 0.0000
vt 0.8716 0.0698 0.0000
vt 0.8717 0.0679 0.0000
vt 0.8719 0.0679 0.0000
vt 0.8711 0.0679 0.0000
vt 0.8712 0.0679 0.0000
vt 0.8712 0.0676 0.0000
vt 0.8713 0.0676 0.0000
vt 0.8718 0.0676 0.0000
vt 0.8719 0.0676 0.0000
vt 0.8714 0.0676 0.0000
vt 0.8714 0.0679 0.0000
vt 0.8708 0.0695 0.0000
vt 0.8707 0.0698 0.0000
vt 0.8706 0.0698 0.0000
vt 0.8706 0.0695 0.0000
vt 0.8722 0.0679 0.0000
vt 0.8722 0.0676 0.0000
vt 0.8723 0.0676 0.0000
vt 0.8723 0.0679 0.0000
vt 0.8724 0.0676 0.0000
vt 0.8725 0.0679 0.0000
vt 0.3325 0.4245 0.0000
vt 0.3334 0.4245 0.0000
vt 0.3334 0.4252 0.0000
vt 0.3325 0.4252 0.0000
vt 0.3286 0.4248 0.0000
vt 0.3285 0.4257 0.0000
vt 0.3279 0.4257 0.0000
vt 0.3279 0.4248 0.0000
vt 0.3320 0.4229 0.0000
vt 0.3329 0.4230 0.0000
vt 0.3329 0.4234 0.0000
vt 0.3320 0.4233 0.0000
vt 0.3321 0.4225 0.0000
vt 0.3315 0.4229 0.0000
vt 0.3309 0.4226 0.0000
vt 0.3309 0.4219 0.0000
vt 0.3315 0.4215 0.0000
vt 0.3321 0.4218 0.0000
vt 0.3329 0.4241 0.0000
vt 0.3320 0.4241 0.0000
vt 0.3272 0.4257 0.0000
vt 0.3272 0.4248 0.0000
vt 0.3278 0.4248 0.0000
vt 0.3278 0.4257 0.0000
vt 0.3325 0.4241 0.0000
vt 0.3334 0.4241 0.0000
# 66 texture coords

o drink_002
g drink_002
usemtl Material
s 1
f 1/1/1 2/2/2 3/3/3 
f 3/3/3 4/4/4 1/1/1 
f 2/2/2 5/5/5 6/6/6 
f 6/6/6 3/3/3 2/2/2 
f 7/7/7 1/8/1 4/9/4 
f 4/9/4 8/10/8 7/7/7 
f 9/11/9 7/12/7 8/13/8 
f 8/13/8 10/14/10 9/11/9 
f 11/15/11 9/11/9 10/14/10 
f 10/14/10 12/16/12 11/15/11 
f 5/17/5 11/18/11 12/19/12 
f 12/19/12 6/20/6 5/17/5 
f 5/17/5 13/21/13 14/22/14 
f 14/22/14 11/18/11 5/17/5 
f 11/15/11 14/23/14 15/24/15 
f 15/24/15 9/11/9 11/15/11 
f 14/23/14 16/25/16 17/26/17 
f 17/26/17 15/24/15 14/23/14 
f 13/21/13 18/27/18 16/28/16 
f 16/28/16 14/22/14 13/21/13 
f 15/24/15 17/26/17 19/29/19 
f 19/29/19 20/30/20 15/24/15 
f 20/31/20 19/32/19 21/33/21 
f 21/33/21 22/34/22 20/31/20 
f 22/35/22 21/36/21 23/37/23 
f 23/37/23 24/38/24 22/35/22 
f 24/38/24 23/37/23 18/39/18 
f 18/39/18 13/40/13 24/38/24 
f 1/1/1 22/35/22 24/38/24 
f 24/38/24 2/2/2 1/1/1 
f 2/2/2 24/38/24 13/40/13 
f 13/40/13 5/5/5 2/2/2 
f 7/7/7 20/31/20 22/34/22 
f 22/34/22 1/8/1 7/7/7 
f 9/11/9 15/24/15 20/30/20 
f 20/30/20 7/12/7 9/11/9 
f 25/41/25 26/42/25 27/43/26 
f 27/43/26 28/44/27 25/41/25 
f 28/45/27 27/46/26 29/47/28 
f 29/47/28 30/48/28 28/45/27 
f 30/49/28 29/50/28 31/51/29 
f 31/51/29 32/52/30 30/49/28 
f 26/53/31 33/54/31 34/55/31 
f 34/55/31 31/56/31 29/57/31 
f 26/53/31 34/55/31 29/57/31 
f 27/58/31 26/53/31 29/57/31 
f 32/52/30 31/51/29 34/59/32 
f 34/59/32 35/60/32 32/52/30 
f 35/61/32 34/62/32 33/63/33 
f 33/63/33 36/64/33 35/61/32 
f 36/65/33 33/66/33 26/42/25 
f 26/42/25 25/41/25 36/65/33 
f 12/19/34 10/14/34 8/13/34 
f 8/13/34 4/9/34 3/3/34 
f 12/19/34 8/13/34 3/3/34 
f 6/20/34 12/19/34 3/3/34 
# 56 faces

