# 3ds Max Wavefront OBJ Exporter v0.99 - (c)2007 guruware
# File Created: 10.05.2024 11:18:38

mtllib Puerta.mtl

#
# object door_frame_001
#

v  1.2478 2.4149 -0.0000
v  1.2478 2.4149 0.1102
v  1.2478 0.0000 0.1102
v  1.2478 0.0000 -0.0000
v  -0.0930 2.4149 -0.0000
v  -0.0930 2.4149 0.1102
v  -0.0930 0.0000 -0.0000
v  -0.0930 0.0000 0.1102
v  1.0920 2.2693 0.1102
v  1.0920 0.0000 0.1102
v  0.0628 2.2693 0.1102
v  0.0628 0.0000 0.1102
v  0.0628 0.0000 -0.0000
v  0.0628 2.2693 -0.0000
v  1.0920 2.2693 -0.0000
v  1.0920 0.0000 -0.0000
v  1.2478 0.0000 -0.1102
v  1.2478 2.4149 -0.1102
v  -0.0930 2.4149 -0.1102
v  -0.0930 0.0000 -0.1102
v  1.0920 0.0000 -0.1102
v  1.0920 2.2693 -0.1102
v  0.0628 2.2693 -0.1102
v  0.0628 0.0000 -0.1102
# 24 vertices

vn 1.0000 0.0000 -0.0000
vn 0.0000 1.0000 -0.0000
vn -1.0000 0.0000 -0.0000
vn 0.0000 0.0000 1.0000
vn 0.0000 -1.0000 -0.0000
vn 0.0000 0.0000 -1.0000
# 6 vertex normals

vt 0.8459 0.2466 0.0000
# 1 texture coords

o door_frame_001
g door_frame_001
usemtl Material
s 1
f 1/1/1 2/1/1 3/1/1 
f 3/1/1 4/1/1 1/1/1 
f 5/1/2 6/1/2 2/1/2 
f 2/1/2 1/1/2 5/1/2 
f 7/1/3 8/1/3 6/1/3 
f 6/1/3 5/1/3 7/1/3 
f 3/1/4 2/1/4 9/1/4 
f 9/1/4 10/1/4 3/1/4 
f 6/1/4 11/1/4 9/1/4 
f 9/1/4 2/1/4 6/1/4 
f 8/1/4 12/1/4 11/1/4 
f 11/1/4 6/1/4 8/1/4 
f 12/1/1 13/1/1 14/1/1 
f 14/1/1 11/1/1 12/1/1 
f 9/1/3 15/1/3 16/1/3 
f 16/1/3 10/1/3 9/1/3 
f 11/1/5 14/1/5 15/1/5 
f 15/1/5 9/1/5 11/1/5 
f 17/1/1 18/1/1 1/1/1 
f 1/1/1 4/1/1 17/1/1 
f 18/1/2 19/1/2 5/1/2 
f 5/1/2 1/1/2 18/1/2 
f 19/1/3 20/1/3 7/1/3 
f 7/1/3 5/1/3 19/1/3 
f 17/1/6 21/1/6 22/1/6 
f 22/1/6 18/1/6 17/1/6 
f 22/1/6 23/1/6 19/1/6 
f 19/1/6 18/1/6 22/1/6 
f 23/1/6 24/1/6 20/1/6 
f 20/1/6 19/1/6 23/1/6 
f 14/1/1 13/1/1 24/1/1 
f 24/1/1 23/1/1 14/1/1 
f 16/1/3 15/1/3 22/1/3 
f 22/1/3 21/1/3 16/1/3 
f 15/1/5 14/1/5 23/1/5 
f 23/1/5 22/1/5 15/1/5 
f 7/1/5 20/1/5 24/1/5 
f 8/1/5 7/1/5 24/1/5 
f 8/1/5 24/1/5 13/1/5 
f 12/1/5 8/1/5 13/1/5 
f 16/1/5 21/1/5 17/1/5 
f 10/1/5 16/1/5 17/1/5 
f 10/1/5 17/1/5 4/1/5 
f 3/1/5 10/1/5 4/1/5 
# 44 faces

#
# object door_001
#

v  0.0135 1.5129 0.0362
v  1.0977 1.5129 0.0362
v  1.0977 1.5129 -0.0000
v  0.0135 1.5129 -0.0000
v  1.0024 2.1547 0.0694
v  0.1381 2.1547 0.0694
v  0.1381 2.1547 -0.0000
v  1.0024 2.1547 -0.0000
v  0.1381 0.1230 0.0694
v  0.1381 0.1230 -0.0000
v  -0.0000 0.0000 0.0694
v  1.0957 0.0000 0.0694
v  1.0024 0.1230 0.0694
v  -0.0000 2.2689 0.0694
v  0.0135 1.4702 0.0362
v  1.0977 1.4702 0.0362
v  0.0135 1.4702 -0.0000
v  1.0977 1.4702 -0.0000
v  0.4404 0.0698 0.0507
v  0.4404 2.2035 0.0507
v  0.3978 2.2035 0.0507
v  0.3978 0.0698 0.0507
v  0.6977 0.0698 0.0507
v  0.6978 2.2035 0.0507
v  0.6978 2.2035 -0.0000
v  0.6977 0.0698 -0.0000
v  0.7404 0.0698 0.0507
v  0.7404 2.2035 0.0507
v  0.7404 0.0698 -0.0000
v  0.7404 2.2035 -0.0000
v  1.0068 0.0743 0.0322
v  1.0068 2.1623 0.0322
v  0.0881 2.1623 0.0322
v  0.0881 0.0743 0.0322
v  1.0957 2.2689 0.0694
v  1.0024 0.1230 -0.0000
v  1.0957 0.0000 -0.0000
v  1.0957 2.2689 -0.0000
v  -0.0000 2.2689 -0.0000
v  1.0977 0.7610 0.0362
v  0.0135 0.7610 0.0362
v  0.0135 0.7610 -0.0000
v  1.0977 0.7610 -0.0000
v  1.0977 0.8037 0.0362
v  0.0135 0.8037 0.0362
v  1.0977 0.8037 -0.0000
v  0.0135 0.8037 -0.0000
v  0.3978 2.2035 -0.0000
v  0.3978 0.0698 -0.0000
v  -0.0000 0.0000 -0.0000
v  0.4404 0.0698 -0.0000
v  0.4404 2.2035 -0.0000
v  1.0977 1.5129 -0.0362
v  0.0135 1.5129 -0.0362
v  0.1381 2.1547 -0.0694
v  1.0024 2.1547 -0.0694
v  0.1381 0.1230 -0.0694
v  1.0957 0.0000 -0.0694
v  -0.0000 0.0000 -0.0694
v  1.0024 0.1230 -0.0694
v  -0.0000 2.2689 -0.0694
v  1.0977 1.4702 -0.0362
v  0.0135 1.4702 -0.0362
v  0.3978 2.2035 -0.0507
v  0.4404 2.2035 -0.0507
v  0.4404 0.0698 -0.0507
v  0.3978 0.0698 -0.0507
v  0.6978 2.2035 -0.0507
v  0.6977 0.0698 -0.0507
v  0.7404 2.2035 -0.0507
v  0.7404 0.0698 -0.0507
v  0.0881 2.1623 -0.0322
v  1.0068 2.1623 -0.0322
v  1.0068 0.0743 -0.0322
v  0.0881 0.0743 -0.0322
v  1.0957 2.2689 -0.0694
v  0.0135 0.7610 -0.0362
v  1.0977 0.7610 -0.0362
v  1.0977 0.8037 -0.0362
v  0.0135 0.8037 -0.0362
v  1.0088 1.0469 0.0794
v  1.0088 1.1921 0.0794
v  1.0088 1.1921 0.0661
v  1.0088 1.0469 0.0661
v  1.0807 1.1921 0.0794
v  1.0807 1.1921 0.0661
v  1.0807 1.0469 0.0794
v  1.0807 1.0469 0.0661
v  0.9013 1.1118 0.1183
v  0.9013 1.1118 0.1358
v  0.9013 1.1272 0.1358
v  0.9013 1.1272 0.1183
v  1.0578 1.1055 0.0744
v  1.0578 1.1055 0.1430
v  1.0317 1.1055 0.1112
v  1.0317 1.1055 0.0744
v  1.0578 1.1335 0.1430
v  1.0578 1.1335 0.0744
v  1.0317 1.1335 0.1112
v  1.0317 1.1335 0.0744
v  1.0088 1.1921 -0.0661
v  1.0088 1.1921 -0.0794
v  1.0088 1.0469 -0.0794
v  1.0088 1.0469 -0.0661
v  1.0807 1.1921 -0.0661
v  1.0807 1.1921 -0.0794
v  1.0807 1.0469 -0.0661
v  1.0807 1.0469 -0.0794
v  0.9013 1.1272 -0.1358
v  0.9013 1.1118 -0.1358
v  0.9013 1.1118 -0.1183
v  0.9013 1.1272 -0.1183
v  1.0578 1.1055 -0.0744
v  1.0317 1.1055 -0.0744
v  1.0317 1.1055 -0.1112
v  1.0578 1.1055 -0.1430
v  1.0578 1.1335 -0.1430
v  1.0578 1.1335 -0.0744
v  1.0317 1.1335 -0.1112
v  1.0317 1.1335 -0.0744
# 120 vertices

vn 0.0000 1.0000 -0.0000
vn 0.0000 -1.0000 -0.0000
vn 1.0000 0.0000 -0.0000
vn 0.0000 0.0000 1.0000
vn -1.0000 0.0000 -0.0000
vn 0.0000 0.0000 -1.0000
vn -0.0100 -0.9999 -0.0026
vn 0.0088 -0.9999 0.0067
vn 0.0088 0.9999 0.0067
vn -0.0100 0.9999 -0.0026
vn -1.0000 -0.0001 -0.0000
vn -0.0548 0.0000 -0.9985
vn -0.0546 -0.9982 0.0261
vn -0.0525 -0.9982 0.0287
vn -0.0438 -0.9988 0.0232
vn -0.0457 0.0000 0.9990
vn -0.0546 0.9982 0.0261
vn -0.0438 0.9988 0.0232
vn -0.0525 0.9982 0.0287
vn 0.0088 -0.9999 -0.0067
vn -0.0100 -0.9999 0.0026
vn -0.0100 0.9999 0.0026
vn 0.0088 0.9999 -0.0067
vn -0.0548 0.0000 0.9985
vn -0.0546 -0.9982 -0.0261
vn -0.0438 -0.9988 -0.0232
vn -0.0525 -0.9982 -0.0287
vn -0.0457 0.0000 -0.9990
vn -0.0438 0.9988 -0.0232
vn -0.0546 0.9982 -0.0261
vn -0.0525 0.9982 -0.0287
# 31 vertex normals

vt 0.8459 0.2466 0.0000
vt 0.3347 0.1046 0.0000
vt 0.3347 0.1164 0.0000
vt 0.3230 0.1164 0.0000
vt 0.3230 0.1046 0.0000
vt 0.8975 0.7948 0.0000
vt 0.8975 0.7939 0.0000
vt 0.8984 0.7939 0.0000
vt 0.8984 0.7948 0.0000
vt 0.8975 0.7930 0.0000
vt 0.8984 0.7930 0.0000
vt 0.8975 0.7921 0.0000
vt 0.8984 0.7921 0.0000
vt 0.8975 0.7911 0.0000
vt 0.8984 0.7911 0.0000
vt 0.8965 0.7948 0.0000
vt 0.8965 0.7939 0.0000
vt 0.8979 0.7948 0.0000
vt 0.8979 0.7939 0.0000
vt 0.8974 0.7921 0.0000
vt 0.8979 0.7911 0.0000
vt 0.8972 0.7934 0.0000
vt 0.8969 0.7948 0.0000
# 23 texture coords

o door_001
g door_001
usemtl Material
s 1
f 25/2/7 26/2/7 27/2/7 
f 27/2/7 28/2/7 25/2/7 
f 29/2/8 30/2/8 31/2/8 
f 31/2/8 32/2/8 29/2/8 
f 30/2/9 33/2/9 34/2/9 
f 34/2/9 31/2/9 30/2/9 
f 33/2/10 35/2/10 36/2/10 
f 36/2/10 37/2/10 33/2/10 
f 30/2/10 38/2/10 35/2/10 
f 35/2/10 33/2/10 30/2/10 
f 39/2/10 40/2/10 26/2/10 
f 26/2/10 25/2/10 39/2/10 
f 40/2/8 39/2/8 41/2/8 
f 41/2/8 42/2/8 40/2/8 
f 43/2/10 44/2/10 45/2/10 
f 45/2/10 46/2/10 43/2/10 
f 47/2/11 48/2/11 49/2/11 
f 49/2/11 50/2/11 47/2/11 
f 51/2/10 52/2/10 48/2/10 
f 48/2/10 47/2/10 51/2/10 
f 52/2/9 51/2/9 53/2/9 
f 53/2/9 54/2/9 52/2/9 
f 55/3/10 56/4/10 57/5/10 
f 57/5/10 58/6/10 55/3/10 
f 37/2/10 36/2/10 59/2/10 
f 59/2/10 29/2/10 37/2/10 
f 59/2/10 38/2/10 30/2/10 
f 30/2/10 29/2/10 59/2/10 
f 37/2/11 29/2/11 32/2/11 
f 32/2/11 60/2/11 37/2/11 
f 59/2/9 36/2/9 61/2/9 
f 61/2/9 62/2/9 59/2/9 
f 38/2/7 59/2/7 62/2/7 
f 62/2/7 63/2/7 38/2/7 
f 64/2/8 65/2/8 66/2/8 
f 66/2/8 67/2/8 64/2/8 
f 65/2/10 64/2/10 68/2/10 
f 68/2/10 69/2/10 65/2/10 
f 69/2/7 68/2/7 70/2/7 
f 70/2/7 71/2/7 69/2/7 
f 46/2/11 45/2/11 72/2/11 
f 72/2/11 73/2/11 46/2/11 
f 33/2/7 37/2/7 60/2/7 
f 60/2/7 34/2/7 33/2/7 
f 63/2/11 74/2/11 35/2/11 
f 35/2/11 38/2/11 63/2/11 
f 43/2/9 75/2/9 76/2/9 
f 76/2/9 44/2/9 43/2/9 
f 27/2/7 77/2/7 78/2/7 
f 78/2/7 28/2/7 27/2/7 
f 31/2/8 79/2/8 80/2/8 
f 80/2/8 32/2/8 31/2/8 
f 34/2/9 81/2/9 79/2/9 
f 79/2/9 31/2/9 34/2/9 
f 82/2/12 83/2/12 81/2/12 
f 81/2/12 84/2/12 82/2/12 
f 83/2/12 85/2/12 79/2/12 
f 79/2/12 81/2/12 83/2/12 
f 77/2/12 86/2/12 87/2/12 
f 87/2/12 78/2/12 77/2/12 
f 41/2/8 87/2/8 86/2/8 
f 86/2/8 42/2/8 41/2/8 
f 88/2/12 89/2/12 90/2/12 
f 90/2/12 91/2/12 88/2/12 
f 49/2/11 92/2/11 93/2/11 
f 93/2/11 50/2/11 49/2/11 
f 92/2/12 94/2/12 95/2/12 
f 95/2/12 93/2/12 92/2/12 
f 53/2/9 95/2/9 94/2/9 
f 94/2/9 54/2/9 53/2/9 
f 96/5/12 97/4/12 98/3/12 
f 98/3/12 99/6/12 96/5/12 
f 100/2/12 82/2/12 84/2/12 
f 84/2/12 80/2/12 100/2/12 
f 100/2/12 80/2/12 79/2/12 
f 79/2/12 85/2/12 100/2/12 
f 32/2/11 80/2/11 84/2/11 
f 84/2/11 60/2/11 32/2/11 
f 61/2/9 82/2/9 100/2/9 
f 100/2/9 62/2/9 61/2/9 
f 62/2/7 100/2/7 85/2/7 
f 85/2/7 63/2/7 62/2/7 
f 66/2/8 101/2/8 102/2/8 
f 102/2/8 67/2/8 66/2/8 
f 103/2/12 102/2/12 101/2/12 
f 101/2/12 104/2/12 103/2/12 
f 70/2/7 103/2/7 104/2/7 
f 104/2/7 71/2/7 70/2/7 
f 72/2/11 88/2/11 91/2/11 
f 91/2/11 73/2/11 72/2/11 
f 60/2/7 84/2/7 81/2/7 
f 81/2/7 34/2/7 60/2/7 
f 83/2/11 74/2/11 63/2/11 
f 63/2/11 85/2/11 83/2/11 
f 76/2/9 75/2/9 90/2/9 
f 90/2/9 89/2/9 76/2/9 
f 105/7/11 106/8/11 107/9/11 
f 107/9/11 108/10/11 105/7/11 
f 106/8/7 109/11/7 110/12/7 
f 110/12/7 107/9/7 106/8/7 
f 109/11/9 111/13/9 112/14/9 
f 112/14/9 110/12/9 109/11/9 
f 111/13/8 105/15/8 108/16/8 
f 108/16/8 112/14/8 111/13/8 
f 111/17/10 109/18/10 106/8/10 
f 106/8/10 105/7/10 111/17/10 
f 113/19/11 114/7/11 115/8/11 
f 115/8/11 116/20/11 113/19/11 
f 117/14/8 118/21/13 119/22/14 
f 119/22/14 120/16/8 117/14/8 
f 121/23/9 118/21/9 117/14/9 
f 117/14/9 122/12/9 121/23/9 
f 123/20/15 121/23/16 122/12/7 
f 122/12/7 124/9/7 123/20/15 
f 119/19/17 123/20/17 124/9/17 
f 124/9/17 120/10/17 119/19/17 
f 119/19/18 113/19/18 116/20/18 
f 116/20/18 123/20/18 119/19/18 
f 119/19/19 118/24/20 114/7/21 
f 114/7/21 113/19/21 119/19/19 
f 121/23/22 115/8/22 114/7/22 
f 114/7/22 118/24/22 121/23/22 
f 123/20/23 116/20/24 115/8/24 
f 115/8/24 121/23/25 123/20/23 
f 125/9/11 126/8/11 127/7/11 
f 127/7/11 128/10/11 125/9/11 
f 129/12/7 130/11/7 126/8/7 
f 126/8/7 125/9/7 129/12/7 
f 131/14/9 132/13/9 130/11/9 
f 130/11/9 129/12/9 131/14/9 
f 128/16/8 127/15/8 132/13/8 
f 132/13/8 131/14/8 128/16/8 
f 126/8/12 130/18/12 132/17/12 
f 132/17/12 127/7/12 126/8/12 
f 133/8/11 134/7/11 135/19/11 
f 135/19/11 136/20/11 133/8/11 
f 137/14/8 138/16/8 139/22/26 
f 139/22/26 140/21/27 137/14/8 
f 137/14/9 140/21/9 141/23/9 
f 141/23/9 142/12/9 137/14/9 
f 142/12/7 141/23/28 143/20/29 
f 143/20/29 144/9/7 142/12/7 
f 144/9/17 143/20/17 139/19/17 
f 139/19/17 138/10/17 144/9/17 
f 136/20/30 135/19/30 139/19/30 
f 139/19/30 143/20/30 136/20/30 
f 139/19/31 135/19/32 134/7/32 
f 134/7/32 140/24/33 139/19/31 
f 134/7/34 133/8/34 141/23/34 
f 141/23/34 140/24/34 134/7/34 
f 133/8/35 136/20/35 143/20/36 
f 143/20/36 141/23/37 133/8/35 
f 35/2/8 83/2/8 82/2/8 
f 82/2/8 36/2/8 35/2/8 
# 154 faces

