# 3ds Max Wavefront OBJ Exporter v0.99 - (c)2007 guruware
# File Created: 10.05.2024 11:02:39

mtllib Archivos.mtl

#
# object box_001
#

v  -0.1312 0.3053 -0.1527
v  0.1312 0.3053 -0.1527
v  0.1312 0.0000 -0.1527
v  -0.1312 0.0000 -0.1527
v  0.1312 0.3053 0.1527
v  0.1312 0.0000 0.1527
v  -0.1312 0.3053 0.1527
v  -0.1312 0.0000 0.1527
v  -0.1170 0.3053 0.1385
v  -0.1170 0.0691 0.1385
v  -0.1170 0.0691 -0.1385
v  -0.1170 0.3053 -0.1385
v  0.1170 0.3053 -0.1385
v  0.1170 0.3053 0.1385
v  0.1170 0.0691 -0.1385
v  0.1170 0.0691 0.1385
v  0.1241 0.2977 0.0007
v  -0.1241 0.2977 0.0007
v  -0.1241 0.0496 0.0007
v  0.1241 0.0496 0.0007
v  -0.1241 0.2977 -0.0135
v  0.1241 0.2977 -0.0135
v  0.1241 0.0615 -0.0135
v  -0.1241 0.0615 -0.0135
v  0.1086 0.3221 0.0077
v  -0.1086 0.3221 0.0089
v  -0.1086 0.0496 0.0083
v  0.1086 0.0496 0.0083
v  0.1086 0.3221 0.0186
v  -0.1086 0.3221 0.0186
v  -0.1086 0.0496 0.0186
v  0.1086 0.0496 0.0186
v  0.1086 0.3220 0.0268
v  -0.1086 0.3220 0.0268
v  -0.1086 0.0498 0.0395
v  0.1086 0.0498 0.0395
v  0.1086 0.3093 0.0336
v  -0.1086 0.3093 0.0336
v  -0.1086 0.0388 0.0667
v  0.1086 0.0388 0.0667
v  0.1086 0.3055 0.0511
v  -0.1086 0.3055 0.0511
v  -0.1086 0.0426 0.1228
v  0.1086 0.0426 0.1228
v  0.1086 0.3083 -0.1153
v  -0.1086 0.3083 -0.1153
v  -0.1086 0.0426 -0.0220
v  0.1086 0.0426 -0.0220
v  0.1086 0.3063 -0.1235
v  -0.1086 0.3063 -0.1235
v  -0.1086 0.0388 -0.0782
v  0.1086 0.0388 -0.0782
v  0.1086 0.3220 -0.1273
v  -0.1086 0.3220 -0.1273
v  -0.1086 0.0498 -0.1054
v  0.1086 0.0498 -0.1054
v  0.1086 0.3278 -0.1313
v  -0.1086 0.3278 -0.1313
v  -0.1086 0.0496 -0.1262
v  0.1086 0.0496 -0.1262
v  0.1086 0.3314 -0.1372
v  -0.1086 0.3314 -0.1359
v  -0.1086 0.0496 -0.1365
v  0.1086 0.0496 -0.1365
# 64 vertices

vn 0.0000 0.0000 -1.0000
vn 1.0000 0.0000 -0.0000
vn 0.0000 0.0000 1.0000
vn -1.0000 0.0000 -0.0000
vn 0.0000 1.0000 -0.0000
vn 0.0029 0.0000 1.0000
vn 0.0000 0.0464 0.9989
vn 0.0000 0.1215 0.9926
vn 0.0000 0.2630 0.9648
vn 0.0000 0.3313 0.9435
vn 0.0000 0.1671 0.9859
vn 0.0000 0.0802 0.9968
vn 0.0000 0.0182 0.9998
vn 0.0000 -1.0000 -0.0000
# 14 vertex normals

vt 0.7746 0.3886 0.0000
vt 0.7746 0.3887 0.0000
vt 0.7745 0.3887 0.0000
vt 0.7745 0.3886 0.0000
vt 0.7746 0.3889 0.0000
vt 0.7745 0.3889 0.0000
vt 0.7746 0.3891 0.0000
vt 0.7745 0.3891 0.0000
vt 0.7746 0.3893 0.0000
vt 0.7745 0.3893 0.0000
vt 0.7748 0.3891 0.0000
vt 0.7748 0.3889 0.0000
vt 0.8748 0.0651 0.0000
vt 0.8748 0.0646 0.0000
vt 0.8752 0.0646 0.0000
vt 0.8752 0.0651 0.0000
# 16 texture coords

o box_001
g box_001
usemtl Material
s 1
f 1/1/1 2/2/1 3/3/1 
f 3/3/1 4/4/1 1/1/1 
f 2/2/2 5/5/2 6/6/2 
f 6/6/2 3/3/2 2/2/2 
f 5/5/3 7/7/3 8/8/3 
f 8/8/3 6/6/3 5/5/3 
f 7/7/4 1/9/4 4/10/4 
f 4/10/4 8/8/4 7/7/4 
f 9/7/2 10/7/2 11/11/2 
f 11/11/2 12/11/2 9/7/2 
f 13/12/5 2/12/5 1/11/5 
f 1/11/5 12/11/5 13/12/5 
f 14/5/5 5/5/5 2/12/5 
f 2/12/5 13/12/5 14/5/5 
f 9/7/5 7/7/5 5/5/5 
f 5/5/5 14/5/5 9/7/5 
f 12/11/5 1/11/5 7/7/5 
f 7/7/5 9/7/5 12/11/5 
f 15/12/5 11/11/5 10/7/5 
f 10/7/5 16/5/5 15/12/5 
f 13/12/4 15/12/4 16/5/4 
f 16/5/4 14/5/4 13/12/4 
f 14/5/1 16/5/1 10/7/1 
f 10/7/1 9/7/1 14/5/1 
f 12/11/3 11/11/3 15/12/3 
f 15/12/3 13/12/3 12/11/3 
f 17/5/3 18/7/3 19/8/3 
f 19/8/3 20/6/3 17/5/3 
f 21/7/5 18/7/5 17/5/5 
f 17/5/5 22/5/5 21/7/5 
f 22/5/1 23/5/1 24/7/1 
f 24/7/1 21/7/1 22/5/1 
f 25/13/6 26/14/6 27/15/6 
f 27/15/6 28/16/6 25/13/6 
f 29/13/3 30/14/3 31/15/3 
f 31/15/3 32/16/3 29/13/3 
f 33/13/7 34/14/7 35/15/7 
f 35/15/7 36/16/7 33/13/7 
f 37/13/8 38/14/8 39/15/8 
f 39/15/8 40/16/8 37/13/8 
f 41/13/9 42/14/9 43/15/9 
f 43/15/9 44/16/9 41/13/9 
f 45/13/10 46/14/10 47/15/10 
f 47/15/10 48/16/10 45/13/10 
f 49/13/11 50/14/11 51/15/11 
f 51/15/11 52/16/11 49/13/11 
f 53/13/12 54/14/12 55/15/12 
f 55/15/12 56/16/12 53/13/12 
f 57/13/13 58/14/13 59/15/13 
f 59/15/13 60/16/13 57/13/13 
f 61/13/6 62/14/6 63/15/6 
f 63/15/6 64/16/6 61/13/6 
f 6/6/14 8/8/14 4/4/14 
f 4/4/14 3/3/14 6/6/14 
# 54 faces

