# 3ds Max Wavefront OBJ Exporter v0.99 - (c)2007 guruware
# File Created: 10.05.2024 11:29:44

mtllib Silla.mtl

#
# object kitchen_chair_001
#

v  -0.0000 6.0828 -2.1027
v  -0.0000 6.3745 -2.2423
v  -1.2170 6.3056 -2.0175
v  -1.1936 6.0761 -1.9223
v  -0.0000 3.5330 -0.2251
v  -1.4799 3.7030 -0.1978
v  -1.3696 3.4949 1.3771
v  -0.0000 3.4274 1.4232
v  -1.4623 3.9515 -1.1460
v  -0.0000 3.6558 -1.3527
v  1.8207 3.6657 0.9786
v  1.9346 3.8910 -0.1821
v  1.4799 3.7030 -0.1978
v  1.3695 3.4949 1.3771
v  1.9753 4.2840 -0.9663
v  1.4622 3.9515 -1.1460
v  1.8103 4.9131 -1.4619
v  1.3846 4.6020 -1.6090
v  -1.8104 4.9131 -1.4619
v  -1.3846 4.6020 -1.6090
v  -1.4416 6.1113 -1.8875
v  -0.0000 3.1207 1.6798
v  1.3333 3.2856 1.6044
v  1.7140 3.5109 1.4057
v  1.1935 6.0761 -1.9223
v  1.4415 6.1113 -1.8875
v  1.2169 6.3056 -2.0175
v  -1.3334 3.2856 1.6044
v  -1.8208 3.6657 0.9786
v  -1.9346 3.8910 -0.1821
v  -1.9754 4.2840 -0.9663
v  -0.0000 4.3139 -1.8424
v  -1.7141 3.5109 1.4057
v  -0.0000 6.0197 -2.3057
v  -1.2379 6.0162 -2.1189
v  -1.2491 6.2213 -2.2050
v  -0.0000 6.2872 -2.4334
v  -1.5472 3.7806 -1.2641
v  -0.0000 3.4623 -1.4763
v  -1.5377 3.3671 -0.2347
v  1.8793 3.4631 0.9438
v  1.3924 3.2996 1.2807
v  1.5377 3.3671 -0.2347
v  2.0232 3.7062 -0.2283
v  1.5471 3.7806 -1.2641
v  2.0938 4.1438 -1.0822
v  1.4578 4.5249 -1.7950
v  1.9041 4.8493 -1.6411
v  -1.4578 4.5249 -1.7950
v  -1.9042 4.8493 -1.6411
v  -1.5031 6.0579 -2.0815
v  1.3428 3.1392 1.4563
v  -0.0000 2.9781 1.5282
v  -0.0000 3.2285 1.3229
v  1.7306 3.3181 1.3138
v  1.2378 6.0162 -2.1189
v  1.2490 6.2213 -2.2050
v  1.5030 6.0579 -2.0815
v  -1.3429 3.1392 1.4563
v  -1.3925 3.2996 1.2807
v  -1.8794 3.4631 0.9438
v  -2.0233 3.7062 -0.2283
v  -2.0938 4.1438 -1.0822
v  -0.0000 4.2273 -2.0427
v  -1.7307 3.3181 1.3138
v  -1.7197 3.0195 1.1860
v  -1.6081 3.0195 1.3083
v  -1.8691 0.0000 1.5467
v  -1.9808 0.0000 1.4245
v  -1.6067 3.1264 1.0829
v  -1.0133 3.1901 0.5409
v  -0.9017 3.1901 0.6631
v  -1.4951 3.1264 1.2051
v  -1.8628 3.0072 1.3167
v  -2.1030 0.0000 1.5361
v  -1.4539 3.3557 1.1674
v  -0.9017 3.3557 0.6631
v  -1.7512 3.0072 1.4390
v  -1.9914 0.0000 1.6584
v  -1.6514 3.2536 1.3478
v  -1.5655 3.3557 1.0452
v  -1.7630 3.2536 1.2256
v  -1.0133 3.3557 0.5409
v  -1.8691 0.0000 -1.5467
v  -1.6081 3.1327 -1.3083
v  -1.7197 3.1327 -1.1860
v  -1.9808 0.0000 -1.4245
v  -0.9017 3.3033 -0.6631
v  -1.0133 3.3033 -0.5409
v  -1.6067 3.2396 -1.0829
v  -1.4951 3.2396 -1.2051
v  -1.0133 3.4689 -0.5409
v  -0.9017 3.4689 -0.6631
v  -1.4539 3.4689 -1.1674
v  -1.5655 3.4689 -1.0452
v  -1.8628 3.1204 -1.3167
v  -2.1030 0.0000 -1.5361
v  -1.9914 0.0000 -1.6584
v  -1.7512 3.1204 -1.4390
v  -1.6514 3.3668 -1.3478
v  -1.7630 3.3668 -1.2256
v  1.8691 0.0000 1.5467
v  1.6080 3.0195 1.3083
v  1.7196 3.0195 1.1860
v  1.9807 0.0000 1.4245
v  0.9016 3.1901 0.6631
v  1.0133 3.1901 0.5409
v  1.6067 3.1264 1.0829
v  1.4950 3.1264 1.2051
v  1.8627 3.0072 1.3167
v  2.1030 0.0000 1.5361
v  1.4538 3.3557 1.1674
v  0.9016 3.3557 0.6631
v  1.9913 0.0000 1.6584
v  1.7511 3.0072 1.4390
v  1.6513 3.2536 1.3478
v  1.7630 3.2536 1.2256
v  1.5654 3.3557 1.0452
v  1.0133 3.3557 0.5409
v  1.7196 3.1327 -1.1860
v  1.6080 3.1327 -1.3083
v  1.8691 0.0000 -1.5467
v  1.9807 0.0000 -1.4245
v  1.6067 3.2396 -1.0829
v  1.0133 3.3033 -0.5409
v  0.9016 3.3033 -0.6631
v  1.4950 3.2396 -1.2051
v  1.4538 3.4689 -1.1674
v  0.9016 3.4689 -0.6631
v  1.0133 3.4689 -0.5409
v  1.5654 3.4689 -1.0452
v  1.8627 3.1204 -1.3167
v  2.1030 0.0000 -1.5361
v  1.7511 3.1204 -1.4390
v  1.9913 0.0000 -1.6584
v  1.6513 3.3668 -1.3478
v  1.7630 3.3668 -1.2256
# 137 vertices

vn 0.0000 0.2020 0.9794
vn 0.0000 0.4158 0.9094
vn 0.1405 0.4109 0.9008
vn 0.1984 0.1950 0.9605
vn 0.0000 0.9918 0.1279
vn 0.1855 0.9718 0.1454
vn 0.1008 0.9752 0.1968
vn 0.0000 0.9763 0.2163
vn 0.2957 0.8248 0.4820
vn 0.0000 0.8718 0.4898
vn -0.3135 0.9408 0.1286
vn -0.4126 0.8863 0.2104
vn -0.1855 0.9718 0.1454
vn -0.1008 0.9752 0.1968
vn -0.5446 0.6544 0.5245
vn -0.2957 0.8248 0.4820
vn -0.4354 0.2923 0.8514
vn -0.2607 0.3173 0.9118
vn 0.4354 0.2923 0.8514
vn 0.2606 0.3173 0.9118
vn 0.3388 0.1888 0.9217
vn 0.0000 0.6849 0.7287
vn -0.0291 0.6874 0.7257
vn -0.0758 0.9124 0.4022
vn -0.1984 0.1951 0.9605
vn -0.3388 0.1888 0.9217
vn -0.1406 0.4109 0.9008
vn 0.0291 0.6874 0.7257
vn 0.3135 0.9408 0.1286
vn 0.4126 0.8863 0.2104
vn 0.5446 0.6544 0.5246
vn 0.0000 0.3334 0.9428
vn 0.0758 0.9124 0.4022
vn 0.0000 -0.1982 -0.9802
vn -0.1998 -0.1912 -0.9610
vn -0.1415 -0.4099 -0.9011
vn 0.0000 -0.4150 -0.9098
vn -0.3590 -0.7034 -0.6135
vn 0.0000 -0.8578 -0.5140
vn -0.1655 -0.9787 -0.1217
vn 0.4361 -0.8977 -0.0623
vn 0.1366 -0.9730 -0.1862
vn 0.2016 -0.9692 -0.1415
vn 0.5223 -0.8278 -0.2048
vn 0.3590 -0.7034 -0.6135
vn 0.5779 -0.6193 -0.5315
vn 0.2651 -0.3307 -0.9057
vn 0.4402 -0.3008 -0.8460
vn -0.2651 -0.3307 -0.9057
vn -0.4402 -0.3008 -0.8460
vn -0.3387 -0.1868 -0.9222
vn 0.0309 -0.6848 -0.7281
vn 0.0000 -0.6817 -0.7316
vn -0.0184 -0.9564 -0.2913
vn 0.0881 -0.9184 -0.3858
vn 0.1998 -0.1912 -0.9610
vn 0.1415 -0.4099 -0.9011
vn 0.3387 -0.1868 -0.9221
vn -0.0309 -0.6848 -0.7281
vn -0.0746 -0.9858 -0.1505
vn -0.4361 -0.8977 -0.0623
vn -0.5223 -0.8278 -0.2048
vn -0.5778 -0.6194 -0.5315
vn 0.0000 -0.3473 -0.9378
vn -0.0881 -0.9184 -0.3858
vn -0.9428 0.2582 0.2109
vn -0.9434 0.2526 0.2148
vn -0.7980 -0.2148 0.5631
vn -0.8072 -0.2025 0.5544
vn 0.8725 0.4080 0.2688
vn 0.8735 0.4063 0.2680
vn 0.8662 0.4637 0.1864
vn 0.8659 0.4645 0.1858
vn 0.8550 0.4358 0.2811
vn 0.9063 0.3645 0.2140
vn 0.9081 0.3617 0.2110
vn 0.8555 0.4352 0.2807
vn 0.2394 -0.6620 0.7102
vn 0.2385 -0.6625 0.7101
vn 0.7980 -0.2149 0.5630
vn 0.8072 -0.2026 0.5544
vn 0.9434 0.2525 0.2148
vn 0.9428 0.2582 0.2109
vn 0.2355 0.9052 -0.3538
vn 0.2350 0.9052 -0.3541
vn -0.9063 0.3645 0.2140
vn -0.9081 0.3617 0.2111
vn -0.8550 0.4359 0.2812
vn -0.8725 0.4080 0.2688
vn -0.8736 0.4063 0.2680
vn -0.8553 0.4353 0.2808
vn -0.2394 -0.6620 0.7102
vn -0.2385 -0.6625 0.7101
vn 0.0000 -0.7181 0.6960
vn -0.2355 0.9052 -0.3538
vn -0.2349 0.9052 -0.3540
vn -0.8662 0.4636 0.1865
vn -0.8659 0.4645 0.1859
vn 0.0000 0.9147 -0.4042
vn 0.7276 -0.1702 -0.6646
vn 0.7333 -0.1163 -0.6698
vn 0.1296 -0.9845 -0.1184
vn 0.0583 -0.9969 -0.0533
vn 0.1297 -0.9845 -0.1184
vn -0.6744 0.0000 -0.7384
vn 0.6744 0.0000 0.7384
vn -0.7304 0.1470 0.6670
vn -0.7303 0.1471 0.6671
vn -0.7341 0.1076 0.6705
vn 0.6744 0.0000 0.7383
vn 0.6745 0.0000 0.7383
vn -0.2632 0.9343 0.2404
vn -0.4832 0.7561 0.4414
vn 0.7337 -0.1122 0.6702
vn 0.7283 -0.1641 0.6653
vn 0.7283 -0.1640 0.6654
vn 0.0583 -0.9969 0.0533
vn 0.1296 -0.9845 0.1184
vn 0.0000 1.0000 -0.0000
vn -0.0739 0.9950 -0.0674
vn -0.0738 0.9950 -0.0674
vn -0.6744 0.0000 0.7384
vn 0.6744 0.0000 -0.7383
vn 0.6744 0.0000 -0.7384
vn -0.7344 0.1037 -0.6707
vn -0.7309 0.1420 -0.6676
vn -0.4832 0.7561 -0.4414
vn -0.4832 0.7560 -0.4414
vn -0.7333 -0.1163 -0.6698
vn -0.7276 -0.1702 -0.6646
vn -0.7274 -0.1702 -0.6647
vn -0.0583 -0.9969 -0.0533
vn -0.1296 -0.9845 -0.1184
vn -0.1296 -0.9845 -0.1183
vn 0.6743 0.0000 -0.7384
vn 0.7340 0.1076 0.6705
vn 0.7303 0.1471 0.6671
vn 0.7303 0.1470 0.6671
vn 0.4832 0.7561 0.4414
vn 0.2632 0.9343 0.2404
vn -0.7283 -0.1641 0.6653
vn -0.7284 -0.1641 0.6653
vn -0.7337 -0.1122 0.6702
vn -0.1296 -0.9845 0.1184
vn -0.0583 -0.9969 0.0533
vn 0.0739 0.9950 -0.0675
vn 0.0739 0.9950 -0.0674
vn 0.6743 0.0000 0.7384
vn 0.7308 0.1420 -0.6676
vn 0.7309 0.1420 -0.6676
vn 0.7343 0.1037 -0.6708
vn 0.4832 0.7561 -0.4414
vn 0.0000 -1.0000 -0.0000
# 153 vertex normals

vt 0.4940 0.2939 0.0000
vt 0.4941 0.2936 0.0000
vt 0.4948 0.2940 0.0000
vt 0.4947 0.2942 0.0000
vt 0.4964 0.2944 0.0000
vt 0.4965 0.2955 0.0000
vt 0.4952 0.2955 0.0000
vt 0.4951 0.2945 0.0000
vt 0.4972 0.2955 0.0000
vt 0.4973 0.2944 0.0000
vt 0.4954 0.2931 0.0000
vt 0.4963 0.2930 0.0000
vt 0.4963 0.2933 0.0000
vt 0.4951 0.2935 0.0000
vt 0.4969 0.2929 0.0000
vt 0.4971 0.2933 0.0000
vt 0.4998 0.2905 0.0000
vt 0.4997 0.2911 0.0000
vt 0.4993 0.2910 0.0000
vt 0.4993 0.2905 0.0000
vt 0.4948 0.2952 0.0000
vt 0.4944 0.2953 0.0000
vt 0.4949 0.2943 0.0000
vt 0.4949 0.2945 0.0000
vt 0.4949 0.2935 0.0000
vt 0.4951 0.2932 0.0000
vt 0.4996 0.2922 0.0000
vt 0.4997 0.2921 0.0000
vt 0.4996 0.2923 0.0000
vt 0.4951 0.2955 0.0000
vt 0.4956 0.2958 0.0000
vt 0.4965 0.2959 0.0000
vt 0.4971 0.2959 0.0000
vt 0.4949 0.2958 0.0000
vt 0.4945 0.2959 0.0000
vt 0.4989 0.2925 0.0000
vt 0.4984 0.2913 0.0000
vt 0.4952 0.2958 0.0000
vt 0.4935 0.2951 0.0000
vt 0.4935 0.2956 0.0000
vt 0.4989 0.2927 0.0000
vt 0.4984 0.2907 0.0000
vt 0.4963 0.2927 0.0000
vt 0.4970 0.2923 0.0000
vt 0.4971 0.2925 0.0000
vt 0.4963 0.2929 0.0000
vt 0.4997 0.2932 0.0000
vt 0.4998 0.2943 0.0000
vt 0.4989 0.2931 0.0000
vt 0.4978 0.2956 0.0000
vt 0.4975 0.2952 0.0000
vt 0.4987 0.2954 0.0000
vt 0.4987 0.2958 0.0000
vt 0.4995 0.2955 0.0000
vt 0.4994 0.2959 0.0000
vt 0.4958 0.2928 0.0000
vt 0.4953 0.2929 0.0000
vt 0.4953 0.2923 0.0000
vt 0.4957 0.2922 0.0000
vt 0.4968 0.2912 0.0000
vt 0.4972 0.2913 0.0000
vt 0.4972 0.2923 0.0000
vt 0.4974 0.2952 0.0000
vt 0.4974 0.2942 0.0000
vt 0.4976 0.2942 0.0000
vt 0.4975 0.2955 0.0000
vt 0.4955 0.2911 0.0000
vt 0.4956 0.2910 0.0000
vt 0.4957 0.2912 0.0000
vt 0.4975 0.2932 0.0000
vt 0.4977 0.2931 0.0000
vt 0.4980 0.2928 0.0000
vt 0.4996 0.2927 0.0000
vt 0.4968 0.2906 0.0000
vt 0.4973 0.2906 0.0000
vt 0.4948 0.2908 0.0000
vt 0.4943 0.2920 0.0000
vt 0.4977 0.2929 0.0000
vt 0.4958 0.2914 0.0000
vt 0.4958 0.2908 0.0000
vt 0.4948 0.2906 0.0000
vt 0.4943 0.2927 0.0000
vt 0.4977 0.2921 0.0000
vt 0.4978 0.2922 0.0000
vt 0.4977 0.2924 0.0000
vt 0.4975 0.2924 0.0000
vt 0.4939 0.2922 0.0000
vt 0.4941 0.2922 0.0000
vt 0.4935 0.2929 0.0000
vt 0.4933 0.2928 0.0000
vt 0.4941 0.2917 0.0000
vt 0.4940 0.2912 0.0000
vt 0.4942 0.2912 0.0000
vt 0.4943 0.2917 0.0000
vt 0.4933 0.2900 0.0000
vt 0.4935 0.2900 0.0000
vt 0.4936 0.2903 0.0000
vt 0.4935 0.2904 0.0000
vt 0.4937 0.2906 0.0000
vt 0.4936 0.2907 0.0000
vt 0.4947 0.2885 0.0000
vt 0.4946 0.2884 0.0000
vt 0.4947 0.2883 0.0000
vt 0.4948 0.2885 0.0000
vt 0.4981 0.2915 0.0000
vt 0.4982 0.2916 0.0000
vt 0.4982 0.2910 0.0000
vt 0.4980 0.2906 0.0000
vt 0.4981 0.2905 0.0000
vt 0.4984 0.2910 0.0000
vt 0.4974 0.2927 0.0000
vt 0.4975 0.2927 0.0000
vt 0.4973 0.2942 0.0000
vt 0.4974 0.2932 0.0000
vt 0.4947 0.2904 0.0000
vt 0.4948 0.2904 0.0000
vt 0.4947 0.2906 0.0000
vt 0.4946 0.2905 0.0000
vt 0.4974 0.2899 0.0000
vt 0.4975 0.2898 0.0000
vt 0.4949 0.2894 0.0000
vt 0.4950 0.2894 0.0000
vt 0.4973 0.2952 0.0000
vt 0.7750 0.3886 0.0000
vt 0.7750 0.3882 0.0000
vt 0.7740 0.3884 0.0000
vt 0.7740 0.3885 0.0000
vt 0.7752 0.3885 0.0000
vt 0.7751 0.3881 0.0000
vt 0.7745 0.3881 0.0000
vt 0.7745 0.3882 0.0000
vt 0.7744 0.3881 0.0000
vt 0.7744 0.3887 0.0000
vt 0.7740 0.3882 0.0000
vt 0.7741 0.3882 0.0000
vt 0.7741 0.3887 0.0000
vt 0.7740 0.3887 0.0000
vt 0.7741 0.3893 0.0000
vt 0.7752 0.3886 0.0000
vt 0.7751 0.3886 0.0000
vt 0.7741 0.3892 0.0000
vt 0.7737 0.3884 0.0000
vt 0.7737 0.3886 0.0000
vt 0.7737 0.3898 0.0000
vt 0.7738 0.3894 0.0000
vt 0.7737 0.3899 0.0000
vt 0.7736 0.3898 0.0000
vt 0.7735 0.3899 0.0000
vt 0.7735 0.3898 0.0000
vt 0.7735 0.3893 0.0000
vt 0.7737 0.3897 0.0000
vt 0.7736 0.3897 0.0000
vt 0.7741 0.3881 0.0000
vt 0.7741 0.3886 0.0000
vt 0.7738 0.3893 0.0000
vt 0.7737 0.3893 0.0000
vt 0.7738 0.3881 0.0000
vt 0.7738 0.3886 0.0000
vt 0.7742 0.3887 0.0000
vt 0.7743 0.3882 0.0000
vt 0.7744 0.3882 0.0000
vt 0.7747 0.3886 0.0000
vt 0.7745 0.3887 0.0000
vt 0.7745 0.3886 0.0000
vt 0.7746 0.3886 0.0000
vt 0.7747 0.3885 0.0000
vt 0.7750 0.3881 0.0000
vt 0.7743 0.3881 0.0000
vt 0.7742 0.3881 0.0000
vt 0.7742 0.3892 0.0000
vt 0.7742 0.3893 0.0000
vt 0.7738 0.3885 0.0000
vt 0.7738 0.3891 0.0000
vt 0.7736 0.3886 0.0000
vt 0.7736 0.3887 0.0000
vt 0.7735 0.3886 0.0000
vt 0.7735 0.3892 0.0000
vt 0.7735 0.3894 0.0000
vt 0.7738 0.3884 0.0000
vt 0.7736 0.3892 0.0000
# 180 texture coords

o kitchen_chair_001
g kitchen_chair_001
usemtl Material
s 1
f 1/1/1 2/2/2 3/3/3 
f 3/3/3 4/4/4 1/1/1 
f 5/5/5 6/6/6 7/7/7 
f 7/7/7 8/8/8 5/5/5 
f 9/9/9 6/6/6 5/5/5 
f 5/5/5 10/10/10 9/9/9 
f 11/11/11 12/12/12 13/13/13 
f 13/13/13 14/14/14 11/11/11 
f 12/12/12 15/15/15 16/16/16 
f 16/16/16 13/13/13 12/12/12 
f 15/17/15 17/18/17 18/19/18 
f 18/19/18 16/20/16 15/17/15 
f 19/21/19 20/22/20 4/4/4 
f 4/4/4 21/23/21 19/21/19 
f 5/5/5 13/13/13 16/16/16 
f 16/16/16 10/10/10 5/5/5 
f 8/8/8 22/24/22 23/25/23 
f 23/25/23 14/14/14 8/8/8 
f 14/14/14 24/26/24 11/11/11 
f 24/26/24 14/14/14 23/25/23 
f 25/27/25 26/28/26 27/29/27 
f 21/23/21 4/4/4 3/3/3 
f 28/30/28 22/24/22 8/8/8 
f 8/8/8 7/7/7 28/30/28 
f 29/31/29 7/7/7 6/6/6 
f 6/6/6 30/32/30 29/31/29 
f 30/32/30 6/6/6 9/9/9 
f 9/9/9 31/33/31 30/32/30 
f 31/34/31 9/35/9 20/22/20 
f 20/22/20 19/21/19 31/34/31 
f 1/36/1 32/37/32 18/19/18 
f 18/19/18 25/27/25 1/36/1 
f 25/27/25 18/19/18 17/18/17 
f 17/18/17 26/28/26 25/27/25 
f 29/31/29 33/38/33 7/7/7 
f 28/30/28 7/7/7 33/38/33 
f 20/22/20 32/39/32 1/1/1 
f 1/1/1 4/4/4 20/22/20 
f 9/35/9 10/40/10 32/39/32 
f 32/39/32 20/22/20 9/35/9 
f 1/36/1 25/27/25 27/29/27 
f 27/29/27 2/41/2 1/36/1 
f 14/14/14 13/13/13 5/5/5 
f 5/5/5 8/8/8 14/14/14 
f 16/20/16 18/19/18 32/37/32 
f 32/37/32 10/42/10 16/20/16 
f 34/43/34 35/44/35 36/45/36 
f 36/45/36 37/46/37 34/43/34 
f 38/47/38 39/48/39 40/49/40 
f 41/50/41 42/51/42 43/52/43 
f 43/52/43 44/53/44 41/50/41 
f 44/53/44 43/52/43 45/54/45 
f 45/54/45 46/55/46 44/53/44 
f 46/56/46 45/57/45 47/58/47 
f 47/58/47 48/59/48 46/56/46 
f 35/44/35 49/60/49 50/61/50 
f 50/61/50 51/62/51 35/44/35 
f 39/48/39 45/54/45 43/52/43 
f 52/63/52 53/64/53 54/65/54 
f 54/65/54 42/51/42 52/63/52 
f 42/51/42 41/50/41 55/66/55 
f 55/66/55 52/63/52 42/51/42 
f 56/67/56 57/68/57 58/69/58 
f 51/62/51 36/45/36 35/44/35 
f 54/65/54 53/64/53 59/70/59 
f 59/70/59 60/71/60 54/65/54 
f 40/49/40 60/71/60 61/72/61 
f 61/72/61 62/41/62 40/49/40 
f 38/47/38 40/49/40 62/41/62 
f 62/41/62 63/73/63 38/47/38 
f 49/60/49 38/74/38 63/75/63 
f 63/75/63 50/61/50 49/60/49 
f 34/76/34 56/67/56 47/58/47 
f 47/58/47 64/77/64 34/76/34 
f 48/59/48 47/58/47 56/67/56 
f 56/67/56 58/69/58 48/59/48 
f 61/72/61 60/71/60 65/78/65 
f 59/70/59 65/78/65 60/71/60 
f 34/43/34 64/79/64 49/60/49 
f 49/60/49 35/44/35 34/43/34 
f 38/74/38 49/60/49 64/79/64 
f 64/79/64 39/80/39 38/74/38 
f 57/68/57 56/67/56 34/76/34 
f 34/76/34 37/81/37 57/68/57 
f 40/49/40 39/48/39 43/52/43 
f 64/77/64 47/58/47 45/57/45 
f 45/57/45 39/82/39 64/77/64 
f 29/83/66 61/84/67 65/85/68 
f 65/85/68 33/86/69 29/83/66 
f 17/87/70 48/88/71 58/89/72 
f 58/89/72 26/90/73 17/87/70 
f 15/91/74 12/92/75 44/93/76 
f 44/93/76 46/94/77 15/91/74 
f 23/95/78 52/96/79 55/97/80 
f 55/97/80 24/98/81 23/95/78 
f 15/91/74 46/94/77 48/88/71 
f 48/88/71 17/87/70 15/91/74 
f 24/98/81 55/97/80 41/99/82 
f 41/99/82 11/100/83 24/98/81 
f 27/101/84 26/102/73 58/103/72 
f 58/103/72 57/104/85 27/101/84 
f 30/105/86 62/106/87 61/84/67 
f 61/84/67 29/83/66 30/105/86 
f 31/107/88 19/108/89 50/109/90 
f 50/109/90 63/110/91 31/107/88 
f 28/111/92 33/86/69 65/85/68 
f 65/85/68 59/112/93 28/111/92 
f 22/113/94 28/114/92 59/70/93 
f 59/70/93 53/64/94 22/113/94 
f 3/115/95 36/116/96 51/117/97 
f 51/117/97 21/118/98 3/115/95 
f 31/107/88 63/110/91 62/106/87 
f 62/106/87 30/105/86 31/107/88 
f 19/108/89 21/119/98 51/120/97 
f 51/120/97 50/109/90 19/108/89 
f 2/121/99 27/101/84 57/104/85 
f 57/104/85 37/122/99 2/121/99 
f 12/92/75 11/100/83 41/99/82 
f 41/99/82 44/93/76 12/92/75 
f 22/113/94 53/64/94 52/63/79 
f 52/63/79 23/123/78 22/113/94 
f 2/121/99 37/122/99 36/116/96 
f 36/116/96 3/115/95 2/121/99 
f 66/124/100 67/124/100 68/125/101 
f 68/125/101 69/125/101 66/124/100 
f 70/126/102 71/127/103 72/127/103 
f 72/127/103 73/126/104 70/126/102 
f 74/128/105 66/128/105 69/129/105 
f 69/129/105 75/129/105 74/128/105 
f 76/130/106 73/131/106 72/132/106 
f 72/132/106 77/132/106 76/130/106 
f 68/133/106 67/131/106 78/131/106 
f 78/131/106 79/133/106 68/133/106 
f 78/134/107 74/135/108 75/136/109 
f 75/136/109 79/137/109 78/134/107 
f 73/131/110 76/130/111 80/131/110 
f 80/131/110 78/131/106 67/131/106 
f 67/131/106 73/131/110 80/131/110 
f 81/138/112 82/138/113 80/138/113 
f 80/138/113 76/138/112 81/138/112 
f 82/135/113 74/135/108 78/134/107 
f 78/134/107 80/134/113 82/135/113 
f 66/128/105 74/128/105 82/139/105 
f 82/139/105 70/139/105 66/128/105 
f 70/139/105 82/139/105 81/139/105 
f 66/126/100 70/126/102 73/126/104 
f 73/126/104 67/126/100 66/126/100 
f 81/139/105 83/140/105 71/140/105 
f 71/140/105 70/139/105 81/139/105 
f 84/125/114 85/124/115 86/124/116 
f 86/124/116 87/125/114 84/125/114 
f 88/138/117 89/138/117 90/141/118 
f 90/141/118 91/141/118 88/138/117 
f 92/142/119 93/142/119 94/143/120 
f 94/143/120 95/143/121 92/142/119 
f 87/144/122 86/145/122 96/145/122 
f 96/145/122 97/146/122 87/144/122 
f 94/147/123 93/148/124 88/149/124 
f 88/149/124 91/147/123 94/147/123 
f 84/150/124 98/150/124 99/151/124 
f 99/151/124 85/152/124 84/150/124 
f 97/153/125 96/154/126 99/154/126 
f 99/154/126 98/153/125 97/153/125 
f 91/147/123 100/144/123 94/147/123 
f 85/152/124 99/151/124 100/144/123 
f 100/144/123 91/147/123 85/152/124 
f 100/143/127 101/143/128 95/143/121 
f 95/143/121 94/143/120 100/143/127 
f 99/154/126 96/154/126 101/136/128 
f 101/136/128 100/136/127 99/154/126 
f 86/145/122 90/155/122 101/155/122 
f 101/155/122 96/145/122 86/145/122 
f 90/155/122 95/155/122 101/155/122 
f 91/141/118 90/141/118 86/141/116 
f 86/141/116 85/141/115 91/141/118 
f 89/156/122 92/156/122 95/155/122 
f 95/155/122 90/155/122 89/156/122 
f 102/157/129 103/158/130 104/158/131 
f 104/158/131 105/157/129 102/157/129 
f 106/126/132 107/126/132 108/127/133 
f 108/127/133 109/127/134 106/126/132 
f 105/159/135 104/160/124 110/161/124 
f 110/161/124 111/159/135 105/159/135 
f 112/162/122 113/163/122 106/164/122 
f 106/164/122 109/165/122 112/162/122 
f 102/130/122 114/130/122 115/166/122 
f 115/166/122 103/166/122 102/130/122 
f 111/129/136 110/140/137 115/124/138 
f 115/124/138 114/167/136 111/129/136 
f 109/165/122 116/162/122 112/162/122 
f 103/166/122 115/166/122 116/162/122 
f 116/162/122 109/165/122 103/166/122 
f 116/138/139 117/138/139 118/138/140 
f 118/138/140 112/138/140 116/138/139 
f 115/124/138 110/140/137 117/140/139 
f 117/140/139 116/124/139 115/124/138 
f 104/160/124 108/160/124 117/160/124 
f 117/160/124 110/161/124 104/160/124 
f 108/160/124 118/168/123 117/160/124 
f 109/127/134 108/127/133 104/127/131 
f 104/127/131 103/127/130 109/127/134 
f 107/169/124 119/169/124 118/168/124 
f 118/168/124 108/160/124 107/169/124 
f 120/125/141 121/125/142 122/124/143 
f 122/124/143 123/124/143 120/125/141 
f 124/138/144 125/141/145 126/170/145 
f 126/170/145 127/171/144 124/138/144 
f 128/172/146 129/158/119 130/143/119 
f 130/143/119 131/172/147 128/172/146 
f 132/173/106 120/173/106 123/174/148 
f 123/174/148 133/143/148 132/173/106 
f 128/174/105 127/175/105 126/176/105 
f 126/176/105 129/176/105 128/174/105 
f 122/177/105 121/175/105 134/175/105 
f 134/175/105 135/177/105 122/177/105 
f 134/178/149 132/178/150 133/148/151 
f 133/148/151 135/149/151 134/178/149 
f 127/175/105 128/174/105 136/175/105 
f 136/175/105 134/175/105 121/175/105 
f 121/175/105 127/175/105 136/175/105 
f 131/172/147 137/142/152 136/179/152 
f 136/179/152 128/172/146 131/172/147 
f 137/150/152 132/178/150 134/178/149 
f 134/178/149 136/150/152 137/150/152 
f 120/173/106 132/173/106 137/173/106 
f 137/173/106 124/173/106 120/173/106 
f 124/173/106 137/173/106 131/173/106 
f 120/138/141 124/138/144 127/171/144 
f 127/171/144 121/171/142 120/138/141 
f 131/173/106 130/180/106 125/180/106 
f 125/180/106 124/173/106 131/173/106 
f 40/49/40 43/52/43 60/71/60 
f 60/71/60 43/52/43 54/65/54 
f 43/52/43 42/51/42 54/65/54 
f 111/129/153 114/130/153 102/157/153 
f 102/157/153 105/159/153 111/129/153 
f 68/133/153 79/137/153 75/129/153 
f 75/129/153 69/125/153 68/133/153 
f 84/125/153 87/144/153 97/153/153 
f 97/153/153 98/150/153 84/125/153 
f 133/143/153 123/124/153 122/177/153 
f 122/177/153 135/149/153 133/143/153 
# 242 faces

