# 3ds Max Wavefront OBJ Exporter v0.99 - (c)2007 guruware
# File Created: 12.05.2024 20:54:15

mtllib cuadro2.mtl

#
# object october_painting1
#

v  0.3900 0.2900 0.0100
v  0.3800 0.2800 0.0140
v  0.3800 -0.2800 0.0140
v  0.3900 -0.2900 0.0100
v  0.3600 0.2600 0.0140
v  0.3500 0.2500 0.0100
v  0.3500 -0.2500 0.0100
v  0.3600 -0.2600 0.0140
v  -0.3900 -0.2900 0.0100
v  -0.3800 -0.2800 0.0140
v  -0.3800 0.2800 0.0140
v  -0.3900 0.2900 0.0100
v  -0.3600 -0.2600 0.0140
v  -0.3500 -0.2500 0.0100
v  -0.3500 0.2500 0.0100
v  -0.3600 0.2600 0.0140
v  0.3700 0.2700 0.0161
v  0.3700 -0.2700 0.0161
v  -0.3700 -0.2700 0.0161
v  -0.3700 0.2700 0.0161
v  -0.3500 0.2500 0.0051
v  0.3500 0.2500 0.0051
v  0.3900 0.2900 -0.0000
v  -0.3900 0.2900 -0.0000
v  -0.3900 -0.2900 -0.0000
v  0.3900 -0.2900 -0.0000
v  0.3500 -0.2500 0.0051
v  -0.3500 -0.2500 0.0051
# 28 vertices

vn 0.3753 0.0000 0.9269
vn 0.3312 0.0000 0.9435
vn -0.2452 0.0000 0.9695
vn -0.3753 0.0000 0.9269
vn -0.3312 0.0000 0.9435
vn 0.2452 0.0000 0.9695
vn 0.0994 0.0000 0.9950
vn -0.0994 0.0000 0.9950
vn 0.0000 -1.0000 0.0000
vn 0.0000 1.0000 0.0000
vn 0.0000 0.0000 -1.0000
vn 1.0000 0.0000 0.0000
vn -1.0000 0.0000 0.0000
vn 0.0000 0.3753 0.9269
vn 0.0000 0.3312 0.9435
vn 0.0000 -0.2452 0.9695
vn 0.0000 -0.3753 0.9269
vn 0.0000 -0.3312 0.9435
vn 0.0000 0.2452 0.9695
vn 0.0000 0.0994 0.9950
vn 0.0000 -0.0994 0.9950
vn 0.0000 0.0000 1.0000
# 22 vertex normals

vt 0.8316 0.8421 0.0000
vt 0.8199 0.8548 0.0000
vt 0.1650 0.8548 0.0000
vt 0.1533 0.8421 0.0000
vt 0.7965 0.8786 0.0000
vt 0.7848 0.8912 0.0000
vt 0.2001 0.8912 0.0000
vt 0.1884 0.8786 0.0000
vt 0.1533 0.9791 0.0000
vt 0.1650 0.9665 0.0000
vt 0.8199 0.9665 0.0000
vt 0.8316 0.9791 0.0000
vt 0.1884 0.9426 0.0000
vt 0.2001 0.9300 0.0000
vt 0.7848 0.9300 0.0000
vt 0.7965 0.9426 0.0000
vt 0.8082 0.8667 0.0000
vt 0.1767 0.8667 0.0000
vt 0.1767 0.9546 0.0000
vt 0.8082 0.9546 0.0000
vt 0.1443 0.7032 0.0000
vt 0.8610 0.7030 0.0000
vt 0.8609 0.7119 0.0000
vt 0.1442 0.7120 0.0000
vt 0.9020 0.8078 0.0000
vt 0.0936 0.8078 0.0000
vt 0.0936 0.7944 0.0000
vt 0.9021 0.7944 0.0000
vt 0.0936 0.6365 0.0000
vt 0.9020 0.6365 0.0000
vt 0.9020 0.6499 0.0000
vt 0.0935 0.6499 0.0000
vt 0.8513 0.7411 0.0000
vt 0.1346 0.7413 0.0000
vt 0.1347 0.7325 0.0000
vt 0.8514 0.7323 0.0000
vt 0.0936 0.6139 0.0000
vt 0.0936 0.0126 0.0000
vt 0.9022 0.0126 0.0000
vt 0.9022 0.6139 0.0000
vt 0.1533 0.8304 0.0000
vt 0.8316 0.8304 0.0000
vt 0.8315 0.9909 0.0000
vt 0.1533 0.9909 0.0000
vt 0.7847 0.8989 0.0000
vt 0.2001 0.8989 0.0000
vt 0.2002 0.9224 0.0000
vt 0.7848 0.9224 0.0000
vt 0.1039 0.7805 0.0000
vt 0.8892 0.7805 0.0000
vt 0.1244 0.7540 0.0000
vt 0.8631 0.7539 0.0000
vt 0.8917 0.6638 0.0000
vt 0.1064 0.6638 0.0000
vt 0.8712 0.6903 0.0000
vt 0.1325 0.6904 0.0000
vt 0.1142 0.7671 0.0000
vt 0.8759 0.7670 0.0000
vt 0.8814 0.6772 0.0000
vt 0.1197 0.6773 0.0000
vt 0.9923 0.2867 0.0000
vt 0.9923 0.9890 0.0000
vt 0.0091 0.9890 0.0000
vt 0.0091 0.2867 0.0000
# 64 texture coords

o october_painting1
g october_painting1
usemtl 07___Default
s 1
f 1/1/1 2/2/2 3/3/2 4/4/1 
f 5/5/3 6/6/4 7/7/4 8/8/3 
f 9/9/4 10/10/5 11/11/5 12/12/4 
f 13/13/6 14/14/1 15/15/1 16/16/6 
f 17/17/7 5/5/3 8/8/3 18/18/7 
f 2/2/2 17/17/7 18/18/7 3/3/2 
f 10/10/5 19/19/8 20/20/8 11/11/5 
usemtl wire_134110008
f 21/21/9 22/22/9 6/23/9 15/24/9 
f 23/25/10 24/26/10 12/27/10 1/28/10 
f 25/29/9 26/30/9 4/31/9 9/32/9 
f 27/33/10 28/34/10 14/35/10 7/36/10 
usemtl 07___Default
f 19/19/8 13/13/6 16/16/6 20/20/8 
usemtl 02___Default
f 23/37/11 26/38/11 25/39/11 24/40/11 
usemtl wire_134110008
f 26/41/12 23/42/12 1/1/12 4/4/12 
f 24/43/13 25/44/13 9/9/13 12/12/13 
f 22/45/13 27/46/13 7/7/13 6/6/13 
f 28/47/12 21/48/12 15/15/12 14/14/12 
usemtl 07___Default
f 12/27/14 11/49/15 2/50/15 1/28/14 
f 16/51/16 15/34/17 6/33/17 5/52/16 
f 4/31/17 3/53/18 10/54/18 9/32/17 
f 8/55/19 7/22/14 14/21/14 13/56/19 
f 11/49/15 20/57/20 17/58/20 2/50/15 
f 20/57/20 16/51/16 5/52/16 17/58/20 
f 3/53/18 18/59/21 19/60/21 10/54/18 
f 18/59/21 8/55/19 13/56/19 19/60/21 
usemtl 03___Default
f 27/61/22 22/62/22 21/63/22 28/64/22 
# 26 polygons

