# 3ds Max Wavefront OBJ Exporter v0.99 - (c)2007 guruware
# File Created: 11.05.2024 21:15:34

mtllib Juguete5.mtl

#
# object bedside_table
#

v  -2.3741 3.9174 -1.6241
v  2.1054 3.9174 -1.6241
v  2.1054 6.5120 -1.6241
v  -2.3741 6.5120 -1.6241
v  2.1054 3.9174 2.9169
v  2.1054 6.5120 2.9169
v  -2.3741 3.9174 2.9169
v  -2.3741 1.1470 -1.6241
v  2.1054 1.1470 -1.6241
v  2.1054 3.7416 -1.6241
v  -2.3741 3.7416 -1.6241
v  2.1054 1.1470 2.9169
v  2.1054 3.7416 2.9169
v  -2.3741 1.1470 2.9169
v  -3.0419 0.8515 -2.9922
v  -3.0419 6.7606 -2.9922
v  2.8672 6.7606 -2.9922
v  2.8672 0.8515 -2.9922
v  2.8672 6.7606 2.9169
v  2.8672 0.8515 2.9169
v  -3.0419 0.8515 2.9169
v  -3.0419 6.7606 2.9169
v  3.3491 0.5611 -3.4742
v  -3.5239 0.5611 -3.4742
v  4.1120 6.7606 4.1617
v  -4.2868 6.7606 4.1617
v  4.1120 6.7606 -4.2371
v  4.1120 7.2301 -4.2371
v  4.1120 7.2301 4.1617
v  -4.2868 6.7606 -4.2371
v  -4.2868 7.2301 -4.2371
v  -4.2868 7.2301 4.1617
v  -2.3741 3.7416 2.9169
v  -2.3741 6.5120 2.9169
v  3.3491 0.5611 3.3989
v  3.3491 0.0149 3.3989
v  3.3491 0.0149 -3.4742
v  -3.5239 0.5611 3.3989
v  -3.5239 0.0149 3.3989
v  -3.5239 0.0149 -3.4742
# 40 vertices

vn -0.0000 0.0000 1.0000
vn -1.0000 0.0000 -0.0000
vn 0.0000 1.0000 0.0000
vn 0.0000 0.0000 -1.0000
vn 1.0000 -0.0000 0.0000
vn 0.0000 -0.0000 1.0000
vn 0.0000 0.8565 -0.5161
vn -0.0000 -1.0000 -0.0000
vn 0.0000 0.0000 1.0000
vn 0.0000 0.8565 0.5161
vn -0.5161 0.8565 -0.0000
vn 0.5161 0.8565 0.0000
# 12 vertex normals

vt 0.3750 0.0000 0.0000
vt 0.3750 0.2500 0.0000
vt 0.6250 0.2500 0.0000
vt 0.6250 0.0000 0.0000
vt 0.3750 0.3789 0.0000
vt 0.6250 0.3789 0.0000
vt 0.1250 0.5000 0.0000
vt 0.1250 0.7500 0.0000
vt 0.2539 0.7500 0.0000
vt 0.2539 0.5000 0.0000
vt 0.6250 0.5000 0.0000
vt 0.3750 0.5000 0.0000
vt 0.4973 0.5322 0.0000
vt 0.3875 0.5322 0.0000
vt 0.3875 0.7217 0.0000
vt 0.3750 0.7500 0.0000
vt 0.6250 0.7500 0.0000
vt 0.6250 1.0000 0.0000
vt 0.3750 1.0000 0.0000
vt 0.8750 0.5000 0.0000
vt 0.8750 0.7500 0.0000
vt 0.4973 0.7217 0.0000
vt 0.6145 0.5322 0.0000
vt 0.5047 0.5322 0.0000
vt 0.5047 0.7217 0.0000
vt 0.7461 0.7500 0.0000
vt 0.7461 0.5000 0.0000
vt 0.3750 0.8711 0.0000
vt 0.6250 0.8711 0.0000
vt 0.6145 0.7217 0.0000
# 30 texture coords

o bedside_table
g bedside_table
usemtl 01___Default
s off
f 1/1/1 2/2/1 3/3/1 
f 3/3/1 4/4/1 1/1/1 
f 2/2/2 5/5/2 6/6/2 
f 6/6/2 3/3/2 2/2/2 
f 2/7/3 1/8/3 7/9/3 
f 7/9/3 5/10/3 2/7/3 
f 8/1/1 9/2/1 10/3/1 
f 10/3/1 11/4/1 8/1/1 
f 9/2/2 12/5/2 13/6/2 
f 13/6/2 10/3/2 9/2/2 
f 9/7/3 8/8/3 14/9/3 
f 14/9/3 12/10/3 9/7/3 
f 15/1/4 16/4/4 17/3/4 
f 17/3/4 18/2/4 15/1/4 
f 18/2/5 17/3/5 19/11/5 
f 19/11/5 20/12/5 18/2/5 
f 20/12/6 13/13/6 12/14/6 
f 20/12/6 12/14/6 14/15/6 
f 20/12/6 14/15/6 21/16/6 
f 21/16/2 22/17/2 16/18/2 
f 16/18/2 15/19/2 21/16/2 
f 15/1/7 18/2/7 23/2/7 
f 23/2/7 24/1/7 15/1/7 
f 22/17/8 19/11/8 25/11/8 
f 25/11/8 26/17/8 22/17/8 
f 25/11/5 27/3/5 28/3/5 
f 28/3/5 29/11/5 25/11/5 
f 17/3/8 16/4/8 30/4/8 
f 30/4/8 27/3/8 17/3/8 
f 16/18/8 22/17/8 26/17/8 
f 26/17/8 30/18/8 16/18/8 
f 19/11/8 17/3/8 27/3/8 
f 27/3/8 25/11/8 19/11/8 
f 29/11/3 28/20/3 31/21/3 
f 31/21/3 32/17/3 29/11/3 
f 26/17/1 25/11/1 29/11/1 
f 29/11/1 32/17/1 26/17/1 
f 27/3/4 30/4/4 31/4/4 
f 31/4/4 28/3/4 27/3/4 
f 30/18/2 26/17/2 32/17/2 
f 32/17/2 31/18/2 30/18/2 
f 21/16/9 14/15/9 33/22/9 
f 13/13/9 20/12/9 19/11/9 
f 19/11/9 6/23/9 5/24/9 
f 13/13/9 19/11/9 5/24/9 
f 33/22/9 13/13/9 5/24/9 
f 33/22/9 5/24/9 7/25/9 
f 21/16/9 33/22/9 7/25/9 
f 21/16/9 7/25/9 22/17/9 
f 33/26/8 11/21/8 10/20/8 
f 10/20/8 13/27/8 33/26/8 
f 14/28/5 8/19/5 11/18/5 
f 11/18/5 33/29/5 14/28/5 
f 34/26/8 4/21/8 3/20/8 
f 3/20/8 6/27/8 34/26/8 
f 7/28/5 1/19/5 4/18/5 
f 4/18/5 34/29/5 7/28/5 
f 22/17/6 7/25/6 34/30/6 
f 22/17/6 34/30/6 6/23/6 
f 22/17/6 6/23/6 19/11/6 
f 23/2/5 35/12/5 36/12/5 
f 36/12/5 37/2/5 23/2/5 
f 20/12/10 21/16/10 38/16/10 
f 38/16/10 35/12/10 20/12/10 
f 21/16/11 15/19/11 24/19/11 
f 24/19/11 38/16/11 21/16/11 
f 18/2/12 20/12/12 35/12/12 
f 35/12/12 23/2/12 18/2/12 
f 37/7/8 36/12/8 39/16/8 
f 39/16/8 40/8/8 37/7/8 
f 35/12/1 38/16/1 39/16/1 
f 39/16/1 36/12/1 35/12/1 
f 24/1/4 23/2/4 37/2/4 
f 37/2/4 40/1/4 24/1/4 
f 38/16/2 24/19/2 40/19/2 
f 40/19/2 39/16/2 38/16/2 
# 76 faces

#
# object bedside_table_drawer
#

v  -0.4851 2.2565 2.9675
v  -0.4851 2.7260 2.9675
v  0.3103 2.7260 2.9675
v  0.3103 2.2565 2.9675
v  0.3103 2.7260 3.2023
v  0.3103 2.2565 3.2023
v  -0.4851 2.7260 3.2023
v  -0.4851 2.2565 3.2023
v  -2.3690 1.1473 -1.1686
v  -2.3690 3.7347 -1.1686
v  2.1061 3.7347 -1.1686
v  2.1061 1.1473 -1.1686
v  2.1061 3.7347 2.9917
v  2.1061 1.1473 2.9917
v  -2.3690 3.7347 2.9917
v  -2.3690 1.1473 2.9917
v  -2.2018 3.7347 2.8362
v  1.9388 3.7347 2.8362
v  1.9388 2.0912 2.8362
v  -2.2018 2.0912 2.8362
v  -2.2018 3.7347 -1.0132
v  1.9388 3.7347 -1.0131
v  1.9388 2.0912 -1.0131
v  -2.2018 2.0912 -1.0132
# 24 vertices

vn 0.0000 0.0000 -1.0000
vn 1.0000 -0.0000 0.0000
vn -0.0000 0.0000 1.0000
vn -1.0000 0.0000 -0.0000
vn -0.0000 -1.0000 -0.0000
vn 0.0000 1.0000 0.0000
vn 0.0000 1.0000 -0.0000
# 7 vertex normals

vt 0.3750 0.0000 0.0000
vt 0.6250 0.0000 0.0000
vt 0.6250 0.2500 0.0000
vt 0.3750 0.2500 0.0000
vt 0.6250 0.5000 0.0000
vt 0.3750 0.5000 0.0000
vt 0.6250 0.7500 0.0000
vt 0.3750 0.7500 0.0000
vt 0.6250 1.0000 0.0000
vt 0.3750 1.0000 0.0000
vt 0.1250 0.5000 0.0000
vt 0.1250 0.7500 0.0000
vt 0.8750 0.5000 0.0000
vt 0.8750 0.7500 0.0000
vt 0.6343 0.7407 0.0000
vt 0.6343 0.5093 0.0000
vt 0.8657 0.7407 0.0000
vt 0.8657 0.5093 0.0000
# 18 texture coords

o bedside_table_drawer
g bedside_table_drawer
usemtl 02___Default
s off
f 41/31/13 42/32/13 43/33/13 
f 43/33/13 44/34/13 41/31/13 
f 44/34/14 43/33/14 45/35/14 
f 45/35/14 46/36/14 44/34/14 
f 46/36/15 45/35/15 47/37/15 
f 47/37/15 48/38/15 46/36/15 
f 48/38/16 47/37/16 42/39/16 
f 42/39/16 41/40/16 48/38/16 
f 44/41/17 46/36/17 48/38/17 
f 48/38/17 41/42/17 44/41/17 
f 45/35/18 43/43/18 42/44/18 
f 42/44/18 47/37/18 45/35/18 
usemtl 03___Default
f 49/31/13 50/32/13 51/33/13 
f 51/33/13 52/34/13 49/31/13 
f 52/34/14 51/33/14 53/35/14 
f 53/35/14 54/36/14 52/34/14 
f 54/36/15 53/35/15 55/37/15 
f 55/37/15 56/38/15 54/36/15 
f 56/38/16 55/37/16 50/39/16 
f 50/39/16 49/40/16 56/38/16 
f 52/41/17 54/36/17 56/38/17 
f 56/38/17 49/42/17 52/41/17 
f 57/45/13 58/46/13 59/46/13 
f 59/46/13 60/45/13 57/45/13 
f 61/47/19 62/48/19 51/43/19 
f 51/43/19 50/44/19 61/47/19 
f 62/48/18 58/46/18 53/35/18 
f 53/35/18 51/43/18 62/48/18 
f 58/46/18 57/45/18 55/37/18 
f 55/37/18 53/35/18 58/46/18 
f 57/45/18 61/47/18 50/44/18 
f 50/44/18 55/37/18 57/45/18 
f 59/46/18 63/48/18 64/47/18 
f 64/47/18 60/45/18 59/46/18 
f 62/48/15 61/47/15 64/47/15 
f 64/47/15 63/48/15 62/48/15 
f 61/47/14 57/45/14 60/45/14 
f 60/45/14 64/47/14 61/47/14 
f 58/46/16 62/48/16 63/48/16 
f 63/48/16 59/46/16 58/46/16 
# 40 faces

#
# object bedside_table_drawer_001
#

v  -0.4851 5.0269 2.9675
v  -0.4851 5.4965 2.9675
v  0.3103 5.4965 2.9675
v  0.3103 5.0269 2.9675
v  0.3103 5.4965 3.2023
v  0.3103 5.0269 3.2023
v  -0.4851 5.4965 3.2023
v  -0.4851 5.0269 3.2023
v  -2.3690 3.9177 -1.1686
v  -2.3690 6.5051 -1.1686
v  2.1061 6.5051 -1.1686
v  2.1061 3.9177 -1.1686
v  2.1061 6.5051 2.9917
v  2.1061 3.9177 2.9917
v  -2.3690 6.5051 2.9917
v  -2.3690 3.9177 2.9917
v  -2.2018 6.5051 2.8362
v  1.9388 6.5051 2.8362
v  1.9388 4.8616 2.8362
v  -2.2018 4.8616 2.8362
v  -2.2018 6.5051 -1.0132
v  1.9388 6.5051 -1.0131
v  1.9388 4.8616 -1.0131
v  -2.2018 4.8616 -1.0132
# 24 vertices

vn 0.0000 0.0000 -1.0000
vn 1.0000 -0.0000 0.0000
vn -0.0000 0.0000 1.0000
vn -1.0000 0.0000 -0.0000
vn -0.0000 -1.0000 -0.0000
vn 0.0000 1.0000 0.0000
# 6 vertex normals

vt 0.3750 0.0000 0.0000
vt 0.6250 0.0000 0.0000
vt 0.6250 0.2500 0.0000
vt 0.3750 0.2500 0.0000
vt 0.6250 0.5000 0.0000
vt 0.3750 0.5000 0.0000
vt 0.6250 0.7500 0.0000
vt 0.3750 0.7500 0.0000
vt 0.6250 1.0000 0.0000
vt 0.3750 1.0000 0.0000
vt 0.1250 0.5000 0.0000
vt 0.1250 0.7500 0.0000
vt 0.8750 0.5000 0.0000
vt 0.8750 0.7500 0.0000
vt 0.6343 0.7407 0.0000
vt 0.6343 0.5093 0.0000
vt 0.8657 0.7407 0.0000
vt 0.8657 0.5093 0.0000
# 18 texture coords

o bedside_table_drawer_001
g bedside_table_drawer_001
usemtl 02___Default
s off
f 65/49/20 66/50/20 67/51/20 
f 67/51/20 68/52/20 65/49/20 
f 68/52/21 67/51/21 69/53/21 
f 69/53/21 70/54/21 68/52/21 
f 70/54/22 69/53/22 71/55/22 
f 71/55/22 72/56/22 70/54/22 
f 72/56/23 71/55/23 66/57/23 
f 66/57/23 65/58/23 72/56/23 
f 68/59/24 70/54/24 72/56/24 
f 72/56/24 65/60/24 68/59/24 
f 69/53/25 67/61/25 66/62/25 
f 66/62/25 71/55/25 69/53/25 
usemtl 03___Default
f 73/49/20 74/50/20 75/51/20 
f 75/51/20 76/52/20 73/49/20 
f 76/52/21 75/51/21 77/53/21 
f 77/53/21 78/54/21 76/52/21 
f 78/54/22 77/53/22 79/55/22 
f 79/55/22 80/56/22 78/54/22 
f 80/56/23 79/55/23 74/57/23 
f 74/57/23 73/58/23 80/56/23 
f 76/59/24 78/54/24 80/56/24 
f 80/56/24 73/60/24 76/59/24 
f 81/63/20 82/64/20 83/64/20 
f 83/64/20 84/63/20 81/63/20 
f 85/65/25 86/66/25 75/61/25 
f 75/61/25 74/62/25 85/65/25 
f 86/66/25 82/64/25 77/53/25 
f 77/53/25 75/61/25 86/66/25 
f 82/64/25 81/63/25 79/55/25 
f 79/55/25 77/53/25 82/64/25 
f 81/63/25 85/65/25 74/62/25 
f 74/62/25 79/55/25 81/63/25 
f 83/64/25 87/66/25 88/65/25 
f 88/65/25 84/63/25 83/64/25 
f 86/66/22 85/65/22 88/65/22 
f 88/65/22 87/66/22 86/66/22 
f 85/65/21 81/63/21 84/63/21 
f 84/63/21 88/65/21 85/65/21 
f 82/64/23 86/66/23 87/66/23 
f 87/66/23 83/64/23 82/64/23 
# 40 faces

